<svg id="Layer_3" data-name="Layer 3" xmlns="http://www.w3.org/2000/svg" viewBox="0 0 147.68 145.55"><title>chapter-selbri</title><path d="M264.05,146.54c5.63,0,10.21-4,10.21-8.82s-4.58-8.81-10.21-8.81-10.21,4-10.21,8.81S258.42,146.54,264.05,146.54Zm-8.11-7.82h7.11v5.76C259.39,144.11,256.48,141.74,255.94,138.72Zm9.11,5.76v-5.76h7.11C271.62,141.74,268.71,144.11,265.05,144.48Zm7.11-7.76h-7.11V131C268.71,131.34,271.62,133.71,272.16,136.72ZM263.05,131v5.76h-7.11C256.48,133.71,259.39,131.34,263.05,131Z" transform="translate(-190.21 -115.98)"/><path d="M270.52,205.05H257.59v24.23h12.93Zm-1,23.23H258.59V206.05h10.93Z" transform="translate(-190.21 -115.98)"/><path d="M231.32,166.93a3,3,0,0,0,1.83-.52,1.65,1.65,0,0,0,.71-1.39,1.76,1.76,0,0,0-.59-1.34,3.91,3.91,0,0,0-1.7-.82,3.84,3.84,0,0,1-1.35-.54.94.94,0,0,1-.42-.78,1,1,0,0,1,.41-.84,1.81,1.81,0,0,1,1.17-.33,2.68,2.68,0,0,1,.85.12,2,2,0,0,1,.59.31l.18,1h.73v-1.33a3.17,3.17,0,0,0-1-.62,3.47,3.47,0,0,0-1.36-.26,2.92,2.92,0,0,0-1.84.56,1.69,1.69,0,0,0-.7,1.39,1.63,1.63,0,0,0,.63,1.31,4.3,4.3,0,0,0,1.76.79,3.13,3.13,0,0,1,1.3.56,1.06,1.06,0,0,1,.36.81,1,1,0,0,1-.42.84,1.94,1.94,0,0,1-1.15.31,2.53,2.53,0,0,1-.92-.15,2.29,2.29,0,0,1-.67-.38l-.18-1h-.72V166a2.89,2.89,0,0,0,1,.7A3.73,3.73,0,0,0,231.32,166.93Z" transform="translate(-190.21 -115.98)"/><path d="M237.18,166.21l-.8-.14v-3.14a1.46,1.46,0,0,1,.54-.51,1.39,1.39,0,0,1,.72-.19,1.07,1.07,0,0,1,.84.31,1.46,1.46,0,0,1,.28,1v2.56l-.8.14v.62h2.56v-.62l-.8-.14v-2.55a2.27,2.27,0,0,0-.47-1.57,1.73,1.73,0,0,0-1.32-.5,1.87,1.87,0,0,0-.88.21,2,2,0,0,0-.67.59v-3h-1.75v.62l.79.14v6.1l-.79.14v.62h2.55Z" transform="translate(-190.21 -115.98)"/><polygon points="53.56 50.23 52.76 50.09 52.76 45.56 51 45.56 51 46.18 51.8 46.32 51.8 50.09 51 50.23 51 50.85 53.56 50.85 53.56 50.23"/><rect x="51.8" y="43.23" width="0.96" height="0.98"/><path d="M247.05,166.21l-.79-.14v-3a1.17,1.17,0,0,1,.4-.5,1.08,1.08,0,0,1,.64-.18l.54,0,.13-.89-.18,0h-.23a1.24,1.24,0,0,0-.76.23,1.79,1.79,0,0,0-.55.63l-.09-.77H244.5v.62l.8.14v3.77l-.8.14v.62h2.55Z" transform="translate(-190.21 -115.98)"/><polygon points="60.75 50.23 59.95 50.09 59.95 43.23 58.2 43.23 58.2 43.85 58.99 43.99 58.99 50.09 58.2 50.23 58.2 50.85 60.75 50.85 60.75 50.23"/><path d="M254.1,166.93a2.88,2.88,0,0,0,1.12-.19,2.28,2.28,0,0,0,.75-.46l-.38-.63a1.76,1.76,0,0,1-.63.39,2.54,2.54,0,0,1-.86.14,1.25,1.25,0,0,1-1-.49,2.1,2.1,0,0,1-.39-1.26l0,0h3.43v-.6a2.59,2.59,0,0,0-.55-1.72,2,2,0,0,0-1.62-.64,2.08,2.08,0,0,0-1.59.75,2.71,2.71,0,0,0-.67,1.87v.22a2.77,2.77,0,0,0,.65,1.9A2.24,2.24,0,0,0,254.1,166.93Zm-1-4.32a1,1,0,0,1,.82-.41,1.09,1.09,0,0,1,.9.38,1.5,1.5,0,0,1,.3.95v.13h-2.43v0A1.88,1.88,0,0,1,253.13,162.61Z" transform="translate(-190.21 -115.98)"/><path d="M259,166.72l-.23.55a2.52,2.52,0,0,1-.33.61.58.58,0,0,1-.5.27h-.43l-.09.75a1.19,1.19,0,0,0,.27.05l.3,0a1.31,1.31,0,0,0,1-.4,2.64,2.64,0,0,0,.57-.92l2-5.4.47-.08v-.62h-2.13v.62l.6.1-1.1,3.28h0l-.17-.67-.92-2.61.6-.1v-.62h-2.13v.62l.48.08Z" transform="translate(-190.21 -115.98)"/><polygon points="75.59 44.49 77.17 44.49 77.17 50.09 76.38 50.23 76.38 50.85 78.93 50.85 78.93 50.23 78.13 50.09 78.13 44.49 79.71 44.49 79.78 45.31 80.6 45.31 80.6 43.74 74.7 43.74 74.7 45.31 75.52 45.31 75.59 44.49"/><path d="M273.36,166.93a2.92,2.92,0,0,0,1.12-.19,2.28,2.28,0,0,0,.75-.46l-.38-.63a1.81,1.81,0,0,1-.64.39,2.44,2.44,0,0,1-.85.14,1.23,1.23,0,0,1-1-.49,2.1,2.1,0,0,1-.39-1.26l0,0h3.42v-.6a2.59,2.59,0,0,0-.54-1.72,2,2,0,0,0-1.62-.64,2.08,2.08,0,0,0-1.59.75,2.67,2.67,0,0,0-.67,1.87v.22a2.77,2.77,0,0,0,.65,1.9A2.24,2.24,0,0,0,273.36,166.93Zm-1-4.32a1,1,0,0,1,.82-.41,1.09,1.09,0,0,1,.9.38,1.5,1.5,0,0,1,.3.95v.13H272v0A1.88,1.88,0,0,1,272.39,162.61Z" transform="translate(-190.21 -115.98)"/><path d="M278.68,166.21l-.79-.14v-3.15a1.14,1.14,0,0,1,.43-.51,1.34,1.34,0,0,1,.73-.18,1,1,0,0,1,.79.34,1.7,1.7,0,0,1,.28,1.09v2.41l-.8.14v.62h2.56v-.62l-.8-.14v-2.6a1.49,1.49,0,0,1,.36-.89,1,1,0,0,1,.8-.35,1,1,0,0,1,.8.32,1.77,1.77,0,0,1,.27,1.11v2.41l-.8.14v.62h2.56v-.62l-.79-.14v-2.4a2.56,2.56,0,0,0-.47-1.67,1.59,1.59,0,0,0-1.28-.55,1.68,1.68,0,0,0-1,.26,2.05,2.05,0,0,0-.66.71,1.51,1.51,0,0,0-.57-.73,1.63,1.63,0,0,0-.9-.24,2,2,0,0,0-.93.2,1.76,1.76,0,0,0-.66.58l-.06-.69h-1.66v.62l.8.14v3.77l-.8.14v.62h2.55Z" transform="translate(-190.21 -115.98)"/><path d="M288.21,168.24l-.8-.14v-1.82a1.68,1.68,0,0,0,.63.49,2.22,2.22,0,0,0,.85.16,1.79,1.79,0,0,0,1.51-.7,2.88,2.88,0,0,0,.55-1.84v-.11a3.56,3.56,0,0,0-.54-2.06,1.79,1.79,0,0,0-1.53-.77,1.93,1.93,0,0,0-.88.19,1.76,1.76,0,0,0-.64.55l-.09-.65h-1.62v.62l.8.14v5.8l-.8.14v.62h2.56Zm-.8-5.32a1.54,1.54,0,0,1,.47-.51,1.34,1.34,0,0,1,.71-.18,1.14,1.14,0,0,1,1,.57,2.77,2.77,0,0,1,.35,1.48v.11a2.14,2.14,0,0,1-.35,1.29,1.18,1.18,0,0,1-1,.5,1.35,1.35,0,0,1-.72-.18,1.37,1.37,0,0,1-.47-.51Z" transform="translate(-190.21 -115.98)"/><polygon points="103.99 50.23 103.19 50.09 103.19 43.23 101.43 43.23 101.43 43.85 102.23 43.99 102.23 50.09 101.43 50.23 101.43 50.85 103.99 50.85 103.99 50.23"/><path d="M297.34,166.93a2.92,2.92,0,0,0,1.12-.19,2.28,2.28,0,0,0,.75-.46l-.38-.63a1.81,1.81,0,0,1-.64.39,2.44,2.44,0,0,1-.85.14,1.23,1.23,0,0,1-1-.49,2.1,2.1,0,0,1-.39-1.26l0,0h3.42v-.6a2.54,2.54,0,0,0-.55-1.72,2,2,0,0,0-1.61-.64,2.08,2.08,0,0,0-1.59.75,2.67,2.67,0,0,0-.67,1.87v.22a2.77,2.77,0,0,0,.65,1.9A2.24,2.24,0,0,0,297.34,166.93Zm-1-4.32a1,1,0,0,1,.82-.41,1.09,1.09,0,0,1,.9.38,1.5,1.5,0,0,1,.3.95v.13H296v0A1.88,1.88,0,0,1,296.37,162.61Z" transform="translate(-190.21 -115.98)"/><path d="M243.74,171.72v.62l.79.13v4.07a1.51,1.51,0,0,1-.48,1.22,1.88,1.88,0,0,1-1.28.42,1.73,1.73,0,0,1-1.21-.42,1.6,1.6,0,0,1-.46-1.22v-4.07l.8-.13v-.62h-2.55v.62l.79.13v4.07a2.17,2.17,0,0,0,.73,1.77,2.84,2.84,0,0,0,1.9.62,3,3,0,0,0,2-.62,2.16,2.16,0,0,0,.75-1.77v-4.07l.8-.13v-.62h-2.55Z" transform="translate(-190.21 -115.98)"/><path d="M249.26,173.68a1.89,1.89,0,0,0-.67.65l-.06-.79h-1.66v.62l.8.14v3.77l-.8.14v.62h2.55v-.62l-.79-.14V175a1.33,1.33,0,0,1,.51-.54,1.29,1.29,0,0,1,.73-.2,1.11,1.11,0,0,1,.85.29,1.47,1.47,0,0,1,.27,1v2.56l-.79.14v.62h2.55v-.62l-.8-.14v-2.58a2.14,2.14,0,0,0-.47-1.54,1.95,1.95,0,0,0-2.22-.27Z" transform="translate(-190.21 -115.98)"/><polygon points="65 57.56 63.24 57.56 63.24 58.18 64.03 58.32 64.03 62.09 63.24 62.23 63.24 62.85 65.79 62.85 65.79 62.23 65 62.09 65 57.56"/><rect x="64.03" y="55.23" width="0.96" height="0.98"/><polygon points="68.52 62.85 69.25 62.85 71.02 58.26 71.46 58.18 71.46 57.56 69.42 57.56 69.42 58.18 70.05 58.28 69 61.29 68.91 61.67 68.88 61.67 68.79 61.29 67.7 58.28 68.33 58.18 68.33 57.56 66.29 57.56 66.29 58.18 66.73 58.26 68.52 62.85"/><path d="M264.66,178.93a2.88,2.88,0,0,0,1.12-.19,2.28,2.28,0,0,0,.75-.46l-.37-.63a1.81,1.81,0,0,1-.64.39,2.5,2.5,0,0,1-.86.14,1.26,1.26,0,0,1-1-.49,2.16,2.16,0,0,1-.38-1.26v0h3.43v-.6a2.54,2.54,0,0,0-.55-1.72,2,2,0,0,0-1.61-.64,2.06,2.06,0,0,0-1.59.75,2.67,2.67,0,0,0-.67,1.87v.22a2.72,2.72,0,0,0,.65,1.9A2.22,2.22,0,0,0,264.66,178.93Zm-1-4.32a1.05,1.05,0,0,1,.83-.41,1.11,1.11,0,0,1,.9.38,1.5,1.5,0,0,1,.3.95v.13h-2.44v0A1.88,1.88,0,0,1,263.69,174.61Z" transform="translate(-190.21 -115.98)"/><path d="M269.93,173.68a1.7,1.7,0,0,0-.55.63l-.1-.77h-1.65v.62l.79.14v3.77l-.79.14v.62h2.55v-.62l-.8-.14v-3a1.19,1.19,0,0,1,.41-.5,1.07,1.07,0,0,1,.63-.18l.55,0,.13-.89-.18,0h-.24A1.23,1.23,0,0,0,269.93,173.68Z" transform="translate(-190.21 -115.98)"/><path d="M273.88,173.45a2.2,2.2,0,0,0-1.43.45,1.4,1.4,0,0,0-.55,1.1,1.19,1.19,0,0,0,.49,1,3.9,3.9,0,0,0,1.45.57,2.39,2.39,0,0,1,.92.35.66.66,0,0,1,.24.53.65.65,0,0,1-.29.54,1.33,1.33,0,0,1-.8.21,2.88,2.88,0,0,1-.59-.07,1.05,1.05,0,0,1-.45-.22l-.18-.71H272v1.21a3,3,0,0,0,.86.4,4,4,0,0,0,1.08.14,2.37,2.37,0,0,0,1.48-.44,1.34,1.34,0,0,0,.57-1.13,1.15,1.15,0,0,0-.49-1,3.83,3.83,0,0,0-1.49-.59,2.28,2.28,0,0,1-.89-.32.59.59,0,0,1-.22-.49.69.69,0,0,1,.25-.54,1.11,1.11,0,0,1,.76-.23,1.79,1.79,0,0,1,.6.1,1.42,1.42,0,0,1,.45.27l.15.63h.73l-.05-1.16a2.37,2.37,0,0,0-.8-.44A3.61,3.61,0,0,0,273.88,173.45Z" transform="translate(-190.21 -115.98)"/><polygon points="88.41 57.56 86.65 57.56 86.65 58.18 87.45 58.32 87.45 62.09 86.65 62.23 86.65 62.85 89.2 62.85 89.2 62.23 88.41 62.09 88.41 57.56"/><rect x="87.45" y="55.23" width="0.96" height="0.98"/><path d="M282.67,178.12l-.28,0A.56.56,0,0,1,282,178a.75.75,0,0,1-.15-.53v-3.2h1v-.72h-1v-1.27h-1v1.27H280v.72h.83v3.2a1.57,1.57,0,0,0,.35,1.12,1.26,1.26,0,0,0,.93.35,2.33,2.33,0,0,0,.53-.06,1,1,0,0,0,.4-.14l-.13-.66Z" transform="translate(-190.21 -115.98)"/><path d="M286.7,174.16l.6.1-1.1,3.28h0l-.17-.67-.92-2.61.6-.1v-.62h-2.14v.62l.49.08,1.74,4.48-.23.55a2.52,2.52,0,0,1-.33.61.58.58,0,0,1-.5.27h-.43l-.1.75a1.43,1.43,0,0,0,.28.05l.3,0a1.31,1.31,0,0,0,1-.4,2.64,2.64,0,0,0,.57-.92l2-5.4.48-.08v-.62H286.7Z" transform="translate(-190.21 -115.98)"/><path d="M335.22,251.86v-4.1l-3-3.31v-4l-7.06-9.14V195.77h5.06v-4.7l-2.53-1.32-2.22-1.93V148.89L264.36,116l-61.13,32.91V187.8l-2.38,1.91-3,1.25v4.81h5.06v35.56l-7.06,9.14v4l-3,3.31v4.1l-2.67,3.3v6.38H337.89v-6.38Zm-71.17-3.22h69.17v3.07H194.88v-3.07Zm0,4.07h69.29l1.86,2.3H192.9l1.86-2.3Zm66.2-8.37H197.85v-2.53h132.4ZM315,231.17H306.1v-35.4H315Zm-19.08,0H287v-35.4h8.85Zm-19.09,0h-2.17V198.93H253.48v32.24H251.3v-35.4h25.49Zm-4.17,0H255.48V200.93h17.14Zm-31.55,0h-8.85v-35.4h8.85Zm-19.08,0h-8.85v-35.4H222Zm2-35.4h6.23v40.55c-.24.23-1.06.77-3.29.77-2.07,0-2.82-.62-2.94-1Zm19.08,0h6.23v40.55c-.24.23-1.06.77-3.29.77-2.07,0-2.81-.62-2.94-1Zm35.72,0H285v40.55c-.24.23-1.06.77-3.29.77-2.07,0-2.81-.62-2.94-1Zm19.08,0h6.23v40.55c-.24.23-1.05.77-3.29.77-2.07,0-2.81-.62-2.94-1Zm19.08,0h6.24v40.55c-.25.23-1.06.77-3.29.77-2.07,0-2.82-.62-2.95-1ZM205.41,150H323.32l.18.1v37.69H205.23V150.09Zm118.14,38.79,1.5,1.3H203.55l1.65-1.3ZM321.47,149H207.26l57.1-30.74ZM199.85,193.77v-1.48l1.9-.79.54-.42H326.21l.29.26,1.75.94v1.49H199.85Zm11.29,2v40.55c-.25.23-1.06.77-3.29.77-2.07,0-2.82-.62-2.94-1V195.77Zm-8.23,40.53c0,.12.31,2.79,4.94,2.79,4.26,0,5.1-1.77,5.23-2.13l.06-.16v-4.63H222v4.13c0,.12.31,2.79,4.94,2.79,4.26,0,5.11-1.77,5.23-2.13l.06-.16v-4.63h8.85v4.13c0,.12.32,2.79,4.94,2.79,4.26,0,5.11-1.77,5.23-2.13l.06-.16v-4.63h25.49v4.13c0,.12.32,2.79,4.94,2.79,4.26,0,5.11-1.77,5.23-2.13l.06-.16v-4.63h8.86v4.13c0,.12.31,2.79,4.93,2.79,4.26,0,5.11-1.77,5.24-2.13l.05-.16v-4.63H315v4.13c0,.12.31,2.79,4.94,2.79,4.25,0,5.1-1.77,5.23-2.13l.06-.16v-2.2l4,5.21H198.89l4-5.2Zm-5.16,9h132.6l2.08,2.3H195.67Zm66.3,14.2H192.21V256H335.89v3.53Z" transform="translate(-190.21 -115.98)"/></svg>