<svg id="Layer_4" data-name="Layer 4" xmlns="http://www.w3.org/2000/svg" viewBox="0 0 395.29 286.37"><title>chapter-anaphoric-cmavo</title><path d="M427.86,609.91h-2.74c-.87-2.51-3.46-10-4.34-11.9-.75-1.66-4.67-10.85-7.53-17.55-1.08-2.52-2-4.67-2.51-5.88-1-2.38-4.47-8.89-7.8-15.19-2.87-5.41-5.57-10.52-6.44-12.45-1.88-4.19-12-23.76-15.37-26.93-1.61-1.5-5.74-6.52-9.38-10.95-4.33-5.27-6.27-7.57-7.23-8.53l19.68-9.18.12-.05a4.84,4.84,0,0,0,2.63-2.6c.59-1.5.37-3.29-.66-5.34a5.42,5.42,0,0,0-7.2-2.81l-24,11c-.25-.24-.65-.66-1.09-1.14-3.38-3.63-11.3-12.11-18.51-9.86h0l2.47-76.12,0-.51-22.26-.37-2.51-25.63-174,15.42v0c-32,3-32.87,22.95-32.37,29,1.2,14.85,5.45,84.94,5.53,86.17l-1.44,101.4H99v2H427.86ZM371,509.7c3.84,4.67,7.81,9.49,9.47,11,3.14,3,13.12,22.12,15.14,26.61.88,2,3.59,7.08,6.46,12.5,3.33,6.29,6.77,12.78,7.77,15.12.52,1.21,1.43,3.36,2.51,5.88,2.86,6.71,6.78,15.9,7.54,17.57s3.23,8.72,4.19,11.49h-48.2c-.63-9-7.49-30.13-8.44-32.79a20.21,20.21,0,0,0-2.61-4.69,23.78,23.78,0,0,1-1.8-2.9,10.43,10.43,0,0,1-.9-3.37,11.81,11.81,0,0,0-1.2-4.18c-1.5-2.78-7.16-7.29-7.4-7.48a.49.49,0,0,0-.7.08.49.49,0,0,0,.08.7c.05.05,5.74,4.57,7.13,7.17a10.77,10.77,0,0,1,1.1,3.85,11.78,11.78,0,0,0,1,3.67,26.79,26.79,0,0,0,1.87,3,19.29,19.29,0,0,1,2.5,4.45c.95,2.64,7.74,23.59,8.37,32.46H331.28l2.08-64.3.51.21c7.21,3,24.1,10.11,31.26,11.31h.08a.49.49,0,0,0,.49-.41.5.5,0,0,0-.41-.58c-7-1.17-23.85-8.23-31-11.24-1.28-.53-2.24-.94-2.77-1.15-3.5-1.4-12.27-2.67-16-3-3.08-.24-17.93-1.94-23.89-2.71,3-.18,6.46-.48,7.07-.93,1.11-.82,2-5.42,1.94-7.17a1.11,1.11,0,0,0-.38-.77c-1-.87-4.23-1-6.72-.94,4.24-.83,17.73-1.14,21.22-1.14,1.25,0,3.08.17,5,.34,2.17.2,4.52.41,6.52.43h0a15.57,15.57,0,0,0,3.18-.22c3.36-.7,13.88-5.14,14.33-5.33a.5.5,0,0,0-.39-.92c-.11,0-10.88,4.59-14.14,5.27a13.42,13.42,0,0,1-2.65.2A16.92,16.92,0,0,0,325,524a19.61,19.61,0,0,1,5.12-2.06,19.36,19.36,0,0,0,4-1.15.49.49,0,0,0,.2-.67.49.49,0,0,0-.67-.21,20.21,20.21,0,0,1-3.75,1,19.92,19.92,0,0,0-5.5,2.24,17.64,17.64,0,0,0-2.68-2.75l12-5.6c.71,1,2.88,4.07,3.21,7.06a.51.51,0,0,0,.5.45h.06a.5.5,0,0,0,.44-.55c-.35-3.11-2.41-6.2-3.29-7.39L363.56,501C364.44,501.74,367.9,506,371,509.7Zm-58.07,33.66c-.81.83-3.68.47-4.62-.08-.42-.24-.63-1.33-.68-2.31,2.3.26,4.37.48,5.86.63A2.2,2.2,0,0,1,312.91,543.36Zm-8-2.69a10.21,10.21,0,0,1-2.53,3.1,3.84,3.84,0,0,1-4-.41c-.51-.5-.49-2.19-.31-3.48Zm-16-2c.27.07,2,.3,4.44.61a10.72,10.72,0,0,1-4.14,3.89,3.84,3.84,0,0,1-2.22-.81,2.14,2.14,0,0,1-1-1.28,15.65,15.65,0,0,1,.46-4.16l.64-.3A2.53,2.53,0,0,0,288.89,538.7Zm-1-4.65a5.5,5.5,0,0,1,3-4.66c4.83-.34,8.61,0,8.78.63.07,1.93-1,5.91-1.53,6.32s-5.34.72-9.72.9C288,536.8,287.77,535.91,287.85,534.05ZM317.21,526h0a.49.49,0,0,0,.5-.47,12.8,12.8,0,0,1,1-3.65h0l1.91-.89a16.61,16.61,0,0,1,4.8,5.92c-1.78-.06-3.78-.24-5.66-.4s-3.8-.35-5.1-.35c-.74,0-2.77,0-5.34.09l8.07-3.76a10.74,10.74,0,0,0-.72,3A.49.49,0,0,0,317.21,526Zm46.57-25.11h0Zm13.11-18.21.93-.42c-.39,1.1-.44,2.82.77,5.4a6.24,6.24,0,0,0,3.57,3.56l-1.51.71c-.38,0-2.43,0-4-3.53C374.94,484.45,376.63,482.87,376.89,482.66ZM374,484l1.26-.58c-.42,1.11-.56,2.84.54,5.35a6.74,6.74,0,0,0,3.4,3.83l-1.7.79c-.3,0-1.82-.3-3.46-3.83C372.25,485.83,373.69,484.25,374,484Zm-3.69,1.69,2.14-1c-.37,1.09-.47,2.8.68,5.27a8.63,8.63,0,0,0,3.09,4l-2.09,1c-.43-.15-1.94-.86-3.37-4S370,486.08,370.26,485.7Zm-1.28.58a8,8,0,0,0,.82,5.1,9.23,9.23,0,0,0,3.14,4.12l-66.06,30.8c-5.82.18-12.92.57-14.7,1.3-2.21.9-5.16,2.55-5.33,6.41a11.91,11.91,0,0,0,0,1.61l-17.09,8a3.74,3.74,0,0,0-2.46-1.16c.26-.17.58-.35.81-.48,1-.59,1.54-.89,1.43-1.42,0-.16-.16-.44-.65-.51a13.4,13.4,0,0,0-2.18.07l-1.3.08.84-.7c2-1.62,2.37-2,2.16-2.52a.63.63,0,0,0-.67-.35,21.55,21.55,0,0,0-2.41.58l-1.83.48a16.29,16.29,0,0,0,1.9-4l11.21-5.13.7,0a13.47,13.47,0,0,0,10.82-5.29ZM262,538.56c.27.46.71.38,3.64-.42l1-.27-1,.82c-1.39,1.15-1.69,1.42-1.75,1.75l0,.29.16.18c.29.32.82.32,2.77.18l.93-.07-.1.06a4.44,4.44,0,0,0-1.62,1.2.66.66,0,0,0,0,.62c.18.35.58.42,1.08.5a5.15,5.15,0,0,1,1.14.26,56,56,0,0,0-7.27.94,3.43,3.43,0,0,1-2.19-1.86,3.71,3.71,0,0,1-.44-2.52l1.07-.9c1.52-1.27,3-2.49,4.12-3.57a9.1,9.1,0,0,1-1.41,2.12l-.3.37Zm15.54-16.14c.43-1.08.94-2.32,1.47-3.58.87.66,2.21,1.82,2.39,2.74.24,1.21-2.48,5.29-3.43,6a9.24,9.24,0,0,1-1,0A9,9,0,0,1,277.52,522.42Zm30-9.08c1.22-1.44,2.45-2.67,2.93-2.75.65-.11,3.31-.69,5.78-1.24Zm28.32-31.86c6.63-2.08,14.23,6.11,17.48,9.6l.85.9L320.6,507.34c-.55.12-6.94,1.57-9.46,2.09a3.72,3.72,0,0,1,1.51-1.81.5.5,0,1,0-.44-.9,5.41,5.41,0,0,0-2.27,3c-1.38.6-3.67,3.49-4.49,4.56l-6,2.76c.34-1.08.85-2.74,1.18-3.59.55-1.43,6.3-7.45,7.4-7.45h0c1.5.12,9.59-1.81,10.51-2a.5.5,0,0,0-.23-1,88.66,88.66,0,0,1-10.21,2H308c-1.94,0-7.85,6.78-8.35,8.09s-1.23,3.74-1.46,4.51l-8.85,4c1.52-2.12,2.76-4,3.71-5.41a25.58,25.58,0,0,1,2.4-3.32c1.46-1.08,3-2.38,4.57-3.64,1.28-1,2.49-2,3.6-2.89l1.34-1c1.82-1.41,4.56-3.54,5.33-3.54h0c5.74.21,14.54.11,20.48-.9a.5.5,0,1,0-.17-1c-5.86,1-14.59,1.1-20.27.89-1,0-3.06,1.46-6,3.75l-1.33,1c-1.12.86-2.34,1.86-3.63,2.92-1.51,1.25-3.08,2.54-4.52,3.6a19.58,19.58,0,0,0-2.64,3.58c-1.17,1.75-2.78,4.15-4.79,6.91a12.16,12.16,0,0,1-7.95,4.78c1.32-1.6,3.16-4.54,2.87-6s-2.17-2.91-3-3.48a51.1,51.1,0,0,1,3.26-6.66,9.24,9.24,0,0,1,2.43,1.62.48.48,0,0,0,.7,0,.5.5,0,0,0,0-.71,9.91,9.91,0,0,0-2.52-1.72,18.91,18.91,0,0,0,1.26-2.58c.69-1.55,1.46-3.31,2.27-4,3.24-2.68,6.24-5.11,8.66-7.05l2.5-2c.7-.57,1.45-1.28,2.25-2a25.7,25.7,0,0,1,5.79-4.52c2.4-1.2,9-2.44,15.43-3.64C326.82,483.6,332.4,482.55,335.81,481.48ZM139.29,394.33l173-15.34,2.41,24.53-178.18-3h-.17a.38.38,0,0,1-.36-.15c-.39-.49-.43-1.86.17-3.31A4.22,4.22,0,0,1,139.29,394.33Zm-2.7.3a6.31,6.31,0,0,0-1.36,2.08c-.69,1.69-.7,3.46,0,4.31a1.39,1.39,0,0,0,.21.21c-6.34,4.64-13.68,9.56-20.92,12a1.44,1.44,0,0,0-.54-.49,4,4,0,0,0-3.84.55,6.42,6.42,0,0,0-1.81,1.79C110,407.48,116.15,397.29,136.59,394.63Zm-28.78,27.63h0c-.38-5.2,1.62-7.31,2.85-8.1a3.14,3.14,0,0,1,2.82-.51c.21.11.21.21.21.25h0l-1.16,81.3C111.22,473.83,108.7,433.17,107.81,422.26Zm6.87-8c7.66-2.57,15.4-7.84,22-12.69l200.25,3.33-2.46,75.94c-3.39.95-8.37,1.89-13.22,2.8-6.77,1.27-13.17,2.46-15.7,3.72a26.83,26.83,0,0,0-6,4.69c-.78.73-1.51,1.43-2.19,2l-2.5,2c-2.42,2-5.42,4.37-8.67,7.06-1,.83-1.78,2.62-2.54,4.36a12.44,12.44,0,0,1-1.48,2.83c-1.3,1.42-4.44,9-5.54,11.77a10,10,0,0,0-.63,5.72l-11.14,5.11-.14.06-.08.12c-.83,1.29-3.39,3.42-5.87,5.49-4.07,3.4-6.16,5.28-6.37,6.51-9.05,1.67-18.39,3.39-27.76,4.37a.5.5,0,0,0-.45.55.52.52,0,0,0,.5.45h0c9.46-1,18.88-2.72,28-4.41a2.82,2.82,0,0,0,1.84.45,44.56,44.56,0,0,0,6.49-.86c3.29-.56,6.69-1.15,8.54-.89l.15,0,15.55-7.25a13.91,13.91,0,0,0-.32,3.77,3.16,3.16,0,0,0,1.46,2,5.44,5.44,0,0,0,2.67,1,1.79,1.79,0,0,0,.34,0c1.06-.24,3.88-2.54,5-4.74l2.67.32c-.16,1.1-.34,3.38.6,4.31a4.38,4.38,0,0,0,3,1.08,4.62,4.62,0,0,0,2.14-.49c1.21-.65,2.61-2.92,3.16-3.87l.61.07c0,1,.24,2.74,1.18,3.29a7.81,7.81,0,0,0,3.3.7,3.6,3.6,0,0,0,2.54-.78,3.15,3.15,0,0,0,.86-2.37c.38,0,.7.07.94.08,3.67.29,12.29,1.54,15.7,2.9l1.25.52-2.09,64.71H111.91Z" transform="translate(-99 -325.54)"/><path d="M454.23,342c-4.88-10-18.5-14.65-29.13-13.4s-15,4.48-18,6.6c-2,1.41-4.4,4.29-2.3,8.06s5.08,3.15,6.59,2.61c2.17-.77,21-12.38,30.2,1.92,10.11,15.78-12.5,26.48-26.33,32.3-15.9,6.7-19.67,15.91-20.93,20.93a10.56,10.56,0,0,0,5.86,12.26s2.74-11.41,10.89-18.12c9.48-7.81,28.88-13.39,38.93-25.11C457.28,361.64,458,349.79,454.23,342Z" transform="translate(-99 -325.54)"/><path d="M388.75,441c2.66-1.58,10.49-14.05,4.35-18.79-6.35-4.91-17.75,6.27-15.72,12.33S386.1,442.57,388.75,441Z" transform="translate(-99 -325.54)"/><path d="M493.11,352.4,470,356.58a1,1,0,0,0,.18,2l.17,0,23.17-4.19a1,1,0,0,0-.36-2Z" transform="translate(-99 -325.54)"/><path d="M451.19,384.18a1,1,0,0,0-1.45,1.37l22,23.44a1,1,0,0,0,1.42.05,1,1,0,0,0,0-1.42Z" transform="translate(-99 -325.54)"/><path d="M431.16,403a1,1,0,0,0-1,1.05l1.4,29.95a1,1,0,0,0,1,1h0a1,1,0,0,0,1-1l-1.39-30A1,1,0,0,0,431.16,403Z" transform="translate(-99 -325.54)"/><path d="M385.31,393.93a1,1,0,0,0-1.13-.84l-17,2.51a1,1,0,0,0,.14,2h.15l17-2.51A1,1,0,0,0,385.31,393.93Z" transform="translate(-99 -325.54)"/><path d="M360.47,354.24l29.58,13.4a1,1,0,0,0,.41.09,1,1,0,0,0,.92-.59,1,1,0,0,0-.5-1.32l-29.58-13.4a1,1,0,1,0-.83,1.82Z" transform="translate(-99 -325.54)"/><path d="M395.53,345.34a1,1,0,0,0,.75.34A1,1,0,0,0,397,344l-16.13-18.14a1,1,0,1,0-1.5,1.33Z" transform="translate(-99 -325.54)"/><path d="M248.39,464.73a12.2,12.2,0,0,1,3.56,2,20.19,20.19,0,0,1,4.45,5.57c3.36,5.7,4.81,10.75,4.42,15.44-.36,4.34-2.92,9.28-7.25,11.31l0,0,2-5.08a.49.49,0,0,0-.26-.63.52.52,0,0,0-.66.23l-3.18,6.36a.51.51,0,0,0,.06.54.48.48,0,0,0,.39.18H252a11.69,11.69,0,0,0,1.91-.67,26.72,26.72,0,0,0,6-2.76.51.51,0,0,0,.16-.69.5.5,0,0,0-.69-.16c-.61.38-1.23.73-1.87,1.06a15.55,15.55,0,0,0,4.29-9.62c.4-4.9-1.09-10.14-4.56-16a21.09,21.09,0,0,0-4.69-5.85,12.88,12.88,0,0,0-3.85-2.14.49.49,0,0,0-.64.3A.51.51,0,0,0,248.39,464.73Z" transform="translate(-99 -325.54)"/><path d="M287.92,458.32a22.47,22.47,0,0,0-25.08-.93.47.47,0,0,0-.22.44.49.49,0,0,0,.26.42l.36.19c-.4,0-.79-.06-1.18-.06l2.93-7.57a.5.5,0,1,0-.94-.36l-3.19,8.26a.49.49,0,0,0,.06.47.52.52,0,0,0,.43.21,14.67,14.67,0,0,1,4.83.64l5.19,2.81a.52.52,0,0,0,.66-.16.51.51,0,0,0-.1-.67,15.79,15.79,0,0,0-5.36-2.91l-2.46-1.32a20.82,20.82,0,0,1,30.47,24.15,30.31,30.31,0,0,1-5.74,10c-4,4.93-8.26,8.47-12.74,10.53a20.73,20.73,0,0,1-16,.93.5.5,0,0,0-.65.28.51.51,0,0,0,.28.65,19.13,19.13,0,0,0,7,1.27,23.7,23.7,0,0,0,9.84-2.23,37.32,37.32,0,0,0,13.1-10.8,31.31,31.31,0,0,0,5.91-10.29A22.47,22.47,0,0,0,287.92,458.32Z" transform="translate(-99 -325.54)"/><path d="M243.49,519.35a.51.51,0,0,0,.28.34l1.12.53a.5.5,0,0,0,.22.21,19.45,19.45,0,0,1,4.53,3.15.5.5,0,0,0,.71,0,.51.51,0,0,0,0-.71,21.32,21.32,0,0,0-4-3,14.84,14.84,0,0,1,14.18-2.1,2.44,2.44,0,0,1,1.08.66,2.1,2.1,0,0,1,.35,1.26,7.77,7.77,0,0,1-3.38,6.27,14.52,14.52,0,0,1-7.13,2.45,13.27,13.27,0,0,1-6.37-.6,6.6,6.6,0,0,1-4.08-4.38.51.51,0,0,0-.61-.37.5.5,0,0,0-.37.6,7.58,7.58,0,0,0,4.69,5.07,12.2,12.2,0,0,0,4.61.8,22.18,22.18,0,0,0,2.24-.12,15.42,15.42,0,0,0,7.61-2.65,8.78,8.78,0,0,0,3.79-7.1,3,3,0,0,0-.57-1.85,3.39,3.39,0,0,0-1.49-1,15.84,15.84,0,0,0-15.5,2.51l-.57-.28a45.83,45.83,0,0,1,5.9-6,.51.51,0,0,0,.06-.71.51.51,0,0,0-.71-.06,47.56,47.56,0,0,0-6.44,6.64A.51.51,0,0,0,243.49,519.35Z" transform="translate(-99 -325.54)"/><path d="M150.32,435.37a4.38,4.38,0,0,0,1.13-1,5.35,5.35,0,0,0,.76-1.27,6.78,6.78,0,0,0,.41-1.15l-.78-.21a6.33,6.33,0,0,1-.51,1.26,4,4,0,0,1-.58.82,2,2,0,0,1-.57.44,1.2,1.2,0,0,1-.51.13.67.67,0,0,1-.39-.13.64.64,0,0,1-.22-.29,1.3,1.3,0,0,1-.09-.42,4.17,4.17,0,0,1,0-.5,10.86,10.86,0,0,1,.19-1.53c.12-.61.25-1.29.4-2s.27-1.51.4-2.31a22,22,0,0,0,.23-2.38,7.06,7.06,0,0,0-.1-1.39,3.4,3.4,0,0,0-.44-1.18,2.48,2.48,0,0,0-.88-.82,3,3,0,0,0-1.4-.34,3.17,3.17,0,0,0-1.21.2,3.84,3.84,0,0,0-1.32.88,9,9,0,0,0-1.42,1.83,20.11,20.11,0,0,0-1.49,3.07h-.1c.09-.35.18-.65.24-.9s.13-.48.18-.7.08-.43.11-.64a7,7,0,0,0,0-.71,4.1,4.1,0,0,0-.11-1.07,3.05,3.05,0,0,0-.46-1.06,2.73,2.73,0,0,0-.9-.81,2.91,2.91,0,0,0-1.39-.36,3.22,3.22,0,0,0-1.22.22,4,4,0,0,0-1.31.9,9.54,9.54,0,0,0-1.4,1.86,20.84,20.84,0,0,0-1.43,3.09h-.08c0-.21.1-.46.16-.73s.12-.55.17-.84.1-.59.14-.9a7.14,7.14,0,0,0,.08-.91,5.5,5.5,0,0,0,0-1.09,2.84,2.84,0,0,0-.3-.92,1.81,1.81,0,0,0-.62-.64,2.19,2.19,0,0,0-1-.27,2.56,2.56,0,0,0-1.48.38,4,4,0,0,0-1.12,1,5.74,5.74,0,0,0-.77,1.27,7.61,7.61,0,0,0-.4,1.15l.77.19a8.17,8.17,0,0,1,.51-1.23,4.47,4.47,0,0,1,.57-.82,2.11,2.11,0,0,1,.56-.44,1,1,0,0,1,.51-.12.61.61,0,0,1,.38.11.67.67,0,0,1,.22.28,1.24,1.24,0,0,1,.09.41,2.53,2.53,0,0,1,0,.48c0,.13,0,.26,0,.37a3.18,3.18,0,0,1,0,.4c0,.15,0,.33-.08.55s-.08.5-.13.84-.12.77-.19,1.28-.17,1.12-.28,1.85c-.14,1-.26,1.77-.35,2.41s-.17,1.17-.22,1.61-.1.78-.12,1.06,0,.55-.05.81c0,.07,0,.21,0,.41l2.35.08c0-.24,0-.47,0-.71s0-.5,0-.78a16.43,16.43,0,0,1,.29-2.49,20.53,20.53,0,0,1,.64-2.57,20.8,20.8,0,0,1,.93-2.41,13.84,13.84,0,0,1,1.13-2,6.17,6.17,0,0,1,1.25-1.36,2,2,0,0,1,1.29-.49,1.25,1.25,0,0,1,.71.21,1.18,1.18,0,0,1,.38.48,1.78,1.78,0,0,1,.16.6,3.53,3.53,0,0,1,0,.55c0,.4,0,.87-.12,1.42s-.15,1.13-.25,1.75-.2,1.26-.31,1.92-.21,1.32-.3,2-.18,1.25-.25,1.83-.12,1.11-.13,1.57v.31c0,.07,0,.21,0,.41l2.35.08c0-.24,0-.47,0-.71s0-.5,0-.78a17.74,17.74,0,0,1,.28-2.49,24.74,24.74,0,0,1,.64-2.57,20.76,20.76,0,0,1,.91-2.41,12.19,12.19,0,0,1,1.13-2,6.17,6.17,0,0,1,1.25-1.36,2,2,0,0,1,1.31-.48,1.13,1.13,0,0,1,.67.2,1.2,1.2,0,0,1,.39.45,1.55,1.55,0,0,1,.19.56,2.58,2.58,0,0,1,0,.54,16.88,16.88,0,0,1-.24,2.35c-.13.82-.27,1.63-.43,2.42s-.3,1.55-.43,2.26a13.19,13.19,0,0,0-.22,1.83,6.9,6.9,0,0,0,.06,1.16,2.27,2.27,0,0,0,.33.86,1.53,1.53,0,0,0,.67.55,2.82,2.82,0,0,0,1.09.21A2.62,2.62,0,0,0,150.32,435.37Z" transform="translate(-99 -325.54)"/><path d="M154.91,434.84a2.77,2.77,0,0,0,1.1.89,3.54,3.54,0,0,0,1.39.31,3.79,3.79,0,0,0,.81-.05,3,3,0,0,0,.9-.29,4.62,4.62,0,0,0,1-.64,6,6,0,0,0,1-1.09,12.07,12.07,0,0,0,1-1.66,18.71,18.71,0,0,0,1-2.35h.09c-.18.71-.32,1.38-.44,2a13,13,0,0,0-.2,1.73,4.86,4.86,0,0,0,.07,1,2,2,0,0,0,.33.81,1.69,1.69,0,0,0,.62.53,2.11,2.11,0,0,0,.95.22,2.57,2.57,0,0,0,1.49-.38,4.21,4.21,0,0,0,1.13-1,6,6,0,0,0,.77-1.27,7.68,7.68,0,0,0,.4-1.16l-.79-.19a6.25,6.25,0,0,1-.51,1.23,4,4,0,0,1-.56.82,1.89,1.89,0,0,1-.55.44,1.13,1.13,0,0,1-.51.13.72.72,0,0,1-.44-.15.91.91,0,0,1-.22-.37,1.48,1.48,0,0,1-.08-.49v-.55c0-.42.08-1,.18-1.81s.22-1.68.38-2.68.32-2.08.51-3.23.37-2.29.57-3.43a18.2,18.2,0,0,0-1.9-.42c-.65-.1-1.27-.16-1.84-.19a7.82,7.82,0,0,0-3.61.67,7.27,7.27,0,0,0-2.62,2,9.42,9.42,0,0,0-1.64,3.05A13.17,13.17,0,0,0,154,431a8.22,8.22,0,0,0,.19,2.27A4.17,4.17,0,0,0,154.91,434.84Zm1.47-4.18a15.15,15.15,0,0,1,.41-3,10.05,10.05,0,0,1,1-2.62,5.49,5.49,0,0,1,1.61-1.82,3.54,3.54,0,0,1,2.23-.63,7.16,7.16,0,0,1,1.2.12,4.72,4.72,0,0,1,1,.29,18.14,18.14,0,0,1-.32,2.62,25.44,25.44,0,0,1-.69,2.7,21.61,21.61,0,0,1-1,2.52,13.9,13.9,0,0,1-1.17,2.09,6.17,6.17,0,0,1-1.27,1.42,2,2,0,0,1-1.3.51,1.28,1.28,0,0,1-.85-.34,2.22,2.22,0,0,1-.53-.88,5.12,5.12,0,0,1-.27-1.31A14.77,14.77,0,0,1,156.38,430.66Z" transform="translate(-99 -325.54)"/><path d="M189.89,434.31a4.47,4.47,0,0,1-.55.82,1.74,1.74,0,0,1-.55.44,1.13,1.13,0,0,1-.5.13.62.62,0,0,1-.42-.15.75.75,0,0,1-.22-.34,1.66,1.66,0,0,1-.07-.47c0-.18,0-.36,0-.54,0-.5.06-1.11.13-1.81s.15-1.46.26-2.28.21-1.67.35-2.57l.39-2.68.66-4.35c.05-.31.1-.67.17-1.08s.13-.82.21-1.26l.24-1.29c.08-.43.15-.81.22-1.15l-.81,0a2.25,2.25,0,0,1-.41.28,2.84,2.84,0,0,1-.63.22,7.4,7.4,0,0,1-1,.13,15.07,15.07,0,0,1-1.53,0l-.15,1.1,2,0a7.19,7.19,0,0,0-.2.8c-.06.26-.11.57-.17.9q-.18,1-.3,1.83c-.08.57-.16,1.11-.23,1.63a10.06,10.06,0,0,0-1.57-.18,8.55,8.55,0,0,0-3.57.56,7.19,7.19,0,0,0-2.62,1.84,8.11,8.11,0,0,0-1.63,2.88,12.83,12.83,0,0,0-.65,3.74,9.94,9.94,0,0,0,.15,2.08,5.62,5.62,0,0,0,.64,1.71,3.58,3.58,0,0,0,1.14,1.18,3.31,3.31,0,0,0,1.67.48,3.85,3.85,0,0,0,1.3-.2,3.72,3.72,0,0,0,1.39-.86,8.22,8.22,0,0,0,1.41-1.82,15.77,15.77,0,0,0,1.35-3.08h.08c-.17.7-.3,1.34-.39,1.91a14,14,0,0,0-.16,1.68,4.24,4.24,0,0,0,.09,1,2.14,2.14,0,0,0,.36.81,1.88,1.88,0,0,0,.65.53,2.17,2.17,0,0,0,1,.22,2.52,2.52,0,0,0,1.49-.38,4.49,4.49,0,0,0,1.12-1,5.93,5.93,0,0,0,.76-1.27,6.71,6.71,0,0,0,.4-1.16l-.81-.21A6.9,6.9,0,0,1,189.89,434.31Zm-3.68-7.85q-.19,1.19-.45,2.16a18.9,18.9,0,0,1-.89,2.63,14.34,14.34,0,0,1-1.17,2.22,6.69,6.69,0,0,1-1.33,1.54,2,2,0,0,1-1.36.54,1.31,1.31,0,0,1-.91-.37,2.4,2.4,0,0,1-.57-1,6.21,6.21,0,0,1-.29-1.44,14.67,14.67,0,0,1,0-1.78,13.82,13.82,0,0,1,.18-1.76,12,12,0,0,1,.43-1.77,8.67,8.67,0,0,1,.72-1.61,5.27,5.27,0,0,1,1.05-1.32,4.25,4.25,0,0,1,3.16-1.16,8,8,0,0,1,1,.1,5.19,5.19,0,0,1,.94.24C186.48,424.76,186.34,425.67,186.21,426.46Z" transform="translate(-99 -325.54)"/><path d="M192.91,425.51a4.47,4.47,0,0,1,.57-.82,2.11,2.11,0,0,1,.56-.44,1,1,0,0,1,.51-.12.67.67,0,0,1,.39.11.64.64,0,0,1,.22.29,1.56,1.56,0,0,1,.1.4c0,.15,0,.3,0,.46s0,.28,0,.39,0,.23,0,.37-.05.31-.08.52-.08.47-.13.8-.12.76-.19,1.26-.16,1.11-.27,1.83c-.14,1-.26,1.8-.34,2.46s-.14,1.21-.19,1.65-.07.82-.08,1.11,0,.57,0,.81c0,.08,0,.21,0,.41l2.33.09c0-.12,0-.23,0-.31s0-.18,0-.26v-.28c0-.11,0-.22,0-.36a15.93,15.93,0,0,1,.26-2.34,25.12,25.12,0,0,1,.59-2.5,22.69,22.69,0,0,1,.86-2.4,13.69,13.69,0,0,1,1.06-2,6.25,6.25,0,0,1,1.19-1.39,1.82,1.82,0,0,1,1.24-.5h.14a.45.45,0,0,1,.16,0,1.25,1.25,0,0,0,.39.88,1.35,1.35,0,0,0,.87.33,1.33,1.33,0,0,0,.54-.1,1.22,1.22,0,0,0,.41-.29,1.17,1.17,0,0,0,.27-.42,1.4,1.4,0,0,0,.11-.49,1.49,1.49,0,0,0-.13-.67,1.38,1.38,0,0,0-.4-.53,1.91,1.91,0,0,0-.61-.35,2.64,2.64,0,0,0-.77-.14,3.69,3.69,0,0,0-1.38.22,4,4,0,0,0-1.38.92,8.52,8.52,0,0,0-1.37,1.83,19.41,19.41,0,0,0-1.36,2.95h-.08q.22-1,.36-1.8a13.78,13.78,0,0,0,.17-1.58,5.66,5.66,0,0,0-.07-1.12,2.24,2.24,0,0,0-.31-.87,1.46,1.46,0,0,0-.61-.57,2.31,2.31,0,0,0-1-.23,2.56,2.56,0,0,0-1.48.38,4,4,0,0,0-1.12,1,5.74,5.74,0,0,0-.77,1.27,6.64,6.64,0,0,0-.4,1.15l.77.2A7.9,7.9,0,0,1,192.91,425.51Z" transform="translate(-99 -325.54)"/><path d="M205.42,436.61a2.9,2.9,0,0,0,1.1.88,3.58,3.58,0,0,0,1.39.32,3.92,3.92,0,0,0,.82-.06,3,3,0,0,0,.9-.29,4.5,4.5,0,0,0,1-.63,6.1,6.1,0,0,0,1-1.1,12.46,12.46,0,0,0,1-1.66,21.15,21.15,0,0,0,1-2.34h.08c-.17.7-.32,1.37-.43,2a11.44,11.44,0,0,0-.21,1.73,4.27,4.27,0,0,0,.08,1,2.13,2.13,0,0,0,.32.8,1.65,1.65,0,0,0,.63.54,2.37,2.37,0,0,0,1,.22,2.61,2.61,0,0,0,1.49-.38,4.4,4.4,0,0,0,1.13-1,5.93,5.93,0,0,0,.76-1.27,6.43,6.43,0,0,0,.4-1.16L218,434a7.9,7.9,0,0,1-.51,1.24,4,4,0,0,1-.56.81,2,2,0,0,1-.56.45,1,1,0,0,1-.5.12.65.65,0,0,1-.44-.15.83.83,0,0,1-.23-.36,1.87,1.87,0,0,1-.08-.5c0-.18,0-.36,0-.54,0-.42.07-1,.17-1.81s.23-1.69.38-2.69.32-2.08.51-3.22l.57-3.43a13.73,13.73,0,0,0-1.89-.42,14.17,14.17,0,0,0-1.85-.19,7.72,7.72,0,0,0-3.61.66,7.5,7.5,0,0,0-2.62,2,9.45,9.45,0,0,0-1.64,3,13.61,13.61,0,0,0-.64,3.72,7.75,7.75,0,0,0,.2,2.26A4.3,4.3,0,0,0,205.42,436.61Zm1.48-4.19a15,15,0,0,1,.4-3,10.28,10.28,0,0,1,1-2.62,5.64,5.64,0,0,1,1.61-1.83,3.57,3.57,0,0,1,2.24-.63,8.4,8.4,0,0,1,1.19.12,4.1,4.1,0,0,1,1,.3,17.91,17.91,0,0,1-.33,2.61,24.26,24.26,0,0,1-.69,2.7,21.07,21.07,0,0,1-1,2.53,15,15,0,0,1-1.17,2.09,6.67,6.67,0,0,1-1.28,1.42,2,2,0,0,1-1.3.5,1.24,1.24,0,0,1-.85-.34,2.18,2.18,0,0,1-.53-.87,5.23,5.23,0,0,1-.26-1.32A14.77,14.77,0,0,1,206.9,432.42Z" transform="translate(-99 -325.54)"/><path d="M220.54,426.48a3.67,3.67,0,0,1,.57-.82,2,2,0,0,1,.56-.45,1.25,1.25,0,0,1,.5-.12.62.62,0,0,1,.39.12.78.78,0,0,1,.22.28,1.18,1.18,0,0,1,.09.4,3.85,3.85,0,0,1,0,.48c0,.14,0,.26,0,.38s0,.24,0,.39,0,.34-.08.55l-.12.85c0,.34-.11.77-.19,1.27s-.17,1.13-.28,1.85c-.14,1-.26,1.79-.35,2.42s-.18,1.17-.23,1.6-.1.79-.13,1.07,0,.55,0,.8a3.13,3.13,0,0,0,0,.41l2.35.09c0-.24,0-.48,0-.72s0-.49,0-.78a13.28,13.28,0,0,1,.32-2.48,21.36,21.36,0,0,1,1.73-5,12.92,12.92,0,0,1,1.22-2,6.45,6.45,0,0,1,1.33-1.37,2.15,2.15,0,0,1,1.32-.48,1.2,1.2,0,0,1,.66.2,1.47,1.47,0,0,1,.38.45,1.9,1.9,0,0,1,.18.57,3.38,3.38,0,0,1,0,.54,22.6,22.6,0,0,1-.22,2.35c-.12.82-.24,1.63-.38,2.42s-.25,1.54-.37,2.25a14.4,14.4,0,0,0-.2,1.84,6,6,0,0,0,.06,1.16,2.27,2.27,0,0,0,.33.86,1.61,1.61,0,0,0,.68.55,3.06,3.06,0,0,0,1.1.22,2.59,2.59,0,0,0,1.49-.38,4.49,4.49,0,0,0,1.12-1,5.7,5.7,0,0,0,.76-1.27,6.78,6.78,0,0,0,.41-1.15l-.79-.21a7.81,7.81,0,0,1-.51,1.26,4.47,4.47,0,0,1-.56.82,1.76,1.76,0,0,1-.56.44,1.06,1.06,0,0,1-.5.13.69.69,0,0,1-.39-.12.76.76,0,0,1-.23-.3,1.08,1.08,0,0,1-.08-.42c0-.16,0-.32,0-.5a12.23,12.23,0,0,1,.19-1.52c.1-.62.22-1.3.35-2s.26-1.51.37-2.32a21.53,21.53,0,0,0,.22-2.37,6.37,6.37,0,0,0-.12-1.39,3.19,3.19,0,0,0-.48-1.18,2.52,2.52,0,0,0-.91-.83,3.33,3.33,0,0,0-1.41-.34,3.44,3.44,0,0,0-1.37.23,4.22,4.22,0,0,0-1.41.95,9.75,9.75,0,0,0-1.45,1.91,23.05,23.05,0,0,0-1.52,3.1h-.08c0-.22.1-.47.16-.74s.12-.55.18-.85.09-.61.14-.93.07-.62.08-.93a6.64,6.64,0,0,0-.06-1.11,2.88,2.88,0,0,0-.29-.94,1.82,1.82,0,0,0-.62-.67,2,2,0,0,0-1-.27,2.47,2.47,0,0,0-1.48.38,4.36,4.36,0,0,0-1.13,1,6.19,6.19,0,0,0-.76,1.27,6.71,6.71,0,0,0-.4,1.16l.77.19A6.25,6.25,0,0,1,220.54,426.48Z" transform="translate(-99 -325.54)"/><path d="M240.76,421a1.39,1.39,0,0,0,.46.33,1.33,1.33,0,0,0,.57.14,1.27,1.27,0,0,0,.58-.1,1.44,1.44,0,0,0,.49-.3,1.57,1.57,0,0,0,.35-.48,1.63,1.63,0,0,0,.14-.64,1.59,1.59,0,0,0-.37-1.18,1.4,1.4,0,0,0-1-.47,1.45,1.45,0,0,0-.58.1,1.41,1.41,0,0,0-.49.31,1.42,1.42,0,0,0-.35.49,1.72,1.72,0,0,0-.15.65,1.66,1.66,0,0,0,.09.64A1.55,1.55,0,0,0,240.76,421Z" transform="translate(-99 -325.54)"/><path d="M237.74,427.08a4.47,4.47,0,0,1,.57-.82,1.92,1.92,0,0,1,.56-.44,1.13,1.13,0,0,1,.51-.13.62.62,0,0,1,.39.14,1,1,0,0,1,.22.33,1.84,1.84,0,0,1,.1.42,1.79,1.79,0,0,1,0,.39,16.42,16.42,0,0,1-.25,2.34c-.14.76-.29,1.52-.46,2.28s-.31,1.52-.45,2.29a16.68,16.68,0,0,0-.26,2.37c-.06,1.75.75,2.66,2.44,2.72a2.43,2.43,0,0,0,1.39-.35,4,4,0,0,0,1-1,5.61,5.61,0,0,0,.73-1.26,8,8,0,0,0,.44-1.26L244,435a6.36,6.36,0,0,1-.51,1.24,4,4,0,0,1-.56.82,2,2,0,0,1-.56.45,1,1,0,0,1-.5.12.76.76,0,0,1-.66-.32,1.51,1.51,0,0,1-.17-.88,17.43,17.43,0,0,1,.25-2.43c.13-.83.29-1.65.45-2.45s.31-1.57.45-2.29a13.78,13.78,0,0,0,.23-1.92,4.56,4.56,0,0,0-.1-1.2,2.47,2.47,0,0,0-.41-.93,1.94,1.94,0,0,0-.71-.62,2.52,2.52,0,0,0-1-.25,2.49,2.49,0,0,0-1.47.38,4.23,4.23,0,0,0-1.09,1,5.75,5.75,0,0,0-.72,1.27,7.34,7.34,0,0,0-.38,1.16l.77.19A7.76,7.76,0,0,1,237.74,427.08Z" transform="translate(-99 -325.54)"/><path d="M254.35,437.87a3.58,3.58,0,0,0,1.14,1.18,3.28,3.28,0,0,0,1.67.48,3.85,3.85,0,0,0,1.3-.2,3.79,3.79,0,0,0,1.39-.86,8,8,0,0,0,1.41-1.82,15.23,15.23,0,0,0,1.34-3.08h.09c-.18.7-.3,1.34-.39,1.91a14,14,0,0,0-.16,1.68,3.82,3.82,0,0,0,.08,1,2.14,2.14,0,0,0,.36.81,1.82,1.82,0,0,0,.66.53,2.14,2.14,0,0,0,1,.22,2.49,2.49,0,0,0,1.48-.38,4.32,4.32,0,0,0,1.12-1,6,6,0,0,0,.77-1.27A7.68,7.68,0,0,0,268,436l-.81-.2a7.52,7.52,0,0,1-.51,1.24,4.48,4.48,0,0,1-.54.82,1.74,1.74,0,0,1-.55.44,1,1,0,0,1-.51.13.66.66,0,0,1-.42-.14.82.82,0,0,1-.21-.35,1.37,1.37,0,0,1-.07-.47c0-.18,0-.36,0-.54,0-.5.06-1.1.13-1.81s.16-1.46.26-2.28.22-1.67.35-2.57.26-1.79.4-2.68l.65-4.35c.05-.31.11-.67.17-1.07s.14-.83.22-1.27.15-.86.23-1.29.15-.81.22-1.15l-.81,0a2.16,2.16,0,0,1-.4.28,2.77,2.77,0,0,1-.64.22,7.2,7.2,0,0,1-1,.13,14.87,14.87,0,0,1-1.52,0l-.15,1.1,2,0c-.08.27-.15.53-.21.8s-.11.57-.17.9c-.11.65-.21,1.26-.29,1.83s-.16,1.11-.24,1.63a10.07,10.07,0,0,0-1.56-.18,8.39,8.39,0,0,0-3.57.57,6.89,6.89,0,0,0-2.62,1.83,8.12,8.12,0,0,0-1.64,2.88,12.83,12.83,0,0,0-.64,3.74,8.75,8.75,0,0,0,.15,2.08A5.28,5.28,0,0,0,254.35,437.87Zm1.63-4.2a14,14,0,0,1,.18-1.76,10.87,10.87,0,0,1,.43-1.77,8.67,8.67,0,0,1,.72-1.61,5.47,5.47,0,0,1,1-1.32,4.69,4.69,0,0,1,1.39-.88,4.39,4.39,0,0,1,1.77-.28,7.81,7.81,0,0,1,1,.1,5.29,5.29,0,0,1,.95.24c-.16,1.05-.3,2-.44,2.75s-.28,1.51-.45,2.16a18.87,18.87,0,0,1-.88,2.63,14.34,14.34,0,0,1-1.17,2.22,6.71,6.71,0,0,1-1.34,1.54,2.06,2.06,0,0,1-1.35.55,1.33,1.33,0,0,1-.91-.38,2.41,2.41,0,0,1-.58-1,6.23,6.23,0,0,1-.28-1.44A14.67,14.67,0,0,1,256,433.67Z" transform="translate(-99 -325.54)"/><path d="M269.92,438.86a2.78,2.78,0,0,0,1.09.88,3.58,3.58,0,0,0,1.39.32,4.68,4.68,0,0,0,.82-.05,3.76,3.76,0,0,0,.9-.29,5.38,5.38,0,0,0,1-.64,6.77,6.77,0,0,0,1-1.09,13.33,13.33,0,0,0,1-1.67,17.91,17.91,0,0,0,1-2.34h.08c-.17.71-.31,1.37-.43,2a11.44,11.44,0,0,0-.21,1.73,4.83,4.83,0,0,0,.08,1,2,2,0,0,0,.33.8,1.55,1.55,0,0,0,.62.54,2.25,2.25,0,0,0,.95.22,2.61,2.61,0,0,0,1.49-.38,4.23,4.23,0,0,0,1.13-1,5.35,5.35,0,0,0,.76-1.27,6.78,6.78,0,0,0,.41-1.15l-.79-.2a7,7,0,0,1-.51,1.24,4,4,0,0,1-.56.82,2.11,2.11,0,0,1-.56.44,1.13,1.13,0,0,1-.5.13.65.65,0,0,1-.44-.16.83.83,0,0,1-.23-.36,1.86,1.86,0,0,1-.08-.49c0-.19,0-.37,0-.55,0-.42.07-1,.17-1.81s.23-1.69.38-2.69.33-2.07.51-3.22l.57-3.43a13.73,13.73,0,0,0-1.89-.42,14.17,14.17,0,0,0-1.85-.19,7.65,7.65,0,0,0-3.6.66,7.44,7.44,0,0,0-2.63,2,9.29,9.29,0,0,0-1.63,3.05,13.17,13.17,0,0,0-.65,3.71,8.08,8.08,0,0,0,.2,2.26A4.14,4.14,0,0,0,269.92,438.86Zm1.47-4.19a14.36,14.36,0,0,1,.41-3,9.58,9.58,0,0,1,1-2.62,5.63,5.63,0,0,1,1.61-1.83,3.54,3.54,0,0,1,2.23-.63,8.65,8.65,0,0,1,1.2.13,3.73,3.73,0,0,1,1,.29,17.91,17.91,0,0,1-.33,2.61,20.54,20.54,0,0,1-.69,2.7,21.07,21.07,0,0,1-1,2.53,14.41,14.41,0,0,1-1.17,2.09,6.41,6.41,0,0,1-1.27,1.42,2,2,0,0,1-1.31.5,1.21,1.21,0,0,1-.85-.34,2.18,2.18,0,0,1-.53-.87,5.24,5.24,0,0,1-.26-1.31A14.9,14.9,0,0,1,271.39,434.67Z" transform="translate(-99 -325.54)"/><path d="M285,428.73a4,4,0,0,1,.57-.82,2.11,2.11,0,0,1,.56-.44,1.13,1.13,0,0,1,.51-.13.69.69,0,0,1,.38.12.62.62,0,0,1,.22.28,1.18,1.18,0,0,1,.09.41,2.53,2.53,0,0,1,0,.48c0,.13,0,.26,0,.37s0,.25,0,.39,0,.34-.07.56-.08.49-.13.84-.11.77-.19,1.28-.17,1.12-.28,1.85c-.14,1-.26,1.78-.35,2.42s-.17,1.16-.23,1.59-.1.79-.13,1.07,0,.55-.05.81c0,.07,0,.21,0,.41l2.35.08c0-.24,0-.48,0-.71s0-.5,0-.78a14.28,14.28,0,0,1,.32-2.49,21.36,21.36,0,0,1,1.73-5,12.92,12.92,0,0,1,1.22-2,6.16,6.16,0,0,1,1.33-1.36,2,2,0,0,1,1.32-.48,1.06,1.06,0,0,1,.66.2,1.27,1.27,0,0,1,.38.45,1.75,1.75,0,0,1,.18.56,2.55,2.55,0,0,1,0,.54,20,20,0,0,1-.22,2.35c-.12.82-.24,1.63-.37,2.42s-.26,1.55-.38,2.25a16.47,16.47,0,0,0-.2,1.84,6.84,6.84,0,0,0,.06,1.16,2.07,2.07,0,0,0,.34.86,1.58,1.58,0,0,0,.67.55,3.07,3.07,0,0,0,1.11.22,2.56,2.56,0,0,0,1.48-.38,4.32,4.32,0,0,0,1.12-1,5.49,5.49,0,0,0,.76-1.26,6.85,6.85,0,0,0,.41-1.16l-.79-.21a6.33,6.33,0,0,1-.51,1.26,4,4,0,0,1-.56.82,2,2,0,0,1-.56.45,1,1,0,0,1-.5.12.59.59,0,0,1-.39-.12.7.7,0,0,1-.22-.29,1.13,1.13,0,0,1-.09-.43c0-.16,0-.32,0-.5a12.46,12.46,0,0,1,.19-1.52c.11-.62.22-1.29.36-2s.25-1.52.36-2.32a21.94,21.94,0,0,0,.22-2.38,5.8,5.8,0,0,0-.12-1.39,3.26,3.26,0,0,0-.48-1.18,2.49,2.49,0,0,0-.91-.82,3.19,3.19,0,0,0-1.41-.35,3.48,3.48,0,0,0-1.37.24,4,4,0,0,0-1.4.95,9.29,9.29,0,0,0-1.46,1.9,23.05,23.05,0,0,0-1.52,3.1H289l.16-.73c.07-.28.13-.56.18-.86s.1-.61.14-.93.07-.62.08-.92a6.71,6.71,0,0,0-.06-1.12,3,3,0,0,0-.29-.94,1.81,1.81,0,0,0-.62-.67,2.08,2.08,0,0,0-1-.27,2.56,2.56,0,0,0-1.48.38,4.16,4.16,0,0,0-1.12,1,6,6,0,0,0-.77,1.28,6.64,6.64,0,0,0-.4,1.15l.77.19A8.17,8.17,0,0,1,285,428.73Z" transform="translate(-99 -325.54)"/><path d="M303.26,434c-.15,1.23-.28,2.42-.4,3.55s-.22,2.2-.34,3.19-.24,1.88-.39,2.68a11.91,11.91,0,0,1-.53,2.07,3.6,3.6,0,0,1-.77,1.31,1.42,1.42,0,0,1-1.11.43,1.38,1.38,0,0,1-.82-.24,1.44,1.44,0,0,0-.26-.93,1,1,0,0,0-.79-.38,1.14,1.14,0,0,0-.54.09,1,1,0,0,0-.56.66,1.25,1.25,0,0,0-.08.35c0,1,.68,1.48,2.14,1.53a4.53,4.53,0,0,0,2.4-.5,4.86,4.86,0,0,0,1.67-1.53,9.13,9.13,0,0,0,1.1-2.35,25.2,25.2,0,0,0,.7-2.93c.19-1,.34-2.13.47-3.26s.26-2.27.4-3.39.25-2.17.34-3.21.18-2.06.27-3l4,.09.12-1.09-4-.14c.1-.91.22-1.74.36-2.51a9.33,9.33,0,0,1,.55-2,3.37,3.37,0,0,1,.83-1.25,1.73,1.73,0,0,1,1.24-.41,1.36,1.36,0,0,1,.36.05.63.63,0,0,1,.24.09v.11a1.4,1.4,0,0,0,.27.94,1,1,0,0,0,.8.39,1.22,1.22,0,0,0,.53-.1,1,1,0,0,0,.56-.63,1.75,1.75,0,0,0,.07-.36,1.27,1.27,0,0,0-.49-1.08,2.49,2.49,0,0,0-1.49-.43,4.79,4.79,0,0,0-2.44.47,4.92,4.92,0,0,0-1.7,1.48,8,8,0,0,0-1.11,2.27,21.45,21.45,0,0,0-.7,2.84l-2.46-.08-.18,1.2L304,428c-.14,1-.26,1.95-.36,2.95S303.39,433,303.26,434Z" transform="translate(-99 -325.54)"/><path d="M311.13,428.26a5.79,5.79,0,0,0-.73,1.27,7.51,7.51,0,0,0-.39,1.16l.77.19a7.8,7.8,0,0,1,.5-1.23,4.16,4.16,0,0,1,.53-.82,1.79,1.79,0,0,1,.54-.45.94.94,0,0,1,.5-.12.61.61,0,0,1,.39.12.7.7,0,0,1,.22.29,1.36,1.36,0,0,1,.09.42,4.17,4.17,0,0,1,0,.5,10.86,10.86,0,0,1-.19,1.53c-.11.61-.24,1.29-.38,2s-.27,1.5-.39,2.3a21.7,21.7,0,0,0-.21,2.37,5.81,5.81,0,0,0,.11,1.39,3.28,3.28,0,0,0,.49,1.18,2.43,2.43,0,0,0,.91.83,3.13,3.13,0,0,0,1.42.35,3.57,3.57,0,0,0,1.33-.22,3.78,3.78,0,0,0,1.32-.92,9.34,9.34,0,0,0,1.37-1.87,26,26,0,0,0,1.47-3.08h.08c-.16.71-.3,1.37-.42,2a11.44,11.44,0,0,0-.21,1.73,3.82,3.82,0,0,0,.08,1,2.32,2.32,0,0,0,.37.81,1.79,1.79,0,0,0,.65.53,2.17,2.17,0,0,0,1,.22,2.55,2.55,0,0,0,1.5-.38,4.28,4.28,0,0,0,1.11-1,6.67,6.67,0,0,0,.76-1.27,7.68,7.68,0,0,0,.4-1.16l-.77-.19a7.9,7.9,0,0,1-.51,1.24,4.47,4.47,0,0,1-.57.82,1.69,1.69,0,0,1-.57.44,1.29,1.29,0,0,1-.5.12.6.6,0,0,1-.58-.38,2.18,2.18,0,0,1-.12-.88c0-.13,0-.26,0-.37a2.62,2.62,0,0,1,0-.37c0-.14,0-.32.07-.53s.08-.48.13-.82.11-.76.18-1.26.17-1.11.28-1.84c.15-1,.28-1.8.37-2.45s.17-1.19.23-1.63.1-.81.12-1.1,0-.57.05-.83c0-.08,0-.21,0-.41l-2.35-.09c0,.24,0,.48,0,.72s0,.49,0,.78a16.11,16.11,0,0,1-.3,2.47,21.82,21.82,0,0,1-1.64,5,14.41,14.41,0,0,1-1.17,2,6.24,6.24,0,0,1-1.28,1.36,2,2,0,0,1-1.3.48,1.13,1.13,0,0,1-.66-.21,1.19,1.19,0,0,1-.39-.47,1.94,1.94,0,0,1-.17-.58c0-.2,0-.38,0-.55,0-.39.05-.83.12-1.31s.13-1,.22-1.53.18-1.08.28-1.63.18-1.08.27-1.6.16-1,.22-1.48a10,10,0,0,0,.11-1.23,3,3,0,0,0-.5-2,2.08,2.08,0,0,0-1.67-.76,2.52,2.52,0,0,0-1.48.38A3.92,3.92,0,0,0,311.13,428.26Z" transform="translate(-99 -325.54)"/><polygon points="52.79 150.09 70.61 150.71 70.76 149.22 52.94 148.47 52.79 150.09"/><path d="M173.48,473.28a1.58,1.58,0,0,0,.48.38,1.42,1.42,0,0,0,.61.16,1.36,1.36,0,0,0,.63-.12,1.92,1.92,0,0,0,.56-.36,2,2,0,0,0,.41-.57,1.92,1.92,0,0,0,.19-.72V472a1.84,1.84,0,0,0-.36-1.24,1.34,1.34,0,0,0-1.08-.53,1.59,1.59,0,0,0-.67.12,1.79,1.79,0,0,0-.59.39,2,2,0,0,0-.43.6,2,2,0,0,0-.17.73,1.73,1.73,0,0,0,.1.69A2,2,0,0,0,173.48,473.28Z" transform="translate(-99 -325.54)"/><path d="M185.63,471.1a4.46,4.46,0,0,1-.58.85,1.91,1.91,0,0,1-.58.46,1.1,1.1,0,0,1-.52.14.8.8,0,0,1-.68-.34,1.51,1.51,0,0,1-.18-.91,20.66,20.66,0,0,1,.25-2.52c.15-.86.31-1.71.48-2.54s.32-1.62.46-2.36a13.48,13.48,0,0,0,.24-2,4.79,4.79,0,0,0-.1-1.23,2.77,2.77,0,0,0-.42-1,2.21,2.21,0,0,0-.75-.64,2.47,2.47,0,0,0-1.06-.26,2.55,2.55,0,0,0-1.53.4,4.3,4.3,0,0,0-1.12,1.05,6.21,6.21,0,0,0-.75,1.32,9.51,9.51,0,0,0-.39,1.19l.8.2a6.77,6.77,0,0,1,.53-1.28,4,4,0,0,1,.58-.84,2.07,2.07,0,0,1,.59-.46,1.05,1.05,0,0,1,.52-.13.58.58,0,0,1,.41.15.87.87,0,0,1,.22.34,1.51,1.51,0,0,1,.11.43,3,3,0,0,1,0,.41,17.73,17.73,0,0,1-.26,2.42c-.15.79-.3,1.58-.47,2.36s-.33,1.57-.48,2.37a17.67,17.67,0,0,0-.26,2.45q-.09,2.73,2.52,2.82a2.5,2.5,0,0,0,1.44-.36,4.1,4.1,0,0,0,1.09-1,5.89,5.89,0,0,0,.76-1.31A8.51,8.51,0,0,0,187,470l-.81-.19A7.5,7.5,0,0,1,185.63,471.1Z" transform="translate(-99 -325.54)"/><path d="M183.33,455.73a1.65,1.65,0,0,0,.59.14,1.52,1.52,0,0,0,.6-.1,1.69,1.69,0,0,0,.51-.32,1.64,1.64,0,0,0,.36-.49,1.77,1.77,0,0,0,.15-.66,1.71,1.71,0,0,0-.39-1.23,1.41,1.41,0,0,0-1.08-.48,1.36,1.36,0,0,0-.6.1,1.54,1.54,0,0,0-.88.83,1.78,1.78,0,0,0-.15.67,1.65,1.65,0,0,0,.1.67,1.44,1.44,0,0,0,.31.52A1.85,1.85,0,0,0,183.33,455.73Z" transform="translate(-99 -325.54)"/><path d="M211,470.86l-.84-.22a7,7,0,0,1-.52,1.29,4.16,4.16,0,0,1-.57.85,1.77,1.77,0,0,1-.57.46,1.05,1.05,0,0,1-.52.13.62.62,0,0,1-.43-.15.75.75,0,0,1-.22-.35,1.53,1.53,0,0,1-.08-.49c0-.19,0-.37,0-.56,0-.52.06-1.15.13-1.87s.17-1.52.27-2.37.23-1.73.36-2.66.28-1.85.41-2.78l.68-4.5q.07-.48.18-1.11c.06-.43.14-.86.22-1.31l.24-1.34c.09-.44.16-.84.23-1.2l-.83,0a2,2,0,0,1-.43.29,2.38,2.38,0,0,1-.66.23,7.31,7.31,0,0,1-1,.14c-.42,0-.95,0-1.58,0l-.15,1.14,2.11,0a8.3,8.3,0,0,0-.22.82c-.05.28-.11.59-.17.94-.12.68-.22,1.31-.31,1.89s-.16,1.15-.24,1.69a10.71,10.71,0,0,0-1.62-.19,9,9,0,0,0-3.7.59,7.27,7.27,0,0,0-2.71,1.9,8.54,8.54,0,0,0-1.7,3,13.74,13.74,0,0,0-.66,3.88,9.36,9.36,0,0,0,.15,2.15,5.57,5.57,0,0,0,.67,1.77,3.66,3.66,0,0,0,1.18,1.23,3.37,3.37,0,0,0,1.72.49,3.79,3.79,0,0,0,2.79-1.09,8.32,8.32,0,0,0,1.46-1.89,16.63,16.63,0,0,0,1.4-3.19h.08c-.18.73-.31,1.39-.4,2a15.05,15.05,0,0,0-.17,1.74,4.63,4.63,0,0,0,.09,1.08,2.19,2.19,0,0,0,.38.83,1.83,1.83,0,0,0,.67.56,2.47,2.47,0,0,0,1,.22,2.65,2.65,0,0,0,1.53-.39,4.5,4.5,0,0,0,1.17-1.05,6.41,6.41,0,0,0,.79-1.32A6.51,6.51,0,0,0,211,470.86Zm-5.17-7.06c-.14.82-.29,1.57-.47,2.24a18.87,18.87,0,0,1-.91,2.72,14.65,14.65,0,0,1-1.22,2.31,7.38,7.38,0,0,1-1.38,1.59,2.1,2.1,0,0,1-1.4.56,1.36,1.36,0,0,1-.94-.38,2.69,2.69,0,0,1-.6-1,6.67,6.67,0,0,1-.29-1.49,15.7,15.7,0,0,1,0-1.85,17.33,17.33,0,0,1,.19-1.82,11.37,11.37,0,0,1,.45-1.83,8.65,8.65,0,0,1,.74-1.67,5.64,5.64,0,0,1,1.08-1.37,4.41,4.41,0,0,1,3.28-1.2c.33,0,.66,0,1,.1a5.67,5.67,0,0,1,1,.26C206.16,462,206,463,205.87,463.8Z" transform="translate(-99 -325.54)"/><path d="M218.13,473.11a1.92,1.92,0,0,1-.57.46,1.08,1.08,0,0,1-.52.13.8.8,0,0,1-.69-.33,1.71,1.71,0,0,1-.18-.92,20.37,20.37,0,0,1,.26-2.51c.14-.86.3-1.71.47-2.54s.33-1.62.47-2.37a13.36,13.36,0,0,0,.24-2,4.81,4.81,0,0,0-.11-1.24,2.47,2.47,0,0,0-.42-1,2.11,2.11,0,0,0-.74-.65,2.51,2.51,0,0,0-1.06-.25,2.57,2.57,0,0,0-1.53.39,4.15,4.15,0,0,0-1.12,1.05,6.21,6.21,0,0,0-.75,1.32,8,8,0,0,0-.4,1.2l.81.2a6.79,6.79,0,0,1,.52-1.28,4.33,4.33,0,0,1,.59-.85,2.47,2.47,0,0,1,.58-.46,1.21,1.21,0,0,1,.53-.13.63.63,0,0,1,.4.15,1,1,0,0,1,.23.34,2.09,2.09,0,0,1,.11.43c0,.15,0,.29,0,.41a16.15,16.15,0,0,1-.27,2.42c-.14.79-.3,1.58-.47,2.36s-.32,1.57-.47,2.37a16.54,16.54,0,0,0-.26,2.45c-.07,1.82.78,2.76,2.52,2.82a2.5,2.5,0,0,0,1.44-.36,4.06,4.06,0,0,0,1.09-1,6.58,6.58,0,0,0,.76-1.31,8.89,8.89,0,0,0,.45-1.31l-.82-.2a7.33,7.33,0,0,1-.52,1.29A4.8,4.8,0,0,1,218.13,473.11Z" transform="translate(-99 -325.54)"/><path d="M216.41,456.88a1.33,1.33,0,0,0,.6.14,1.36,1.36,0,0,0,.6-.1,1.66,1.66,0,0,0,.51-.31,1.8,1.8,0,0,0,.35-.5,1.73,1.73,0,0,0,.15-.66,1.66,1.66,0,0,0-.38-1.22,1.45,1.45,0,0,0-1.09-.49,1.58,1.58,0,0,0-.6.1,1.52,1.52,0,0,0-.51.32,1.57,1.57,0,0,0-.36.51,1.65,1.65,0,0,0-.16.67,2,2,0,0,0,.1.67,1.46,1.46,0,0,0,.32.52A1.35,1.35,0,0,0,216.41,456.88Z" transform="translate(-99 -325.54)"/><path d="M224.05,458.65a7.36,7.36,0,0,1-.56,1.05,6.07,6.07,0,0,1-.56.75l.7.6a9.39,9.39,0,0,0,1.09-1.42,13.12,13.12,0,0,0,.8-1.52,9.74,9.74,0,0,0,.49-1.47,6.67,6.67,0,0,0,.2-1.25,2.66,2.66,0,0,0-.43-1.67,1.6,1.6,0,0,0-1.35-.67,1.85,1.85,0,0,0-.63.08,1.52,1.52,0,0,0-.53.29,1.45,1.45,0,0,0-.37.5,1.85,1.85,0,0,0-.15.7,1.44,1.44,0,0,0,.07.5,1.26,1.26,0,0,0,.25.44,1.3,1.3,0,0,0,.39.31,1,1,0,0,0,.51.13,1.82,1.82,0,0,0,.33,0l.36-.09h0a6.57,6.57,0,0,1-.21,1.53A8,8,0,0,1,224.05,458.65Z" transform="translate(-99 -325.54)"/><path d="M233,468.07a14.94,14.94,0,0,0,1.82-.61,6.65,6.65,0,0,0,1.54-.84,4,4,0,0,0,1.07-1.11,2.81,2.81,0,0,0,.44-1.44,3.34,3.34,0,0,0-.29-1.58,2.87,2.87,0,0,0-.88-1.06,3.89,3.89,0,0,0-1.28-.61,6.09,6.09,0,0,0-1.48-.23,6.43,6.43,0,0,0-2.19.27,6.24,6.24,0,0,0-3.22,2.3,9,9,0,0,0-1,1.79,10.32,10.32,0,0,0-.65,2.06,11.61,11.61,0,0,0-.27,2.2,9.65,9.65,0,0,0,.23,2.59,5.32,5.32,0,0,0,.91,2,4.54,4.54,0,0,0,1.63,1.34,6.33,6.33,0,0,0,5.88-.42,9.48,9.48,0,0,0,2.85-3.25l-.93-.57a8.59,8.59,0,0,1-1.11,1.54,5.76,5.76,0,0,1-1.22,1,4.55,4.55,0,0,1-1.27.59,4.36,4.36,0,0,1-1.28.16,2.69,2.69,0,0,1-2.46-1.45,8.36,8.36,0,0,1-.66-4.1c.6-.05,1.24-.12,1.9-.21S232.34,468.23,233,468.07Zm-3.35-2.71a7.83,7.83,0,0,1,.82-2,4.23,4.23,0,0,1,1.27-1.35,2.8,2.8,0,0,1,1.75-.47,2.14,2.14,0,0,1,.91.2,1.79,1.79,0,0,1,.63.49,1.89,1.89,0,0,1,.35.71,2.74,2.74,0,0,1,.1.87,2.35,2.35,0,0,1-.58,1.49,4.89,4.89,0,0,1-1.44,1.13,9.15,9.15,0,0,1-2,.76,15.49,15.49,0,0,1-2.26.4A14.11,14.11,0,0,1,229.63,465.36Z" transform="translate(-99 -325.54)"/><polygon points="51.85 177.07 69.67 177.69 69.82 176.2 51.99 175.45 51.85 177.07"/><path d="M172.54,500.26a1.79,1.79,0,0,0,.48.39,1.57,1.57,0,0,0,.61.15,1.39,1.39,0,0,0,.63-.12,1.85,1.85,0,0,0,.56-.36,1.74,1.74,0,0,0,.41-.57,1.92,1.92,0,0,0,.19-.71v-.1a1.88,1.88,0,0,0-.37-1.25,1.32,1.32,0,0,0-1.07-.53,1.56,1.56,0,0,0-.67.12,2.16,2.16,0,0,0-.59.39,2,2,0,0,0-.43.6,1.83,1.83,0,0,0-.17.74,1.78,1.78,0,0,0,.1.69A1.82,1.82,0,0,0,172.54,500.26Z" transform="translate(-99 -325.54)"/><path d="M182.38,482.71a1.47,1.47,0,0,0,.6.14,1.52,1.52,0,0,0,.6-.1,1.66,1.66,0,0,0,.51-.31,1.8,1.8,0,0,0,.35-.5,1.45,1.45,0,0,0,.15-.66,1.66,1.66,0,0,0-.38-1.23,1.48,1.48,0,0,0-1.09-.48,1.34,1.34,0,0,0-.59.1,1.46,1.46,0,0,0-.52.32,1.57,1.57,0,0,0-.36.51,1.47,1.47,0,0,0-.15.67,1.79,1.79,0,0,0,.09.67,1.62,1.62,0,0,0,.32.52A1.48,1.48,0,0,0,182.38,482.71Z" transform="translate(-99 -325.54)"/><path d="M184.69,498.09a4.8,4.8,0,0,1-.58.85,2.08,2.08,0,0,1-.58.46,1.21,1.21,0,0,1-.52.13.75.75,0,0,1-.68-.34,1.49,1.49,0,0,1-.18-.91,18.55,18.55,0,0,1,.25-2.51c.15-.87.3-1.71.47-2.54s.33-1.62.47-2.37a13.36,13.36,0,0,0,.24-2,4.81,4.81,0,0,0-.11-1.24,2.47,2.47,0,0,0-.42-1,2,2,0,0,0-.74-.65,2.47,2.47,0,0,0-1.06-.25,2.61,2.61,0,0,0-1.53.39,4.3,4.3,0,0,0-1.12,1,6.21,6.21,0,0,0-.75,1.32,7.81,7.81,0,0,0-.39,1.2l.8.2a7.21,7.21,0,0,1,.52-1.28,4.33,4.33,0,0,1,.59-.85,2.11,2.11,0,0,1,.59-.46,1.17,1.17,0,0,1,.52-.13.63.63,0,0,1,.4.15.89.89,0,0,1,.23.34,2.09,2.09,0,0,1,.11.43,3,3,0,0,1,0,.41A17.56,17.56,0,0,1,181,491c-.15.79-.31,1.58-.48,2.36s-.32,1.57-.47,2.37a17.83,17.83,0,0,0-.26,2.45q-.09,2.73,2.52,2.82a2.5,2.5,0,0,0,1.44-.36,4.1,4.1,0,0,0,1.09-1,5.83,5.83,0,0,0,.76-1.3A8.89,8.89,0,0,0,186,497l-.82-.2A7.2,7.2,0,0,1,184.69,498.09Z" transform="translate(-99 -325.54)"/><path d="M210.1,497.84l-.84-.21a7.33,7.33,0,0,1-.52,1.29,4.81,4.81,0,0,1-.57.85,2.09,2.09,0,0,1-.57.46,1.17,1.17,0,0,1-.52.13.67.67,0,0,1-.43-.15,1,1,0,0,1-.23-.36,1.81,1.81,0,0,1-.07-.49v-.56c0-.52.07-1.14.14-1.87s.16-1.52.27-2.36.22-1.74.36-2.67.27-1.85.41-2.77l.68-4.51c0-.32.11-.69.17-1.11s.14-.86.23-1.31l.24-1.34c.08-.44.16-.84.23-1.19l-.84,0a2.05,2.05,0,0,1-.42.29,2.76,2.76,0,0,1-.66.23,7.5,7.5,0,0,1-1,.13c-.43,0-1,0-1.58,0l-.16,1.14,2.12,0a7.62,7.62,0,0,0-.22.82c-.05.27-.11.58-.17.93-.12.68-.22,1.31-.31,1.9s-.17,1.15-.24,1.68a10.85,10.85,0,0,0-1.62-.18,8.81,8.81,0,0,0-3.7.59,7.25,7.25,0,0,0-2.71,1.89,8.59,8.59,0,0,0-1.7,3,13.73,13.73,0,0,0-.67,3.87,9.89,9.89,0,0,0,.16,2.15,6,6,0,0,0,.66,1.78,3.66,3.66,0,0,0,1.19,1.22,3.28,3.28,0,0,0,1.72.49,3.85,3.85,0,0,0,1.35-.2,3.93,3.93,0,0,0,1.44-.89,8.53,8.53,0,0,0,1.46-1.88,16.34,16.34,0,0,0,1.39-3.19h.09c-.18.73-.31,1.39-.4,2a15.49,15.49,0,0,0-.17,1.74,4.54,4.54,0,0,0,.09,1.08,2.29,2.29,0,0,0,.37.84,2,2,0,0,0,.68.55,2.46,2.46,0,0,0,1,.23,2.67,2.67,0,0,0,1.54-.39,4.52,4.52,0,0,0,1.16-1.06,5.71,5.71,0,0,0,.79-1.31A7.27,7.27,0,0,0,210.1,497.84Zm-5.17-7c-.14.81-.3,1.56-.47,2.23a18.63,18.63,0,0,1-.92,2.73,14.52,14.52,0,0,1-1.21,2.3,7.38,7.38,0,0,1-1.38,1.59,2.17,2.17,0,0,1-1.4.57,1.46,1.46,0,0,1-1-.39,2.6,2.6,0,0,1-.59-1,6.53,6.53,0,0,1-.3-1.49,15.69,15.69,0,0,1,0-1.84,13.09,13.09,0,0,1,.19-1.82,12.64,12.64,0,0,1,.44-1.84,9.34,9.34,0,0,1,.75-1.67,5.59,5.59,0,0,1,1.08-1.36,4.69,4.69,0,0,1,1.44-.91,4.3,4.3,0,0,1,1.83-.29,6.91,6.91,0,0,1,1,.1,5.31,5.31,0,0,1,1,.25C205.21,489,205.06,490,204.93,490.79Z" transform="translate(-99 -325.54)"/><path d="M215.47,483.87a1.65,1.65,0,0,0,.6.14,1.8,1.8,0,0,0,.6-.1,1.61,1.61,0,0,0,.86-.82,1.89,1.89,0,0,0-.23-1.88,1.47,1.47,0,0,0-1.09-.49,1.72,1.72,0,0,0-.6.1,1.54,1.54,0,0,0-.51.33,1.59,1.59,0,0,0-.37.51,1.78,1.78,0,0,0-.15.67,1.76,1.76,0,0,0,.1.66,1.65,1.65,0,0,0,.31.53A1.85,1.85,0,0,0,215.47,483.87Z" transform="translate(-99 -325.54)"/><path d="M213.59,494.48c-.17.78-.33,1.57-.47,2.37a15.06,15.06,0,0,0-.26,2.45q-.11,2.73,2.52,2.82a2.44,2.44,0,0,0,1.43-.36,4,4,0,0,0,1.1-1,6.31,6.31,0,0,0,.76-1.31,8.51,8.51,0,0,0,.45-1.31l-.82-.19a6.77,6.77,0,0,1-.53,1.28,4,4,0,0,1-.58.85,1.89,1.89,0,0,1-.57.46,1,1,0,0,1-.53.13.78.78,0,0,1-.68-.33,1.69,1.69,0,0,1-.18-.92,20.57,20.57,0,0,1,.26-2.51c.14-.86.3-1.71.47-2.54s.33-1.62.47-2.36a16.81,16.81,0,0,0,.24-2,4.77,4.77,0,0,0-.11-1.23,2.77,2.77,0,0,0-.42-1,2.09,2.09,0,0,0-.74-.64,2.37,2.37,0,0,0-1.06-.26,2.57,2.57,0,0,0-1.53.39,4.35,4.35,0,0,0-1.12,1.06,5.46,5.46,0,0,0-.75,1.32,8.3,8.3,0,0,0-.4,1.19l.8.2a7.5,7.5,0,0,1,.53-1.28,4,4,0,0,1,.59-.84,1.91,1.91,0,0,1,.58-.46,1.08,1.08,0,0,1,.52-.13.56.56,0,0,1,.41.15.82.82,0,0,1,.23.34,1.43,1.43,0,0,1,.1.43,1.94,1.94,0,0,1,0,.41,15.05,15.05,0,0,1-.26,2.42C213.92,492.91,213.76,493.7,213.59,494.48Z" transform="translate(-99 -325.54)"/><path d="M224.57,485.09a8.81,8.81,0,0,0,.5-1.47,5.76,5.76,0,0,0,.19-1.25,2.56,2.56,0,0,0-.42-1.66,1.64,1.64,0,0,0-1.35-.68,1.82,1.82,0,0,0-.63.08,1.62,1.62,0,0,0-.53.3,1.3,1.3,0,0,0-.37.49,1.57,1.57,0,0,0-.15.7,1.21,1.21,0,0,0,.07.5,1.41,1.41,0,0,0,.25.45,1.34,1.34,0,0,0,.39.31,1.2,1.2,0,0,0,.51.13,1.88,1.88,0,0,0,.33,0,1.35,1.35,0,0,0,.36-.09h0a6.56,6.56,0,0,1-.21,1.52,8.77,8.77,0,0,1-.44,1.22,7.36,7.36,0,0,1-.56,1.05,4.27,4.27,0,0,1-.57.75l.71.61a9.47,9.47,0,0,0,1.09-1.43A11,11,0,0,0,224.57,485.09Z" transform="translate(-99 -325.54)"/><path d="M241,501.48a6,6,0,0,0,.79-1.32,7.27,7.27,0,0,0,.42-1.2l-.81-.2a6.64,6.64,0,0,1-.52,1.29,4.33,4.33,0,0,1-.59.85,2.06,2.06,0,0,1-.59.45,1.24,1.24,0,0,1-.52.13.62.62,0,0,1-.6-.4,2.3,2.3,0,0,1-.13-.91c0-.14,0-.27,0-.38s0-.24,0-.39,0-.32.07-.54.08-.5.13-.85.12-.79.19-1.31.18-1.15.29-1.9c.16-1,.29-1.86.39-2.54s.17-1.23.23-1.69.1-.83.13-1.14,0-.59,0-.86c0-.08,0-.22,0-.43l-2.44-.08c0,.24,0,.49,0,.74s0,.51,0,.8a16.12,16.12,0,0,1-.3,2.57,22.18,22.18,0,0,1-.71,2.66,21.35,21.35,0,0,1-1,2.5,13.29,13.29,0,0,1-1.2,2.07,6.56,6.56,0,0,1-1.33,1.42,2.09,2.09,0,0,1-1.35.49,1.17,1.17,0,0,1-.68-.21,1.47,1.47,0,0,1-.41-.49,1.79,1.79,0,0,1-.17-.6,2.87,2.87,0,0,1,0-.57,12,12,0,0,1,.12-1.36c.06-.51.14-1,.23-1.59s.18-1.11.28-1.68.2-1.12.29-1.66.16-1,.23-1.53.1-.91.11-1.28a3.16,3.16,0,0,0-.52-2.11,2.13,2.13,0,0,0-1.73-.78,2.61,2.61,0,0,0-1.53.39,4.19,4.19,0,0,0-1.13,1.05,6.73,6.73,0,0,0-.76,1.32,8,8,0,0,0-.4,1.2l.8.2a8.51,8.51,0,0,1,.51-1.28,4.81,4.81,0,0,1,.56-.85A1.84,1.84,0,0,1,228,489a1.08,1.08,0,0,1,.52-.13.62.62,0,0,1,.4.13.68.68,0,0,1,.23.3,1,1,0,0,1,.09.44c0,.16,0,.33,0,.51a11.5,11.5,0,0,1-.2,1.58l-.39,2.1c-.15.76-.28,1.55-.4,2.38a20.88,20.88,0,0,0-.23,2.45,5.68,5.68,0,0,0,.12,1.44,3.54,3.54,0,0,0,.5,1.23,2.72,2.72,0,0,0,1,.86,3.19,3.19,0,0,0,1.47.36,3.64,3.64,0,0,0,1.38-.23,4,4,0,0,0,1.37-.95,9.76,9.76,0,0,0,1.41-1.94,26.21,26.21,0,0,0,1.53-3.19h.08c-.16.73-.31,1.42-.44,2.07a12.61,12.61,0,0,0-.22,1.79,4.54,4.54,0,0,0,.09,1.08,2.16,2.16,0,0,0,.38.84,1.81,1.81,0,0,0,.67.55,2.35,2.35,0,0,0,1,.23,2.7,2.7,0,0,0,1.55-.39A4.44,4.44,0,0,0,241,501.48Z" transform="translate(-99 -325.54)"/><polygon points="50.91 204.06 68.72 204.68 68.88 203.18 51.05 202.43 50.91 204.06"/><path d="M173,524.14a1.57,1.57,0,0,0-.67.13,1.94,1.94,0,0,0-.6.39,2.1,2.1,0,0,0-.42.59,1.87,1.87,0,0,0-.18.74,1.92,1.92,0,0,0,.11.69,1.68,1.68,0,0,0,.32.57,1.5,1.5,0,0,0,.48.38,1.41,1.41,0,0,0,.6.16,1.77,1.77,0,0,0,.64-.12,2,2,0,0,0,.56-.37,2,2,0,0,0,.41-.56,2,2,0,0,0,.18-.72v-.1a1.83,1.83,0,0,0-.37-1.24A1.36,1.36,0,0,0,173,524.14Z" transform="translate(-99 -325.54)"/><path d="M183.75,525.07a4.45,4.45,0,0,1-.59.85,2.05,2.05,0,0,1-.57.46,1.08,1.08,0,0,1-.52.13.8.8,0,0,1-.69-.33,1.71,1.71,0,0,1-.18-.92,20.37,20.37,0,0,1,.26-2.51c.14-.86.3-1.71.47-2.54s.33-1.62.47-2.36a13.63,13.63,0,0,0,.24-2,4.85,4.85,0,0,0-.11-1.24,2.62,2.62,0,0,0-.42-1,2,2,0,0,0-.74-.64,2.37,2.37,0,0,0-1.06-.26,2.57,2.57,0,0,0-1.53.39,4.31,4.31,0,0,0-1.12,1.05,5.81,5.81,0,0,0-.75,1.32,8.37,8.37,0,0,0-.4,1.2l.8.2a7.5,7.5,0,0,1,.53-1.28,4,4,0,0,1,.59-.84,2,2,0,0,1,.58-.46,1,1,0,0,1,.52-.13.6.6,0,0,1,.41.14.93.93,0,0,1,.23.35,1.43,1.43,0,0,1,.1.42,3.29,3.29,0,0,1,0,.41,16.15,16.15,0,0,1-.27,2.42c-.14.79-.3,1.58-.47,2.36s-.32,1.58-.47,2.37a16.53,16.53,0,0,0-.26,2.46q-.11,2.73,2.52,2.82a2.58,2.58,0,0,0,1.44-.36,4.1,4.1,0,0,0,1.09-1,6.31,6.31,0,0,0,.76-1.31,8.89,8.89,0,0,0,.45-1.31l-.82-.2A7.33,7.33,0,0,1,183.75,525.07Z" transform="translate(-99 -325.54)"/><path d="M181.44,509.69a1.48,1.48,0,0,0,.6.15,1.52,1.52,0,0,0,.6-.11,1.36,1.36,0,0,0,.5-.31,1.53,1.53,0,0,0,.36-.5,1.69,1.69,0,0,0,.15-.66,1.66,1.66,0,0,0-.38-1.22,1.47,1.47,0,0,0-1.09-.49,1.72,1.72,0,0,0-.6.1,1.69,1.69,0,0,0-.51.32,2.08,2.08,0,0,0-.37.51,1.83,1.83,0,0,0-.15.67,1.78,1.78,0,0,0,.1.67,1.38,1.38,0,0,0,.32.52A1.35,1.35,0,0,0,181.44,509.69Z" transform="translate(-99 -325.54)"/><path d="M208,527.34a6,6,0,0,0,.79-1.32,7.27,7.27,0,0,0,.42-1.2l-.84-.21a8.2,8.2,0,0,1-.52,1.29,4.46,4.46,0,0,1-.57.85,1.92,1.92,0,0,1-.57.46,1.21,1.21,0,0,1-.52.13.72.72,0,0,1-.44-.15.81.81,0,0,1-.22-.36,1.75,1.75,0,0,1-.07-.49c0-.18,0-.37,0-.55,0-.52.07-1.15.14-1.88s.16-1.51.27-2.36.22-1.73.36-2.66.27-1.86.41-2.78l.68-4.5c0-.32.11-.69.17-1.12s.14-.86.22-1.31.17-.89.25-1.33.16-.84.23-1.2l-.84,0a2.81,2.81,0,0,1-.42.29,2.38,2.38,0,0,1-.66.23,7.48,7.48,0,0,1-1.05.14c-.42,0-.94,0-1.58,0l-.15,1.14,2.11,0c-.08.27-.15.54-.21.82s-.11.59-.17.94c-.12.67-.22,1.3-.31,1.89s-.17,1.15-.24,1.69a9.68,9.68,0,0,0-1.63-.19,8.76,8.76,0,0,0-3.69.59,7.28,7.28,0,0,0-2.71,1.89,8.43,8.43,0,0,0-1.7,3,13.38,13.38,0,0,0-.67,3.87,10,10,0,0,0,.16,2.16,5.33,5.33,0,0,0,.66,1.77,3.63,3.63,0,0,0,1.18,1.22,3.41,3.41,0,0,0,1.73.5,4.47,4.47,0,0,0,1.35-.2,4,4,0,0,0,1.44-.9,8.59,8.59,0,0,0,1.46-1.88,16.68,16.68,0,0,0,1.39-3.19h.09c-.18.73-.31,1.4-.41,2a15,15,0,0,0-.16,1.74,3.76,3.76,0,0,0,.09,1.08,2.17,2.17,0,0,0,.37.83,1.84,1.84,0,0,0,.68.55,2.3,2.3,0,0,0,1,.23,2.67,2.67,0,0,0,1.54-.39A4.31,4.31,0,0,0,208,527.34Zm-4-9.57c-.14.82-.3,1.56-.47,2.24a18.91,18.91,0,0,1-.92,2.72,14.1,14.1,0,0,1-1.21,2.3,6.92,6.92,0,0,1-1.38,1.59,2.07,2.07,0,0,1-1.4.57,1.35,1.35,0,0,1-1-.39,2.44,2.44,0,0,1-.59-1,6.22,6.22,0,0,1-.3-1.5,15.64,15.64,0,0,1,0-1.84,14.93,14.93,0,0,1,.18-1.82,13.59,13.59,0,0,1,.45-1.83,8.77,8.77,0,0,1,.75-1.68,5.59,5.59,0,0,1,1.08-1.36,4.69,4.69,0,0,1,1.44-.91,4.46,4.46,0,0,1,1.83-.29,8.68,8.68,0,0,1,1,.1,5.31,5.31,0,0,1,1,.25C204.27,516,204.12,517,204,517.77Z" transform="translate(-99 -325.54)"/><path d="M219.82,525.9a6.08,6.08,0,0,1-1.22,1,4.78,4.78,0,0,1-1.27.58,4.09,4.09,0,0,1-1.29.17,2.68,2.68,0,0,1-2.45-1.45,8.37,8.37,0,0,1-.67-4.11c.61,0,1.24-.11,1.9-.21a16,16,0,0,0,2-.39,13.07,13.07,0,0,0,1.83-.6,6.57,6.57,0,0,0,1.53-.84,4.09,4.09,0,0,0,1.08-1.12,2.76,2.76,0,0,0,.43-1.43,3.26,3.26,0,0,0-.29-1.59,2.91,2.91,0,0,0-.88-1.05,3.65,3.65,0,0,0-1.27-.61,6.18,6.18,0,0,0-1.49-.24,6.62,6.62,0,0,0-2.18.28,6.24,6.24,0,0,0-1.81.89,6.68,6.68,0,0,0-1.41,1.4,9.62,9.62,0,0,0-1,1.79,10.75,10.75,0,0,0-.65,2.06,13.75,13.75,0,0,0-.27,2.21,10,10,0,0,0,.23,2.58,5.31,5.31,0,0,0,.92,2,4.4,4.4,0,0,0,1.62,1.33,5.68,5.68,0,0,0,2.38.54,5.81,5.81,0,0,0,3.51-.95,9.45,9.45,0,0,0,2.84-3.25l-.93-.57A8.14,8.14,0,0,1,219.82,525.9Zm-6.4-7.08a7.76,7.76,0,0,1,.83-2,4.35,4.35,0,0,1,1.26-1.36,3,3,0,0,1,1.76-.47,2.43,2.43,0,0,1,.9.2,1.84,1.84,0,0,1,.63.49,2.21,2.21,0,0,1,.36.72,2.74,2.74,0,0,1,.09.87,2.35,2.35,0,0,1-.58,1.49,5,5,0,0,1-1.43,1.13,9.7,9.7,0,0,1-2,.76,15.73,15.73,0,0,1-2.26.4A14.43,14.43,0,0,1,213.42,518.82Z" transform="translate(-99 -325.54)"/><path d="M228.48,508.29a1.52,1.52,0,0,0-.51.32,1.59,1.59,0,0,0-.37.51,1.83,1.83,0,0,0-.15.67,1.78,1.78,0,0,0,.1.67,1.6,1.6,0,0,0,.31.52,1.65,1.65,0,0,0,.48.35,1.47,1.47,0,0,0,.6.14,1.38,1.38,0,0,0,.6-.1,1.51,1.51,0,0,0,.5-.31,1.64,1.64,0,0,0,.36-.5,1.77,1.77,0,0,0,.15-.66,1.7,1.7,0,0,0-.38-1.23,1.5,1.5,0,0,0-1.09-.48A1.52,1.52,0,0,0,228.48,508.29Z" transform="translate(-99 -325.54)"/><path d="M224.74,517.27a4.33,4.33,0,0,1,.59-.85,2.29,2.29,0,0,1,.58-.46,1.21,1.21,0,0,1,.52-.13.66.66,0,0,1,.41.15,1,1,0,0,1,.23.34,2.07,2.07,0,0,1,.1.43,2,2,0,0,1,0,.41,14.93,14.93,0,0,1-.26,2.42c-.14.79-.3,1.58-.47,2.36s-.33,1.57-.47,2.37a15.3,15.3,0,0,0-.26,2.45c-.07,1.82.77,2.76,2.52,2.83a2.53,2.53,0,0,0,1.43-.37,4,4,0,0,0,1.09-1,6.27,6.27,0,0,0,.77-1.3,8.89,8.89,0,0,0,.45-1.31l-.82-.2a6.88,6.88,0,0,1-.53,1.29,4.32,4.32,0,0,1-.58.85,2.21,2.21,0,0,1-.57.46,1.11,1.11,0,0,1-.53.13.77.77,0,0,1-.68-.34,1.65,1.65,0,0,1-.18-.91,18.6,18.6,0,0,1,.26-2.51c.14-.87.3-1.71.47-2.54s.33-1.62.46-2.37a13.36,13.36,0,0,0,.24-2,4.43,4.43,0,0,0-.1-1.24,2.8,2.8,0,0,0-.42-1,2,2,0,0,0-.74-.65,2.51,2.51,0,0,0-1.06-.25,2.57,2.57,0,0,0-1.53.39,4.15,4.15,0,0,0-1.12,1.05,5.46,5.46,0,0,0-.75,1.32,8,8,0,0,0-.4,1.2l.8.2A7.5,7.5,0,0,1,224.74,517.27Z" transform="translate(-99 -325.54)"/><polygon points="49.97 231.04 67.78 231.66 67.93 230.17 50.11 229.41 49.97 231.04"/><path d="M172.1,551.13a1.56,1.56,0,0,0-.67.12,1.94,1.94,0,0,0-.6.39,2,2,0,0,0-.42.6,1.79,1.79,0,0,0-.18.73,1.73,1.73,0,0,0,.11.69,1.59,1.59,0,0,0,.32.57,1.37,1.37,0,0,0,.48.38,1.34,1.34,0,0,0,.6.16,1.43,1.43,0,0,0,.64-.12,2.23,2.23,0,0,0,.56-.36,2,2,0,0,0,.4-.57,1.92,1.92,0,0,0,.19-.72v-.1a1.9,1.9,0,0,0-.37-1.24A1.32,1.32,0,0,0,172.1,551.13Z" transform="translate(-99 -325.54)"/><path d="M182.8,552.05a4,4,0,0,1-.58.85,2.27,2.27,0,0,1-.57.47,1.25,1.25,0,0,1-.53.13.81.81,0,0,1-.68-.34,1.67,1.67,0,0,1-.18-.91,20.73,20.73,0,0,1,.26-2.52c.14-.86.3-1.71.47-2.54s.33-1.61.46-2.36a13.48,13.48,0,0,0,.24-2,4.79,4.79,0,0,0-.1-1.23,2.77,2.77,0,0,0-.42-1,2.09,2.09,0,0,0-.74-.64,2.55,2.55,0,0,0-1.06-.26,2.51,2.51,0,0,0-1.53.4,4.15,4.15,0,0,0-1.12,1,5.46,5.46,0,0,0-.75,1.32,8,8,0,0,0-.4,1.2l.8.19a7,7,0,0,1,.53-1.27,3.8,3.8,0,0,1,.59-.85,1.91,1.91,0,0,1,.58-.46,1.08,1.08,0,0,1,.52-.13.56.56,0,0,1,.41.15.89.89,0,0,1,.23.34,1.93,1.93,0,0,1,.1.43,2,2,0,0,1,0,.41,16.28,16.28,0,0,1-.26,2.42c-.14.79-.3,1.58-.47,2.36s-.33,1.57-.47,2.37a16.25,16.25,0,0,0-.27,2.45c-.06,1.82.78,2.76,2.53,2.82a2.46,2.46,0,0,0,1.43-.36,4,4,0,0,0,1.09-1,6.55,6.55,0,0,0,.77-1.3,8.61,8.61,0,0,0,.45-1.32l-.82-.19A7.5,7.5,0,0,1,182.8,552.05Z" transform="translate(-99 -325.54)"/><path d="M180.5,536.68a1.65,1.65,0,0,0,.6.14,1.58,1.58,0,0,0,.6-.1,1.53,1.53,0,0,0,.5-.32,1.48,1.48,0,0,0,.36-.49,1.77,1.77,0,0,0,.15-.66,1.7,1.7,0,0,0-.38-1.23,1.43,1.43,0,0,0-1.09-.48,1.36,1.36,0,0,0-.6.1,1.52,1.52,0,0,0-.51.32,1.59,1.59,0,0,0-.37.51,1.78,1.78,0,0,0-.15.67,1.65,1.65,0,0,0,.1.67,1.6,1.6,0,0,0,.31.52A1.85,1.85,0,0,0,180.5,536.68Z" transform="translate(-99 -325.54)"/><path d="M197.33,554a17.14,17.14,0,0,1,.28-2.42,23.71,23.71,0,0,1,.61-2.59,22.23,22.23,0,0,1,.89-2.49,14.65,14.65,0,0,1,1.1-2.1,6.21,6.21,0,0,1,1.23-1.44,1.89,1.89,0,0,1,1.28-.52h.15a.45.45,0,0,1,.16,0,1.34,1.34,0,0,0,2.3.85,1.36,1.36,0,0,0,.27-.43,1.34,1.34,0,0,0,.11-.51,1.46,1.46,0,0,0-.13-.7,1.56,1.56,0,0,0-.41-.55,2.16,2.16,0,0,0-.63-.36,2.59,2.59,0,0,0-.81-.15,3.76,3.76,0,0,0-1.42.24,4,4,0,0,0-1.43.95,9.09,9.09,0,0,0-1.42,1.89,20.42,20.42,0,0,0-1.41,3.06H198c.15-.66.28-1.28.37-1.87a11,11,0,0,0,.17-1.63,5.39,5.39,0,0,0-.06-1.16,2.46,2.46,0,0,0-.33-.91,1.63,1.63,0,0,0-.63-.59,2.3,2.3,0,0,0-1-.23,2.67,2.67,0,0,0-1.54.39,4.85,4.85,0,0,0-1.16,1,6,6,0,0,0-.79,1.32,7.27,7.27,0,0,0-.42,1.2l.8.2a7.5,7.5,0,0,1,.53-1.28,4.33,4.33,0,0,1,.59-.85,2.29,2.29,0,0,1,.58-.46,1.21,1.21,0,0,1,.52-.13.8.8,0,0,1,.41.12.76.76,0,0,1,.23.3,1.84,1.84,0,0,1,.1.42,3.76,3.76,0,0,1,0,.48c0,.15,0,.28,0,.39s0,.25,0,.39,0,.33-.09.54-.08.49-.13.83-.12.78-.19,1.3-.17,1.15-.28,1.9c-.15,1-.27,1.86-.35,2.54s-.15,1.25-.2,1.72-.07.84-.09,1.15,0,.58,0,.84c0,.07,0,.21,0,.42l2.4.09c0-.13,0-.23,0-.32s0-.18,0-.27,0-.19,0-.29S197.33,554.09,197.33,554Z" transform="translate(-99 -325.54)"/><path d="M210.22,537.38a1.65,1.65,0,0,0,.48.35,1.54,1.54,0,0,0,1.19,0,1.55,1.55,0,0,0,.51-.31,1.53,1.53,0,0,0,.36-.5,1.77,1.77,0,0,0,.15-.66,1.7,1.7,0,0,0-.38-1.23,1.56,1.56,0,0,0-2.2-.06,1.46,1.46,0,0,0-.37.51,1.83,1.83,0,0,0-.15.67,1.6,1.6,0,0,0,.1.67A1.5,1.5,0,0,0,210.22,537.38Z" transform="translate(-99 -325.54)"/><path d="M208.82,548.34c-.17.78-.33,1.58-.47,2.37a16.53,16.53,0,0,0-.27,2.46c-.06,1.81.78,2.75,2.53,2.82a2.57,2.57,0,0,0,1.43-.37,3.81,3.81,0,0,0,1.09-1,6.27,6.27,0,0,0,.77-1.3,8.77,8.77,0,0,0,.44-1.31l-.81-.2a7.63,7.63,0,0,1-.53,1.29,4.32,4.32,0,0,1-.58.85,2.08,2.08,0,0,1-.58.46,1.05,1.05,0,0,1-.52.13.75.75,0,0,1-.68-.34,1.65,1.65,0,0,1-.18-.91,18.6,18.6,0,0,1,.26-2.51c.14-.87.3-1.71.47-2.54s.32-1.62.46-2.37a13.36,13.36,0,0,0,.24-2,4.83,4.83,0,0,0-.1-1.24,2.8,2.8,0,0,0-.42-1,2.2,2.2,0,0,0-.74-.65,2.8,2.8,0,0,0-2.59.14,4.34,4.34,0,0,0-1.13,1.05,5.76,5.76,0,0,0-.74,1.32,8,8,0,0,0-.4,1.2l.8.2a7.5,7.5,0,0,1,.53-1.28,4.33,4.33,0,0,1,.59-.85,2.29,2.29,0,0,1,.58-.46,1.21,1.21,0,0,1,.52-.13.66.66,0,0,1,.41.15,1.13,1.13,0,0,1,.23.34,2.07,2.07,0,0,1,.1.43,2,2,0,0,1,0,.41,16.14,16.14,0,0,1-.26,2.42C209.15,546.77,209,547.56,208.82,548.34Z" transform="translate(-99 -325.54)"/><polygon points="49.02 258.02 66.84 258.64 66.99 257.15 49.17 256.4 49.02 258.02"/><path d="M171.15,578.11a1.46,1.46,0,0,0-.67.13,1.79,1.79,0,0,0-.59.39,1.83,1.83,0,0,0-.43.59,2,2,0,0,0-.07,1.43,2,2,0,0,0,.32.56,1.69,1.69,0,0,0,.49.39,1.48,1.48,0,0,0,.6.15,1.36,1.36,0,0,0,.63-.12,1.83,1.83,0,0,0,1-.93,1.92,1.92,0,0,0,.19-.71v-.1a1.87,1.87,0,0,0-.36-1.25A1.37,1.37,0,0,0,171.15,578.11Z" transform="translate(-99 -325.54)"/><path d="M179.56,563.66a1.46,1.46,0,0,0,.59.14,1.52,1.52,0,0,0,.6-.1,1.66,1.66,0,0,0,.51-.31,1.64,1.64,0,0,0,.36-.5,1.77,1.77,0,0,0,.15-.66,1.7,1.7,0,0,0-.38-1.23,1.58,1.58,0,0,0-1.69-.38,1.66,1.66,0,0,0-.52.32,1.57,1.57,0,0,0-.36.51,1.83,1.83,0,0,0-.15.67,1.6,1.6,0,0,0,.1.67,1.44,1.44,0,0,0,.31.52A1.65,1.65,0,0,0,179.56,563.66Z" transform="translate(-99 -325.54)"/><path d="M181.86,579a4.32,4.32,0,0,1-.58.85,2.08,2.08,0,0,1-.58.46,1.17,1.17,0,0,1-.52.13.75.75,0,0,1-.68-.34,1.49,1.49,0,0,1-.18-.91,18.6,18.6,0,0,1,.26-2.51c.14-.87.3-1.71.47-2.54s.32-1.62.46-2.37a13.36,13.36,0,0,0,.24-2,4.83,4.83,0,0,0-.1-1.24,2.8,2.8,0,0,0-.42-1,2,2,0,0,0-.75-.65,2.47,2.47,0,0,0-1.06-.25,2.61,2.61,0,0,0-1.53.39,4.3,4.3,0,0,0-1.12,1,6.21,6.21,0,0,0-.75,1.32,9.09,9.09,0,0,0-.39,1.2l.8.2a7.5,7.5,0,0,1,.53-1.28,3.94,3.94,0,0,1,.59-.85,2.08,2.08,0,0,1,.58-.46,1.21,1.21,0,0,1,.52-.13.66.66,0,0,1,.41.15.87.87,0,0,1,.22.34,1.6,1.6,0,0,1,.11.43,2,2,0,0,1,0,.41,16.14,16.14,0,0,1-.26,2.42c-.15.79-.3,1.58-.47,2.36s-.33,1.57-.47,2.37a16.4,16.4,0,0,0-.27,2.45q-.09,2.73,2.52,2.82a2.5,2.5,0,0,0,1.44-.36,4,4,0,0,0,1.09-1,5.83,5.83,0,0,0,.76-1.3,8.89,8.89,0,0,0,.45-1.31l-.81-.2A8,8,0,0,1,181.86,579Z" transform="translate(-99 -325.54)"/><path d="M205.91,579.87a3.92,3.92,0,0,1-.57.85,2.09,2.09,0,0,1-.57.46,1.17,1.17,0,0,1-.52.13.67.67,0,0,1-.43-.15,1,1,0,0,1-.22-.36,1.79,1.79,0,0,1-.08-.49c0-.18,0-.37,0-.56,0-.52.06-1.14.13-1.87s.17-1.52.27-2.36.23-1.74.36-2.67.28-1.85.41-2.77l.68-4.51q.08-.48.18-1.11c.06-.42.14-.86.22-1.31l.24-1.34c.09-.44.16-.84.23-1.19l-.83,0a2.81,2.81,0,0,1-.42.29,2.65,2.65,0,0,1-.66.23,7.88,7.88,0,0,1-1.05.13c-.42,0-.95,0-1.58,0l-.15,1.15,2.11,0a5.8,5.8,0,0,0-.21.82c-.06.27-.12.59-.18.93-.12.68-.22,1.31-.31,1.9s-.16,1.15-.24,1.68a10.71,10.71,0,0,0-1.62-.18,8.81,8.81,0,0,0-3.7.59A7.36,7.36,0,0,0,194.7,570a8.59,8.59,0,0,0-1.7,3,13.74,13.74,0,0,0-.66,3.87,8.78,8.78,0,0,0,.16,2.15,5.47,5.47,0,0,0,.66,1.78,3.54,3.54,0,0,0,1.18,1.22,3.31,3.31,0,0,0,1.72.49,3.85,3.85,0,0,0,1.35-.2,3.93,3.93,0,0,0,1.44-.89,8.24,8.24,0,0,0,1.46-1.88,16.92,16.92,0,0,0,1.4-3.19h.08c-.17.73-.31,1.39-.4,2a15.1,15.1,0,0,0-.17,1.73,4.54,4.54,0,0,0,.09,1.08,2.23,2.23,0,0,0,.38.84,1.91,1.91,0,0,0,.67.55,2.51,2.51,0,0,0,1,.23,2.63,2.63,0,0,0,1.53-.39,4.73,4.73,0,0,0,1.17-1.06,6.09,6.09,0,0,0,.79-1.31,6.33,6.33,0,0,0,.41-1.2l-.84-.21A7.33,7.33,0,0,1,205.91,579.87Zm-3.81-8.13c-.14.81-.29,1.56-.47,2.23a18.6,18.6,0,0,1-.91,2.73,14.1,14.1,0,0,1-1.22,2.3,7.14,7.14,0,0,1-1.38,1.59,2.17,2.17,0,0,1-1.4.57,1.41,1.41,0,0,1-.94-.39,2.61,2.61,0,0,1-.6-1,6.56,6.56,0,0,1-.29-1.49,13.78,13.78,0,0,1,0-1.84,14.74,14.74,0,0,1,.18-1.82,11.49,11.49,0,0,1,.45-1.84,8.65,8.65,0,0,1,.74-1.67,5.59,5.59,0,0,1,1.08-1.36,4.62,4.62,0,0,1,1.45-.91,4.46,4.46,0,0,1,1.83-.29,6.64,6.64,0,0,1,1,.1,5.42,5.42,0,0,1,1,.25Q202.31,570.51,202.1,571.74Z" transform="translate(-99 -325.54)"/><path d="M219.79,569.82a4.78,4.78,0,0,0-1.7-1.29,5.36,5.36,0,0,0-2.17-.5,6.38,6.38,0,0,0-3,.58,7.12,7.12,0,0,0-2.32,1.79,8.8,8.8,0,0,0-1.51,2.71,11.22,11.22,0,0,0-.61,3.31,9.21,9.21,0,0,0,.25,2.55,5.92,5.92,0,0,0,.94,2.1,5,5,0,0,0,1.69,1.45,5.58,5.58,0,0,0,2.46.59,6.17,6.17,0,0,0,3-.61,6.74,6.74,0,0,0,2.3-1.84,8.93,8.93,0,0,0,1.49-2.76,11.75,11.75,0,0,0,.59-3.33,8,8,0,0,0-.33-2.72A5.57,5.57,0,0,0,219.79,569.82Zm-1.33,7a11.4,11.4,0,0,1-.38,1.53,8.56,8.56,0,0,1-.61,1.42,5.18,5.18,0,0,1-.85,1.17,3.74,3.74,0,0,1-1.1.8,2.88,2.88,0,0,1-1.36.26,2.6,2.6,0,0,1-1.14-.3,2.93,2.93,0,0,1-.86-.75,3.92,3.92,0,0,1-.58-1.07,8,8,0,0,1-.36-1.28,9,9,0,0,1-.17-1.38c0-.48,0-.94,0-1.38a13.23,13.23,0,0,1,.37-2.68,8.27,8.27,0,0,1,.88-2.17,4.34,4.34,0,0,1,1.34-1.44,3,3,0,0,1,1.77-.49,2.84,2.84,0,0,1,1.21.3,2.63,2.63,0,0,1,.88.71,3.43,3.43,0,0,1,.6,1,6.53,6.53,0,0,1,.37,1.23,9.56,9.56,0,0,1,.18,1.35c0,.46,0,.92,0,1.36A14,14,0,0,1,218.46,576.84Z" transform="translate(-99 -325.54)"/><path d="M225.81,561.16a1.88,1.88,0,0,0-.63.08,1.73,1.73,0,0,0-.53.3,1.51,1.51,0,0,0-.37.49,1.89,1.89,0,0,0-.15.7,1.5,1.5,0,0,0,.07.51,1.32,1.32,0,0,0,.64.75,1.29,1.29,0,0,0,.52.13,1.77,1.77,0,0,0,.32,0A1.19,1.19,0,0,0,226,564h0a6.56,6.56,0,0,1-.21,1.52,7.65,7.65,0,0,1-.44,1.22,7.36,7.36,0,0,1-.56,1,4.85,4.85,0,0,1-.56.75l.7.61a8.86,8.86,0,0,0,1.09-1.43,10.45,10.45,0,0,0,1.3-3,6.45,6.45,0,0,0,.19-1.25,2.62,2.62,0,0,0-.43-1.66A1.61,1.61,0,0,0,225.81,561.16Z" transform="translate(-99 -325.54)"/><path d="M235.16,580.9a4.8,4.8,0,0,1-.59.85,2.05,2.05,0,0,1-.57.46,1.08,1.08,0,0,1-.52.13.78.78,0,0,1-.69-.34,1.65,1.65,0,0,1-.18-.91,20.37,20.37,0,0,1,.26-2.51c.14-.87.3-1.71.47-2.54s.33-1.62.47-2.37a13.36,13.36,0,0,0,.24-2,4.81,4.81,0,0,0-.11-1.24,2.8,2.8,0,0,0-.42-1,2.11,2.11,0,0,0-.74-.65,2.51,2.51,0,0,0-1.06-.25,2.57,2.57,0,0,0-1.53.39,4.15,4.15,0,0,0-1.12,1,5.81,5.81,0,0,0-.75,1.32,8,8,0,0,0-.4,1.2l.8.2a7.5,7.5,0,0,1,.53-1.28,4.33,4.33,0,0,1,.59-.85,2.47,2.47,0,0,1,.58-.46,1.21,1.21,0,0,1,.52-.13.66.66,0,0,1,.41.15,1,1,0,0,1,.23.34,1.58,1.58,0,0,1,.1.43,3.17,3.17,0,0,1,0,.41,16.15,16.15,0,0,1-.27,2.42c-.14.79-.3,1.58-.47,2.36s-.32,1.58-.47,2.37a16.53,16.53,0,0,0-.26,2.46q-.11,2.71,2.52,2.82a2.58,2.58,0,0,0,1.44-.37,3.94,3.94,0,0,0,1.09-1,6.24,6.24,0,0,0,.76-1.3,8.89,8.89,0,0,0,.45-1.31l-.82-.2A7.33,7.33,0,0,1,235.16,580.9Z" transform="translate(-99 -325.54)"/><path d="M232.38,565.17a1.48,1.48,0,0,0,.47.35,1.33,1.33,0,0,0,.6.14,1.36,1.36,0,0,0,.6-.1,1.51,1.51,0,0,0,.5-.31,1.53,1.53,0,0,0,.36-.5,1.77,1.77,0,0,0,.15-.66,1.7,1.7,0,0,0-.38-1.23,1.5,1.5,0,0,0-1.09-.48,1.55,1.55,0,0,0-.6.1,1.52,1.52,0,0,0-.51.32,1.76,1.76,0,0,0-.37.51,1.83,1.83,0,0,0-.15.67,2,2,0,0,0,.1.67A1.38,1.38,0,0,0,232.38,565.17Z" transform="translate(-99 -325.54)"/><path d="M316.5,531.48a.5.5,0,0,0-.66.26c-.06.16-1.62,3.89-1.6,6.48a.51.51,0,0,0,.5.49h0a.49.49,0,0,0,.49-.5c0-2.38,1.51-6,1.52-6.08A.49.49,0,0,0,316.5,531.48Z" transform="translate(-99 -325.54)"/><path d="M319,533.58a.49.49,0,0,0-.66.23,11.88,11.88,0,0,0-1.1,3.91.49.49,0,0,0,.46.53h0a.5.5,0,0,0,.5-.46,11.29,11.29,0,0,1,1-3.54A.5.5,0,0,0,319,533.58Z" transform="translate(-99 -325.54)"/><path d="M334.28,547.26a.51.51,0,0,0-.7-.1.5.5,0,0,0-.1.7c.19.26,4.7,6.25,7.88,8.23a33.56,33.56,0,0,0,13.17,3.71,4.52,4.52,0,0,0,.53,0,.49.49,0,0,0,.46-.53.51.51,0,0,0-.53-.46c-2.74.18-10-1.61-13.1-3.55S334.32,547.33,334.28,547.26Z" transform="translate(-99 -325.54)"/></svg>