<svg id="Layer_2" data-name="Layer 2" xmlns="http://www.w3.org/2000/svg" viewBox="0 0 224.7 214.23"><title>chapter-abstractions</title><path d="M361.74,322.67H137.05V146.53H361.74Zm-222.69-2H359.74V148.53H139.05Z" transform="translate(-137.05 -146.53)"/><path d="M195.36,346.48c0-.2.06-.35.08-.47s0-.22.05-.3,0-.15,0-.21,0-.13,0-.21l-1.57.09.09-.87c.48,0,.88,0,1.2-.05a5.64,5.64,0,0,0,.79-.13,2,2,0,0,0,.5-.19,1.92,1.92,0,0,0,.31-.23h.63c0,.27-.09.57-.15.91s-.11.66-.17,1-.1.67-.15,1-.09.6-.12.85c-.06.51-.13,1.09-.21,1.73s-.15,1.31-.22,2l-.21,2.07c-.07.69-.13,1.36-.18,2s-.09,1.22-.12,1.75-.05,1-.05,1.32c0,.14,0,.28,0,.42a1.28,1.28,0,0,0,.07.37.58.58,0,0,0,.19.27.54.54,0,0,0,.33.1.89.89,0,0,0,.39-.11,1.58,1.58,0,0,0,.43-.37,3.8,3.8,0,0,0,.41-.66,4.8,4.8,0,0,0,.36-1l.64.14a5.52,5.52,0,0,1-.29.92,4.74,4.74,0,0,1-.55,1,3.19,3.19,0,0,1-.86.82,2,2,0,0,1-1.16.34,1.66,1.66,0,0,1-1.36-.49,2.24,2.24,0,0,1-.4-1.47c0-.35,0-.8.05-1.37s.09-1.2.15-1.9.13-1.46.21-2.25.17-1.58.26-2.38.18-1.58.27-2.34S195.28,347.11,195.36,346.48Z" transform="translate(-137.05 -146.53)"/><path d="M208.31,351.8a2.19,2.19,0,0,1-.29,1.11,3.39,3.39,0,0,1-.79.87,5.73,5.73,0,0,1-1.14.68,11.69,11.69,0,0,1-1.37.5,12.09,12.09,0,0,1-1.47.35c-.5.09-1,.16-1.43.21a6.42,6.42,0,0,0,.61,3.1,2.06,2.06,0,0,0,1.9,1,3.28,3.28,0,0,0,1-.16,3.65,3.65,0,0,0,.95-.47,5.22,5.22,0,0,0,.9-.82,6.24,6.24,0,0,0,.79-1.2l.72.41a7.09,7.09,0,0,1-2.07,2.54,4.43,4.43,0,0,1-2.63.81,4.38,4.38,0,0,1-1.82-.34,3.4,3.4,0,0,1-1.27-1,4.06,4.06,0,0,1-.74-1.5,7.32,7.32,0,0,1-.25-1.95,9.54,9.54,0,0,1,.15-1.68,7.9,7.9,0,0,1,.44-1.57,6.84,6.84,0,0,1,.74-1.39,4.74,4.74,0,0,1,2.38-1.83,5,5,0,0,1,1.64-.26,4.8,4.8,0,0,1,1.14.13,3.11,3.11,0,0,1,1,.43,2.17,2.17,0,0,1,.69.78A2.41,2.41,0,0,1,208.31,351.8ZM204.92,350a2.21,2.21,0,0,0-1.31.4,3.35,3.35,0,0,0-.93,1.07,5.85,5.85,0,0,0-.57,1.51,9.9,9.9,0,0,0-.27,1.73,10.71,10.71,0,0,0,1.7-.37,6.3,6.3,0,0,0,1.49-.63,3.61,3.61,0,0,0,1.06-.89,1.78,1.78,0,0,0,.4-1.14,2,2,0,0,0-.1-.66,1.48,1.48,0,0,0-.29-.54,1.33,1.33,0,0,0-.48-.35A1.68,1.68,0,0,0,204.92,350Z" transform="translate(-137.05 -146.53)"/><path d="M217.61,358.94a1.26,1.26,0,0,0,.27.42,1.56,1.56,0,0,0,.43.32,3,3,0,0,0,.55.2,2.88,2.88,0,0,0,.59.07,2.56,2.56,0,0,0,1.78-.54,2,2,0,0,0,.59-1.56,1.48,1.48,0,0,0-.39-1,5,5,0,0,0-1-.85c-.4-.27-.83-.53-1.28-.79a13.55,13.55,0,0,1-1.29-.82,5,5,0,0,1-1-1,1.92,1.92,0,0,1-.39-1.18,2.41,2.41,0,0,1,.28-1.15,2.91,2.91,0,0,1,.77-1,3.62,3.62,0,0,1,1.2-.64,4.71,4.71,0,0,1,1.55-.24,4.83,4.83,0,0,1,1.21.15,4.14,4.14,0,0,1,1.05.44,2.51,2.51,0,0,1,.73.68,1.53,1.53,0,0,1,.27.89,1.05,1.05,0,0,1-.26.75.9.9,0,0,1-.66.27.81.81,0,0,1-.64-.27.89.89,0,0,1-.24-.61,1.39,1.39,0,0,1,0-.35,1.2,1.2,0,0,1,.16-.35,1.16,1.16,0,0,0-.55-.62,2.31,2.31,0,0,0-1.17-.25,2.27,2.27,0,0,0-.72.12,2.17,2.17,0,0,0-.65.36,1.77,1.77,0,0,0-.47.55,1.44,1.44,0,0,0-.18.71,1.34,1.34,0,0,0,.23.74,3.31,3.31,0,0,0,.61.64,8.76,8.76,0,0,0,.87.58l1,.59c.33.2.67.41,1,.63a4.81,4.81,0,0,1,.87.73,3.1,3.1,0,0,1,.61.85,2.31,2.31,0,0,1,.24,1.05,2.72,2.72,0,0,1-.31,1.28,3,3,0,0,1-.84,1,4.15,4.15,0,0,1-1.31.67,5.59,5.59,0,0,1-1.68.24,5.72,5.72,0,0,1-1.31-.15,4.6,4.6,0,0,1-1.13-.45,2.55,2.55,0,0,1-.79-.74,1.74,1.74,0,0,1-.3-1,1.12,1.12,0,0,1,.27-.78.88.88,0,0,1,.68-.3.79.79,0,0,1,.67.29,1,1,0,0,1,.22.64,1.84,1.84,0,0,1,0,.33A1.2,1.2,0,0,1,217.61,358.94Z" transform="translate(-137.05 -146.53)"/><path d="M229.49,351.56a9.84,9.84,0,0,1-.13,1.52c-.08.57-.18,1.17-.29,1.8s-.2,1.28-.29,1.94a16,16,0,0,0-.13,1.91,1.3,1.3,0,0,0,.16.69.6.6,0,0,0,.53.24.79.79,0,0,0,.39-.12,1.49,1.49,0,0,0,.43-.36,3.79,3.79,0,0,0,.42-.66,6.16,6.16,0,0,0,.36-1l.62.13a5.83,5.83,0,0,1-.3,1,4.11,4.11,0,0,1-.55,1,2.83,2.83,0,0,1-.8.78,1.88,1.88,0,0,1-1.08.31q-2,0-2-2.07a12.63,12.63,0,0,1,.13-1.86c.09-.61.19-1.22.3-1.81s.2-1.2.29-1.81a12.35,12.35,0,0,0,.14-1.84,1.89,1.89,0,0,0,0-.31,1.68,1.68,0,0,0-.09-.32.76.76,0,0,0-.18-.25.47.47,0,0,0-.32-.1.77.77,0,0,0-.39.11,1.67,1.67,0,0,0-.43.36,3.28,3.28,0,0,0-.42.66,5.45,5.45,0,0,0-.37,1l-.61-.13a6.18,6.18,0,0,1,.27-.91,4.79,4.79,0,0,1,.53-1,3.36,3.36,0,0,1,.82-.82,2,2,0,0,1,1.15-.34,1.86,1.86,0,0,1,.81.17,1.47,1.47,0,0,1,.58.46,2,2,0,0,1,.35.72A3.85,3.85,0,0,1,229.49,351.56Zm.57-5.78a1.18,1.18,0,0,1-.1.5,1.3,1.3,0,0,1-.25.39,1.19,1.19,0,0,1-.38.25,1.13,1.13,0,0,1-.45.09,1.13,1.13,0,0,1-1.08-.73,1.35,1.35,0,0,1-.09-.5,1.36,1.36,0,0,1,.09-.51,1.28,1.28,0,0,1,.27-.4,1.12,1.12,0,0,1,.38-.26,1.13,1.13,0,0,1,.45-.09,1.11,1.11,0,0,1,.84.34A1.29,1.29,0,0,1,230.06,345.78Z" transform="translate(-137.05 -146.53)"/><path d="M233.45,349.45a3,3,0,0,0,.41-.58,5.09,5.09,0,0,0,.4-.81,6.88,6.88,0,0,0,.3-.94,4.92,4.92,0,0,0,.12-1.16h0a2,2,0,0,1-.27.08l-.25,0a.86.86,0,0,1-.39-.09,1.16,1.16,0,0,1-.31-.22,1.38,1.38,0,0,1-.2-.33,1.27,1.27,0,0,1-.07-.38,1.53,1.53,0,0,1,.1-.54,1.05,1.05,0,0,1,.27-.38,1.11,1.11,0,0,1,.39-.24,1.51,1.51,0,0,1,.48-.08,1.22,1.22,0,0,1,1,.48,2,2,0,0,1,.37,1.25,4.47,4.47,0,0,1-.12,1,6.76,6.76,0,0,1-.33,1.13,8.46,8.46,0,0,1-.57,1.18,6.51,6.51,0,0,1-.79,1.1Z" transform="translate(-137.05 -146.53)"/><path d="M240.65,360.76a4.38,4.38,0,0,1-1.88-.38,3.59,3.59,0,0,1-1.31-1.06,4.4,4.4,0,0,1-.78-1.56,7.14,7.14,0,0,1-.25-1.93,8.16,8.16,0,0,1,.38-2.53,6.45,6.45,0,0,1,1.07-2.09,5.2,5.2,0,0,1,1.71-1.41,4.85,4.85,0,0,1,2.28-.53,4.29,4.29,0,0,1,1.65.32,3.88,3.88,0,0,1,1.33.94,4.3,4.3,0,0,1,.88,1.51,6.14,6.14,0,0,1,.31,2,8.81,8.81,0,0,1-.36,2.54,6.63,6.63,0,0,1-1.05,2.13,5.19,5.19,0,0,1-1.7,1.46A4.74,4.74,0,0,1,240.65,360.76Zm3.46-6.24c0-.33,0-.68-.05-1a8.35,8.35,0,0,0-.16-1,5,5,0,0,0-.32-.92,2.81,2.81,0,0,0-.48-.76,2.1,2.1,0,0,0-.69-.52,2.19,2.19,0,0,0-.92-.18,2.23,2.23,0,0,0-1.33.41,3.29,3.29,0,0,0-1,1.13,5.86,5.86,0,0,0-.61,1.67,9.53,9.53,0,0,0-.21,2c0,.34,0,.68,0,1a7.19,7.19,0,0,0,.17,1.05,6.74,6.74,0,0,0,.3,1,3.08,3.08,0,0,0,.48.79,2.31,2.31,0,0,0,.66.55,1.93,1.93,0,0,0,.88.2,2.13,2.13,0,0,0,1-.24,3,3,0,0,0,.82-.63,4,4,0,0,0,.61-.91,6.58,6.58,0,0,0,.42-1.1,7.74,7.74,0,0,0,.25-1.16A13.11,13.11,0,0,0,244.11,354.52Z" transform="translate(-137.05 -146.53)"/><path d="M256.86,347.65c-.13,1-.26,2.1-.36,3.2s-.2,2.21-.28,3.33h.07a16.08,16.08,0,0,1,1-2.41,7.09,7.09,0,0,1,1.06-1.5,3.11,3.11,0,0,1,1.1-.78,3,3,0,0,1,1.14-.22,2.27,2.27,0,0,1,1,.2,2,2,0,0,1,.66.54,2.26,2.26,0,0,1,.38.76,2.91,2.91,0,0,1,.13.87,3.23,3.23,0,0,1-.26,1.22,3.67,3.67,0,0,1-.78,1.18,5.36,5.36,0,0,1-1.33,1,6.46,6.46,0,0,1-1.89.62v0a2.48,2.48,0,0,1,.66.1,1.56,1.56,0,0,1,.51.27,2.13,2.13,0,0,1,.41.47,5.12,5.12,0,0,1,.37.71l.36.83c.13.28.25.52.38.74a2.38,2.38,0,0,0,.41.53.7.7,0,0,0,.48.21.71.71,0,0,0,.57-.31,2.84,2.84,0,0,0,.43-1.07l.62.13a4.37,4.37,0,0,1-.29.91,3.54,3.54,0,0,1-.48.8,2.21,2.21,0,0,1-.69.56,1.91,1.91,0,0,1-.91.21,1.73,1.73,0,0,1-.76-.16,1.93,1.93,0,0,1-.64-.52,4.11,4.11,0,0,1-.57-.9,13.36,13.36,0,0,1-.57-1.31q-.21-.53-.39-.93a5,5,0,0,0-.37-.64,1.48,1.48,0,0,0-.42-.38,1.26,1.26,0,0,0-.54-.13h-.58a17,17,0,0,0-.38,1.83,11.74,11.74,0,0,0-.13,1.72c0,.22,0,.42,0,.61l0,.56h-1.8a2.48,2.48,0,0,1,0-.33c0-.19,0-.48,0-.88s0-.86.07-1.39.07-1.13.11-1.78.09-1.32.14-2,.1-1.41.17-2.12.12-1.41.18-2.08.13-1.3.2-1.89.13-1.12.2-1.57c0-.19,0-.34.07-.45s0-.19,0-.27a1.6,1.6,0,0,0,.05-.21c0-.06,0-.14,0-.24l-1.55.09.1-.87c.48,0,.87,0,1.19-.05a5.72,5.72,0,0,0,.78-.13,1.63,1.63,0,0,0,.47-.19,1.92,1.92,0,0,0,.31-.23h.63c-.06.27-.11.57-.17.91l-.15,1c0,.34-.09.67-.13,1S256.89,347.4,256.86,347.65ZM260,350.3a1.59,1.59,0,0,0-1,.44,5,5,0,0,0-.89,1.08,10.86,10.86,0,0,0-.8,1.53,15.13,15.13,0,0,0-.67,1.82h0a5,5,0,0,0,3.19-.89,3.16,3.16,0,0,0,1.09-2.59,3.75,3.75,0,0,0,0-.45,1.37,1.37,0,0,0-.13-.45,1,1,0,0,0-.29-.35A.85.85,0,0,0,260,350.3Z" transform="translate(-137.05 -146.53)"/><path d="M273.46,350.69c0-.22,0-.43,0-.61l0-.56h1.84a2.28,2.28,0,0,1,0,.32c0,.21,0,.43,0,.66s0,.51-.07.86-.07.78-.13,1.29-.13,1.16-.23,1.93c-.06.58-.12,1.06-.16,1.45s-.09.73-.12,1-.05.48-.07.65a3.73,3.73,0,0,0,0,.41c0,.11,0,.21,0,.3s0,.18,0,.29a1.75,1.75,0,0,0,.13.68.47.47,0,0,0,.47.29.89.89,0,0,0,.38-.11,1.4,1.4,0,0,0,.44-.36,3.28,3.28,0,0,0,.42-.66,5.3,5.3,0,0,0,.37-1l.61.13a6.45,6.45,0,0,1-.28.92,5.67,5.67,0,0,1-.56,1,3.48,3.48,0,0,1-.85.82,2,2,0,0,1-1.17.34,1.83,1.83,0,0,1-.77-.14,1.48,1.48,0,0,1-.52-.4,1.77,1.77,0,0,1-.31-.63,3.32,3.32,0,0,1-.1-.81,8.66,8.66,0,0,1,.12-1.37c.08-.49.17-1,.28-1.58H273a17.74,17.74,0,0,1-1.08,2.46,7.29,7.29,0,0,1-1,1.51,2.79,2.79,0,0,1-1,.75,2.65,2.65,0,0,1-1,.21,2.38,2.38,0,0,1-1.12-.23,2,2,0,0,1-.74-.62,2.86,2.86,0,0,1-.42-.92,4.85,4.85,0,0,1-.13-1.09,16.86,16.86,0,0,1,.11-1.86c.07-.64.15-1.24.24-1.82s.17-1.11.25-1.6a8.71,8.71,0,0,0,.1-1.2c0-.14,0-.27,0-.39a1,1,0,0,0-.08-.33.62.62,0,0,0-.19-.23.57.57,0,0,0-.31-.08.72.72,0,0,0-.38.11,1.34,1.34,0,0,0-.41.36,3.28,3.28,0,0,0-.4.66,5.52,5.52,0,0,0-.35,1l-.62-.13a5.3,5.3,0,0,1,.28-.91,4.79,4.79,0,0,1,.53-1,3.4,3.4,0,0,1,.83-.82,2,2,0,0,1,1.16-.34,1.62,1.62,0,0,1,1.33.55,2.43,2.43,0,0,1,.45,1.59c0,.28,0,.6-.05,1s-.08.76-.14,1.17-.11.83-.17,1.27-.12.86-.17,1.28-.1.83-.14,1.21-.05.73-.05,1a2.37,2.37,0,0,0,0,.43,1.33,1.33,0,0,0,.15.45,1.06,1.06,0,0,0,.31.36,1,1,0,0,0,.53.14,1.62,1.62,0,0,0,1-.41,5.14,5.14,0,0,0,1-1.11,11.86,11.86,0,0,0,.86-1.6,18.09,18.09,0,0,0,.69-1.92,15.83,15.83,0,0,0,.46-2A12.35,12.35,0,0,0,273.46,350.69Z" transform="translate(-137.05 -146.53)"/><path d="M281.27,359.35c0,.22,0,.42,0,.61l0,.56h-1.85c0-.16,0-.27,0-.33s0-.41,0-.63,0-.5.07-.84.08-.76.14-1.26.13-1.14.21-1.91c.07-.57.12-1.06.17-1.46s.08-.74.11-1,0-.49.08-.66,0-.32,0-.44,0-.22,0-.31v-.3c0-.12,0-.25,0-.37a1,1,0,0,0-.09-.32.51.51,0,0,0-.17-.21.49.49,0,0,0-.31-.08.77.77,0,0,0-.39.11,1.67,1.67,0,0,0-.43.36,3.28,3.28,0,0,0-.43.66,6.39,6.39,0,0,0-.36,1l-.61-.13a5.3,5.3,0,0,1,.28-.91,4.92,4.92,0,0,1,.56-1,3.53,3.53,0,0,1,.86-.82,2,2,0,0,1,1.15-.34,1.54,1.54,0,0,1,.81.19,1.33,1.33,0,0,1,.5.5,2.11,2.11,0,0,1,.26.73,5,5,0,0,1,.08.88c0,.23,0,.48,0,.73s-.05.49-.09.73-.07.46-.11.68-.08.4-.11.58h.07a17.81,17.81,0,0,1,1.1-2.48,7.58,7.58,0,0,1,1.1-1.54,3.3,3.3,0,0,1,1.07-.78,2.7,2.7,0,0,1,1.07-.22,2.57,2.57,0,0,1,1.12.23,2,2,0,0,1,.74.62,2.65,2.65,0,0,1,.4.92,4.28,4.28,0,0,1,.13,1.09,17.13,17.13,0,0,1-.1,1.87c-.07.63-.14,1.24-.22,1.83s-.16,1.12-.23,1.6a8.72,8.72,0,0,0-.1,1.21c0,.13,0,.26,0,.39a1.59,1.59,0,0,0,.08.33.67.67,0,0,0,.19.22.5.5,0,0,0,.31.09,1,1,0,0,0,.39-.11,1.74,1.74,0,0,0,.43-.37,3.28,3.28,0,0,0,.41-.66,5.42,5.42,0,0,0,.37-1l.62.14a5.37,5.37,0,0,1-.28.92,4.42,4.42,0,0,1-.57,1,3.16,3.16,0,0,1-.85.82,2,2,0,0,1-1.15.34,2.14,2.14,0,0,1-.87-.14,1.21,1.21,0,0,1-.55-.41,1.64,1.64,0,0,1-.29-.67,4.78,4.78,0,0,1-.08-.9,12,12,0,0,1,.11-1.45c.07-.56.15-1.15.23-1.78s.16-1.27.23-1.91a17.45,17.45,0,0,0,.11-1.86,3.29,3.29,0,0,0,0-.42,1.79,1.79,0,0,0-.16-.44,1.12,1.12,0,0,0-.31-.34.91.91,0,0,0-.52-.14,1.7,1.7,0,0,0-1,.41,5.22,5.22,0,0,0-1,1.11,9.72,9.72,0,0,0-.91,1.61,18,18,0,0,0-.73,1.91,17.48,17.48,0,0,0-.49,2.05A11.43,11.43,0,0,0,281.27,359.35Z" transform="translate(-137.05 -146.53)"/><path d="M291.4,349.52a2.88,2.88,0,0,0,2.15-.81,5.23,5.23,0,0,0,1.23-2.3h.84l-.4,3.11h3.5l-.06.81-3.52.06c-.07.61-.14,1.25-.21,1.91s-.15,1.3-.21,1.95-.11,1.26-.15,1.85-.07,1.14-.07,1.63q0,.33,0,.66a2.35,2.35,0,0,0,.13.62,1.15,1.15,0,0,0,.3.46.85.85,0,0,0,.57.18,2.08,2.08,0,0,0,.39,0,1.53,1.53,0,0,0,.5-.2,2.74,2.74,0,0,0,.57-.46,4.82,4.82,0,0,0,.62-.84l.57.38a8.49,8.49,0,0,1-.66,1,4.06,4.06,0,0,1-.73.71,2.6,2.6,0,0,1-.82.44,2.93,2.93,0,0,1-1,.14,2.55,2.55,0,0,1-1.09-.21,1.8,1.8,0,0,1-.7-.57,2.26,2.26,0,0,1-.38-.83,4,4,0,0,1-.12-1c0-.41,0-.9,0-1.47s.06-1.17.1-1.84.11-1.38.18-2.12.16-1.53.25-2.32l-2,0Z" transform="translate(-137.05 -146.53)"/><path d="M303.64,351.56a9.84,9.84,0,0,1-.13,1.52c-.08.57-.18,1.17-.29,1.8s-.2,1.28-.29,1.94a15.92,15.92,0,0,0-.12,1.91,1.21,1.21,0,0,0,.16.69.57.57,0,0,0,.52.24.74.74,0,0,0,.39-.12,1.27,1.27,0,0,0,.43-.36,3.79,3.79,0,0,0,.42-.66,5.33,5.33,0,0,0,.36-1l.63.13a7,7,0,0,1-.31,1,4.44,4.44,0,0,1-.54,1,3,3,0,0,1-.8.78,1.88,1.88,0,0,1-1.08.31c-1.33,0-2-.69-2-2.07a14.16,14.16,0,0,1,.13-1.86c.09-.61.19-1.22.3-1.81s.21-1.2.3-1.81a12.36,12.36,0,0,0,.13-1.84,1.89,1.89,0,0,0,0-.31.9.9,0,0,0-.09-.32.64.64,0,0,0-.18-.25.45.45,0,0,0-.31-.1.77.77,0,0,0-.39.11,1.52,1.52,0,0,0-.43.36,3.28,3.28,0,0,0-.43.66,5.49,5.49,0,0,0-.36,1l-.62-.13a6.18,6.18,0,0,1,.27-.91,4.79,4.79,0,0,1,.53-1,3.24,3.24,0,0,1,.83-.82,2.07,2.07,0,0,1,2-.17,1.62,1.62,0,0,1,.58.46,2,2,0,0,1,.34.72A3.42,3.42,0,0,1,303.64,351.56Zm.57-5.78a1.35,1.35,0,0,1-.09.5,1.33,1.33,0,0,1-.26.39,1.09,1.09,0,0,1-.38.25,1.13,1.13,0,0,1-.45.09,1.18,1.18,0,0,1-.46-.09,1.27,1.27,0,0,1-.37-.25,1.3,1.3,0,0,1-.25-.39,1.35,1.35,0,0,1-.09-.5,1.19,1.19,0,0,1,.1-.51,1.11,1.11,0,0,1,.26-.4,1.22,1.22,0,0,1,.38-.26,1.2,1.2,0,0,1,.45-.09,1.08,1.08,0,0,1,.84.34A1.24,1.24,0,0,1,304.21,345.78Z" transform="translate(-137.05 -146.53)"/></svg>