<svg id="Layer_2" data-name="Layer 2" xmlns="http://www.w3.org/2000/svg" viewBox="0 0 87.83893 158.12693"><title>chapter-grammars</title><path d="M299.354,334.15057a3.50826,3.50826,0,0,1-2.59527,1.24829,4.88582,4.88582,0,0,1-1.525-.21137,11.87023,11.87023,0,0,1-1.53234-.73065c-.35968-.16418-.63276.16242-.463.50018a3.62245,3.62245,0,0,0,1.5398,1.37488,4.648,4.648,0,0,0,5.77478-1.06543.80957.80957,0,0,0-.08307-1.1159A.79712.79712,0,0,0,299.354,334.15057Z" transform="translate(-244.82949 -268.53101)"/><path d="M293.61871,307.60491a4.01987,4.01987,0,0,0,1.6991-.11541c.20264-.08393.35132-.36933.1402-.5456a3.59316,3.59316,0,0,0-2.12134-.59125,9.57427,9.57427,0,0,0-2.25458.1084,6.26849,6.26849,0,0,0-2.03906.71118,1.68507,1.68507,0,0,0-.81232.91987,1.02506,1.02506,0,0,0,.43183,1.19757c.3.23126.77276-.079.97668-.563a1.49,1.49,0,0,1,.76941-.6706,5.56017,5.56017,0,0,1,1.48938-.3938A9.74572,9.74572,0,0,1,293.61871,307.60491Z" transform="translate(-244.82949 -268.53101)"/><path d="M303.08124,308.4284c.10327-.10541.14642-.24292.27142-.33191a1.47654,1.47654,0,0,1,.46668-.20886,6.53342,6.53342,0,0,1,1.36-.16547,13.538,13.538,0,0,1,1.57831.03192c.26392.01648.52844.03369.79053.07038a1.87117,1.87117,0,0,0,.876.03045.71494.71494,0,0,0,.15967-1.29229,2.0625,2.0625,0,0,0-1.09668-.19611,7.728,7.728,0,0,0-.93866.01361,12.40712,12.40712,0,0,0-1.95654.33655,3.56065,3.56065,0,0,0-1.43774.64276c-.26313.22205-.57807.75543-.27741,1.069A.1465.1465,0,0,0,303.08124,308.4284Z" transform="translate(-244.82949 -268.53101)"/><path d="M293.59027,312.00805a1.45981,1.45981,0,0,0-2.138-1.9408,1.39038,1.39038,0,0,0-.788,1.725,1.25713,1.25713,0,0,0,.76892.88739,1.8936,1.8936,0,0,0,1.41632.04675A1.83558,1.83558,0,0,0,293.59027,312.00805Z" transform="translate(-244.82949 -268.53101)"/><path d="M303.52618,310.13744a1.32168,1.32168,0,0,0-.36322,1.15381,2.00526,2.00526,0,0,0,1.924,1.662,1.14168,1.14168,0,0,0,1.2218-1.25854,2.48831,2.48831,0,0,0-.7016-1.51386A1.668,1.668,0,0,0,303.52618,310.13744Z" transform="translate(-244.82949 -268.53101)"/><path d="M298.37946,320.82885c.93383.20722,2.541.40039,3.05651-.5581a2.07607,2.07607,0,0,0,.107-1.2793,10.3144,10.3144,0,0,0-.28876-1.46625c-.13739-.47882-.34424-.9386-.4798-1.41711a9.21476,9.21476,0,0,1-.24853-1.38349,14.7193,14.7193,0,0,1-.111-1.56646,13.11517,13.11517,0,0,0-.025-1.64881h-.021a.76244.76244,0,0,0-1.48944-.20367,8.73283,8.73283,0,0,0-.15815,2.24554,8.441,8.441,0,0,0,.26526,2.17365,13.79617,13.79617,0,0,0,.77252,1.90954c.14612.32288.34253.64325.46869.9718a2.81523,2.81523,0,0,1,.10889.40339c.01086.05255.01733.10546.02539.15826-.17621-.01209-.88385-.03223-1.06036-.05255a.86953.86953,0,0,0-1.13416-.286,1.22466,1.22466,0,0,0-.542,1.09552A1.03377,1.03377,0,0,0,298.37946,320.82885Z" transform="translate(-244.82949 -268.53101)"/><path d="M303.022,326.5556a1.98858,1.98858,0,0,0-1.10089-2.06116.86115.86115,0,0,0-.94861.0672.80388.80388,0,0,0-.23657.88678c-.02643.00848-.05108.01477-.05182.01526a1.76167,1.76167,0,0,1-.62286.10571c-.56824.06348-1.13666.12622-1.70679.1795-.53619.05011-1.09192.11927-1.65051.16254a4.25484,4.25484,0,0,0-1.78009-.00934.53007.53007,0,0,0-.05347,1.04669,8.44336,8.44336,0,0,0,1.928.24994c-.00891.03168-.02307.06141-.03027.09351a1.3635,1.3635,0,0,0,.40649,1.29285,1.75221,1.75221,0,0,0,1.20459.43444,2.36827,2.36827,0,0,0,1.30384-.42474.56889.56889,0,0,0,.181-.74512.649.649,0,0,0-.73316-.34552c-.155.0437-.30487.09247-.4541.14972a2.16228,2.16228,0,0,1-.37689.09961,1.40138,1.40138,0,0,1-.1695,0,1.31893,1.31893,0,0,1-.16186-.0437c-.03943-.01953-.07965-.03729-.11737-.05951l-.004-.002c-.01636-.01386-.0329-.02741-.04852-.04212l-.00275-.00219a.7677.7677,0,0,0-.059-.08747c-.0047-.01245-.00983-.0249-.01379-.03766l-.005-.01776c-.00317-.036-.00909-.07177-.01068-.108-.00073-.02148-.00085-.04291-.00073-.06433a.29314.29314,0,0,1,.00513-.09033c.55249-.01837,1.1043-.05231,1.65264-.0907a6.73383,6.73383,0,0,0,2.09607-.28394c.01947-.00823.03138-.02246.05036-.03118a1.003,1.003,0,0,0,.62414.37573A.77566.77566,0,0,0,303.022,326.5556Z" transform="translate(-244.82949 -268.53101)"/><path d="M332.52094,392.88976c-.16321-4.82421.36663-9.47277-.09638-14.31506-.23358-2.44183-.54254-4.88251-.90387-7.3208-.34894-2.355-.92187-4.49207-1.37244-7.03857s-1.1441-5.47693-1.44268-7.32569-1.82666-5.02069-2.60089-6.76733-2.93531-3.73456-4.437-5.06775a9.55947,9.55947,0,0,0-2.551-1.66065,8.66082,8.66082,0,0,0-1.53107-.50683c-.03674-.00824-.07422-.01605-.11108-.02411.13831-.17322.27087-.35089.41125-.52191a.9038.9038,0,0,0-.44934-1.46143q-2.46478-.36987-4.93322-.695a32.85936,32.85936,0,0,0-4.44-.42565c-.08117-.74646-.05859-1.522-.10241-2.25275-.07679-1.27881-.17646-2.55786-.27631-3.83673a27.0437,27.0437,0,0,0-.40594-3.433,3.98381,3.98381,0,0,0-.59821-1.51165c.059-.14667.119-.29395.1778-.44025q1.09368-2.71893,1.96173-5.54156c.01043-.00684.024-.0055.03357-.0141a8.81494,8.81494,0,0,0,1.93255-3.67286,22.28341,22.28341,0,0,0,1.05-4.426c.09418-.71088.1571-1.42847.18921-2.1485a3.76529,3.76529,0,0,0-.11029-1.89557c-.33576-.5639-.88733-.41119-1.37335-.03876.0318-.563.0606-1.12609.10809-1.68927a25.07015,25.07015,0,0,0,.126-3.91265,9.02884,9.02884,0,0,0-.6446-3.01819c.45392-.0647.90845-.12647,1.3617-.19422a10.0793,10.0793,0,0,0,3.12335-.67254,2.07685,2.07685,0,0,0,1.19794-1.77436,3.00816,3.00816,0,0,0-1.31946-2.178,6.79349,6.79349,0,0,0-2.29187-1.2304,3.39807,3.39807,0,0,0-2.42719-.0351c-.21679.12024-.10608.41528.10016.49518.64728.25067,1.37415.23639,2.04077.45489a5.64605,5.64605,0,0,1,1.97315,1.10718c.60181.52967,1.22162,1.30744.524,1.95758a4.66808,4.66808,0,0,1-2.51825.67066c-1.75843.2348-3.65418.45471-5.27045.73675a81.25731,81.25731,0,0,1-9.82691.3852c-1.81109-.10767-5.5061-.21662-8.25781-.27643-2.74084-.05963-5.48938-.13849-8.23138-.29547-1.37671-.0788-2.7544-.18769-4.1272-.36768a5.52426,5.52426,0,0,1-1.85034-.35309c-.715-.40137-.40827-1.26043-.03308-1.75006a4.95862,4.95862,0,0,1,2.97687-1.46234,28.42307,28.42307,0,0,1,4.15637-.38251,12.66462,12.66462,0,0,0,3.14245.9408,46.02515,46.02515,0,0,0,5.90485.84479,47.16842,47.16842,0,0,0,11.72913-.56159q1.62945-.28363,3.22729-.68426.77051-.19345,1.53186-.41407a4.75259,4.75259,0,0,0,1.596-.62286.5376.5376,0,0,0-.33-.96088,5.84034,5.84034,0,0,0-1.68.3891q-.86782.255-1.74829.47437-1.76028.43881-3.56244.73535a46.06867,46.06867,0,0,1-7.14471.59491,49.397,49.397,0,0,1-7.23444-.49512c-1.20209-.169-2.399-.39465-3.59412-.63324a15.21718,15.21718,0,0,1-2.33545-.65381,12.516,12.516,0,0,0,.2085-1.6311,22.749,22.749,0,0,0,5.968,1.58057,43.10668,43.10668,0,0,0,6.12762.69214,42.58011,42.58011,0,0,0,12.17005-1.24567c.58306-.14563.39862-1.144-.23047-1.08936-.05463.00476-.09107.02991-.14191.03827l-.00391-.01843a43.70656,43.70656,0,0,1-11.868,1.28876,47.41491,47.41491,0,0,1-6.10949-.56916c-1.90668-.29748-3.939-.9602-5.85321-1.20208.01861-.14875.0357-.29847.06256-.44178.16742-.89373.29791-1.79284.4057-2.69934.21954-1.84735.37793-3.70819.48755-5.57464a88.96168,88.96168,0,0,0-.04029-10.52448,14.38042,14.38042,0,0,0,2.22174.95416,41.507,41.507,0,0,0,7.35352,1.69825,26.37419,26.37419,0,0,0,7.84125-.12537,71.51955,71.51955,0,0,0,7.43542-1.27338c.41968-.10211.8747-.20056,1.32269-.32226a14.11859,14.11859,0,0,0-.33007,1.85211,35.064,35.064,0,0,0-.07038,5.06757c.075,1.92053.13526,3.84283.26551,5.7644.06652.98126.13409,1.96216.21142,2.94354a12.14122,12.14122,0,0,0,.33777,2.77094.27593.27593,0,0,0,.52734,0,10.87461,10.87461,0,0,0,.18439-2.64826c.02216-.93969.03369-1.88.042-2.82092.01624-1.83655-.02649-3.67944-.03485-5.5191a40.84325,40.84325,0,0,1,.14356-4.90564,13.97344,13.97344,0,0,1,.44006-2.26044c.19092-.65973.7348-1.435.65143-2.1477a1.85016,1.85016,0,0,0-.31836-1.31092,4.92815,4.92815,0,0,0-2.685-1.72351,31.34184,31.34184,0,0,0-3.543-.86011,48.269,48.269,0,0,0-7.57971-.89422,42.24849,42.24849,0,0,0-8.57806.55591,19.55148,19.55148,0,0,0-3.63288.91937,7.43606,7.43606,0,0,0-1.9201,1.00848,3.39326,3.39326,0,0,0-1.25513.56073,1.23234,1.23234,0,0,0-.40167,1.38727.67858.67858,0,0,0-.24915.5943c.19751,3.70087.38837,7.40051.41468,11.09253.01336,1.87988-.035,3.75165-.16089,5.61554-.05939.87878-.12537,1.75677-.19135,2.63507-.06329.84186-.12378,1.90979-.14447,2.11511s-.04645.78418-.22345.77728-1.64483.20594-2.51208.33521a7.60726,7.60726,0,0,0-3.30689,1.12665,2.81585,2.81585,0,0,0-1.342,2.64221c.21765,1.2829,1.55121,1.44659,2.59259,1.59485,1.30567.18591,2.61457.30188,3.92438.39148a14.99612,14.99612,0,0,0-1.00488,3.5744c-.27552,1.4035-.54132,2.81445-.77265,4.22833a23.47024,23.47024,0,0,0-.42047,4.22046,18.84254,18.84254,0,0,0,.69983,4.316,30.31318,30.31318,0,0,0,2.88379,7.73975,15.74729,15.74729,0,0,0,1.325,1.89282c-.01532.23706-.01745.47717-.03479.69446-.04834.60473-.06219,1.21344-.10034,1.81994-.07684,1.22107-.189,2.43714-.3573,3.64368a31.64588,31.64588,0,0,1-.71088,3.58246c-.13024.5014-.27618.999-.42749,1.49463a20.8948,20.8948,0,0,0-7.76184,2.0423,1.128,1.128,0,0,0-.57538.28326,38.91906,38.91906,0,0,0-3.75683,2.09808,32.1327,32.1327,0,0,0-9.66412,9.186,14.3844,14.3844,0,0,0-1.5188,3.35461c-.42554,1.26258-.9007,2.49909-1.3761,3.73279q-1.41321,3.66816-2.59827,7.40509c-1.58246,4.966-2.91748,10.024-4.28015,15.15051-.7558,2.84339-1.57794,5.70832-2.21539,8.59369-.57611,2.60755-1.84937,10.22223-1.91559,11.29761-.06268,1.0163-.16437,2.043-.126,3.06787a7.44237,7.44237,0,0,0,2.08478,4.82691c1.22223,1.3078,5.373,2.75579,7.42615,3.0357a20.146,20.146,0,0,1,5.0559,1.46314c1.12928.44574,2.332.74444,3.415,1.28808a56.44158,56.44158,0,0,0,7.5669,2.83362c5.14111,1.71545,10.2583,3.67883,15.49408,4.91547a31.35515,31.35515,0,0,0,6.3009.8764c.1286.06543.25794.1239.36914.17181a6.72364,6.72364,0,0,0,1.02606.34992,3.02232,3.02232,0,0,0,2.25428-.02673.73082.73082,0,0,0,.16919-.14783,6.19374,6.19374,0,0,0,.78106.58166c2.39936,1.509,5.30152,1.20893,7.97333.942,2.20721-.22052,4.96759-.1814,6.71082-1.74964.91735-.82519,1.12341-2.07653,1.90386-2.99249a8.36275,8.36275,0,0,0,1.68189-3.119,19.99325,19.99325,0,0,0,.60669-3.67767,2.132,2.132,0,0,0-.18933-1.58472,1.23611,1.23611,0,0,0-1.4364-.35876,3.96857,3.96857,0,0,0-.82593.42688c.42627-.72064.82818-1.456,1.29767-2.15009a17.53756,17.53756,0,0,1,1.33392-1.75274,7.53082,7.53082,0,0,1,1.68262-1.35028,4.60469,4.60469,0,0,0,1.52978-6.0362,5.24416,5.24416,0,0,0-6.01892-2.587,4.88188,4.88188,0,0,0-2.66022,2.17535,5.7478,5.7478,0,0,0-.5567,3.78992,5.91449,5.91449,0,0,1-.04193,2.45355,6.01247,6.01247,0,0,1-.44977,1.08881,9.12134,9.12134,0,0,0-1.96392-.64972,11.19545,11.19545,0,0,0-5.49.305,10.97243,10.97243,0,0,0-4.40833,2.57971c-2.46863-1.36767-5.062-2.54931-7.58844-3.7962-2.65558-1.31055-5.312-2.61871-8.00049-3.84723-5.12445-2.34173-10.464-4.89734-15.989-5.75482-.05628-.00873-.11225-.01422-.16852-.02264.0484-.54505.1369-1.08063.23016-1.61774a21.8358,21.8358,0,0,1,.79566-3.0965c.68872-2.091,1.51343-4.147,2.3529-6.2052.79663-1.95306,1.51178-3.91589,2.37519-5.80444a26.34515,26.34515,0,0,1,1.33777-2.61023c.46478-.77466,1.50262-1.64758,1.14923-2.64111a1.02013,1.02013,0,0,0-.70179-.65577l-.07977-.01391a.90517.90517,0,0,0-1.093.81231,10.50031,10.50031,0,0,1-.683.98841c-.25165.41339-.48352.84-.70075,1.27514a24.74384,24.74384,0,0,0-1.14367,2.73792c-.70288,1.96808-1.35419,3.97473-2.09412,5.96118-.77148,2.07105-1.60559,4.1189-2.21069,6.22437a16.61219,16.61219,0,0,0-.63648,3.07769,12.33868,12.33868,0,0,0-.07159,1.42743,10.97086,10.97086,0,0,0-2.785.05262,6.50159,6.50159,0,0,0-1.855.58105,4.86169,4.86169,0,0,0-.80627.51575c-.25592.19824-.69489.517-.90808.69177s-.33209.46338.0177.91,1.89807-.513,2.85571-.79278a9.177,9.177,0,0,1,3.432-.1781,32.28869,32.28869,0,0,1,7.85327,2.02807c5.39685,1.9917,10.63989,4.54908,15.84472,7.06366,1.59369.77,3.186,1.57105,4.78632,2.34766a9.67966,9.67966,0,0,0-1.256,2.10913,20.22451,20.22451,0,0,0-1.29858,3.29883,23.33907,23.33907,0,0,0-.73151,3.39947,18.39312,18.39312,0,0,0-.25208,3.02478,59.47171,59.47171,0,0,1-10.07275-2.6325q-3.94785-1.29465-7.91345-2.5763a67.89555,67.89555,0,0,1-7.69147-2.656c-1.20074-.557-2.72925-1.09558-3.9339-1.64942a35.88058,35.88058,0,0,0-5.12787-1.5c-2.93506-.73376-5.45611-1.49408-6.61059-2.67871a5.93105,5.93105,0,0,1-1.6695-4.1864c-.0235-1.46509,1.2237-9.913,1.75562-12.45789.52429-2.50817,1.19085-5.00506,1.85132-7.48608,1.33093-4.99988,2.61084-9.93384,4.07409-14.78491,1.46674-4.86255,3.28522-9.563,4.891-14.42157a15.389,15.389,0,0,1,3.837-5.68939,30.79351,30.79351,0,0,1,4.97125-4.12824,33.71041,33.71041,0,0,1,4.16815-2.36206,5.69221,5.69221,0,0,0,1.52222,1.66126c.71332.62249,1.43042,1.23474,2.14417,1.84625,1.42785,1.2232,2.85485,2.44647,4.30706,3.66974.869.732,2.2016,1.60992,2.6413,2.76159-1.65356.64478-3.30206,1.28809-4.89648,2.04236-.47138.223-.29688.85315.06323,1.10834a10.29247,10.29247,0,0,1,1.63543,1.6629c.50269.57617.9823,1.17707,1.43732,1.793a40.74542,40.74542,0,0,1,2.46332,3.78827c1.62134,2.79755,3.071,5.72083,4.44983,8.62482a40.55445,40.55445,0,0,1,3.324,9.7749c.65271,3.40851.8227,6.865,1.23011,10.29889.23419,1.97369.4989,3.94726.77966,5.92084a50.36405,50.36405,0,0,0,1.02374,6.09631.65591.65591,0,0,0,1.28534-.17548,55.54884,55.54884,0,0,0-.685-5.67413q-.36318-2.7138-.6773-5.42749c-.4043-3.5224-.56775-7.06006-1.15125-10.56427a39.24327,39.24327,0,0,0-3.23712-10.15869c-1.40277-3.01282-2.91376-6.02893-4.58551-8.92444a35.12075,35.12075,0,0,0-2.915-4.37567,22.35609,22.35609,0,0,0-1.64386-1.86816c-.37469-.37519-.77685-.71558-1.17749-1.05628,1.52606-.466,3.03229-.988,4.54126-1.51593a.83247.83247,0,0,0,.59094-.82886,4.99967,4.99967,0,0,0-1.74566-3.20855c-1.09363-1.02906-2.30085-1.94251-3.43714-2.8974-1.18878-.99915-2.379-2.00043-3.58844-2.99738-.60589-.49939-1.24206-.96863-1.84088-1.48291a2.89463,2.89463,0,0,1-.49841-.51691c.27014-.11792.53558-.241.80987-.35431,2.28266-.94329,7.03882-2.28906,7.10492-2.38073.2118.38037.67578.65747.93994.96289a8.00729,8.00729,0,0,0,2.02167,1.62054,30.25782,30.25782,0,0,0,4.33051,1.93805,28.55689,28.55689,0,0,0,.40869,4.06763c.12622.71429.55774,1.369,1.37164,1.29016a1.33949,1.33949,0,0,0,.39771-.11267,36.61743,36.61743,0,0,1,.64227,4.51727c.16675,1.81116.39978,3.62055.64673,5.42963.49634,3.63586,1.07764,7.27026,1.62732,10.90484,1.113,7.35889,1.86188,14.71912,2.33392,22.09345.13287,2.07489.26581,4.1507.38532,6.22656.05737.99634.13281,1.99249.19751,2.98883.06988,1.07648.08154,2.165.25061,3.237.07214.45752.83294.653.8825.11841a44.84441,44.84441,0,0,0-.05017-5.597c-.06457-1.86689-.17621-3.73713-.27392-5.60419-.19751-3.77612-.30072-7.5484-.666-11.31677-.721-7.43836-2.046-14.87537-3.17047-22.30762-.31146-2.05829-.59186-4.1189-.89661-6.17316a16.42514,16.42514,0,0,0-1.23486-4.87433q.40182-.22255.80444-.44519c.79938-.44195,1.20008-.6629,2.00342-1.10486a5.99934,5.99934,0,0,0,1.63806-1.0487,2.36029,2.36029,0,0,0,1.44141.76575,3.50534,3.50534,0,0,0,2.44629-.373,1.255,1.255,0,0,0,.33942.5296,5.50375,5.50375,0,0,0,1.78344.90106q.963.39121,1.92841.78241l.08832.03546a25.19,25.19,0,0,0-.8794,5.52363c-.15637,1.85473-.18982,3.71954-.17016,5.5874.04046,3.83484.37139,7.67889.66265,11.52044a137.99783,137.99783,0,0,1-.17608,22.89295q-.289,3.19308-.70178,6.35644c-.13135,1.01789-.25751,2.0362-.31641,3.06513-.06006,1.05188-.06854,1.51874.16016,1.87842s.93377.37768,1.04589.04437a3.85183,3.85183,0,0,0,.20069-1.68225c.05108-.98273.18445-1.95459.31268-2.92529q.3663-2.774.64276-5.56928c.37122-3.78882.72211-7.60114.82746-11.42554.20721-7.52252-.84406-15.058-1.19806-22.58386-.09851-2.09491-.10932-4.18213-.06922-6.27167.03937-2.05157.31159-4.105.38257-6.158a1.68472,1.68472,0,0,0,1.21887-.0841,2.10484,2.10484,0,0,0,1.05439-1.50763,11.92482,11.92482,0,0,0,.16741-2.03833,17.03374,17.03374,0,0,0-.06243-2.03168c-.00745-.0769-.01575-.15326-.02436-.22949a1.50133,1.50133,0,0,0,.14759-.25629c.10168-.23736.19769-.47754.28576-.72015a5.46439,5.46439,0,0,0,.305-1.21637c.00994-.08362.00982-.16742.01452-.25122a.619.619,0,0,0,.579-.56153,36.5013,36.5013,0,0,0,3.96973.8061c1.12646.19464,2.25427.36969,3.38171.5473a37.0758,37.0758,0,0,0-5.669,9.6983,4.33615,4.33615,0,0,0-.11315,3.04028,7.26692,7.26692,0,0,0,1.62695,2.28791,8.171,8.171,0,0,1,.8598,1.00048c.32465.48353-.09869.91785-.32361,1.34418q-.78158,1.4816-1.47894,3.00275-1.34949,2.93948-2.40552,6.01062a31.581,31.581,0,0,0-1.74957,6.47015,58.77468,58.77468,0,0,0-.015,7.00678c-.00073,2.41369-.18829,4.82367-.38861,7.22741q-.33763,4.05342-.70031,8.0849c-.23835,2.69568-.59778,5.40314-.605,8.11908-.00208.77137,1.22332.92542,1.35467.18177.40643-2.30017.523-4.683.73883-7.02326.216-2.34131.41663-4.68915.61749-7.04083.20154-2.35974.43934-4.72534.53467-7.09589.094-2.339-.0462-4.683-.05981-7.02081a21.11749,21.11749,0,0,1,1.21661-6.59326q.98924-3.11243,2.26-6.101.61194-1.43665,1.29309-2.84144.34086-.7022.69953-1.39581a6.15047,6.15047,0,0,0,.71759-1.5426c.36786-1.8595-2.14838-2.93231-2.71723-4.49371-.41015-1.1258.32593-2.41761.78376-3.38916a34.452,34.452,0,0,1,1.6452-3.07557,49.41937,49.41937,0,0,1,3.02307-4.43518c.49585.2674,1.03009.47651,1.53546.73529a9.91611,9.91611,0,0,1,2.23486,1.54108,23.49418,23.49418,0,0,1,4.07026,4.88709,32.57854,32.57854,0,0,1,2.19763,5.70343c.32824,1.27655.74353,2.81,1.37793,5.70349s1.94519,9.467,2.44012,14.133c1.03,9.70948.10535,17.547.54242,27.3089.24548,5.48145-.17889,13.2298-.24792,18.73877a.74269.74269,0,0,0,1.48437,0C332.54669,412.75744,332.84991,402.61126,332.52094,392.88976Zm-48.03357-120.9533a14.739,14.739,0,0,1,2.645-.80793,39.8606,39.8606,0,0,1,6.23059-.83593,42.59354,42.59354,0,0,1,12.91906,1.15228,5.62363,5.62363,0,0,1,2.63086,1.13067,1.02618,1.02618,0,0,1,.27405.36878,1.98617,1.98617,0,0,0-.34759.527,4.35839,4.35839,0,0,1-.86371.29626,47.48374,47.48374,0,0,1-6.27924,1.29682,56.93018,56.93018,0,0,1-6.60852.79284,29.213,29.213,0,0,1-6.55231-.8324,31.29709,31.29709,0,0,1-3.3739-.84167,11.40847,11.40847,0,0,1-3.01843-1.291A19.20391,19.20391,0,0,0,284.48737,271.93646ZM301.51721,410.4298a10.84509,10.84509,0,0,1,3.73468-.77679,19.1011,19.1011,0,0,1,3.02991.255c-.07654.74225-1.58435,1.04157-2.09064,1.24091a2.767,2.767,0,0,0-1.90826,1.77643,2.56823,2.56823,0,0,0,1.32385,2.65832,5.79163,5.79163,0,0,0,3.3797.55792,10.4079,10.4079,0,0,0,3.34241-.82452,9.45228,9.45228,0,0,0,1.44769-.76746,3.55215,3.55215,0,0,1,.62683-.41564c.46369-.17243.08685-.06055.11145.01593a2.53716,2.53716,0,0,1-.05914.63079,10.13716,10.13716,0,0,1-2.24,6.06281,5.4508,5.4508,0,0,0-.87,1.2633,4.09329,4.09329,0,0,1-.872,1.377,5.1795,5.1795,0,0,1-2.6109,1.04083c-1.14557.19946-2.3219.26367-3.47949.37732a21.347,21.347,0,0,1-4.05334.15088,4.9715,4.9715,0,0,1-4.74177-3.73676,9.52236,9.52236,0,0,1,.92322-6.16333A9.68823,9.68823,0,0,1,301.51721,410.4298Zm5.82489,1.86847q-.5961.95564-1.17016,1.92694a1.29129,1.29129,0,0,1-.27912-.2445C305.20844,413.041,306.48907,412.59173,307.3421,412.29827Zm-15.96783,7.98688a23.49337,23.49337,0,0,1,.66614-3.41882,24.40238,24.40238,0,0,1,1.09-3.17005c.29944-.699.78027-1.44708,1.02747-2.2174.73114.34545,1.46435.68316,2.2019,1.00451-.06433.08386-.13379.163-.19574.2489-1.8938,2.62348-3.0863,7.02887-1.60345,10.21912a22.36576,22.36576,0,0,1-3.33753-.01508C291.27765,422.05383,291.26953,421.16522,291.37427,420.28515Zm19.00458-104.683c.01934-1.35224.05059-2.7035.109-4.05451.25476-.274.54932-.53015.71936-.43506.20435.11432.00971,1.32746-.00915,1.57361a23.55112,23.55112,0,0,1-.54065,3.51337,23.16186,23.16186,0,0,1-.78027,2.61163A15.56011,15.56011,0,0,0,310.37885,315.60211Zm-30.56873-9.52674a26.86354,26.86354,0,0,0,.5838-4.10583c1.449.08447,2.89911.13726,4.34747.19342,3.17212.123,6.34357.271,9.51538.3891q2.64579.09851,5.29145.19488c.54443.01978,4.87481.05383,5.40661-.00226a.2429.2429,0,0,0,.05384-.01892,19.69406,19.69406,0,0,1-3.3299.88629,6.86808,6.86808,0,0,0-1.2395.41169c-.462.20929-.84265.56512-1.30157.76855-.67811.30066-1.18238-.61621-1.71851-.938a1.98564,1.98564,0,0,0-2.045.06769c-.29816.1532-.63654.43073-.9953.3667-.38239-.0683-.70209-.37988-1.09778-.44629a1.34543,1.34543,0,0,0-.978.2146c-.347.22083-.48315.40808-.91846.24652a16.41827,16.41827,0,0,0-1.919-.926c-1.00513-.23389-1.55817.44354-2.429.71386a2.64376,2.64376,0,0,1-2.65027-.7434.558.558,0,0,0-.94885.39874,25.7994,25.7994,0,0,1-.52118,4.41479,1.49966,1.49966,0,0,0-.72332-.09637,2.5446,2.5446,0,0,0-1.30048.68213c-.65515.56628-1.26691,1.18713-1.86945,1.80432C279.28424,309.06207,279.55377,307.56683,279.81012,306.07537Zm15.481,39.68128a3.747,3.747,0,0,0-1.38.54547q-.72325.39769-1.449.79535-.75377.413-1.50946.82592-.2167.11867-.43323.23737a25.79948,25.79948,0,0,1-.30023-2.9325c-.01038-.20928.006-.44659-.01764-.66119.07855-.02539.18408-.05841.1944-.06116a4.8287,4.8287,0,0,1,1.42852-.07251q.9582.03634,1.9162.07483a9.5041,9.5041,0,0,0,1.56439-.02105,3.96446,3.96446,0,0,0-.0589.79449A3.7679,3.7679,0,0,0,295.29114,345.75665Zm4.11.1723c-.10827,1.0282-2.68219.59973-2.89538-.42871s1.75928-1.5307,2.52911-1.01166C299.44165,344.76287,299.46191,345.11266,299.40118,345.929Zm-.03234-2.567a4.76187,4.76187,0,0,0-1.55488-.20483,3.6338,3.6338,0,0,0-1.79919.24292c-.06323.03271-.22247-.08789-.3349-.16413a1.96557,1.96557,0,0,0-.61084-.2041.82622.82622,0,0,0-.22137-.46588,2.70814,2.70814,0,0,0-.37445-.2904l-.01935-.01551c-.04676-.037-.09351-.074-.13965-.11181q-.249-.204-.48059-.42878-.24408-.23683-.46735-.49444l-.0794-.09369-.052-.06512c-.07379-.0943-.14392-.19111-.21575-.287-.26722-.35681-.48713-.73316-.73053-1.10571-.24378-.3733-.436-.76978-.70234-1.12909-.16925-.22852-.61517-.24421-.65149.08581a4.66262,4.66262,0,0,0,.8855,2.8692,8.017,8.017,0,0,0,.973,1.2002c.04908.05084.10376.09595.15424.14538-.45123-.03369-.90253-.07122-1.35358-.09021a4.95826,4.95826,0,0,0-1.96765.23206,2.32648,2.32648,0,0,0-.51385.26929,41.947,41.947,0,0,1-4.04206-1.673,10.15519,10.15519,0,0,1-1.89288-1.19616,11.87294,11.87294,0,0,1-1.09875-1.11c.03967-.13275.082-.26477.11914-.39825.16321-.586.303-1.17932.42779-1.77539a32.01225,32.01225,0,0,0,.52094-3.39472,25.71449,25.71449,0,0,0,.11285-3.38946c-.01471-.4411-.04559-.87964-.0918-1.31885.0586.07086.1167.141.1753.21222a19.05845,19.05845,0,0,1,2.46454,3.69781c.56451,1.20038,2.23895,3.92127,4.394,4.83838.62774.26721,1.013-.88129.38257-1.05664-1.17383-.32648-3.13959-2.646-3.70618-3.88953a19.07138,19.07138,0,0,0-2.108-3.66449c-.778-1.01806-1.67536-1.93664-2.3797-3.00885A24.82026,24.82026,0,0,1,279.47,318.987a21.39609,21.39609,0,0,1-.82995-4.33709,11.60546,11.60546,0,0,1,.06256-1.98969c.00549-.00482.01184-.00684.01727-.01184a5.85378,5.85378,0,0,0,.44019-.5343c.16033-.189.33093-.36908.50378-.54724q.20747-.21378.41736-.426a14.01279,14.01279,0,0,0-.118,5.54,28.63883,28.63883,0,0,0,.618,3.19775c.24359,1.03077.26459,2.08649.52417,3.10926a.42684.42684,0,0,0,.76465.09893c.73675-1.25293-.00623-3.09442-.32892-4.44787a22.28217,22.28217,0,0,1-.56043-5.0622c-.007-1.34387.098-3.00872,1.3692-3.77734.56971-.34454,1.46912-.43018,1.81446.27948.38.78094-.05261,1.63635-.19251,2.40491a.31928.31928,0,0,0,.57947.24078c.80786-1.20111,1.06824-3.46387-.62335-4.10608a35.48729,35.48729,0,0,0,.54169-3.80359,3.88418,3.88418,0,0,0,3.913-.10986c.86768-.50537,1.46106.09637,2.25214.50012a1.95063,1.95063,0,0,0,2.0238.061c.23175-.14484.30072-.29212.58484-.21338a4.59983,4.59983,0,0,1,.54364.27966,1.784,1.784,0,0,0,1.23071.10638,7.83337,7.83337,0,0,0,1.07477-.49731.784.784,0,0,1,1.00769.22c.58276.54035,1.15753,1.11371,2.015.97016a3.26368,3.26368,0,0,0,1.25885-.63038,6.0918,6.0918,0,0,1,1.44831-.69738c1.52282-.52124,3.868-.83411,4.68866-2.36878.52264-.07208,1.04565-.14184,1.568-.21527.427-.06006.85346-.12256,1.2804-.18256a28.00511,28.00511,0,0,1,.28289,2.79419,25.77742,25.77742,0,0,1-.18878,3.21637,21.14009,21.14009,0,0,0-.12365,6.48133,8.84306,8.84306,0,0,1-.22449,3.48456c-.21894,1.06939-.49134,2.12365-.78852,3.1651a62.86592,62.86592,0,0,1-2.11364,6.10858c-.1247.31158-2.14539,4.79229-2.89667,6.63391-.22119.542.57422,1.00464.85248.47711.27685-.525.52856-1.06647.78052-1.60761-.10315.34693-.21045.69092-.33179,1.026a20.81491,20.81491,0,0,1-1.73847,3.79357,18.40865,18.40865,0,0,1-2.58783,3.07264A2.99446,2.99446,0,0,0,299.36884,343.36193Zm6.05255,3.60236a8.26087,8.26087,0,0,1-.0998.84668,1.42872,1.42872,0,0,1-.22992.52966,7.72524,7.72524,0,0,1-1.24255-.46429c-.63794-.26844-1.27588-.53443-1.91327-.8053a4.883,4.883,0,0,0-1.52612-.58716,3.64706,3.64706,0,0,0,.14453-1.47644,2.38781,2.38781,0,0,0-.13611-.62415,9.55781,9.55781,0,0,0,1.53241-.449,9.12165,9.12165,0,0,1,1.75043-.39606,5.84344,5.84344,0,0,1,.91638-.01276c.119.00806.23706.0199.3551.03858a1.65951,1.65951,0,0,1,.48212.10455c.028.04749.04187.92688.04535,1.26538Q305.51047,345.95065,305.42139,346.96429Zm.66028-8.474a2.526,2.526,0,0,0-1.23072.50207,5.48823,5.48823,0,0,0-1.77942,1.56647,4.27062,4.27062,0,0,0-.55249,1.15271,3.063,3.063,0,0,0-.12176.56818,1.35616,1.35616,0,0,0-.0008.21911c-.21923.06372-.44091.12055-.65222.20478a9.25,9.25,0,0,0-.9223.42907c-.1333-1.06823.957-1.751,1.63049-2.47784a13.19632,13.19632,0,0,0,2.15564-3.173,19.85184,19.85184,0,0,0,1.31733-3.55011c.101-.37415.20068-.75727.2951-1.14392.03687.78875.08167,1.57794.12177,2.36688q.08761,1.72384.16333,3.44775A1.003,1.003,0,0,0,306.08167,338.49029Z" transform="translate(-244.82949 -268.53101)"/><path d="M274.53949,371.62573a.33722.33722,0,0,0-.37555.158l-.04523.06867a.957.957,0,0,0-.17669.226l-.01587.02686a1.494,1.494,0,0,0-.10547.17175q-.08277.20133-.16553.40253a5.178,5.178,0,0,0-.17645.52881c-.02185.07519-.05176.15216-.06665.22949a.66736.66736,0,0,0,.13428.54437.56182.56182,0,0,0,.58642.23157.59886.59886,0,0,0,.40668-.31543,2.00611,2.00611,0,0,0,.10681-.33948,4.19508,4.19508,0,0,0,.11224-.44708c.02674-.15173.05683-.3031.08-.45563a2.78533,2.78533,0,0,0,.00708-.33826c.001-.03265.00324-.06555.0033-.09832a.41344.41344,0,0,0-.02893-.149l-.00147-.11328A.38288.38288,0,0,0,274.53949,371.62573Z" transform="translate(-244.82949 -268.53101)"/><path d="M321.27948,370.82153c-.23486-1.031-.48987-2.061-.787-3.08136a5.81714,5.81714,0,0,0-1.26208-2.8078.18616.18616,0,0,0-.31287.08447,5.40121,5.40121,0,0,0,.191,2.668c.17957.95666.36646,1.9126.52814,2.87085.311,1.84375.609,3.68585.81842,5.53491a88.6751,88.6751,0,0,1,.51092,11.15826c-.1015,7.635.0401,15.26532-.274,22.85913q-.13175,3.18466-.38306,6.36017c-.17005,2.106-.51618,4.22223-.62409,6.3396a.75643.75643,0,0,0,1.47773.1994,45.74867,45.74867,0,0,0,.679-5.80639q.24106-2.80792.37683-5.62342c.1908-3.8363.26392-7.6806.31171-11.53125.09479-7.63543.55927-15.3496-.24731-23.00219A53.018,53.018,0,0,0,321.27948,370.82153Z" transform="translate(-244.82949 -268.53101)"/><path d="M317.77826,374.23284a1.34207,1.34207,0,0,0-.77283-.01123c-.01581-.04315-.03308-.0885-.04663-.12854q-.31385-.92724-.65289-1.84881c-.46985-1.27759-1.0365-2.515-1.55463-3.77771a.55877.55877,0,0,0-1.0675,0,24.57881,24.57881,0,0,1-1.48981,3.64953c-.29095.57971-.6156,1.13849-.93549,1.70233-.15942.28107-.32855.55579-.4945.83313-.06427.10736-.1377.22187-.20575.34-.03656-.00037-.0727.00073-.10926.0003-.67272-.00793-1.70574-.14556-2.19873.346a.23931.23931,0,0,0-.0169.28876c.38934.66473,1.4729.7998,2.14917.8883a17.489,17.489,0,0,0,2.684.14625,19.2494,19.2494,0,0,0,2.62146-.27c.27466-.04462,1.2539-.24439,1.54138-.31763a1.75367,1.75367,0,0,0,.997-.50879A.84447.84447,0,0,0,317.77826,374.23284Zm-2.60388.41577a20.88508,20.88508,0,0,1-2.31385.28357c-.38855.02924-.77752.04547-1.16717.05432.12561-.18219.24469-.36315.35394-.51806a17.55312,17.55312,0,0,0,1.10315-1.818,21.62212,21.62212,0,0,0,1.09143-2.428c.2749.79205.53723,1.588.80011,2.378q.30954.92989.59345,1.865l.0238.0769C315.49744,374.57726,315.33728,374.61785,315.17438,374.64861Z" transform="translate(-244.82949 -268.53101)"/><path d="M298.70087,349.9995a.71533.71533,0,0,0-1.42969,0c-.02338,3.50574-.43048,7.02558-.5943,10.51545a73.52546,73.52546,0,0,0,.52124,10.68988c.72015,7.26751.92883,14.53991,1.08441,21.80859.08795,4.10962.131,8.21686.37378,12.32581a.59809.59809,0,0,0,1.19531,0c.13935-3.63318-.03625-7.30548-.10772-10.95557-.07166-3.65424-.00257-7.31012-.09485-10.965-.09235-3.65594-.36389-7.3117-.65051-10.96765a103.66383,103.66383,0,0,1-.59583-10.62158C298.501,357.87927,298.94135,353.983,298.70087,349.9995Z" transform="translate(-244.82949 -268.53101)"/></svg>