<svg id="Layer_2" data-name="Layer 2" xmlns="http://www.w3.org/2000/svg" viewBox="0 0 99.51 86.54"><title>chapter-catalogue</title><path d="M359.29,312.85a.5.5,0,0,0-.5-.48h0l-30.41.45h0a50.74,50.74,0,0,0-10.11.25c-4.31.6-7.38,3.88-8.37,5.07-1.41-1.2-6.21-5-11.22-5.19a26.56,26.56,0,0,0-8.16,1.11l-26.32-.47a.47.47,0,0,0-.35.14.47.47,0,0,0-.15.35l-1.12,84.31a.48.48,0,0,0,.18.39.47.47,0,0,0,.32.12h.09c17.06-3,37.92-4.83,39.41-4.11a5.65,5.65,0,0,1,.75.55c1,.86,1.67,1.14,7.07.92,5.16-.21,6.22-1.31,7.15-2.28a3.87,3.87,0,0,1,1-.82c1.93-1,34.09-1.23,43-.95a.47.47,0,0,0,.37-.14.52.52,0,0,0,.14-.37Zm-40.9,1.21c6.39-.89,13.32,0,20,.8A117.87,117.87,0,0,0,352.16,316l1.51,72.25c-3.45,0-7.14-.42-11-.84-6.44-.69-13.1-1.41-19.63-.55a27.5,27.5,0,0,0-12.55,4.77V319C311,318.34,314.08,314.66,318.39,314.06Zm-4.65,76.75a28.16,28.16,0,0,1,9.39-2.94c6.41-.84,13-.13,19.39.56a111.47,111.47,0,0,0,11.49.84.65.65,0,0,0,.53-.15.48.48,0,0,0,.15-.36l-1.54-73.21.55,0,2.2,74.2c-2.07-.13-9.72-.61-16.75-1.09l-2.92-.2c-5.77-.41-7.71-.55-12.25.07A60.37,60.37,0,0,0,313.74,390.81Zm-17.89-.44a42.74,42.74,0,0,0-9.42,1.46,74.29,74.29,0,0,1-19.37,2.3v-75.5l.95-.06v73.9a.5.5,0,0,0,.44.49,23.9,23.9,0,0,0,3.36.22,52.23,52.23,0,0,0,12.55-2,53.32,53.32,0,0,1,12.62-2c5.33,0,8.63,1.21,10.5,2.27A44,44,0,0,0,295.85,390.37ZM298.63,314c5,.22,9.92,4.35,10.82,5.14v72.42c-1.53-1.25-5.21-3.38-12.47-3.38a53.82,53.82,0,0,0-12.86,2.06c-5.08,1.25-9.89,2.43-15.11,1.84V317.86c2.14.1,10.07.38,14.13-.6,1.32-.32,2.68-.75,4.12-1.19C290.88,314.94,294.61,313.76,298.63,314Zm-35.05,83.86,1.1-83.21,22.64.4-.36.11c-1.42.45-2.76.86-4,1.18-4.49,1.08-14.27.55-14.37.54a.47.47,0,0,0-.37.14.48.48,0,0,0-.16.36v.23l-1.49.11a.5.5,0,0,0-.46.5v76.46a.5.5,0,0,0,.5.5,75.7,75.7,0,0,0,20.1-2.32,42,42,0,0,1,9.21-1.44,50.66,50.66,0,0,1,6.43.21,19.16,19.16,0,0,0-.06,2.15C297.74,393.26,278.12,395.28,263.58,397.81Zm39.69-3.76a13.38,13.38,0,0,1,0-2.37c1.35.17,2.48.37,3.41.58v3.05c-1.89-.05-2.22-.32-2.74-.75C303.78,394.42,303.55,394.24,303.27,394.05Zm4.43,1.27v-2.83l1.2.34v2.47Zm2.65-.07-.45,0v-2.1h0l.14,0h.08c1.31-.52,2.61-1,3.91-1.39,0,1.28,0,2.54,0,3.05A19.86,19.86,0,0,1,310.35,395.25Zm6.47-2a4.47,4.47,0,0,1-1.73,1.22c0-.6,0-1.55,0-3.05.8-.23,1.61-.45,2.43-.65l.29,1.65A6.07,6.07,0,0,0,316.82,393.28Zm1.9-1.19-.27-1.53c1.81-.41,3.68-.74,5.66-1,4.44-.6,6.2-.48,12.05-.06l2.92.2c8.24.56,17.31,1.12,17.31,1.12a.57.57,0,0,0,.38-.14.54.54,0,0,0,.15-.38l-2.23-75.21a.5.5,0,0,0-.48-.48L338,313.8l-.9-.11,21.23-.32,2.75,77.82C353.31,391,323.78,391.07,318.72,392.09Z" transform="translate(-262.57 -312.37)"/><path d="M323.76,325a.29.29,0,0,0-.06-.23.3.3,0,0,0-.23-.09h-1.68l-.39,0-.41.09,1.69-1.63.58-.58a4.38,4.38,0,0,0,.49-.59,3.23,3.23,0,0,0,.33-.64,2.27,2.27,0,0,0,.12-.75,1.53,1.53,0,0,0-.11-.66,1.45,1.45,0,0,0-.33-.5,1.48,1.48,0,0,0-.51-.32,1.78,1.78,0,0,0-.67-.12,2.25,2.25,0,0,0-.74.12,2,2,0,0,0-.65.35,2,2,0,0,0-.51.57,2.76,2.76,0,0,0-.34.8l.48.09a.39.39,0,0,0,.49-.27,1.83,1.83,0,0,1,.18-.34,1.12,1.12,0,0,1,.25-.28,1.17,1.17,0,0,1,.31-.17,1,1,0,0,1,.38-.07.84.84,0,0,1,.59.22.89.89,0,0,1,.22.66,2,2,0,0,1-.08.56,2.4,2.4,0,0,1-.25.51,2.89,2.89,0,0,1-.39.51c-.15.17-.33.35-.53.55l-2.11,2a.9.9,0,0,0-.15.19.56.56,0,0,0-.06.2l0,.32,4.05,0Z" transform="translate(-262.57 -312.37)"/><path d="M327.4,326.69a.48.48,0,0,0,.32-.11.74.74,0,0,0,.17-.29l.23-.89.46-3.66h1.05l.09-.69h-1.08l.05-.35a1.81,1.81,0,0,1,.11-.47.93.93,0,0,1,.2-.3.75.75,0,0,1,.28-.17,1,1,0,0,1,.35-.05h.24l.09,0a.15.15,0,0,0,0-.08l.09-.5a1.5,1.5,0,0,0-.52-.09,1.61,1.61,0,0,0-.66.11,1.64,1.64,0,0,0-.54.32,2.14,2.14,0,0,0-.39.53,2.19,2.19,0,0,0-.2.7l-.06.39h-.63l0,.39a.21.21,0,0,0,0,.17.27.27,0,0,0,.16.08l.4.07-.63,4.94Z" transform="translate(-262.57 -312.37)"/><path d="M329.71,323.73a2.57,2.57,0,0,0,.12.82,1.78,1.78,0,0,0,.36.6,1.6,1.6,0,0,0,.55.38,1.78,1.78,0,0,0,.7.13,2.14,2.14,0,0,0,1.2-.38,2.48,2.48,0,0,0,.49-.43,2.79,2.79,0,0,0,.37-.57,2.55,2.55,0,0,0,.24-.67,3.08,3.08,0,0,0,.09-.75,2.55,2.55,0,0,0-.12-.81,1.93,1.93,0,0,0-.36-.61,1.41,1.41,0,0,0-.55-.37,1.73,1.73,0,0,0-.69-.13,1.87,1.87,0,0,0-.93.21,2.3,2.3,0,0,0-.76.59,3,3,0,0,0-.52.89A3.1,3.1,0,0,0,329.71,323.73Zm1.06-.78a2.59,2.59,0,0,1,.27-.65,1.48,1.48,0,0,1,.42-.44.92.92,0,0,1,.55-.17.77.77,0,0,1,.65.29,1.5,1.5,0,0,1,.21.88,2.88,2.88,0,0,1-.1.78,2.23,2.23,0,0,1-.27.65,1.52,1.52,0,0,1-.42.45,1,1,0,0,1-.55.17c-.58,0-.86-.4-.86-1.18A4,4,0,0,1,330.77,323Z" transform="translate(-262.57 -312.37)"/><path d="M335.57,323.57a2.91,2.91,0,0,1,.7-1.42.94.94,0,0,1,1-.14l.18-.92A.91.91,0,0,0,337,321a1,1,0,0,0-.46.17,2,2,0,0,0-.43.41,3.9,3.9,0,0,0-.38.62l.05-.87a.29.29,0,0,0-.08-.24.33.33,0,0,0-.24-.08H335l-.58,4.59h.94Z" transform="translate(-262.57 -312.37)"/><path d="M343.4,325h-1.1l.74-5.78h-.77l-2,1.66.24.41.06.06.1,0a.29.29,0,0,0,.13,0,.31.31,0,0,0,.14-.07l1-.88,0,.21,0,.21-.54,4.13h-1.23l-.09.7,3.27,0Z" transform="translate(-262.57 -312.37)"/><path d="M320.15,336.17a2.46,2.46,0,0,0,.5.18,2.65,2.65,0,0,0,1.52-.12,2.18,2.18,0,0,0,.73-.49,2.21,2.21,0,0,0,.46-.73,2.38,2.38,0,0,0,.17-.88,1.44,1.44,0,0,0-.1-.58,1.35,1.35,0,0,0-.28-.41,1.6,1.6,0,0,0-.4-.28,3.1,3.1,0,0,0-.45-.21l-.45-.18a3,3,0,0,1-.4-.19,1,1,0,0,1-.28-.26.62.62,0,0,1-.1-.37,1.05,1.05,0,0,1,.07-.4.8.8,0,0,1,.22-.32,1,1,0,0,1,.35-.22,1.36,1.36,0,0,1,.47-.08,1.17,1.17,0,0,1,.45.08,1.49,1.49,0,0,1,.31.16l.23.17a.27.27,0,0,0,.17.08.28.28,0,0,0,.13,0,.65.65,0,0,0,.11-.12l.3-.43a2.13,2.13,0,0,0-.3-.3,1.93,1.93,0,0,0-.37-.23,2.07,2.07,0,0,0-.44-.15,2,2,0,0,0-.49-.05,2.2,2.2,0,0,0-.91.16,2.33,2.33,0,0,0-.68.46,1.93,1.93,0,0,0-.43.66,2.1,2.1,0,0,0-.16.79,1.58,1.58,0,0,0,.11.61,1.51,1.51,0,0,0,.27.42,2.14,2.14,0,0,0,.39.28l.45.2.45.16a2.12,2.12,0,0,1,.4.19,1,1,0,0,1,.27.26.67.67,0,0,1,.11.39,1.52,1.52,0,0,1-.09.49,1.23,1.23,0,0,1-.24.38,1.12,1.12,0,0,1-.38.24,1.6,1.6,0,0,1-.51.08,1.35,1.35,0,0,1-.53-.1,2.13,2.13,0,0,1-.37-.22l-.25-.22a.32.32,0,0,0-.2-.09.22.22,0,0,0-.14,0l-.11.09-.36.49a1.66,1.66,0,0,0,.35.35A1.73,1.73,0,0,0,320.15,336.17Z" transform="translate(-262.57 -312.37)"/><path d="M324.31,336.35a.29.29,0,0,0,.22-.07.36.36,0,0,0,.14-.16l.68-1.45h2.52l.3,1.46a.34.34,0,0,0,.11.17.24.24,0,0,0,.2.07h.79l-1.53-6.49h-1l-3.19,6.46Zm2.5-4.82.14-.32.16-.4q0,.21.06.39c0,.12,0,.23.05.32l.5,2.43h-2Z" transform="translate(-262.57 -312.37)"/><polygon points="68.27 17.55 67.44 24.02 70.9 24.04 71.01 23.19 68.56 23.18 69.28 17.55 68.27 17.55"/><polygon points="75.6 23.24 72.88 23.23 73.14 21.18 75.3 21.19 75.41 20.4 73.24 20.39 73.5 18.4 76.21 18.41 76.32 17.59 72.58 17.57 71.75 24.04 75.49 24.07 75.6 23.24"/><path d="M325.15,345h-5.64v17.35h3.23v-6.1h2.41a9.44,9.44,0,0,0,3-.42,5.93,5.93,0,0,0,2.1-1.18,4.78,4.78,0,0,0,1.26-1.81,6.17,6.17,0,0,0,.42-2.31,6,6,0,0,0-.4-2.23,4.57,4.57,0,0,0-1.23-1.75,5.71,5.71,0,0,0-2.1-1.14A10,10,0,0,0,325.15,345Zm3.52,5.53a4,4,0,0,1-.22,1.33,2.55,2.55,0,0,1-.65,1,3,3,0,0,1-1.1.63,4.82,4.82,0,0,1-1.55.23h-2.41v-6.23h2.41a5.17,5.17,0,0,1,1.56.21,2.94,2.94,0,0,1,1.09.6,2.52,2.52,0,0,1,.65,1A3.62,3.62,0,0,1,328.67,350.49Z" transform="translate(-262.57 -312.37)"/><path d="M337.92,345l-6.83,17.35h2.52a1,1,0,0,0,.68-.22,1.2,1.2,0,0,0,.38-.51L336,358h7.19l1.3,3.54a1.26,1.26,0,0,0,.39.52,1.09,1.09,0,0,0,.69.21H348L341.21,345Zm-1.12,10.8,2.1-5.75c.11-.26.21-.57.33-.93s.22-.73.32-1.14c.11.41.22.79.34,1.14s.22.65.32.91l2.11,5.77Z" transform="translate(-262.57 -312.37)"/><path d="M273.41,324.05a2.41,2.41,0,0,1,.19-.33.67.67,0,0,1,.21-.18.35.35,0,0,1,.19-.06.24.24,0,0,1,.15,0,.36.36,0,0,1,.1.11.62.62,0,0,1,0,.16,1.27,1.27,0,0,1,0,.2,5.1,5.1,0,0,1,0,.6c0,.24-.07.51-.11.8s-.08.59-.11.91,0,.63,0,.93a2.52,2.52,0,0,0,.08.55,1.17,1.17,0,0,0,.21.45,1.06,1.06,0,0,0,.38.31,1.33,1.33,0,0,0,.56.11,1.36,1.36,0,0,0,.52-.12,1.51,1.51,0,0,0,.5-.38,4.35,4.35,0,0,0,.5-.76,10.74,10.74,0,0,0,.51-1.24h0c-.05.28-.1.54-.13.79a4.19,4.19,0,0,0-.05.68,1.31,1.31,0,0,0,.06.41.81.81,0,0,0,.15.31.79.79,0,0,0,.27.2,1.08,1.08,0,0,0,.38.06.93.93,0,0,0,.58-.18A1.4,1.4,0,0,0,279,328a1.79,1.79,0,0,0,.27-.51,2.3,2.3,0,0,0,.14-.46l-.31-.06a3.07,3.07,0,0,1-.17.49,2,2,0,0,1-.21.34.73.73,0,0,1-.22.18.38.38,0,0,1-.19.06.23.23,0,0,1-.23-.14.74.74,0,0,1-.07-.34v-.15a.71.71,0,0,1,0-.14,1.62,1.62,0,0,1,0-.21c0-.08,0-.19,0-.33s0-.3,0-.5l.08-.72c0-.39.07-.71.09-1s.05-.47.06-.65,0-.31,0-.43v-.33s0-.08,0-.16l-.92,0a2.46,2.46,0,0,1,0,.28,2.81,2.81,0,0,1,0,.3,5.58,5.58,0,0,1-.07,1,8.78,8.78,0,0,1-.21,1,7.37,7.37,0,0,1-.33,1,6.12,6.12,0,0,1-.42.81,2.72,2.72,0,0,1-.47.56.8.8,0,0,1-.5.21.45.45,0,0,1-.27-.07.52.52,0,0,1-.16-.17,1,1,0,0,1-.08-.23,1.83,1.83,0,0,1,0-.21,4.79,4.79,0,0,1,0-.52c0-.19,0-.4.05-.61s0-.42.08-.64.05-.43.08-.63,0-.41.05-.59a2.71,2.71,0,0,0,0-.48,1.2,1.2,0,0,0-.23-.79.85.85,0,0,0-.67-.27,1.08,1.08,0,0,0-.58.18,1.81,1.81,0,0,0-.41.42,2.81,2.81,0,0,0-.26.52,4.21,4.21,0,0,0-.13.46l.31.06A3.22,3.22,0,0,1,273.41,324.05Z" transform="translate(-262.57 -312.37)"/><path d="M280.33,328.26a1.83,1.83,0,0,0,.57.22,2.35,2.35,0,0,0,.65.06,2.84,2.84,0,0,0,.84-.13,1.93,1.93,0,0,0,.65-.35,1.34,1.34,0,0,0,.41-.51,1.28,1.28,0,0,0,.14-.64,1.15,1.15,0,0,0-.12-.53,2.07,2.07,0,0,0-.31-.42,2.73,2.73,0,0,0-.45-.36l-.5-.31-.5-.28a3.73,3.73,0,0,1-.44-.29,1.3,1.3,0,0,1-.31-.31.61.61,0,0,1-.12-.37.69.69,0,0,1,.08-.35,1,1,0,0,1,.23-.28,1,1,0,0,1,.32-.18.92.92,0,0,1,.36-.07,1.11,1.11,0,0,1,.59.11.59.59,0,0,1,.28.31.71.71,0,0,0-.08.18.88.88,0,0,0,0,.17.51.51,0,0,0,.13.3.41.41,0,0,0,.32.13.45.45,0,0,0,.33-.14.5.5,0,0,0,.13-.38.86.86,0,0,0-.15-.44,1.08,1.08,0,0,0-.37-.33,2,2,0,0,0-.52-.21,2.48,2.48,0,0,0-.61-.07,2.71,2.71,0,0,0-.78.13,2,2,0,0,0-.59.33,1.51,1.51,0,0,0-.38.49,1.25,1.25,0,0,0-.13.57,1,1,0,0,0,.21.59,2.26,2.26,0,0,0,.5.47,5.93,5.93,0,0,0,.65.4c.23.13.45.25.65.38a2.7,2.7,0,0,1,.5.42.74.74,0,0,1,.2.5,1,1,0,0,1-.28.78,1.27,1.27,0,0,1-.89.29,1.36,1.36,0,0,1-.29,0L281,328a1.07,1.07,0,0,1-.22-.15.8.8,0,0,1-.13-.21.45.45,0,0,0,.07-.18.88.88,0,0,0,0-.16.47.47,0,0,0-.12-.32.37.37,0,0,0-.34-.14.41.41,0,0,0-.33.15.54.54,0,0,0-.13.4.87.87,0,0,0,.15.5A1.44,1.44,0,0,0,280.33,328.26Z" transform="translate(-262.57 -312.37)"/><path d="M286.35,322.85a2.56,2.56,0,0,0-.67.37,2.67,2.67,0,0,0-.5.56,3.09,3.09,0,0,0-.36.7,4.18,4.18,0,0,0-.21.79,6,6,0,0,0-.06.85,3.66,3.66,0,0,0,.14,1,1.92,1.92,0,0,0,.38.74,1.84,1.84,0,0,0,.65.48,2.1,2.1,0,0,0,.91.15,2.22,2.22,0,0,0,1.31-.42,3.74,3.74,0,0,0,1-1.29l-.36-.2a2.83,2.83,0,0,1-.39.6,2.46,2.46,0,0,1-.44.42,2.15,2.15,0,0,1-.47.25,1.62,1.62,0,0,1-.49.08,1,1,0,0,1-.95-.5,3.06,3.06,0,0,1-.33-1.54l.71-.12c.25-.05.49-.11.73-.18a6,6,0,0,0,.68-.27,2.61,2.61,0,0,0,.57-.34,1.6,1.6,0,0,0,.38-.45,1,1,0,0,0,.14-.55,1.14,1.14,0,0,0-.14-.59,1.12,1.12,0,0,0-.36-.39,1.69,1.69,0,0,0-.49-.21,2.13,2.13,0,0,0-.57-.05A2.39,2.39,0,0,0,286.35,322.85Zm1.27.47a.93.93,0,0,1,.15.26,1.14,1.14,0,0,1,.05.33.91.91,0,0,1-.19.57,1.79,1.79,0,0,1-.52.46,3.85,3.85,0,0,1-.74.33,6.14,6.14,0,0,1-.85.19,6.5,6.5,0,0,1,.12-.87,2.77,2.77,0,0,1,.27-.75,1.54,1.54,0,0,1,.46-.54,1,1,0,0,1,.65-.21.78.78,0,0,1,.35.05A.76.76,0,0,1,287.62,323.32Z" transform="translate(-262.57 -312.37)"/><path d="M290.39,325.58c0,.49-.06,1-.08,1.4s-.05.87-.07,1.26-.06.74-.1,1.06a4.89,4.89,0,0,1-.17.82,1.38,1.38,0,0,1-.27.53.56.56,0,0,1-.43.19.48.48,0,0,1-.33-.08.52.52,0,0,0-.12-.36.38.38,0,0,0-.32-.13.46.46,0,0,0-.21.05.37.37,0,0,0-.13.12.35.35,0,0,0-.07.15.39.39,0,0,0,0,.14c0,.38.3.56.87.55a1.69,1.69,0,0,0,.93-.24,2,2,0,0,0,.63-.64,3.36,3.36,0,0,0,.38-.94,9.56,9.56,0,0,0,.22-1.16q.07-.62.12-1.29l.09-1.34c0-.43.05-.85.07-1.27s0-.81,0-1.19l1.56,0,0-.43-1.56,0q0-.54.09-1a4.24,4.24,0,0,1,.17-.77,1.27,1.27,0,0,1,.31-.51.65.65,0,0,1,.47-.19h.15l.09,0v.05a.64.64,0,0,0,.12.36.42.42,0,0,0,.32.14.54.54,0,0,0,.21-.05.53.53,0,0,0,.14-.11.51.51,0,0,0,.07-.15.78.78,0,0,0,0-.14.51.51,0,0,0-.21-.42,1,1,0,0,0-.6-.14,2,2,0,0,0-1,.24,1.93,1.93,0,0,0-.63.61,3.13,3.13,0,0,0-.39.91,7.54,7.54,0,0,0-.22,1.13l-1,0,0,.47,1,0c0,.38-.07.76-.08,1.16S290.42,325.19,290.39,325.58Z" transform="translate(-262.57 -312.37)"/><path d="M293.11,323.7a2.26,2.26,0,0,0-.13.47l.3.05a3.46,3.46,0,0,1,.17-.49,1.59,1.59,0,0,1,.2-.33.59.59,0,0,1,.2-.19.45.45,0,0,1,.19,0,.22.22,0,0,1,.16,0,.2.2,0,0,1,.09.11.38.38,0,0,1,0,.16,1.27,1.27,0,0,1,0,.2,3.57,3.57,0,0,1,0,.6c0,.24-.07.51-.11.8s-.07.59-.11.91a7.34,7.34,0,0,0,0,.93,1.9,1.9,0,0,0,.07.54,1.3,1.3,0,0,0,.21.46,1.15,1.15,0,0,0,.38.31,1.2,1.2,0,0,0,.56.1,1.35,1.35,0,0,0,.52-.11,1.42,1.42,0,0,0,.5-.39,3.33,3.33,0,0,0,.5-.76,11.4,11.4,0,0,0,.52-1.23h0c0,.28-.09.54-.13.79a5.74,5.74,0,0,0,0,.68,1.31,1.31,0,0,0,.06.41.71.71,0,0,0,.16.31.7.7,0,0,0,.26.19.94.94,0,0,0,.39.07,1,1,0,0,0,.58-.18,1.68,1.68,0,0,0,.42-.42,2.78,2.78,0,0,0,.27-.51,3.4,3.4,0,0,0,.13-.46l-.31-.06a2.32,2.32,0,0,1-.17.49,1.57,1.57,0,0,1-.21.33.72.72,0,0,1-.21.19.56.56,0,0,1-.2.06.23.23,0,0,1-.23-.14.89.89,0,0,1-.07-.34v-.15s0-.09,0-.15a1.91,1.91,0,0,1,0-.2c0-.09,0-.19,0-.33s0-.3.05-.5,0-.44.07-.72.07-.71.1-1,0-.47.05-.65,0-.32,0-.43v-.33a1.18,1.18,0,0,0,0-.16l-.93,0a2.45,2.45,0,0,1,0,.27c0,.1,0,.2,0,.31a5.6,5.6,0,0,1-.06,1,7.43,7.43,0,0,1-.22,1,6.76,6.76,0,0,1-.33,1,5.08,5.08,0,0,1-.42.81,2.24,2.24,0,0,1-.47.56.75.75,0,0,1-.5.22.45.45,0,0,1-.27-.07.56.56,0,0,1-.16-.18.83.83,0,0,1-.08-.22,1.83,1.83,0,0,1,0-.21c0-.16,0-.33,0-.52s0-.4.06-.61.05-.42.07-.64.06-.43.08-.64,0-.4.06-.58,0-.34,0-.48a1.29,1.29,0,0,0-.24-.8.84.84,0,0,0-.67-.26,1,1,0,0,0-.58.18,1.6,1.6,0,0,0-.4.42A2.23,2.23,0,0,0,293.11,323.7Z" transform="translate(-262.57 -312.37)"/><path d="M300.74,320.6s0,.07,0,.11,0,.09,0,.15,0,.14,0,.23c0,.32-.07.67-.11,1.05s-.08.77-.12,1.17-.07.8-.11,1.19-.06.77-.09,1.13,0,.67-.05.95,0,.51,0,.68a1.23,1.23,0,0,0,.21.74.84.84,0,0,0,.69.23.92.92,0,0,0,.57-.18,1.4,1.4,0,0,0,.42-.42,2.12,2.12,0,0,0,.28-.51,3,3,0,0,0,.13-.46l-.32-.06a3.22,3.22,0,0,1-.17.5,2.18,2.18,0,0,1-.2.33.72.72,0,0,1-.21.19.41.41,0,0,1-.19.06.32.32,0,0,1-.18-.05.3.3,0,0,1-.09-.13,1,1,0,0,1,0-.18,1.55,1.55,0,0,1,0-.22c0-.17,0-.39,0-.66s0-.55.05-.87.05-.65.07-1l.09-1c0-.34.06-.67.1-1s.06-.62.09-.87,0-.27.05-.43,0-.32.07-.49.05-.34.07-.5.05-.32.07-.46h-.31a.91.91,0,0,1-.16.11.67.67,0,0,1-.24.1,2.81,2.81,0,0,1-.4.08c-.16,0-.36,0-.6,0l0,.44.79-.06Z" transform="translate(-262.57 -312.37)"/><path d="M304.25,325.53c.39-3.07.58-4.62.58-4.63a.19.19,0,0,0,0-.08.86.86,0,0,0,0-.24.51.51,0,0,0-.1-.21.49.49,0,0,0-.18-.14.44.44,0,0,0-.26-.05.58.58,0,0,0-.49.25.72.72,0,0,0-.12.25.9.9,0,0,0,0,.28l.24,4.57Z" transform="translate(-262.57 -312.37)"/><path d="M303.52,328.06a.8.8,0,0,0,.19.13.64.64,0,0,0,.24.05.57.57,0,0,0,.25-.06.8.8,0,0,0,.21-.15.91.91,0,0,0,.15-.23.89.89,0,0,0,.07-.28.7.7,0,0,0-.18-.52.62.62,0,0,0-.44-.19.77.77,0,0,0-.26.07.68.68,0,0,0-.21.17.87.87,0,0,0-.15.25.94.94,0,0,0-.05.3.75.75,0,0,0,.05.26A1.37,1.37,0,0,0,303.52,328.06Z" transform="translate(-262.57 -312.37)"/><path d="M283.77,356.22a12.61,12.61,0,0,0,1.64-2.49,32.79,32.79,0,0,0,1.69-4.05h.11c-.16.92-.3,1.78-.42,2.59a13.91,13.91,0,0,0-.16,2.23,5.43,5.43,0,0,0,.18,1.34,2.75,2.75,0,0,0,.51,1,2.49,2.49,0,0,0,.88.65,3.13,3.13,0,0,0,1.26.22,3.29,3.29,0,0,0,1.89-.59,5.25,5.25,0,0,0,1.37-1.37,7.55,7.55,0,0,0,.89-1.68,9.59,9.59,0,0,0,.45-1.51l-1-.2a9.86,9.86,0,0,1-.57,1.63,5.7,5.7,0,0,1-.68,1.09,2.47,2.47,0,0,1-.7.6,1.45,1.45,0,0,1-.63.18.75.75,0,0,1-.78-.45,2.7,2.7,0,0,1-.21-1.12,3.68,3.68,0,0,1,0-.47c0-.14,0-.3,0-.49s0-.4.06-.67.06-.63.11-1.07.09-1,.16-1.63.14-1.44.23-2.38c.14-1.27.24-2.32.33-3.16s.14-1.55.19-2.12.07-1,.08-1.42,0-.73,0-1.07c0-.09,0-.27,0-.53l-3,0c0,.3,0,.61.07.91s0,.64,0,1a20,20,0,0,1-.22,3.2,27.2,27.2,0,0,1-1.8,6.5,16.37,16.37,0,0,1-1.37,2.65,8.27,8.27,0,0,1-1.55,1.83,2.63,2.63,0,0,1-1.64.7,1.48,1.48,0,0,1-.87-.22,1.83,1.83,0,0,1-.53-.58,2.49,2.49,0,0,1-.25-.74,3.6,3.6,0,0,1-.07-.7c0-.5,0-1.07.06-1.7s.11-1.29.19-2,.16-1.39.25-2.1.17-1.41.25-2.08.14-1.31.19-1.91a15.57,15.57,0,0,0,.07-1.58,4,4,0,0,0-.78-2.59,2.67,2.67,0,0,0-2.19-.87,3.27,3.27,0,0,0-1.88.58,5.49,5.49,0,0,0-1.34,1.38,7.37,7.37,0,0,0-.85,1.68,9.73,9.73,0,0,0-.43,1.51l1,.19a10.7,10.7,0,0,1,.55-1.61,5.6,5.6,0,0,1,.64-1.09,2.24,2.24,0,0,1,.66-.6,1.36,1.36,0,0,1,.63-.2.88.88,0,0,1,.51.14,1,1,0,0,1,.31.36,1.65,1.65,0,0,1,.13.54,4.31,4.31,0,0,1,0,.64,13.17,13.17,0,0,1-.15,2c-.1.79-.22,1.67-.35,2.62s-.25,1.94-.36,3a28.73,28.73,0,0,0-.13,3.05,7.42,7.42,0,0,0,.24,1.78,4.36,4.36,0,0,0,.7,1.49,3.3,3.3,0,0,0,1.23,1,4.09,4.09,0,0,0,1.84.35,4.41,4.41,0,0,0,1.7-.37A4.89,4.89,0,0,0,283.77,356.22Z" transform="translate(-262.57 -312.37)"/><path d="M301.82,355.72a1,1,0,0,1-.87-.37,2,2,0,0,1-.28-1.12,24.1,24.1,0,0,1,.17-3.13c.12-1.08.27-2.14.43-3.18s.3-2,.43-3a17.94,17.94,0,0,0,.17-2.49,6.52,6.52,0,0,0-.2-1.53,3.56,3.56,0,0,0-.58-1.17,2.72,2.72,0,0,0-1-.75,3.46,3.46,0,0,0-3.21.33,5.38,5.38,0,0,0-1.32,1.37,7.24,7.24,0,0,0-.85,1.69,11.09,11.09,0,0,0-.42,1.5l1,.2a9.17,9.17,0,0,1,.57-1.62,5.78,5.78,0,0,1,.68-1.08,2.7,2.7,0,0,1,.7-.61,1.37,1.37,0,0,1,.63-.19.77.77,0,0,1,.52.16,1.12,1.12,0,0,1,.3.41,2.24,2.24,0,0,1,.16.52,3.36,3.36,0,0,1,.05.51,20.24,20.24,0,0,1-.18,3c-.13,1-.27,2-.44,2.95s-.3,2-.44,3a20.48,20.48,0,0,0-.17,3.06c0,2.25,1.13,3.37,3.3,3.34a3.11,3.11,0,0,0,1.76-.54,5.27,5.27,0,0,0,1.29-1.29,7.33,7.33,0,0,0,.86-1.67,10.59,10.59,0,0,0,.48-1.65l-1-.19a9.14,9.14,0,0,1-.58,1.62,4.76,4.76,0,0,1-.67,1.09,2.5,2.5,0,0,1-.68.61A1.29,1.29,0,0,1,301.82,355.72Z" transform="translate(-262.57 -312.37)"/><path d="M300.74,331a1.86,1.86,0,0,0-.74.16,2,2,0,0,0-.62.43,2,2,0,0,0-.42.66,2,2,0,0,0-.14.83,2,2,0,0,0,.16.83,1.93,1.93,0,0,0,.42.63,2.08,2.08,0,0,0,.61.4,1.86,1.86,0,0,0,.75.14,2.09,2.09,0,0,0,.74-.16,1.9,1.9,0,0,0,1-1.06,2.23,2.23,0,0,0,.15-.83,2.15,2.15,0,0,0-.55-1.5A1.82,1.82,0,0,0,300.74,331Z" transform="translate(-262.57 -312.37)"/><path d="M274.12,366.37a1.74,1.74,0,0,0,.63.4,2.35,2.35,0,0,0,.82.13,2.19,2.19,0,0,0,.8-.17,1.78,1.78,0,0,0,.61-.43,1.75,1.75,0,0,0,.37-.67,2.44,2.44,0,0,0,.12-.88,2.63,2.63,0,0,0-.16-.86,1.89,1.89,0,0,0-.41-.65,1.74,1.74,0,0,0-.62-.4,2.39,2.39,0,0,0-.82-.13,2.29,2.29,0,0,0-.81.17,1.56,1.56,0,0,0-.6.44,1.73,1.73,0,0,0-.38.66,2.41,2.41,0,0,0-.12.87,2.64,2.64,0,0,0,.16.87A2.06,2.06,0,0,0,274.12,366.37Zm.5-2.63a1,1,0,0,1,.86-.42,1,1,0,0,1,.87.37,1.88,1.88,0,0,1,.31,1.09,1.8,1.8,0,0,1-.26,1.1,1.15,1.15,0,0,1-1.73,0,1.82,1.82,0,0,1-.31-1.08A1.78,1.78,0,0,1,274.62,363.74Z" transform="translate(-262.57 -312.37)"/><path d="M281.64,363.47a1.25,1.25,0,0,0-.27-.48,1.23,1.23,0,0,0-.44-.3,1.38,1.38,0,0,0-.59-.1,1.34,1.34,0,0,0-.4.06,2,2,0,0,0-.34.13,1.61,1.61,0,0,0-.3.21,2.23,2.23,0,0,0-.27.26l-.07-.41a.2.2,0,0,0-.21-.15l-.47,0,.11,4.06.78,0-.08-3a1.8,1.8,0,0,1,.48-.4,1.09,1.09,0,0,1,.56-.15.72.72,0,0,1,.61.22,1,1,0,0,1,.22.68l.06,2.58.79,0-.07-2.58A2.08,2.08,0,0,0,281.64,363.47Z" transform="translate(-262.57 -312.37)"/><rect x="282.8" y="360.74" width="0.78" height="5.9" transform="matrix(1, -0.02, 0.02, 1, -271.54, -305.2)"/><path d="M285.83,367.94a.24.24,0,0,0,.18-.05.56.56,0,0,0,.09-.14l2.12-5.29h-.62a.24.24,0,0,0-.14,0,.21.21,0,0,0-.08.11l-.94,2.46-.06.19-.06.19a1.21,1.21,0,0,0-.05-.18,1.46,1.46,0,0,0-.07-.19l-1.09-2.41a.76.76,0,0,0-.08-.11.25.25,0,0,0-.16,0l-.68,0,1.76,3.76-.7,1.64Z" transform="translate(-262.57 -312.37)"/><path d="M275.66,373.87a.89.89,0,0,0,.19-.33,1.05,1.05,0,0,0,.07-.4,1,1,0,0,0-.09-.36.8.8,0,0,0-.22-.23,1.4,1.4,0,0,0-.3-.15l-.33-.1,0-1.09.19.05.16.07.11.06.08,0a.18.18,0,0,0,.12-.08l.1-.17a1.24,1.24,0,0,0-.32-.23,1.29,1.29,0,0,0-.42-.12l0-.46h-.17a.1.1,0,0,0-.09,0,.11.11,0,0,0,0,.08l0,.33a1.13,1.13,0,0,0-.43.1,1.07,1.07,0,0,0-.32.22,1.12,1.12,0,0,0-.19.29.8.8,0,0,0-.05.34.86.86,0,0,0,.08.38,1,1,0,0,0,.21.25,1.32,1.32,0,0,0,.29.15l.32.11-.05,1.19a1.38,1.38,0,0,1-.26-.07,1.09,1.09,0,0,1-.19-.1l-.14-.1a.3.3,0,0,0-.11,0l-.07,0,0,.05-.14.22a1.46,1.46,0,0,0,.41.27,1.73,1.73,0,0,0,.52.13l0,.52h.16a.19.19,0,0,0,.09,0,.36.36,0,0,0,0-.09v-.39a1.24,1.24,0,0,0,.45-.12A1,1,0,0,0,275.66,373.87Zm-1-1.66-.2-.07-.16-.1a.76.76,0,0,1-.11-.14.48.48,0,0,1,0-.18.57.57,0,0,1,0-.18.31.31,0,0,1,.1-.15.42.42,0,0,1,.17-.11.66.66,0,0,1,.25-.07Zm.26.52.2.08a.56.56,0,0,1,.17.09.76.76,0,0,1,.11.14.48.48,0,0,1,.05.19.59.59,0,0,1-.15.41.65.65,0,0,1-.44.2Z" transform="translate(-262.57 -312.37)"/><path d="M280.65,370.1a2.06,2.06,0,0,0-.74-.46,2.63,2.63,0,0,0-1-.14,2.34,2.34,0,0,0-1,.2,2.29,2.29,0,0,0-.75.5,2.12,2.12,0,0,0-.47.74,2.18,2.18,0,0,0-.16.88,2.24,2.24,0,0,0,.19.89,2,2,0,0,0,.46.63,1.86,1.86,0,0,0,.65.38,2,2,0,0,0,.76.12,2.63,2.63,0,0,0,.7-.12,2.19,2.19,0,0,0,.6-.33l-.35.51-2.13,2.89.9,0a.6.6,0,0,0,.3-.07.56.56,0,0,0,.2-.17l1.66-2.52a5.63,5.63,0,0,0,.33-.54,4.34,4.34,0,0,0,.25-.54,3,3,0,0,0,.19-1.16,2.54,2.54,0,0,0-.19-.94A1.94,1.94,0,0,0,280.65,370.1Zm-.35,2.1a1.25,1.25,0,0,1-.27.44,1.29,1.29,0,0,1-.44.31,1.56,1.56,0,0,1-.6.13,1.36,1.36,0,0,1-1-.33,1.39,1.39,0,0,1-.39-1,1.46,1.46,0,0,1,.09-.56,1.29,1.29,0,0,1,.27-.45,1.37,1.37,0,0,1,.44-.3,1.48,1.48,0,0,1,.57-.11,1.46,1.46,0,0,1,.56.08,1.29,1.29,0,0,1,.45.27,1.25,1.25,0,0,1,.29.44,1.34,1.34,0,0,1,.12.58A1.32,1.32,0,0,1,280.3,372.2Z" transform="translate(-262.57 -312.37)"/><path d="M282.75,376.55a.57.57,0,0,0,.21.13.75.75,0,0,0,.26.05,1.1,1.1,0,0,0,.26-.06.62.62,0,0,0,.2-.15.6.6,0,0,0,.14-.21.75.75,0,0,0,.05-.26.66.66,0,0,0-.06-.25.8.8,0,0,0-.15-.21.6.6,0,0,0-.21-.14.75.75,0,0,0-.26-.05,1.1,1.1,0,0,0-.26.06.62.62,0,0,0-.2.15.76.76,0,0,0-.18.47.58.58,0,0,0,.06.26A.6.6,0,0,0,282.75,376.55Z" transform="translate(-262.57 -312.37)"/><path d="M289.44,372.16a2.93,2.93,0,0,0,0-.6,2.58,2.58,0,0,0-.19-.94,2.32,2.32,0,0,0-.48-.73,2,2,0,0,0-.74-.45,2.48,2.48,0,0,0-1-.15,2.8,2.8,0,0,0-1,.2,2.17,2.17,0,0,0-.74.51,2.11,2.11,0,0,0-.48.73,2.22,2.22,0,0,0-.15.89,2.19,2.19,0,0,0,.19.88,1.87,1.87,0,0,0,.46.64,1.92,1.92,0,0,0,.65.38,2.12,2.12,0,0,0,.76.11,2,2,0,0,0,.7-.12,2.16,2.16,0,0,0,.6-.32c-.11.16-.23.33-.36.5l-2.12,2.9.9,0a.74.74,0,0,0,.3-.08.45.45,0,0,0,.19-.17l1.67-2.51c.12-.19.23-.37.33-.55a4.34,4.34,0,0,0,.25-.54A5.12,5.12,0,0,0,289.44,372.16Zm-1-.17a1.29,1.29,0,0,1-.27.45,1.58,1.58,0,0,1-.44.31,1.66,1.66,0,0,1-.61.13,1.25,1.25,0,0,1-1.39-1.36,1.46,1.46,0,0,1,.08-.56,1.33,1.33,0,0,1,.28-.44,1.15,1.15,0,0,1,.44-.3,1.49,1.49,0,0,1,.57-.12,1.46,1.46,0,0,1,.56.08,1.16,1.16,0,0,1,.44.27,1.23,1.23,0,0,1,.3.44,1.76,1.76,0,0,1,.12.58A1.49,1.49,0,0,1,288.46,372Z" transform="translate(-262.57 -312.37)"/><path d="M294.61,369.75a2.25,2.25,0,0,0-.74-.46,2.48,2.48,0,0,0-1-.15,2.55,2.55,0,0,0-1,.21,2.29,2.29,0,0,0-.75.5,2.2,2.2,0,0,0-.62,1.62,2.15,2.15,0,0,0,.19.88,1.76,1.76,0,0,0,.45.64,1.86,1.86,0,0,0,.65.38,2.46,2.46,0,0,0,.76.12,2.35,2.35,0,0,0,.71-.13,1.77,1.77,0,0,0,.59-.32c-.11.17-.22.34-.35.51l-2.12,2.89.89,0a.66.66,0,0,0,.3-.07.49.49,0,0,0,.2-.17l1.67-2.52c.12-.19.23-.37.33-.55a2.61,2.61,0,0,0,.24-.54,3.47,3.47,0,0,0,.16-.55,4.08,4.08,0,0,0,0-.61,2.62,2.62,0,0,0-.19-.94A2.27,2.27,0,0,0,294.61,369.75Zm-.36,2.1a1.31,1.31,0,0,1-.26.44,1.4,1.4,0,0,1-.44.31,1.66,1.66,0,0,1-.61.13,1.34,1.34,0,0,1-1-.34,1.39,1.39,0,0,1-.38-1,1.46,1.46,0,0,1,.08-.56,1.22,1.22,0,0,1,.28-.45,1.19,1.19,0,0,1,.43-.3,1.81,1.81,0,0,1,.58-.12,1.69,1.69,0,0,1,.56.09,1.25,1.25,0,0,1,.44.27,1.11,1.11,0,0,1,.3.43,1.82,1.82,0,0,1,.12.59A1.54,1.54,0,0,1,294.25,371.85Z" transform="translate(-262.57 -312.37)"/><path d="M297.86,371.55a.28.28,0,0,0,.13,0l.14-.07.66-.4-.2-.33-.66.41-.12.09a.36.36,0,0,0-.1.11.83.83,0,0,0,0-.15V371l0-.77h-.38l0,.78a.77.77,0,0,0,0,.15.58.58,0,0,0,.05.14l-.1-.11-.14-.08-.68-.38-.18.33.68.38a1,1,0,0,0,.29.1.32.32,0,0,0-.14,0,.61.61,0,0,0-.14.07l-.66.41.19.32.66-.4.13-.09.09-.1a.65.65,0,0,0,0,.13v.16l0,.77h.38l0-.78a.78.78,0,0,0-.07-.3.57.57,0,0,0,.11.11l.13.09.69.38.18-.34-.69-.38A.72.72,0,0,0,297.86,371.55Z" transform="translate(-262.57 -312.37)"/><path d="M314.08,374.62a.78.78,0,0,0,.2.11l.23.07.23,0H315a1.72,1.72,0,0,0,.52-.07,1.07,1.07,0,0,0,.38-.21.82.82,0,0,0,.24-.32.9.9,0,0,0,.08-.4.8.8,0,0,0-.07-.36.82.82,0,0,0-.21-.27,1.27,1.27,0,0,0-.29-.21l-.34-.17-.33-.16a1.58,1.58,0,0,1-.29-.17,1.08,1.08,0,0,1-.21-.22.51.51,0,0,1-.07-.28.67.67,0,0,1,0-.24.66.66,0,0,1,.14-.2.74.74,0,0,1,.21-.13.68.68,0,0,1,.29-.05.77.77,0,0,1,.64.29.71.71,0,0,1,.15.3,1,1,0,0,1,.05.35h.18l.06-1.1h-.25v.22a1.07,1.07,0,0,0-.21-.13l-.22-.08-.22,0H315a1.48,1.48,0,0,0-.38,0,1.2,1.2,0,0,0-.28.13.88.88,0,0,0-.32.38.83.83,0,0,0-.06.21.58.58,0,0,0,0,.18.78.78,0,0,0,.07.35.86.86,0,0,0,.21.26,1.42,1.42,0,0,0,.28.2l.33.17a2.53,2.53,0,0,1,.33.16,1.19,1.19,0,0,1,.29.18.72.72,0,0,1,.2.23.48.48,0,0,1,.08.3.61.61,0,0,1-.06.28.58.58,0,0,1-.17.21.66.66,0,0,1-.25.13.92.92,0,0,1-.29,0,1.5,1.5,0,0,1-.37-.05.92.92,0,0,1-.29-.17.63.63,0,0,1-.19-.28,1,1,0,0,1-.08-.4h-.19l0,1.07h.26Z" transform="translate(-262.57 -312.37)"/><path d="M317,371.36v0s0,0,0,.07a.56.56,0,0,0,0,.1c0,.1,0,.22-.05.35s0,.28,0,.43,0,.31,0,.47,0,.33,0,.49,0,.31,0,.46,0,.28,0,.4,0,.23,0,.32v.27h.41v-.12a.66.66,0,0,1,0-.14,3.88,3.88,0,0,1,0-.48c0-.16.07-.31.11-.47s.1-.29.16-.43a3.63,3.63,0,0,1,.2-.35,1.79,1.79,0,0,1,.22-.24.4.4,0,0,1,.23-.09.21.21,0,0,1,.12,0s.06,0,.07.08a.42.42,0,0,1,0,.1.38.38,0,0,1,0,.1c0,.13,0,.27,0,.42s0,.29-.05.43,0,.28-.05.41a2,2,0,0,0,0,.33,1.12,1.12,0,0,0,0,.2.46.46,0,0,0,.07.16.27.27,0,0,0,.12.09.56.56,0,0,0,.2,0,.4.4,0,0,0,.26-.08.81.81,0,0,0,.19-.18,1.27,1.27,0,0,0,.12-.23,1.15,1.15,0,0,0,.06-.21l-.12,0a.91.91,0,0,1-.09.22.49.49,0,0,1-.09.15.41.41,0,0,1-.1.09l-.09,0a.08.08,0,0,1-.07,0,.1.1,0,0,1,0-.05.14.14,0,0,1,0-.07v-.09a1.58,1.58,0,0,1,0-.28c0-.11,0-.23.05-.36s0-.27.05-.42,0-.28,0-.42a1,1,0,0,0,0-.25.67.67,0,0,0-.09-.21.53.53,0,0,0-.43-.19.67.67,0,0,0-.24,0,.71.71,0,0,0-.24.17,1.58,1.58,0,0,0-.25.34,3,3,0,0,0-.25.56h0a1.83,1.83,0,0,1,0-.21,2.5,2.5,0,0,1,0-.25l0-.28,0-.28,0-.26c0-.08,0-.14,0-.2l0-.19a1.85,1.85,0,0,1,0-.23l0-.23a1.77,1.77,0,0,0,0-.2h-.15l-.07.05-.11,0a.48.48,0,0,1-.18,0h-.27l0,.2.35,0Z" transform="translate(-262.57 -312.37)"/><path d="M319.54,372.72a1,1,0,0,1,.09-.15.32.32,0,0,1,.09-.08.16.16,0,0,1,.09,0l.07,0a.13.13,0,0,1,0,.06.14.14,0,0,1,0,.07v.09c0,.07,0,.16,0,.27s0,.23-.06.37,0,.27-.05.41a3,3,0,0,0,0,.42,1,1,0,0,0,0,.25.51.51,0,0,0,.1.21.36.36,0,0,0,.16.14.53.53,0,0,0,.26.05.59.59,0,0,0,.23,0,.89.89,0,0,0,.24-.17,2.36,2.36,0,0,0,.23-.35,3.46,3.46,0,0,0,.24-.56h0c0,.13-.05.25-.07.36s0,.22,0,.31a.58.58,0,0,0,0,.19.27.27,0,0,0,.07.14.27.27,0,0,0,.12.09.39.39,0,0,0,.17,0,.5.5,0,0,0,.27-.08.69.69,0,0,0,.19-.19,1.71,1.71,0,0,0,.13-.23,1.15,1.15,0,0,0,.06-.21l-.14,0a1.23,1.23,0,0,1-.08.23.56.56,0,0,1-.1.15.39.39,0,0,1-.1.08l-.08,0a.11.11,0,0,1-.11-.06.41.41,0,0,1,0-.16v-.06a.17.17,0,0,1,0-.07.38.38,0,0,1,0-.1s0-.08,0-.14,0-.14,0-.23,0-.2,0-.33,0-.32.05-.44,0-.21,0-.29,0-.15,0-.2v-.22h-.42v.13s0,.09,0,.14a3.59,3.59,0,0,1,0,.44,3.43,3.43,0,0,1-.11.46c-.05.15-.1.3-.16.44a2,2,0,0,1-.19.36,1.12,1.12,0,0,1-.22.25.36.36,0,0,1-.23.1.16.16,0,0,1-.12,0,.18.18,0,0,1-.07-.08.3.3,0,0,1,0-.1s0-.07,0-.1,0-.15,0-.23,0-.18,0-.28,0-.19,0-.29a2.89,2.89,0,0,1,0-.29l0-.26c0-.09,0-.16,0-.22a.59.59,0,0,0-.1-.36.36.36,0,0,0-.31-.13.47.47,0,0,0-.26.08.69.69,0,0,0-.19.19,1,1,0,0,0-.12.23,1.15,1.15,0,0,0-.06.21l.14,0A1.13,1.13,0,0,1,319.54,372.72Z" transform="translate(-262.57 -312.37)"/><path d="M323.13,373.35c0-.15,0-.3.05-.45s0-.29.05-.43h.8v-.19h-.79l.09-.7h-.19a1.28,1.28,0,0,1-.28.52.67.67,0,0,1-.49.18l0,.21h.45l-.06.53c0,.17,0,.33,0,.48s0,.3,0,.42,0,.24,0,.34a.82.82,0,0,0,0,.22.56.56,0,0,0,.09.19.34.34,0,0,0,.16.13.58.58,0,0,0,.25.05.71.71,0,0,0,.21,0l.19-.1a1.36,1.36,0,0,0,.17-.17,1.39,1.39,0,0,0,.15-.22l-.13-.09a1.17,1.17,0,0,1-.14.19.58.58,0,0,1-.13.11l-.12.05h-.08a.17.17,0,0,1-.13,0,.18.18,0,0,1-.07-.1.32.32,0,0,1,0-.14.76.76,0,0,1,0-.15c0-.11,0-.24,0-.37Z" transform="translate(-262.57 -312.37)"/><path d="M326.67,374.79a.73.73,0,0,0,.23-.18,1.42,1.42,0,0,0,.23-.34,4.5,4.5,0,0,0,.25-.56h0c0,.13-.05.25-.06.36a1.89,1.89,0,0,0,0,.31,1.11,1.11,0,0,0,0,.19.61.61,0,0,0,.07.14.27.27,0,0,0,.12.09.47.47,0,0,0,.17,0,.48.48,0,0,0,.27-.08.69.69,0,0,0,.19-.19.76.76,0,0,0,.13-.23,1.15,1.15,0,0,0,.06-.21l-.13,0c0,.09-.06.16-.09.23a1,1,0,0,1-.09.15l-.1.08-.09,0a.11.11,0,0,1-.11-.06.41.41,0,0,1,0-.16s0,0,0-.06v-.07a.38.38,0,0,1,0-.1,1.15,1.15,0,0,1,0-.14c0-.06,0-.14,0-.23s0-.2,0-.33,0-.32,0-.44,0-.21,0-.29,0-.15,0-.2v-.22h-.42a.62.62,0,0,0,0,.13v.14a3.59,3.59,0,0,1,0,.44,3.43,3.43,0,0,1-.11.46,3.26,3.26,0,0,1-.15.44,2,2,0,0,1-.2.36.92.92,0,0,1-.22.25.34.34,0,0,1-.23.1.16.16,0,0,1-.12,0,.27.27,0,0,1-.07-.08.3.3,0,0,1,0-.1v-.1a1.85,1.85,0,0,1,0-.23l0-.28c0-.09,0-.19,0-.29s0-.19,0-.29l0-.26a1.86,1.86,0,0,0,0-.22.53.53,0,0,0-.1-.36.35.35,0,0,0-.3-.13.5.5,0,0,0-.27.08.77.77,0,0,0-.18.18,1.41,1.41,0,0,0-.13.24,1.15,1.15,0,0,0-.06.21l.14,0a1.13,1.13,0,0,1,.08-.22,1,1,0,0,1,.09-.15.25.25,0,0,1,.1-.08l.08,0,.07,0s0,0,0,.06a.15.15,0,0,1,0,.07.28.28,0,0,1,0,.09,1.57,1.57,0,0,1,0,.27c0,.11,0,.23,0,.36s0,.27-.06.42a3,3,0,0,0,0,.42,1,1,0,0,0,0,.25.5.5,0,0,0,.09.21.39.39,0,0,0,.17.14.49.49,0,0,0,.25.05A.67.67,0,0,0,326.67,374.79Z" transform="translate(-262.57 -312.37)"/><path d="M329.23,375.45l0-.63.24,0a1.54,1.54,0,0,0,.63-.12,1.24,1.24,0,0,0,.47-.34,1.4,1.4,0,0,0,.28-.51,2.85,2.85,0,0,0,.1-.67,1.58,1.58,0,0,0-.05-.38.73.73,0,0,0-.12-.3.53.53,0,0,0-.21-.21.52.52,0,0,0-.3-.08.59.59,0,0,0-.45.2,1.57,1.57,0,0,0-.23.33,3.74,3.74,0,0,0-.21.56h0c0-.08,0-.17.05-.27s0-.2,0-.3a1.23,1.23,0,0,0,0-.2.49.49,0,0,0-.06-.17.43.43,0,0,0-.12-.11.36.36,0,0,0-.19,0,.48.48,0,0,0-.26.07.86.86,0,0,0-.19.19.76.76,0,0,0-.13.23l-.07.21.15,0a1.77,1.77,0,0,1,.08-.22.36.36,0,0,1,.1-.15.38.38,0,0,1,.09-.09l.09,0,.08,0,0,.06a.25.25,0,0,1,0,.09v.09a1.42,1.42,0,0,1,0,.19c0,.09,0,.19,0,.31s0,.25,0,.4,0,.31-.05.47,0,.35,0,.53,0,.37,0,.57,0,.19,0,.27a1.17,1.17,0,0,1,0,.22.27.27,0,0,1-.09.15.21.21,0,0,1-.16.06v.15h.94v-.21l-.31,0,0-.2C329.22,375.59,329.23,375.52,329.23,375.45Zm.08-1.09,0-.23c0-.13.05-.27.09-.4a3.64,3.64,0,0,1,.11-.39,3.68,3.68,0,0,1,.15-.35,1.87,1.87,0,0,1,.16-.28.62.62,0,0,1,.18-.18.26.26,0,0,1,.18-.07.23.23,0,0,1,.17.07.4.4,0,0,1,.1.17,1.07,1.07,0,0,1,.06.27c0,.1,0,.2,0,.32s0,.2,0,.31a1.83,1.83,0,0,1-.07.32,1.78,1.78,0,0,1-.12.29,1.08,1.08,0,0,1-.18.24,1.32,1.32,0,0,1-.25.16.83.83,0,0,1-.32.06l-.15,0-.15,0A2,2,0,0,1,329.31,374.36Z" transform="translate(-262.57 -312.37)"/><path d="M334.33,373.73l-.06.35a1.89,1.89,0,0,0,0,.31,1.11,1.11,0,0,0,0,.19.61.61,0,0,0,.07.14.2.2,0,0,0,.11.09.31.31,0,0,0,.17,0,.5.5,0,0,0,.27-.08.69.69,0,0,0,.19-.19,1,1,0,0,0,.13-.23,1.15,1.15,0,0,0,.06-.21l-.14,0a1.23,1.23,0,0,1-.08.23.56.56,0,0,1-.1.15l-.09.08-.09,0-.08,0a.16.16,0,0,1,0-.07.19.19,0,0,1,0-.08v-.1a2.07,2.07,0,0,1,0-.32c0-.15,0-.31.05-.49s0-.37.07-.57.05-.42.08-.62a1.86,1.86,0,0,0-.34-.06l-.33,0a1.44,1.44,0,0,0-.64.14,1.38,1.38,0,0,0-.45.38,1.55,1.55,0,0,0-.28.56,2.39,2.39,0,0,0-.09.66,1.18,1.18,0,0,0,.05.4.66.66,0,0,0,.13.28.75.75,0,0,0,.2.15.69.69,0,0,0,.25,0h.15l.16-.06a.56.56,0,0,0,.16-.12.9.9,0,0,0,.18-.2c.05-.08.11-.18.17-.3s.11-.26.16-.42Zm-.23.16a2.69,2.69,0,0,1-.2.38,1.16,1.16,0,0,1-.22.26.37.37,0,0,1-.23.1.25.25,0,0,1-.15-.06.4.4,0,0,1-.1-.15.84.84,0,0,1-.06-.24,2.62,2.62,0,0,1,0-.29,3.29,3.29,0,0,1,.05-.54,1.53,1.53,0,0,1,.17-.47.93.93,0,0,1,.27-.34.68.68,0,0,1,.4-.13l.21,0a.42.42,0,0,1,.17.05,2.53,2.53,0,0,1,0,.46,3.86,3.86,0,0,1-.1.49C334.21,373.59,334.16,373.74,334.1,373.89Z" transform="translate(-262.57 -312.37)"/><path d="M338.06,374.34a.36.36,0,0,1-.1.15l-.09.09-.09,0a.08.08,0,0,1-.07,0,.1.1,0,0,1,0-.05.14.14,0,0,1,0-.07s0-.06,0-.09a1.78,1.78,0,0,1,0-.28c0-.11,0-.23.05-.36s0-.27,0-.42a3,3,0,0,0,0-.42,1,1,0,0,0,0-.25.51.51,0,0,0-.1-.21.44.44,0,0,0-.16-.14.67.67,0,0,0-.26-.05.52.52,0,0,0-.24.05.74.74,0,0,0-.25.18,1.51,1.51,0,0,0-.24.35,3.33,3.33,0,0,0-.26.56h0s0-.09,0-.13l0-.16s0-.11,0-.16a1,1,0,0,0,0-.17,1.23,1.23,0,0,0,0-.2.49.49,0,0,0-.06-.17.29.29,0,0,0-.11-.11.34.34,0,0,0-.18,0,.5.5,0,0,0-.27.07.86.86,0,0,0-.19.19,1,1,0,0,0-.13.23,1.15,1.15,0,0,0-.06.21l.13,0a1.65,1.65,0,0,1,.09-.22.56.56,0,0,1,.1-.15.22.22,0,0,1,.09-.08l.09,0,.07,0a.1.1,0,0,1,0,.05.14.14,0,0,1,0,.07s0,.06,0,.08a.15.15,0,0,1,0,.07v.07s0,.06,0,.1,0,.09,0,.15,0,.14,0,.23,0,.2,0,.33,0,.32-.05.44,0,.21,0,.28,0,.14,0,.19v.22h.42v-.12a.66.66,0,0,1,0-.14,3.75,3.75,0,0,1,0-.45,3.45,3.45,0,0,1,.12-.46,3.29,3.29,0,0,1,.16-.44,2.87,2.87,0,0,1,.21-.36.94.94,0,0,1,.23-.25.36.36,0,0,1,.23-.1.21.21,0,0,1,.12,0l.07.08a.42.42,0,0,1,0,.1s0,.07,0,.1a3.19,3.19,0,0,1,0,.42c0,.15,0,.29-.05.43l-.06.41c0,.12,0,.23,0,.33a1.12,1.12,0,0,0,0,.2.44.44,0,0,0,.06.16.25.25,0,0,0,.13.09.5.5,0,0,0,.19,0,.5.5,0,0,0,.27-.07,1.14,1.14,0,0,0,.19-.19.76.76,0,0,0,.13-.23,1.15,1.15,0,0,0,.06-.21l-.14,0A.93.93,0,0,1,338.06,374.34Z" transform="translate(-262.57 -312.37)"/><path d="M340.89,374.35a.56.56,0,0,1-.09.14l-.1.09-.09,0-.07,0s0,0,0-.06a.24.24,0,0,1,0-.09v-.09c0-.09,0-.2,0-.33s0-.26,0-.4,0-.3.05-.46,0-.33.05-.48l.1-.79a1.54,1.54,0,0,1,0-.19l0-.23,0-.23a1.77,1.77,0,0,0,0-.2h-.15l-.07.05-.11,0-.18,0h-.27l0,.2.36,0,0,.14,0,.17c0,.11,0,.22,0,.32s0,.2,0,.3a1.33,1.33,0,0,0-.28,0,1.39,1.39,0,0,0-.63.13,1.13,1.13,0,0,0-.46.34,1.43,1.43,0,0,0-.27.52,2.09,2.09,0,0,0-.1.67,1.45,1.45,0,0,0,0,.37.83.83,0,0,0,.13.3.53.53,0,0,0,.21.21.56.56,0,0,0,.3.07.66.66,0,0,0,.23,0,.67.67,0,0,0,.24-.16,1.57,1.57,0,0,0,.24-.33,2.51,2.51,0,0,0,.22-.56h0a2.73,2.73,0,0,0-.06.34c0,.11,0,.21,0,.3a1.11,1.11,0,0,0,0,.19.61.61,0,0,0,.07.14.27.27,0,0,0,.12.09.48.48,0,0,0,.18,0,.47.47,0,0,0,.26-.08.69.69,0,0,0,.19-.19.76.76,0,0,0,.13-.23,1.28,1.28,0,0,0,.07-.21l-.15,0A1.23,1.23,0,0,1,340.89,374.35Zm-.71-1.38a3,3,0,0,1-.21.86,2.12,2.12,0,0,1-.19.4,1.11,1.11,0,0,1-.23.28.37.37,0,0,1-.24.11.23.23,0,0,1-.16-.06.42.42,0,0,1-.11-.17.91.91,0,0,1-.06-.26,2.85,2.85,0,0,1,0-.31c0-.11,0-.21,0-.32s0-.21.07-.32a1.48,1.48,0,0,1,.12-.29,1.08,1.08,0,0,1,.18-.24.81.81,0,0,1,.24-.17.78.78,0,0,1,.31-.06h.18l.17,0C340.22,372.66,340.2,372.82,340.18,373Z" transform="translate(-262.57 -312.37)"/><path d="M343.52,371.6h-.19a1.28,1.28,0,0,1-.28.52.67.67,0,0,1-.49.18l0,.21H343l-.06.52c0,.17,0,.33,0,.49s0,.29,0,.41,0,.24,0,.34a.78.78,0,0,0,0,.22.56.56,0,0,0,.09.19.34.34,0,0,0,.16.13.58.58,0,0,0,.25.05.71.71,0,0,0,.21,0,.69.69,0,0,0,.19-.1,1.25,1.25,0,0,0,.17-.16,2.3,2.3,0,0,0,.15-.23l-.13-.08a1.89,1.89,0,0,1-.14.19.91.91,0,0,1-.13.1.31.31,0,0,1-.12.05h-.08a.22.22,0,0,1-.13,0,.19.19,0,0,1-.07-.11.32.32,0,0,1,0-.14.76.76,0,0,1,0-.15c0-.11,0-.23,0-.37s0-.27,0-.42,0-.29.05-.44,0-.3.05-.44h.8v-.18h-.79Z" transform="translate(-262.57 -312.37)"/><path d="M346.77,374.35a.48.48,0,0,1-.1.15.38.38,0,0,1-.09.09l-.09,0a.13.13,0,0,1-.08,0,.18.18,0,0,1-.05-.07.19.19,0,0,1,0-.08.38.38,0,0,1,0-.1c0-.08,0-.19,0-.33s0-.3.06-.48,0-.37.07-.58.05-.41.08-.61l-.34-.07-.33,0a1.41,1.41,0,0,0-.64.14,1.3,1.3,0,0,0-.46.38,1.66,1.66,0,0,0-.27.55,2.46,2.46,0,0,0-.09.67,1.54,1.54,0,0,0,0,.4.86.86,0,0,0,.14.27.53.53,0,0,0,.2.16.69.69,0,0,0,.25,0h.14a.44.44,0,0,0,.16-.06.88.88,0,0,0,.17-.12.85.85,0,0,0,.17-.2,1.39,1.39,0,0,0,.17-.3,2.57,2.57,0,0,0,.17-.43h0c0,.13-.05.25-.06.36a1.8,1.8,0,0,0,0,.31,1.11,1.11,0,0,0,0,.19.35.35,0,0,0,.06.14.27.27,0,0,0,.12.09.4.4,0,0,0,.17,0,.38.38,0,0,0,.26-.07.9.9,0,0,0,.2-.19,1.71,1.71,0,0,0,.13-.23,1.15,1.15,0,0,0,.06-.21l-.14,0A.93.93,0,0,1,346.77,374.35Zm-.68-1.39a3.88,3.88,0,0,1-.11.49,3,3,0,0,1-.16.45,2.36,2.36,0,0,1-.19.39,1.43,1.43,0,0,1-.22.26.37.37,0,0,1-.23.09.2.2,0,0,1-.15-.05.4.4,0,0,1-.1-.15.84.84,0,0,1-.06-.24,2.71,2.71,0,0,1,0-.29,2.36,2.36,0,0,1,.05-.54,2.08,2.08,0,0,1,.16-.48,1,1,0,0,1,.28-.33.59.59,0,0,1,.39-.13l.22,0,.17,0A2.56,2.56,0,0,1,346.09,373Z" transform="translate(-262.57 -312.37)"/><path d="M347.91,371.89l0-.2,0-.22c0-.07,0-.15,0-.23a1.18,1.18,0,0,1,0-.2h-.15l-.07,0a.23.23,0,0,1-.11,0l-.17,0h-.27l0,.2.36,0v0a.11.11,0,0,0,0,.05.13.13,0,0,0,0,.06s0,.06,0,.1,0,.23-.05.36,0,.28,0,.43,0,.31,0,.47l0,.49c0,.16,0,.31,0,.46s0,.28,0,.4,0,.23,0,.32,0,.15,0,.2a.35.35,0,0,1,0,.07h.41s0-.08,0-.13v-.13a2.8,2.8,0,0,1,0-.4,3.38,3.38,0,0,1,.09-.41H348a.21.21,0,0,1,.12,0,.39.39,0,0,1,.1.08,1,1,0,0,1,.08.15,2.2,2.2,0,0,1,.09.21,2.23,2.23,0,0,0,.13.3.77.77,0,0,0,.13.2.31.31,0,0,0,.14.12.34.34,0,0,0,.18,0,.46.46,0,0,0,.2-.05.4.4,0,0,0,.16-.13.54.54,0,0,0,.11-.18,1.59,1.59,0,0,0,.07-.2l-.14,0a1,1,0,0,1-.1.24.16.16,0,0,1-.13.07.16.16,0,0,1-.11,0l-.09-.12a1.31,1.31,0,0,1-.09-.17,1.08,1.08,0,0,1-.08-.19l-.09-.16a.48.48,0,0,0-.09-.11l-.11-.06-.15,0h0a1.59,1.59,0,0,0,.42-.14,1.09,1.09,0,0,0,.31-.23.65.65,0,0,0,.17-.27.66.66,0,0,0,.06-.27.65.65,0,0,0,0-.2.46.46,0,0,0-.09-.17.47.47,0,0,0-.15-.13.51.51,0,0,0-.22,0,.58.58,0,0,0-.26.05.66.66,0,0,0-.25.17,2,2,0,0,0-.24.34,3.26,3.26,0,0,0-.23.55h0c0-.25,0-.51.07-.76S347.88,372.12,347.91,371.89Zm.1,1.29a2.89,2.89,0,0,1,.19-.35,1,1,0,0,1,.2-.24.4.4,0,0,1,.22-.1.21.21,0,0,1,.12,0,.24.24,0,0,1,.06.08.19.19,0,0,1,0,.1.45.45,0,0,1,0,.11.72.72,0,0,1-.25.59,1.14,1.14,0,0,1-.72.2h0Z" transform="translate(-262.57 -312.37)"/><path d="M350,374.57a.7.7,0,0,0,.29.22.86.86,0,0,0,.41.08,1,1,0,0,0,.6-.18,1.67,1.67,0,0,0,.47-.58l-.16-.09-.18.27a1.2,1.2,0,0,1-.21.19,1,1,0,0,1-.21.1.6.6,0,0,1-.22,0,.48.48,0,0,1-.44-.24,1.43,1.43,0,0,1-.13-.7l.32-.05a1.87,1.87,0,0,0,.34-.08l.31-.11a1.61,1.61,0,0,0,.26-.15,1.12,1.12,0,0,0,.18-.2.59.59,0,0,0,0-.52.45.45,0,0,0-.15-.18.6.6,0,0,0-.23-.1,1.07,1.07,0,0,0-.25,0,1.12,1.12,0,0,0-.38.06,1.08,1.08,0,0,0-.3.16,1.13,1.13,0,0,0-.24.25,2,2,0,0,0-.17.32,1.89,1.89,0,0,0-.1.36,2.34,2.34,0,0,0,0,.38,2,2,0,0,0,.05.44A1.08,1.08,0,0,0,350,374.57Zm.28-1.46a1.22,1.22,0,0,1,.14-.35.61.61,0,0,1,.21-.24.48.48,0,0,1,.29-.09.38.38,0,0,1,.16,0,.31.31,0,0,1,.11.08.75.75,0,0,1,.07.12.77.77,0,0,1,0,.15.41.41,0,0,1-.09.26.68.68,0,0,1-.24.2,1.52,1.52,0,0,1-.34.15l-.39.08A2.44,2.44,0,0,1,350.27,373.11Z" transform="translate(-262.57 -312.37)"/><path d="M313.85,378.71a1,1,0,0,1,.09-.15l.1-.08a.15.15,0,0,1,.09,0h.07l0,0a.19.19,0,0,1,0,.08v.22s0,.06,0,.1,0,.09,0,.15,0,.14,0,.23,0,.2,0,.33,0,.32,0,.43,0,.21,0,.29,0,.14,0,.19v.22h.42a.57.57,0,0,0,0-.13v-.14a2.25,2.25,0,0,1,0-.44,2.63,2.63,0,0,1,.1-.47,3.12,3.12,0,0,1,.15-.43,2.55,2.55,0,0,1,.19-.37,1.38,1.38,0,0,1,.21-.25.37.37,0,0,1,.23-.09.25.25,0,0,1,.13,0,.27.27,0,0,1,.07.08.23.23,0,0,1,0,.11.38.38,0,0,1,0,.1c0,.07,0,.15,0,.25s0,.2,0,.32,0,.22,0,.34,0,.24,0,.35,0,.23,0,.33,0,.2,0,.28v.13h.42v-.13a.57.57,0,0,1,0-.14,3.59,3.59,0,0,1,0-.44,3.41,3.41,0,0,1,.1-.46,2.84,2.84,0,0,1,.15-.44,2.55,2.55,0,0,1,.18-.37,1.86,1.86,0,0,1,.22-.25.37.37,0,0,1,.23-.09.21.21,0,0,1,.12,0,.18.18,0,0,1,.07.08.3.3,0,0,1,0,.1.34.34,0,0,1,0,.1,3.19,3.19,0,0,1,0,.42l-.06.43c0,.14-.05.28-.06.41a2,2,0,0,0,0,.33.65.65,0,0,0,0,.2.34.34,0,0,0,.06.15.29.29,0,0,0,.12.1.56.56,0,0,0,.2,0,.45.45,0,0,0,.26-.08.7.7,0,0,0,.2-.18,1.34,1.34,0,0,0,.13-.23,1.15,1.15,0,0,0,.06-.21l-.14,0a1.13,1.13,0,0,1-.08.22,1,1,0,0,1-.1.15.24.24,0,0,1-.1.08l-.09,0-.07,0a.1.1,0,0,1,0-.05.19.19,0,0,1,0-.08v-.08c0-.08,0-.17,0-.28s0-.23.06-.36,0-.27.06-.42,0-.29,0-.42a1,1,0,0,0,0-.25.67.67,0,0,0-.09-.21.36.36,0,0,0-.16-.14.49.49,0,0,0-.25-.05.52.52,0,0,0-.21,0,.64.64,0,0,0-.23.16,2.14,2.14,0,0,0-.25.34,3.46,3.46,0,0,0-.24.56h0c0-.07,0-.12,0-.17a.5.5,0,0,0,0-.12.5.5,0,0,0,0-.12s0-.08,0-.12a.75.75,0,0,0,0-.2.76.76,0,0,0-.09-.18.47.47,0,0,0-.17-.14.46.46,0,0,0-.25-.06.54.54,0,0,0-.21.05.68.68,0,0,0-.23.17,1.42,1.42,0,0,0-.24.34,3.46,3.46,0,0,0-.24.56h0s0-.08,0-.13l0-.15c0-.06,0-.11,0-.17a.86.86,0,0,0,0-.16,1.11,1.11,0,0,0,0-.19.38.38,0,0,0-.06-.16.25.25,0,0,0-.11-.12.48.48,0,0,0-.18,0,.5.5,0,0,0-.27.08.69.69,0,0,0-.19.19.76.76,0,0,0-.13.23,1.15,1.15,0,0,0-.06.21l.13,0A1.85,1.85,0,0,1,313.85,378.71Z" transform="translate(-262.57 -312.37)"/><path d="M319,378.77c0-.06-.05-.12-.08-.19a1.74,1.74,0,0,0-.11-.18.7.7,0,0,0-.16-.14.48.48,0,0,0-.22-.05.38.38,0,0,0-.22.06.46.46,0,0,0-.14.17.9.9,0,0,0-.08.23,2.28,2.28,0,0,0,0,.26.61.61,0,0,0,0,.14h.16a.86.86,0,0,1,0-.42c0-.07.08-.11.14-.11a.11.11,0,0,1,.08,0,.17.17,0,0,1,.06.06.35.35,0,0,1,.05.08.36.36,0,0,1,0,.09,5.81,5.81,0,0,1,.2.55c.06.19.12.39.17.59s.09.41.13.61.08.41.11.6l-.07.11-.11.16-.13.16-.14.15a.65.65,0,0,1-.15.1.3.3,0,0,1-.15.05.22.22,0,0,1-.13,0h0a.3.3,0,0,0-.05-.18.22.22,0,0,0-.16-.07l-.07,0-.07,0a.22.22,0,0,0-.05.08.24.24,0,0,0,0,.09.3.3,0,0,0,.1.22.5.5,0,0,0,.28.1.74.74,0,0,0,.32-.07,1.22,1.22,0,0,0,.32-.22,2.26,2.26,0,0,0,.34-.39,5.61,5.61,0,0,0,.37-.59c.08-.15.17-.31.25-.48a4.4,4.4,0,0,0,.21-.5,4.91,4.91,0,0,0,.15-.51,2.22,2.22,0,0,0,.06-.51,1.79,1.79,0,0,0,0-.23,1,1,0,0,0-.07-.21.41.41,0,0,0-.12-.14.31.31,0,0,0-.19-.06l-.09,0a.1.1,0,0,0-.07,0,.18.18,0,0,0-.05.07s0,.05,0,.09a.19.19,0,0,0,.2.2.21.21,0,0,0,.12,0,.44.44,0,0,1,.05.13.78.78,0,0,1,0,.22,2.18,2.18,0,0,1-.05.43,3.81,3.81,0,0,1-.13.45,3.38,3.38,0,0,1-.18.44c-.07.15-.14.28-.21.4h0q0-.15,0-.27a2,2,0,0,0-.05-.24c0-.11,0-.23-.08-.35a3.21,3.21,0,0,0-.08-.36,3.57,3.57,0,0,0-.1-.35A2.58,2.58,0,0,0,319,378.77Z" transform="translate(-262.57 -312.37)"/><path d="M326,380.32a.76.76,0,0,1-.1.15.41.41,0,0,1-.1.09.16.16,0,0,1-.09,0,.08.08,0,0,1-.07,0,.1.1,0,0,1,0-.05.14.14,0,0,1,0-.07s0-.06,0-.09a1.57,1.57,0,0,1,0-.27l.06-.37.06-.42c0-.14,0-.28,0-.42a1,1,0,0,0,0-.25.67.67,0,0,0-.09-.21.44.44,0,0,0-.16-.14.62.62,0,0,0-.25,0,.52.52,0,0,0-.21,0,.71.71,0,0,0-.24.17,1.57,1.57,0,0,0-.24.33,5.3,5.3,0,0,0-.25.56h0c0-.06,0-.12,0-.16l0-.13s0-.08,0-.11v-.13a1.37,1.37,0,0,0,0-.19.66.66,0,0,0-.09-.19.61.61,0,0,0-.17-.14.62.62,0,0,0-.25,0,.52.52,0,0,0-.21,0,.68.68,0,0,0-.23.17,1.66,1.66,0,0,0-.24.34,3.9,3.9,0,0,0-.24.56h0a.69.69,0,0,1,0-.13l0-.15a.88.88,0,0,1,0-.16c0-.06,0-.11,0-.17a1.23,1.23,0,0,0,0-.19.38.38,0,0,0-.06-.16.29.29,0,0,0-.11-.11.48.48,0,0,0-.19-.05.47.47,0,0,0-.26.08.86.86,0,0,0-.19.19.76.76,0,0,0-.13.23,1.28,1.28,0,0,0-.07.21l.14,0a.91.91,0,0,1,.09-.22.49.49,0,0,1,.09-.15.41.41,0,0,1,.1-.09l.09,0,.07,0,0,.05a.64.64,0,0,1,0,.07v.22a.31.31,0,0,0,0,.1.61.61,0,0,0,0,.15c0,.06,0,.14,0,.23s0,.2,0,.33,0,.32-.05.43,0,.22,0,.29a1.42,1.42,0,0,0,0,.19.76.76,0,0,0,0,.15.56.56,0,0,1,0,.07h.42s0-.08,0-.13v-.13a2.42,2.42,0,0,1,0-.45,2.36,2.36,0,0,1,.1-.46,2.84,2.84,0,0,1,.15-.44,1.52,1.52,0,0,1,.19-.36.9.9,0,0,1,.21-.25.34.34,0,0,1,.23-.1.28.28,0,0,1,.13,0,.31.31,0,0,1,.07.09l0,.1s0,.07,0,.1,0,.16,0,.26,0,.2,0,.31,0,.23,0,.34,0,.24-.05.35l0,.33c0,.11,0,.2,0,.28v.13h.42s0-.08,0-.12v-.14a2.42,2.42,0,0,1,0-.45,2.52,2.52,0,0,1,.1-.46c0-.15.09-.3.14-.44a2.42,2.42,0,0,1,.19-.36.92.92,0,0,1,.22-.25.32.32,0,0,1,.23-.1.16.16,0,0,1,.12,0,.23.23,0,0,1,.07.07.42.42,0,0,1,0,.1s0,.07,0,.1a3.19,3.19,0,0,1,0,.42l-.06.43c0,.15,0,.28-.07.41s0,.24,0,.33a1,1,0,0,0,0,.2.77.77,0,0,0,.07.16.27.27,0,0,0,.12.09.54.54,0,0,0,.19,0,.45.45,0,0,0,.27-.07,1.21,1.21,0,0,0,.2-.19,1,1,0,0,0,.12-.23.74.74,0,0,0,.07-.21l-.14,0A.93.93,0,0,1,326,380.32Z" transform="translate(-262.57 -312.37)"/><path d="M328.34,378.51a1,1,0,0,0-.3-.21,1,1,0,0,0-.38-.08,1.14,1.14,0,0,0-.52.12,1.18,1.18,0,0,0-.38.32,1.57,1.57,0,0,0-.25.48,2.12,2.12,0,0,0-.09.57,1.56,1.56,0,0,0,.06.44,1,1,0,0,0,.18.36.8.8,0,0,0,.3.24.93.93,0,0,0,.42.09,1.08,1.08,0,0,0,.52-.13,1.23,1.23,0,0,0,.39-.33,1.8,1.8,0,0,0,.24-.48,2.2,2.2,0,0,0,.08-.58,1.41,1.41,0,0,0-.07-.47A1.13,1.13,0,0,0,328.34,378.51Zm-.19,1.22a1.1,1.1,0,0,1-.06.26,1.06,1.06,0,0,1-.09.25,1.1,1.1,0,0,1-.14.21.62.62,0,0,1-.19.14.36.36,0,0,1-.23.05.42.42,0,0,1-.2,0,.44.44,0,0,1-.15-.12,1.74,1.74,0,0,1-.11-.18,1.87,1.87,0,0,1-.07-.22,1,1,0,0,1,0-.24,1,1,0,0,1,0-.24,2.25,2.25,0,0,1,0-.46,1.31,1.31,0,0,1,.14-.38.82.82,0,0,1,.22-.26.54.54,0,0,1,.31-.09.46.46,0,0,1,.21,0,.44.44,0,0,1,.15.12.62.62,0,0,1,.11.17.86.86,0,0,1,.07.21,1.85,1.85,0,0,1,0,.23,1.93,1.93,0,0,1,0,.24A2.69,2.69,0,0,1,328.15,379.73Z" transform="translate(-262.57 -312.37)"/><path d="M331.63,380.33a.49.49,0,0,1-.09.15l-.1.09-.09,0a.08.08,0,0,1-.07,0,.1.1,0,0,1,0-.05.14.14,0,0,1,0-.07v-.09a1.58,1.58,0,0,1,0-.28c0-.11,0-.23.05-.36s0-.27,0-.42a3,3,0,0,0,0-.42,1,1,0,0,0,0-.25.67.67,0,0,0-.09-.21.58.58,0,0,0-.17-.14.67.67,0,0,0-.26,0,.52.52,0,0,0-.24,0,.63.63,0,0,0-.24.18,1.36,1.36,0,0,0-.25.34,3.11,3.11,0,0,0-.25.57h0l0-.14s0-.1,0-.15a.88.88,0,0,0,0-.16,1,1,0,0,0,0-.17,1.23,1.23,0,0,0,0-.2.84.84,0,0,0-.05-.17.43.43,0,0,0-.12-.11.34.34,0,0,0-.18,0,.44.44,0,0,0-.26.07.73.73,0,0,0-.2.19,1,1,0,0,0-.13.23,1.15,1.15,0,0,0-.06.21l.14,0a.93.93,0,0,1,.08-.22.56.56,0,0,1,.1-.15.38.38,0,0,1,.09-.09l.09,0,.07,0a.1.1,0,0,1,0,.05.14.14,0,0,1,0,.07.25.25,0,0,1,0,.08v.14a.38.38,0,0,1,0,.1,1,1,0,0,1,0,.15c0,.06,0,.14,0,.23s0,.2,0,.33,0,.32-.05.44,0,.21,0,.28,0,.14,0,.19v.22h.42v-.12a.66.66,0,0,1,0-.14,2.48,2.48,0,0,1,0-.45,2.37,2.37,0,0,1,.11-.46,3.34,3.34,0,0,1,.17-.44,2,2,0,0,1,.2-.36.94.94,0,0,1,.23-.25.36.36,0,0,1,.23-.1.21.21,0,0,1,.12,0s.06.05.07.08a.42.42,0,0,1,0,.1s0,.07,0,.1a3.19,3.19,0,0,1,0,.42c0,.15,0,.29-.05.43l-.05.41a2,2,0,0,0,0,.33,1.12,1.12,0,0,0,0,.2.34.34,0,0,0,.06.15.31.31,0,0,0,.13.1.56.56,0,0,0,.2,0,.4.4,0,0,0,.26-.08.81.81,0,0,0,.19-.18.89.89,0,0,0,.13-.23l.07-.21-.15,0A.93.93,0,0,1,331.63,380.33Z" transform="translate(-262.57 -312.37)"/><path d="M333.76,380.26a1.2,1.2,0,0,1-.21.19,1.06,1.06,0,0,1-.21.11l-.22,0a.49.49,0,0,1-.44-.23,1.47,1.47,0,0,1-.13-.71l.32,0,.34-.08a2.85,2.85,0,0,0,.31-.12,1.1,1.1,0,0,0,.26-.15,1.12,1.12,0,0,0,.18-.2.51.51,0,0,0,.06-.25.54.54,0,0,0-.21-.45.8.8,0,0,0-.23-.1,1.07,1.07,0,0,0-.25,0,1.12,1.12,0,0,0-.38.06,1.11,1.11,0,0,0-.3.17,1,1,0,0,0-.24.25,1.54,1.54,0,0,0-.17.31,1.89,1.89,0,0,0-.1.36,2.34,2.34,0,0,0,0,.38,2,2,0,0,0,.05.44,1,1,0,0,0,.17.35.93.93,0,0,0,.29.22,1.14,1.14,0,0,0,1-.11,1.59,1.59,0,0,0,.47-.58l-.16-.09A1.58,1.58,0,0,1,333.76,380.26Zm-1.15-1.18a1.51,1.51,0,0,1,.14-.34.72.72,0,0,1,.21-.25.48.48,0,0,1,.29-.09.38.38,0,0,1,.16,0,.31.31,0,0,1,.11.08.75.75,0,0,1,.07.12.77.77,0,0,1,0,.15.39.39,0,0,1-.09.26.83.83,0,0,1-.24.21,2.18,2.18,0,0,1-.34.14,2.7,2.7,0,0,1-.39.08A2.63,2.63,0,0,1,332.61,379.08Z" transform="translate(-262.57 -312.37)"/><path d="M336.54,378.44a.44.44,0,0,0-.12-.15.36.36,0,0,0-.19-.05h-.09l-.07,0-.05.07a.22.22,0,0,0,0,.23.2.2,0,0,0,.15.06.21.21,0,0,0,.12,0,.38.38,0,0,1,.05.14.72.72,0,0,1,0,.22,1.67,1.67,0,0,1-.05.43,2.54,2.54,0,0,1-.13.45,4.07,4.07,0,0,1-.18.44c-.07.14-.14.28-.21.4h0c0-.11,0-.2,0-.28s0-.15,0-.23l-.09-.36c0-.12,0-.24-.08-.36s-.06-.23-.1-.35a3,3,0,0,0-.1-.32c0-.06-.05-.12-.08-.19a.78.78,0,0,0-.11-.18.43.43,0,0,0-.16-.14.38.38,0,0,0-.22-.06.38.38,0,0,0-.22.07.39.39,0,0,0-.14.17.78.78,0,0,0-.08.23,2.11,2.11,0,0,0,0,.25.76.76,0,0,0,0,.15l.16,0a.57.57,0,0,1,0-.13.7.7,0,0,1,.05-.28c0-.08.09-.11.14-.11l.08,0,.06.07a.22.22,0,0,1,.05.08.36.36,0,0,1,0,.09c.07.17.14.35.2.54s.12.39.17.6.09.4.13.61.08.4.11.6a.72.72,0,0,0-.07.11l-.11.15-.13.17-.14.14a.72.72,0,0,1-.15.11.28.28,0,0,1-.15,0l-.13,0v0a.3.3,0,0,0,0-.18.21.21,0,0,0-.16-.06l-.07,0-.07,0-.05.07a.3.3,0,0,0,0,.1.28.28,0,0,0,.11.22.44.44,0,0,0,.27.1.88.88,0,0,0,.32-.07,1.08,1.08,0,0,0,.32-.22,2.86,2.86,0,0,0,.35-.4c.11-.16.23-.35.36-.58s.17-.32.25-.48a5.32,5.32,0,0,0,.21-.5,4.44,4.44,0,0,0,.15-.52,2.2,2.2,0,0,0,.06-.5,1.64,1.64,0,0,0,0-.23A.65.65,0,0,0,336.54,378.44Z" transform="translate(-262.57 -312.37)"/><path d="M337.51,380.23l-.12,0-.1.07a.39.39,0,0,0-.06.11.35.35,0,0,0,0,.14.5.5,0,0,0,0,.12l.06.09a.18.18,0,0,0,.09.06.17.17,0,0,0,.1,0l.12,0a.2.2,0,0,0,.09-.07.23.23,0,0,0,.07-.1.56.56,0,0,0,0-.12.33.33,0,0,0-.08-.24A.25.25,0,0,0,337.51,380.23Z" transform="translate(-262.57 -312.37)"/><path d="M337.88,377.3a.24.24,0,0,0-.08-.06l-.12,0a.25.25,0,0,0-.13,0,.39.39,0,0,0-.1.08.61.61,0,0,0-.05.12.25.25,0,0,0,0,.12l.07,2.09h.18l.3-2.1s0,0,0,0a.43.43,0,0,0,0-.11A.3.3,0,0,0,337.88,377.3Z" transform="translate(-262.57 -312.37)"/><path d="M273.87,384.22l.08,0,.08-.05.41-.26-.13-.2-.41.27-.07.05-.06.07a.29.29,0,0,0,0-.09v-.09l0-.48h-.24l0,.49a.29.29,0,0,0,0,.09.32.32,0,0,0,0,.09l-.07-.07-.08,0-.44-.22-.1.21.43.22a.43.43,0,0,0,.18.06.11.11,0,0,0-.08,0l-.09,0-.41.27.13.2.41-.27.07-.06a.17.17,0,0,0,.06-.06.24.24,0,0,0,0,.08v.1l0,.48h.24l0-.49a.48.48,0,0,0-.05-.18l.07.06.08.05.44.23.11-.22-.44-.22A.41.41,0,0,0,273.87,384.22Z" transform="translate(-262.57 -312.37)"/><path d="M276.47,384.52l-.71,0v-.21a.76.76,0,0,1,0-.27.39.39,0,0,1,.09-.17.31.31,0,0,1,.15-.1.45.45,0,0,1,.2,0h.16l.05,0a.07.07,0,0,0,0-.05v-.24a1.12,1.12,0,0,0-.32,0,1.06,1.06,0,0,0-.37.09.7.7,0,0,0-.26.19.9.9,0,0,0-.17.3,1.61,1.61,0,0,0,0,.39l0,.23-.4,0v.21a.14.14,0,0,0,.05.08.12.12,0,0,0,.09,0l.27,0,.12,2.14.49,0-.12-2.14.69,0Z" transform="translate(-262.57 -312.37)"/><path d="M278.79,384.66a1,1,0,0,0-.4-.24,1.43,1.43,0,0,0-.51-.06,1.27,1.27,0,0,0-.5.12,1.1,1.1,0,0,0-.38.29,1.4,1.4,0,0,0-.22.42,1.64,1.64,0,0,0,0,.55,1.42,1.42,0,0,0,.12.53,1,1,0,0,0,.27.4,1,1,0,0,0,.4.24,1.38,1.38,0,0,0,.51.06,1.31,1.31,0,0,0,.5-.12,1,1,0,0,0,.37-.28,1.17,1.17,0,0,0,.22-.43,1.61,1.61,0,0,0,.05-.55,1.72,1.72,0,0,0-.11-.53A1.28,1.28,0,0,0,278.79,384.66Zm-.26,1.66a.6.6,0,0,1-.52.27.61.61,0,0,1-.56-.21,1.13,1.13,0,0,1-.22-.67,1.18,1.18,0,0,1,.14-.69.65.65,0,0,1,.53-.28.65.65,0,0,1,.55.21,1.17,1.17,0,0,1,.22.68A1.11,1.11,0,0,1,278.53,386.32Z" transform="translate(-262.57 -312.37)"/><path d="M280.81,384.18a.64.64,0,0,0-.41.17,1.13,1.13,0,0,0-.27.41l-.05-.36a.23.23,0,0,0-.05-.1l-.11,0-.28,0,.15,2.53.48,0-.09-1.59c0-.09.06-.16.09-.23a.66.66,0,0,1,.12-.17.58.58,0,0,1,.15-.11.65.65,0,0,1,.21,0H281c.05,0,.07,0,.08-.07v-.37l-.13-.05Z" transform="translate(-262.57 -312.37)"/><path d="M284.25,384l.1,1.86a1,1,0,0,1-.29.26.76.76,0,0,1-.34.11.49.49,0,0,1-.39-.13.66.66,0,0,1-.15-.42l-.09-1.61-.49,0,.09,1.61a1.59,1.59,0,0,0,.08.39.71.71,0,0,0,.18.29.68.68,0,0,0,.28.18,1,1,0,0,0,.61,0,1.45,1.45,0,0,0,.22-.09l.18-.14a1.29,1.29,0,0,0,.16-.17l.05.25c0,.07.07.1.14.09h.29l-.15-2.54Z" transform="translate(-262.57 -312.37)"/><path d="M288.49,384.31a.84.84,0,0,0-.2-.29.71.71,0,0,0-.29-.18.81.81,0,0,0-.39,0,1.34,1.34,0,0,0-.54.13,1.24,1.24,0,0,0-.44.33l.1.15a.17.17,0,0,0,.06.06s0,0,.09,0a.28.28,0,0,0,.12,0l.13-.1a.77.77,0,0,1,.18-.1.9.9,0,0,1,.27-.06.44.44,0,0,1,.36.13.62.62,0,0,1,.15.42v.18a4.87,4.87,0,0,0-.72.12,1.73,1.73,0,0,0-.47.21.7.7,0,0,0-.25.27.49.49,0,0,0-.06.29.65.65,0,0,0,.07.29.69.69,0,0,0,.16.21.66.66,0,0,0,.24.11.86.86,0,0,0,.28,0,1,1,0,0,0,.26,0l.22-.08.19-.13.18-.17.07.22a.18.18,0,0,0,.06.08.2.2,0,0,0,.11,0h.22l-.09-1.62A1.59,1.59,0,0,0,288.49,384.31Zm-.48,1.55a.72.72,0,0,1-.15.11.65.65,0,0,1-.17.08.71.71,0,0,1-.21,0,.42.42,0,0,1-.16,0l-.13-.05a.31.31,0,0,1-.09-.11.42.42,0,0,1,0-.16.32.32,0,0,1,.05-.19.47.47,0,0,1,.18-.15,1.4,1.4,0,0,1,.33-.11,2.75,2.75,0,0,1,.5-.08l0,.5Z" transform="translate(-262.57 -312.37)"/><path d="M291.28,384.15a.79.79,0,0,0-.18-.29.75.75,0,0,0-.28-.18.85.85,0,0,0-.37-.05,1,1,0,0,0-.25,0l-.21.09-.18.14a1.29,1.29,0,0,0-.16.17l-.06-.25a.11.11,0,0,0-.13-.09h-.29l.14,2.54.49,0-.11-1.86a1.39,1.39,0,0,1,.29-.26.85.85,0,0,1,.35-.11.49.49,0,0,1,.39.13.66.66,0,0,1,.15.42l.09,1.61.49,0-.09-1.61A1.59,1.59,0,0,0,291.28,384.15Z" transform="translate(-262.57 -312.37)"/><path d="M293.53,382.34l.08,1.39a.83.83,0,0,0-.3-.2,1,1,0,0,0-.4,0,1,1,0,0,0-.45.13.89.89,0,0,0-.32.29,1.27,1.27,0,0,0-.2.44,1.77,1.77,0,0,0,0,.52,1.87,1.87,0,0,0,.1.56,1,1,0,0,0,.21.39.79.79,0,0,0,.32.23.87.87,0,0,0,.4.06.93.93,0,0,0,.47-.14,1.55,1.55,0,0,0,.35-.33l.05.29a.13.13,0,0,0,.14.09l.29,0-.21-3.68Zm-.1,3.25a.7.7,0,0,1-.36.11.59.59,0,0,1-.27,0,.55.55,0,0,1-.2-.15.86.86,0,0,1-.14-.27,2.23,2.23,0,0,1-.06-.41,1.18,1.18,0,0,1,.14-.72.6.6,0,0,1,.51-.27.63.63,0,0,1,.31,0,.61.61,0,0,1,.27.2l.07,1.2A1.08,1.08,0,0,1,293.43,385.59Z" transform="translate(-262.57 -312.37)"/><rect x="296.17" y="382.27" width="0.54" height="3.59" transform="translate(-284.33 -294.54) rotate(-3.32)"/></svg>