<svg id="Layer_2" data-name="Layer 2" xmlns="http://www.w3.org/2000/svg" viewBox="0 0 99.51158 86.53516"><title>chapter-catalogue</title><path d="M359.291,312.84875a.5007.5007,0,0,0-.5-.48242h-.00782l-30.41211.45068v.00061a50.79869,50.79869,0,0,0-10.11523.25134c-4.30566.59961-7.37695,3.87842-8.36816,5.07325-1.40723-1.2002-6.20508-4.96973-11.21387-5.19434a26.47971,26.47971,0,0,0-8.15955,1.10785l-26.31946-.46723a.5002.5002,0,0,0-.50878.49317l-1.11622,84.313a.50042.50042,0,0,0,.5.50683.47565.47565,0,0,0,.08692-.00781c17.0625-3.00488,37.92139-4.832,39.41553-4.11426a6.45877,6.45877,0,0,1,.752.5542c1.03613.85254,1.66308,1.13819,7.06836.916,5.16015-.21045,6.21875-1.30908,7.15137-2.27832a3.6199,3.6199,0,0,1,1.00683-.8169c1.92481-.97021,34.08887-1.2334,43.01465-.95117a.44491.44491,0,0,0,.37012-.14648.50068.50068,0,0,0,.1455-.37061ZM302.244,393.735c-4.5069-.47492-24.127,1.54785-38.66638,4.07031l1.10156-83.208,22.64276.4021c-.11951.0373-.24261.07508-.361.11206-1.4209.44385-2.76319.8628-4.05518,1.17627-4.48144,1.08545-14.26806.54932-14.36572.54492a.48846.48846,0,0,0-.37158.13575.49862.49862,0,0,0-.15674.36328v.23242l-1.48926.10645a.49972.49972,0,0,0-.46435.49853V394.6339a.49971.49971,0,0,0,.5.5,75.5871,75.5871,0,0,0,20.10009-2.32666,41.89886,41.89886,0,0,1,9.21631-1.44091,50.99866,50.99866,0,0,1,6.4234.21069A18.31353,18.31353,0,0,0,302.244,393.735Zm4.45325,1.57654c-1.89057-.054-2.2168-.32117-2.73633-.74939-.17719-.14563-.40637-.32453-.69049-.51514a13.73484,13.73484,0,0,1,.023-2.36255c1.34436.16376,2.476.36743,3.40381.57141Zm-10.85108-4.94519a42.69217,42.69217,0,0,0-9.41846,1.46826,74.2741,74.2741,0,0,1-19.36962,2.29834V318.63439l.95361-.06817v73.90313a.50017.50017,0,0,0,.43408.49561,25.47907,25.47907,0,0,0,3.36524.21728,52.47653,52.47653,0,0,0,12.5498-2.01806,52.8655,52.8655,0,0,1,12.61572-2.03028c5.33094,0,8.63288,1.20356,10.5083,2.26465A44.55693,44.55693,0,0,0,295.84619,390.36633Zm13.04932,4.93328q-.66294.01758-1.19824.02063v-2.82867c.48638.12537.884.24255,1.19824.34283Zm.55762-3.79388c-1.53455-1.24438-5.21753-3.37183-12.47657-3.37183a53.60571,53.60571,0,0,0-12.85449,2.05957c-5.08105,1.24854-9.88965,2.4292-15.11035,1.834V317.85754c2.13672.09961,10.06543.3872,14.12939-.59815,1.32373-.3208,2.68116-.74463,4.11817-1.19336,3.61865-1.13037,7.35449-2.30273,11.36963-2.11914,4.96771.22272,9.9187,4.35272,10.82422,5.1449Zm1-72.46851c.54772-.69677,3.625-4.37677,7.9414-4.978,6.38867-.88819,13.31348-.03076,20.00879.79931a116.2866,116.2866,0,0,0,13.75879,1.16065l1.51269,72.25342c-3.458-.02442-7.14843-.42139-11.04492-.84034-6.43847-.69287-13.09863-1.40869-19.626-.5498a27.45124,27.45124,0,0,0-12.55078,4.76605Zm3.61767,75.77326a19.47,19.47,0,0,1-3.71924.44012c-.16125.00653-.30383.01117-.45605.01679V393.1748l.00976.003c.00641.00043.012-.00238.01831-.00214a.49075.49075,0,0,0,.1341-.0158.52194.52194,0,0,0,.06244-.0113l.0166-.003c1.31811-.51928,2.61542-.975,3.91589-1.3858C314.076,393.03961,314.0863,394.29839,314.0708,394.81048Zm2.75342-1.53253a4.44831,4.44831,0,0,1-1.73816,1.21985c.01215-.59742-.00629-1.54541-.03857-3.04566.80261-.23712,1.61193-.45264,2.428-.65387l.29633,1.65582A5.21794,5.21794,0,0,0,316.82422,393.27795Zm-3.07977-2.47107a28.12479,28.12479,0,0,1,9.39032-2.93323c6.4082-.84228,13.00878-.13281,19.38867.55273a110.07145,110.07145,0,0,0,11.48926.84766.69953.69953,0,0,0,.53027-.15137.499.499,0,0,0,.14258-.35937l-1.53333-73.21454.548.027,2.20312,74.19971c-2.07812-.12891-9.72168-.60547-16.75293-1.08252l-2.92187-.20313c-5.77051-.41015-7.71289-.54639-12.249.0669A59.91626,59.91626,0,0,0,313.74445,390.80688Zm4.97741,1.2796-.2724-1.52246c1.81024-.41235,3.6767-.74744,5.6648-1.01605,4.43359-.59912,6.19629-.47461,12.04394-.06055l2.92383.20361c8.23438.55811,17.30664,1.11621,17.30664,1.11621a.52678.52678,0,0,0,.37793-.14013.49846.49846,0,0,0,.15235-.37354l-2.23243-75.209a.50081.50081,0,0,0-.47558-.48487l-16.23426-.80133q-.44823-.05547-.89819-.11016l21.2301-.31458,2.75391,77.81494C353.31219,390.99145,323.7782,391.0722,318.72186,392.08648Z" transform="translate(-262.56978 -312.36633)"/><path d="M323.75586,324.98888a.27708.27708,0,0,0-.05957-.23242.291.291,0,0,0-.22656-.08886l-1.68262-.00928a2.31025,2.31025,0,0,0-.3877.0332,4.13965,4.13965,0,0,0-.41406.09278l1.69141-1.6377c.20508-.19727.40039-.38965.585-.57959a4.60505,4.60505,0,0,0,.48437-.58691,2.879,2.879,0,0,0,.332-.64161,2.21465,2.21465,0,0,0,.125-.75244,1.74131,1.74131,0,0,0-.11231-.6582,1.4018,1.4018,0,0,0-.32812-.499,1.49759,1.49759,0,0,0-.51368-.32032,1.89477,1.89477,0,0,0-.666-.11572,2.331,2.331,0,0,0-.74707.11475,2.07433,2.07433,0,0,0-.64746.34765,2.285,2.285,0,0,0-.51172.5752,2.76877,2.76877,0,0,0-.33985.79883l.48047.08838a.4358.4358,0,0,0,.29981-.02539.5266.5266,0,0,0,.19726-.23731,1.4222,1.4222,0,0,1,.17285-.34814,1.25556,1.25556,0,0,1,.251-.27295,1.133,1.133,0,0,1,.31641-.17774,1.03809,1.03809,0,0,1,.37207-.06347.81453.81453,0,0,1,.59179.22168.86405.86405,0,0,1,.22168.65136,1.90028,1.90028,0,0,1-.085.5625,2.16778,2.16778,0,0,1-.24121.51123,3.70348,3.70348,0,0,1-.3916.5083q-.23437.25782-.53613.54834l-2.10352,2.02246a.60715.60715,0,0,0-.15332.19239.63894.63894,0,0,0-.06152.20263l-.042.31446,4.05859.023Z" transform="translate(-262.56978 -312.36633)"/><path d="M327.39551,326.6881a.44831.44831,0,0,0,.32031-.10449.69141.69141,0,0,0,.17676-.29785l.22558-.88086.46289-3.66064,1.04786.00586.09375-.69239-1.084-.00586.04688-.35547a1.68369,1.68369,0,0,1,.11425-.46289.927.927,0,0,1,.20508-.30468.75074.75074,0,0,1,.27735-.16993,1.04973,1.04973,0,0,1,.34375-.05175c.04492.00048.08886.00048.13086.001a.65.65,0,0,0,.11523-.00879.18744.18744,0,0,0,.084-.0332.11621.11621,0,0,0,.04-.07422l.09278-.50342a1.50909,1.50909,0,0,0-.52149-.09277,1.83666,1.83666,0,0,0-.65527.11133,1.61015,1.61015,0,0,0-.53906.32764,1.77186,1.77186,0,0,0-.39063.52392,2.21423,2.21423,0,0,0-.20605.70117l-.05176.38672-.62988-.00342-.05176.39063a.19788.19788,0,0,0,.041.16943.31267.31267,0,0,0,.15137.07959l.40039.06494-.627,4.938Z" transform="translate(-262.56978 -312.36633)"/><path d="M329.707,323.735a2.374,2.374,0,0,0,.126.81348,1.72408,1.72408,0,0,0,.35937.605,1.52916,1.52916,0,0,0,.54883.37646,1.84763,1.84763,0,0,0,.69629.13184,2.01618,2.01618,0,0,0,.63574-.09717,2.215,2.215,0,0,0,.57031-.28076,2.49557,2.49557,0,0,0,.48438-.43555,2.69359,2.69359,0,0,0,.374-.56738,3.15708,3.15708,0,0,0,.24219-.67139,3.23182,3.23182,0,0,0,.08887-.74658,2.34822,2.34822,0,0,0-.125-.813,1.74346,1.74346,0,0,0-.35645-.605,1.50741,1.50741,0,0,0-.54687-.37647,1.85655,1.85655,0,0,0-.69727-.13232,2.03312,2.03312,0,0,0-.92969.21289,2.40412,2.40412,0,0,0-.76171.59424,2.8726,2.8726,0,0,0-.51563.89014A3.20545,3.20545,0,0,0,329.707,323.735Zm1.06641-.78565a2.35482,2.35482,0,0,1,.26855-.65087,1.44158,1.44158,0,0,1,.41992-.44336.95272.95272,0,0,1,.55176-.16309.7613.7613,0,0,1,.64356.28906,1.44062,1.44062,0,0,1,.21386.88086,3.11037,3.11037,0,0,1-.09863.77588,2.384,2.384,0,0,1-.27148.65332,1.44883,1.44883,0,0,1-.42383.44971.94672.94672,0,0,1-.54981.16553q-.85986-.00439-.85254-1.17481A3.19611,3.19611,0,0,1,330.77344,322.94933Z" transform="translate(-262.56978 -312.36633)"/><path d="M335.57422,323.57043a2.7841,2.7841,0,0,1,.69922-1.416.903.903,0,0,1,1.002-.14062l.18164-.92578a.92628.92628,0,0,0-.47558-.07959,1.03672,1.03672,0,0,0-.46.17334,1.86533,1.86533,0,0,0-.42871.40673,3.45848,3.45848,0,0,0-.38476.62305l.05469-.86767a.32364.32364,0,0,0-.08106-.24561.33753.33753,0,0,0-.24121-.08057l-.48535-.00244L334.375,325.611l.94434.00537Z" transform="translate(-262.56978 -312.36633)"/><path d="M343.40234,324.95519l-1.10644-.00586.74316-5.77832-.76562-.00439-2.02051,1.6626.24121.40625a.17315.17315,0,0,0,.06055.06543.24126.24126,0,0,0,.09961.041.32271.32271,0,0,0,.126-.00146.35271.35271,0,0,0,.14063-.06641l1.04-.88135c-.0127.07227-.02442.14258-.03418.21192-.01172.06885-.02149.13769-.03125.207l-.53613,4.13232-1.22852-.00683-.09473.706,3.27149.01807Z" transform="translate(-262.56978 -312.36633)"/><path d="M320.14648,336.1715a2.45559,2.45559,0,0,0,.501.17383,2.48432,2.48432,0,0,0,.55078.06348,2.44774,2.44774,0,0,0,.9668-.17676,2.16264,2.16264,0,0,0,.73144-.49121,2.18791,2.18791,0,0,0,.46582-.728,2.46574,2.46574,0,0,0,.167-.88574,1.42408,1.42408,0,0,0-.10352-.57666,1.27359,1.27359,0,0,0-.27832-.40869,1.6908,1.6908,0,0,0-.39453-.28565,4.3425,4.3425,0,0,0-.4541-.20752c-.1543-.06054-.30664-.12011-.45313-.17822a2.38441,2.38441,0,0,1-.39355-.19531.96973.96973,0,0,1-.28027-.25635.60469.60469,0,0,1-.1045-.36719,1.11024,1.11024,0,0,1,.0752-.40234.87958.87958,0,0,1,.21484-.32276,1.03852,1.03852,0,0,1,.35059-.2163,1.28308,1.28308,0,0,1,.47265-.07813,1.22083,1.22083,0,0,1,.4502.07666,1.67158,1.67158,0,0,1,.31348.166c.08593.06054.16015.11572.22168.16552a.281.281,0,0,0,.17285.0752.22084.22084,0,0,0,.13086-.0376.50957.50957,0,0,0,.1123-.11426l.30078-.42968a1.99,1.99,0,0,0-.29883-.29932,1.831,1.831,0,0,0-.374-.2334,2.074,2.074,0,0,0-.43945-.15088,2.41071,2.41071,0,0,0-1.39649.11377,2.10134,2.10134,0,0,0-.68457.457,1.99976,1.99976,0,0,0-.43359.66162,2.12079,2.12079,0,0,0-.15234.78418,1.57237,1.57237,0,0,0,.10156.60987,1.28729,1.28729,0,0,0,.27734.42041,1.573,1.573,0,0,0,.3916.28125,4.68726,4.68726,0,0,0,.44922.19824q.23.08717.44922.16455a1.92491,1.92491,0,0,1,.39258.187.93188.93188,0,0,1,.27832.26221.6765.6765,0,0,1,.10352.3877,1.41228,1.41228,0,0,1-.08594.49218,1.04228,1.04228,0,0,1-.24121.377,1.064,1.064,0,0,1-.38184.23828,1.382,1.382,0,0,1-.50391.08252,1.30533,1.30533,0,0,1-.53515-.09961,1.75274,1.75274,0,0,1-.36621-.21778q-.14941-.12011-.252-.21777a.30568.30568,0,0,0-.20214-.09766.26532.26532,0,0,0-.1377.03711.44758.44758,0,0,0-.11133.0918l-.35742.48438a1.99241,1.99241,0,0,0,.34473.35253A2.18511,2.18511,0,0,0,320.14648,336.1715Z" transform="translate(-262.56978 -312.36633)"/><path d="M324.30859,336.35461a.36453.36453,0,0,0,.22364-.0708.4601.4601,0,0,0,.14257-.16553l.67383-1.44971,2.52442.01416.29785,1.45508a.35384.35384,0,0,0,.10547.17383.30125.30125,0,0,0,.208.06641l.7832.00439-1.5293-6.48877-1.03027-.00586-3.19141,6.4624Zm2.502-4.82373c.043-.09571.08984-.20459.1416-.3252.05176-.12109.10254-.2539.15527-.39746.01953.144.041.27588.0625.396.02149.1206.041.227.05469.31982l.499,2.42871-2.03418-.01123Z" transform="translate(-262.56978 -312.36633)"/><polygon points="68.269 17.545 67.435 24.021 70.9 24.04 71.008 23.19 68.556 23.176 69.281 17.55 68.269 17.545"/><polygon points="75.597 23.243 72.875 23.227 73.138 21.181 75.298 21.193 75.406 20.402 73.242 20.39 73.497 18.397 76.21 18.413 76.318 17.59 72.584 17.569 71.75 24.044 75.489 24.065 75.597 23.243"/><path d="M328.1084,355.78625a5.86009,5.86009,0,0,0,2.10547-1.17627,4.79263,4.79263,0,0,0,1.26074-1.80567,6.18133,6.18133,0,0,0,.41992-2.31,6.04184,6.04184,0,0,0-.40234-2.23194,4.5223,4.5223,0,0,0-1.23047-1.75244,5.79871,5.79871,0,0,0-2.09961-1.13965,9.90371,9.90371,0,0,0-3.01172-.4082h-5.64062v17.352h3.22851v-6.10791h2.41211A9.41724,9.41724,0,0,0,328.1084,355.78625Zm-5.37012-8.32813h2.41211a5.174,5.174,0,0,1,1.55957.21,2.87883,2.87883,0,0,1,1.0918.606,2.4981,2.4981,0,0,1,.64844.96,3.51068,3.51068,0,0,1,.21582,1.26026,3.868,3.868,0,0,1-.21582,1.32568,2.58568,2.58568,0,0,1-.6543,1.0083,2.93584,2.93584,0,0,1-1.09766.63574,4.85227,4.85227,0,0,1-1.54785.22217h-2.41211Z" transform="translate(-262.56978 -312.36633)"/><path d="M337.918,344.962l-6.82813,17.352h2.51954a1.04078,1.04078,0,0,0,.68457-.228,1.15585,1.15585,0,0,0,.37207-.5039l1.29589-3.54h7.1875l1.2959,3.54a1.31067,1.31067,0,0,0,.39649.522,1.0625,1.0625,0,0,0,.68359.21h2.49609l-6.81543-17.352Zm-1.11621,10.80029,2.09961-5.748q.15673-.39624.32422-.93018.16845-.53394.32421-1.146.167.61232.33594,1.14014.16846.52808.32422.91162l2.11133,5.77246Z" transform="translate(-262.56978 -312.36633)"/><path d="M273.41064,324.05187a1.68485,1.68485,0,0,1,.19336-.33105.70731.70731,0,0,1,.20118-.18457.39516.39516,0,0,1,.19238-.05957.25874.25874,0,0,1,.15625.04.28733.28733,0,0,1,.09277.11133.46991.46991,0,0,1,.043.16308c.00684.0625.00977.12793.01074.19629a4.16327,4.16327,0,0,1-.04394.60059q-.04687.36621-.10742.80175-.06006.43506-.10645.91114a8.39016,8.39016,0,0,0-.03809.93164,2.24921,2.24921,0,0,0,.07325.54394,1.30482,1.30482,0,0,0,.21386.45508.99856.99856,0,0,0,.375.30762,1.23373,1.23373,0,0,0,.56348.10644,1.33251,1.33251,0,0,0,.51856-.11328,1.4627,1.4627,0,0,0,.499-.38672,3.65214,3.65214,0,0,0,.498-.75976,9.84112,9.84112,0,0,0,.51757-1.23828l.03223-.001c-.04883.28027-.09082.54492-.127.792a4.324,4.324,0,0,0-.04785.6836,1.57185,1.57185,0,0,0,.05468.40625.82253.82253,0,0,0,.15821.30957.72552.72552,0,0,0,.26562.19726.92816.92816,0,0,0,.38574.06641,1.01488,1.01488,0,0,0,.5791-.17871,1.66235,1.66235,0,0,0,.41895-.41992,2.40645,2.40645,0,0,0,.27051-.51465,2.68952,2.68952,0,0,0,.13476-.46192l-.30664-.05957a2.74739,2.74739,0,0,1-.1748.49707,1.59989,1.59989,0,0,1-.207.332.73613.73613,0,0,1-.21485.18457.44423.44423,0,0,1-.19238.05762.23077.23077,0,0,1-.23535-.13965.84189.84189,0,0,1-.06738-.33984c-.001-.05371-.001-.10156,0-.14453s.00293-.09278.00586-.14844c.002-.05566.00878-.124.01757-.207.00977-.083.02051-.19141.03223-.32617.0127-.13477.0293-.30078.04883-.498q.03076-.29736.07129-.72754.06152-.58154.09765-.9668c.02442-.25683.04395-.47168.05664-.6455.01368-.17481.02247-.31836.02539-.4336q.00587-.17284.00293-.32812c-.001-.02832-.00488-.082-.01367-.16113l-.92285.01464c.00879.09375.01563.18555.02051.2793.00488.09277.00879.19531.00976.30566a6.1605,6.1605,0,0,1-.06738.97852,8.25872,8.25872,0,0,1-.5459,1.98633,5.20981,5.20981,0,0,1-.416.80957,2.50614,2.50614,0,0,1-.47461.56055.80037.80037,0,0,1-.502.21484.44721.44721,0,0,1-.26465-.06836.51945.51945,0,0,1-.16114-.17773.76424.76424,0,0,1-.0791-.22364,1.3764,1.3764,0,0,1-.02148-.21484c-.00293-.15332.00293-.32617.01855-.51856.01465-.1914.03418-.39355.05664-.60546.02442-.21192.04883-.42579.07618-.64258.02734-.21778.05273-.42871.07519-.63477.02441-.207.043-.40137.05859-.585.01465-.18262.02149-.34375.01856-.48242a1.22135,1.22135,0,0,0-.23828-.792.81347.81347,0,0,0-.66992-.2627.97622.97622,0,0,0-.57422.17871,1.613,1.613,0,0,0-.40723.41895,2.29569,2.29569,0,0,0-.25977.51465,2.875,2.875,0,0,0-.12988.46191l.30664.05957A3.0891,3.0891,0,0,1,273.41064,324.05187Z" transform="translate(-262.56978 -312.36633)"/><path d="M280.32666,328.26086a2.07956,2.07956,0,0,0,.57031.21582,2.71252,2.71252,0,0,0,.6543.06738,2.77989,2.77989,0,0,0,.835-.13379,2.06476,2.06476,0,0,0,.65039-.34668,1.52755,1.52755,0,0,0,.416-.51367,1.38517,1.38517,0,0,0,.13965-.64453,1.15383,1.15383,0,0,0-.124-.52149,1.67328,1.67328,0,0,0-.3125-.4248,2.822,2.822,0,0,0-.4414-.35547q-.2461-.1626-.502-.30957c-.16992-.09668-.33691-.19238-.501-.28418a3.80344,3.80344,0,0,1-.43946-.28613,1.42954,1.42954,0,0,1-.31054-.31445.6359.6359,0,0,1-.12207-.36622.72029.72029,0,0,1,.083-.35546.90828.90828,0,0,1,.2295-.28028,1.05261,1.05261,0,0,1,.32128-.18164,1.09563,1.09563,0,0,1,.36133-.06836,1.15562,1.15562,0,0,1,.58789.11719.57042.57042,0,0,1,.27832.30371.60355.60355,0,0,0-.07714.17871.69111.69111,0,0,0-.01856.17188.4422.4422,0,0,0,.126.30468.408.408,0,0,0,.32129.12891.44358.44358,0,0,0,.32812-.13965.51368.51368,0,0,0,.125-.37793.76725.76725,0,0,0-.14355-.44336,1.19658,1.19658,0,0,0-.37012-.332,1.96363,1.96363,0,0,0-.52539-.21,2.3085,2.3085,0,0,0-.60547-.06738,2.41188,2.41188,0,0,0-.77637.12988,1.89035,1.89035,0,0,0-.59277.332,1.4539,1.4539,0,0,0-.37988.48145,1.24954,1.24954,0,0,0-.12793.57422.96984.96984,0,0,0,.20507.59082,2.34184,2.34184,0,0,0,.502.46875,6.40644,6.40644,0,0,0,.64941.40136c.23047.125.44629.25391.64746.38379a2.60907,2.60907,0,0,1,.501.417.74284.74284,0,0,1,.2041.499.9995.9995,0,0,1-.2832.78027,1.2805,1.2805,0,0,1-.88672.28613,1.30048,1.30048,0,0,1-.2959-.03027,1.23207,1.23207,0,0,1-.27246-.0957.82.82,0,0,1-.2207-.1543.61193.61193,0,0,1-.1377-.21.53585.53585,0,0,0,.0752-.17578.79268.79268,0,0,0,.0166-.16406.51638.51638,0,0,0-.11817-.32032.39476.39476,0,0,0-.33593-.13964.43932.43932,0,0,0-.33789.15527.558.558,0,0,0-.13086.39453.87094.87094,0,0,0,.1582.502A1.25848,1.25848,0,0,0,280.32666,328.26086Z" transform="translate(-262.56978 -312.36633)"/><path d="M285.07373,327.83215a1.71525,1.71525,0,0,0,.6416.47363,2.19366,2.19366,0,0,0,.91016.15723,2.22471,2.22471,0,0,0,1.3125-.42676,3.59644,3.59644,0,0,0,1.01367-1.28613l-.36328-.19825a3.2039,3.2039,0,0,1-.3877.60254,2.368,2.368,0,0,1-.44238.416,1.81673,1.81673,0,0,1-.47168.24512,1.57508,1.57508,0,0,1-.48242.08593,1.02034,1.02034,0,0,1-.958-.499,3.14719,3.14719,0,0,1-.33105-1.543q.34277-.04248.71484-.11621a6.78181,6.78181,0,0,0,.73047-.18652,5.53069,5.53069,0,0,0,.68066-.26368,2.68214,2.68214,0,0,0,.56641-.34765,1.57183,1.57183,0,0,0,.38574-.44434,1.0593,1.0593,0,0,0,.13574-.55176,1.22621,1.22621,0,0,0-.1416-.59375,1.09719,1.09719,0,0,0-.35254-.38476,1.4799,1.4799,0,0,0-.49511-.207,2.43845,2.43845,0,0,0-.56739-.05762,2.488,2.488,0,0,0-.82226.14453,2.40355,2.40355,0,0,0-.666.374,2.46319,2.46319,0,0,0-.50879.5586,3.45529,3.45529,0,0,0-.35644.69824,4.07419,4.07419,0,0,0-.208.793,4.95222,4.95222,0,0,0-.05859.8418,3.63119,3.63119,0,0,0,.13671.97265A2.02051,2.02051,0,0,0,285.07373,327.83215Zm.56543-3.23731a2.94335,2.94335,0,0,1,.27539-.75976,1.63936,1.63936,0,0,1,.4541-.53809,1.07935,1.07935,0,0,1,.6543-.21191.87454.87454,0,0,1,.34766.05859.67734.67734,0,0,1,.24707.17383.76465.76465,0,0,1,.14941.26269,1.11677,1.11677,0,0,1,.05371.32911.899.899,0,0,1-.19238.57519,1.84327,1.84327,0,0,1-.52246.45508,3.366,3.366,0,0,1-.73828.32617,5.786,5.786,0,0,1-.84864.19629A5.467,5.467,0,0,1,285.63916,324.59484Z" transform="translate(-262.56978 -312.36633)"/><path d="M290.39307,325.58117q-.05274.72949-.085,1.40234-.03223.67091-.07129,1.25391c-.02539.38867-.0586.74316-.09766,1.06152a4.80156,4.80156,0,0,1-.167.82227,1.42721,1.42721,0,0,1-.27637.53027.56071.56071,0,0,1-.42676.19141.542.542,0,0,1-.32812-.0791.55492.55492,0,0,0-.11914-.36035.3837.3837,0,0,0-.31934-.13379.448.448,0,0,0-.208.04882.41284.41284,0,0,0-.13574.11817.48026.48026,0,0,0-.07226.14941.49455.49455,0,0,0-.02247.14258q.00879.56836.86915.55567a1.79633,1.79633,0,0,0,.92968-.24317,1.9,1.9,0,0,0,.624-.63672,3.42477,3.42477,0,0,0,.38574-.94336,9.94238,9.94238,0,0,0,.21777-1.16113q.07764-.61964.11817-1.291.041-.67236.08886-1.33886.04834-.646.06836-1.2666.019-.61964.04785-1.19043l1.55762-.0459.02539-.43067-1.55762.02539c.01856-.35839.04883-.68847.08887-.99023a3.75545,3.75545,0,0,1,.17578-.77637,1.28415,1.28415,0,0,1,.30371-.50683.67555.67555,0,0,1,.47754-.18848.74606.74606,0,0,1,.14258.01172.22072.22072,0,0,1,.09375.0332l.001.043a.55879.55879,0,0,0,.12109.36328.39333.39333,0,0,0,.32129.13477.43133.43133,0,0,0,.20606-.04688.41314.41314,0,0,0,.209-.25781.56028.56028,0,0,0,.01855-.14258.48963.48963,0,0,0-.21289-.416.99408.99408,0,0,0-.59082-.14063,1.79678,1.79678,0,0,0-1.58691.84961,3.18324,3.18324,0,0,0-.3916.91211,8.52395,8.52395,0,0,0-.21485,1.13086l-.96679.01562-.0459.47364.96094-.02637c-.03711.38086-.06543.76758-.084,1.16406Q290.43751,324.99474,290.39307,325.58117Z" transform="translate(-262.56978 -312.36633)"/><path d="M298.335,327.71594a.23038.23038,0,0,1-.23535-.13868.84189.84189,0,0,1-.06738-.33984c-.001-.05371-.001-.10156,0-.14453s.0039-.09277.00586-.14844c.00293-.05566.00879-.125.01855-.207.00879-.083.02051-.19141.03223-.32617s.02832-.30078.04883-.498c.01953-.19824.04394-.44043.07128-.72754q.06006-.58153.09766-.96679c.02441-.25684.043-.47266.05566-.64551.01465-.17481.02247-.31934.0254-.4336q.00585-.17284.00293-.32812c0-.02832-.00391-.082-.0127-.16113l-.92432.01464c.00879.09278.01563.18555.02051.2793.00488.09277.00879.19531.00977.30567a6.16169,6.16169,0,0,1-.06739.97851,8.23348,8.23348,0,0,1-.54589,1.98535,5.13918,5.13918,0,0,1-.416.81055,2.499,2.499,0,0,1-.47461.55957.79428.79428,0,0,1-.501.21582.4522.4522,0,0,1-.26464-.06836.53218.53218,0,0,1-.16211-.17773.74383.74383,0,0,1-.07813-.22364,1.38711,1.38711,0,0,1-.02246-.21484c-.002-.15332.00391-.32617.01855-.51855.01563-.19239.03418-.39356.05762-.60547s.04883-.42578.0752-.64258q.041-.32667.07617-.63574c.02344-.20606.043-.40137.05762-.584.01562-.18262.02148-.34375.01953-.4834a1.224,1.224,0,0,0-.23828-.791.81477.81477,0,0,0-.6709-.26367.99227.99227,0,0,0-.57422.17871,1.63223,1.63223,0,0,0-.40723.41992,2.29565,2.29565,0,0,0-.25976.51465,3.0021,3.0021,0,0,0-.12989.46093l.30664.05957a3.04325,3.04325,0,0,1,.16993-.49414,1.68436,1.68436,0,0,1,.19336-.331.72733.72733,0,0,1,.20117-.18555.40393.40393,0,0,1,.19238-.05859.25687.25687,0,0,1,.15625.04.27266.27266,0,0,1,.09277.11133.46969.46969,0,0,1,.043.16308c.00684.0625.01075.12793.01172.19531a4.46738,4.46738,0,0,1-.04394.60157c-.03223.24414-.06836.51074-.1084.80175q-.06006.43506-.10645.91114a8.37816,8.37816,0,0,0-.03808.93164,2.23473,2.23473,0,0,0,.07324.543,1.30127,1.30127,0,0,0,.21387.45605,1.02515,1.02515,0,0,0,.375.30762,1.25207,1.25207,0,0,0,.56347.10644,1.35092,1.35092,0,0,0,.51953-.11328,1.48113,1.48113,0,0,0,.499-.38672,3.75925,3.75925,0,0,0,.498-.75976,10.00317,10.00317,0,0,0,.51661-1.23828l.03222-.001q-.07325.4204-.127.792a4.31991,4.31991,0,0,0-.04785.68262,1.57366,1.57366,0,0,0,.05469.40723.82237.82237,0,0,0,.1582.30957.72329.72329,0,0,0,.26562.19629.8988.8988,0,0,0,.38623.0664,1.00127,1.00127,0,0,0,.58008-.17871,1.64283,1.64283,0,0,0,.418-.41992,2.38835,2.38835,0,0,0,.27149-.51465,2.66825,2.66825,0,0,0,.13378-.46094l-.30664-.05957a2.69987,2.69987,0,0,1-.1748.49707,1.62555,1.62555,0,0,1-.20606.332.736.736,0,0,1-.21484.18458A.44163.44163,0,0,1,298.335,327.71594Z" transform="translate(-262.56978 -312.36633)"/><path d="M300.73828,320.60265c-.00488.0293-.01074.06446-.0166.10547-.00684.041-.01563.0918-.02441.15039-.01075.05957-.02149.1377-.03418.23438-.03809.31543-.07618.66406-.11524,1.04394-.03906.38086-.07617.77051-.11523,1.1709q-.05714.59913-.10938,1.19434-.05272.59326-.08984,1.124c-.02442.35352-.04395.6709-.05762.9541s-.01855.51075-.01562.68262a1.13867,1.13867,0,0,0,.21289.73438.837.837,0,0,0,.68359.23437,1.02032,1.02032,0,0,0,.57715-.17871,1.66252,1.66252,0,0,0,.4209-.418,2.31513,2.31513,0,0,0,.27051-.51074,2.75544,2.75544,0,0,0,.13574-.46192l-.31739-.06542a2.78889,2.78889,0,0,1-.17578.50292,1.688,1.688,0,0,1-.20117.333.72548.72548,0,0,1-.209.18653.42165.42165,0,0,1-.19239.05859.25614.25614,0,0,1-.17089-.04785.308.308,0,0,1-.09278-.12988.71329.71329,0,0,1-.041-.18457c-.00586-.07032-.00977-.13965-.01075-.21192-.00292-.1748.001-.39551.01368-.66113.01074-.26563.02734-.55567.04687-.874.02051-.3164.04492-.64941.07324-.99707s.05762-.69433.08789-1.03808c.03028-.34473.06153-.67676.09473-.998.03125-.32129.0625-.61133.08984-.86914.0127-.12207.03028-.26269.05176-.42285q.03516-.23877.07032-.49219c.02539-.16894.0498-.33691.07617-.5039.02539-.167.04785-.31836.06738-.45508l-.31641.00488a.8721.8721,0,0,1-.39941.2168,2.58273,2.58273,0,0,1-.39453.07226q-.2373.02784-.59766.03418l-.042.43555.78418-.05469Z" transform="translate(-262.56978 -312.36633)"/><path d="M304.25293,325.52648q.58008-4.60693.58105-4.6289a.451.451,0,0,0,.00391-.08106.87533.87533,0,0,0-.03711-.24121.626.626,0,0,0-.10156-.208.48.48,0,0,0-.17969-.1416.57786.57786,0,0,0-.26172-.0498.58787.58787,0,0,0-.2832.07129.65033.65033,0,0,0-.2041.18164.76.76,0,0,0-.12207.251.95652.95652,0,0,0-.03906.28028l.24023,4.57324Z" transform="translate(-262.56978 -312.36633)"/><path d="M303.52441,328.05773a.66488.66488,0,0,0,.19043.13379.5326.5326,0,0,0,.23243.04688.59522.59522,0,0,0,.248-.05762.70831.70831,0,0,0,.21582-.15332.78606.78606,0,0,0,.15235-.22852.77816.77816,0,0,0,.06445-.27539.73061.73061,0,0,0-.17676-.52246.63092.63092,0,0,0-.44043-.18652.56652.56652,0,0,0-.25683.06543.7174.7174,0,0,0-.21582.1709.835.835,0,0,0-.14649.24609.81076.81076,0,0,0-.05176.30176.67473.67473,0,0,0,.18457.459Z" transform="translate(-262.56978 -312.36633)"/><path d="M283.77246,356.21691a12.17669,12.17669,0,0,0,1.63379-2.48486,32.54971,32.54971,0,0,0,1.69824-4.05078l.10547-.00147q-.24317,1.37477-.41894,2.59033a14.26488,14.26488,0,0,0-.16114,2.23487,5.24545,5.24545,0,0,0,.17774,1.33349,2.67765,2.67765,0,0,0,.5166,1.01221,2.349,2.349,0,0,0,.87109.64649,2.999,2.999,0,0,0,1.25977.21875,3.31781,3.31781,0,0,0,1.89844-.58155,5.43908,5.43908,0,0,0,1.36914-1.37353,7.74565,7.74565,0,0,0,.88964-1.68311,8.8664,8.8664,0,0,0,.44434-1.50976l-1.00586-.19629a8.86061,8.86061,0,0,1-.57324,1.62549,5.27628,5.27628,0,0,1-.67871,1.08789,2.41488,2.41488,0,0,1-.70313.60156,1.42451,1.42451,0,0,1-.62988.186.75693.75693,0,0,1-.77148-.45459,2.803,2.803,0,0,1-.21875-1.11425c-.00293-.17578-.002-.33448.00195-.4751s.00976-.30274.01953-.48486q.01318-.27247.06055-.67823.04541-.405.10742-1.0664.06006-.66064.16016-1.62989.10107-.96972.23828-2.37939.20068-1.90284.32226-3.16358.123-1.26049.18946-2.11474.06591-.85475.085-1.418.01758-.56324.01074-1.07373c-.002-.09375-.0166-.26953-.043-.52734l-3.02344.04443c.02735.3042.04981.6084.06543.91309q.0249.457.03223,1.00146a20.13872,20.13872,0,0,1-.22559,3.20313,27.3936,27.3936,0,0,1-1.79394,6.4956,16.95062,16.95062,0,0,1-1.36817,2.64795,8.21009,8.21009,0,0,1-1.55566,1.834,2.61058,2.61058,0,0,1-1.6416.7002,1.45354,1.45354,0,0,1-.86524-.22461,1.6675,1.6675,0,0,1-.52734-.58105,2.39728,2.39728,0,0,1-.25684-.73438,4.47059,4.47059,0,0,1-.07129-.70215q-.01171-.75585.0625-1.69775.07471-.94189.19141-1.98047.11572-1.03857.25-2.10449.13476-1.06567.251-2.07764.11718-1.01294.19238-1.91064.0747-.898.06445-1.5835a4,4,0,0,0-.77636-2.58984,2.65828,2.65828,0,0,0-2.19239-.86475,3.23965,3.23965,0,0,0-1.88183.58105,5.31417,5.31417,0,0,0-1.333,1.37354,7.59475,7.59475,0,0,0-.85449,1.68213,9.67442,9.67442,0,0,0-.42676,1.50976l1.00488.19629a10.168,10.168,0,0,1,.55664-1.61767,5.41328,5.41328,0,0,1,.63477-1.08447,2.35926,2.35926,0,0,1,.65918-.6045,1.31461,1.31461,0,0,1,.62988-.19287.84951.84951,0,0,1,.5127.1333.94173.94173,0,0,1,.30371.36426,1.62155,1.62155,0,0,1,.13965.53369c.0205.20362.03222.41748.03515.64014a13.96967,13.96967,0,0,1-.14648,1.96924q-.1582,1.19678-.35742,2.62158-.19923,1.42528-.35157,2.98193a27.17954,27.17954,0,0,0-.13183,3.04883,7.44525,7.44525,0,0,0,.2373,1.7793,4.35249,4.35249,0,0,0,.69824,1.49121,3.30117,3.30117,0,0,0,1.22754,1.00928,4.04793,4.04793,0,0,0,1.84278.35058,4.39356,4.39356,0,0,0,1.69922-.36767A4.83675,4.83675,0,0,0,283.77246,356.21691Z" transform="translate(-262.56978 -312.36633)"/><path d="M301.82031,355.72424a.96789.96789,0,0,1-.86718-.37354,1.99132,1.99132,0,0,1-.28028-1.12109,24.18533,24.18533,0,0,1,.165-3.13184q.1875-1.62012.42871-3.17969.24024-1.55932.43067-2.95947a16.86015,16.86015,0,0,0,.1748-2.49023,5.85833,5.85833,0,0,0-.207-1.52637,3.35233,3.35233,0,0,0-.5791-1.16943,2.5761,2.5761,0,0,0-.96094-.75049,3.04911,3.04911,0,0,0-1.33105-.25342,3.19585,3.19585,0,0,0-1.87207.58154,5.35449,5.35449,0,0,0-1.3252,1.373,7.35032,7.35032,0,0,0-.84473,1.68213,10.20319,10.20319,0,0,0-.418,1.50928l1.00489.19629a8.91286,8.91286,0,0,1,.57422-1.61768,5.13451,5.13451,0,0,1,.67871-1.08545,2.59551,2.59551,0,0,1,.69433-.605,1.37017,1.37017,0,0,1,.63867-.19287.75124.75124,0,0,1,.51172.15967,1.11219,1.11219,0,0,1,.30469.4082,2.17018,2.17018,0,0,1,.15723.5249,3.37166,3.37166,0,0,1,.05176.50781,20.59806,20.59806,0,0,1-.17579,3.01465q-.19774,1.48755-.44043,2.95655-.2417,1.47069-.43945,2.96582a21.04692,21.04692,0,0,0-.17578,3.0581q.0498,3.38819,3.30176,3.34131a3.1109,3.1109,0,0,0,1.75879-.53564,5.00273,5.00273,0,0,0,1.291-1.29346,7.46962,7.46962,0,0,0,.86328-1.665,10.76308,10.76308,0,0,0,.47754-1.65088l-1.02343-.1958a9.06827,9.06827,0,0,1-.57325,1.626,5.42844,5.42844,0,0,1-.66992,1.09082,2.5125,2.5125,0,0,1-.68555.60742A1.361,1.361,0,0,1,301.82031,355.72424Z" transform="translate(-262.56978 -312.36633)"/><path d="M300.7373,330.97033a1.86166,1.86166,0,0,0-.73632.16016,1.958,1.958,0,0,0-.61817.43115,1.99791,1.99791,0,0,0-.4209.65625,2.1375,2.1375,0,0,0-.1455.83691,2.16894,2.16894,0,0,0,.16113.82422,1.88905,1.88905,0,0,0,.42187.62647,1.95355,1.95355,0,0,0,.61329.40429,1.84883,1.84883,0,0,0,.749.13868,1.874,1.874,0,0,0,.73633-.16016,1.92,1.92,0,0,0,.6084-.42236,1.97906,1.97906,0,0,0,.41308-.63868,2.34228,2.34228,0,0,0-.40332-2.32324A1.80534,1.80534,0,0,0,300.7373,330.97033Z" transform="translate(-262.56978 -312.36633)"/><path d="M274.12354,366.36828a1.726,1.726,0,0,0,.627.40234,2.33087,2.33087,0,0,0,1.624-.041,1.70843,1.70843,0,0,0,.60547-.4336,1.83764,1.83764,0,0,0,.373-.66943,2.83483,2.83483,0,0,0-.043-1.7334,1.88373,1.88373,0,0,0-.40723-.65039,1.68858,1.68858,0,0,0-.627-.40381,2.33013,2.33013,0,0,0-1.623.041,1.69176,1.69176,0,0,0-.60644.43506,1.869,1.869,0,0,0-.37793.66992,2.78881,2.78881,0,0,0,.04394,1.7334A1.85316,1.85316,0,0,0,274.12354,366.36828Zm.49511-2.63135a1.00633,1.00633,0,0,1,.85938-.41211.99379.99379,0,0,1,.87011.36817,2.24393,2.24393,0,0,1,.05469,2.18554.99483.99483,0,0,1-.84961.40967,1.01023,1.01023,0,0,1-.87988-.36572,2.23712,2.23712,0,0,1-.05469-2.18555Z" transform="translate(-262.56978 -312.36633)"/><path d="M281.64014,363.46984a1.36191,1.36191,0,0,0-.27246-.48,1.18247,1.18247,0,0,0-.4336-.30273,1.44923,1.44923,0,0,0-.59277-.09668,1.65326,1.65326,0,0,0-.39649.05566,1.67461,1.67461,0,0,0-.34472.13672,1.69307,1.69307,0,0,0-.30078.20605,2.67922,2.67922,0,0,0-.27051.26221l-.06934-.40625a.19027.19027,0,0,0-.208-.15039l-.46777.01172.10254,4.0625.7793-.01953-.0752-2.979a1.86951,1.86951,0,0,1,.47656-.39843,1.16313,1.16313,0,0,1,.5586-.15576.74655.74655,0,0,1,.61719.22607,1.03325,1.03325,0,0,1,.21679.67334l.06543,2.58691.78418-.02-.06543-2.58691A2.1444,2.1444,0,0,0,281.64014,363.46984Z" transform="translate(-262.56978 -312.36633)"/><rect x="282.80212" y="360.74283" width="0.78442" height="5.90372" transform="matrix(0.99969, -0.0249, 0.0249, 0.99969, -271.53757, -305.20235)"/><path d="M285.82959,367.94494a.279.279,0,0,0,.17578-.05225.33441.33441,0,0,0,.09277-.13818l2.123-5.29883-.624.01563a.22986.22986,0,0,0-.13574.04736.2621.2621,0,0,0-.085.11426l-.93359,2.46c-.02246.062-.04394.12451-.06348.188s-.03808.12695-.05566.1914c-.01465-.061-.03223-.12256-.05371-.18506-.02246-.062-.04492-.12353-.06738-.18408l-1.09278-2.41308a.28765.28765,0,0,0-.083-.106.23287.23287,0,0,0-.15723-.04395l-.67969.01709,1.76367,3.76465-.70312,1.6377Z" transform="translate(-262.56978 -312.36633)"/><path d="M275.65674,373.87463a.961.961,0,0,0,.19824-.3335,1.1235,1.1235,0,0,0,.06152-.398.73532.73532,0,0,0-.08984-.3584.7592.7592,0,0,0-.2168-.23388,1.25913,1.25913,0,0,0-.29882-.14991c-.11133-.03857-.22364-.07275-.33594-.10449l.05176-1.08838a.86588.86588,0,0,1,.19531.05078c.05859.02344.10937.04688.15429.06983s.084.04346.11622.061a.16694.16694,0,0,0,.08105.02588.13768.13768,0,0,0,.11231-.07959l.10546-.17041a1.35294,1.35294,0,0,0-.31933-.22412,1.21136,1.21136,0,0,0-.42676-.11865l.02148-.46-.168.00439a.11583.11583,0,0,0-.08789.03907.12772.12772,0,0,0-.03516.085l-.01563.32666a1.2083,1.2083,0,0,0-.43164.102,1.019,1.019,0,0,0-.31445.21777.87952.87952,0,0,0-.18945.29688.85591.85591,0,0,0-.05957.33691.82489.82489,0,0,0,.08691.37842.75332.75332,0,0,0,.209.24756,1.06844,1.06844,0,0,0,.28906.15576c.10644.03906.21484.07275.32422.10254l-.05664,1.18945a.884.884,0,0,1-.26172-.06689,1.4817,1.4817,0,0,1-.19043-.10254c-.05371-.03516-.09961-.06641-.13867-.09327a.18459.18459,0,0,0-.1045-.03955.13045.13045,0,0,0-.06738.02051.16675.16675,0,0,0-.0498.04785l-.13282.21387a1.43279,1.43279,0,0,0,.41114.2749,1.56444,1.56444,0,0,0,.5166.12989l-.02442.519.167-.00391a.11668.11668,0,0,0,.08789-.04.1316.1316,0,0,0,.03515-.085l.01758-.38965a1.30376,1.30376,0,0,0,.44727-.1167A1.03489,1.03489,0,0,0,275.65674,373.87463Zm-.96094-1.66162c-.06836-.02344-.13379-.04883-.19434-.07666a.73617.73617,0,0,1-.15917-.1001.43993.43993,0,0,1-.10743-.13623.42842.42842,0,0,1-.041-.18311.46608.46608,0,0,1,.02832-.17578.3913.3913,0,0,1,.09668-.15185.585.585,0,0,1,.17285-.11426.86337.86337,0,0,1,.251-.06446Zm.25977.52a2.07278,2.07278,0,0,1,.2041.07226.6496.6496,0,0,1,.167.09717.45211.45211,0,0,1,.11426.13574.40046.40046,0,0,1,.04492.188.5636.5636,0,0,1-.14258.41309.698.698,0,0,1-.4414.20117Z" transform="translate(-262.56978 -312.36633)"/><path d="M280.65186,370.10021a2.08005,2.08005,0,0,0-.74024-.459,2.5607,2.5607,0,0,0-.95605-.146,2.60569,2.60569,0,0,0-.96875.20166,2.336,2.336,0,0,0-.74707.5044,2.16917,2.16917,0,0,0-.47364.73437,2.38354,2.38354,0,0,0,.03418,1.77,1.9143,1.9143,0,0,0,.459.63623,1.88517,1.88517,0,0,0,.64941.38135,2.18279,2.18279,0,0,0,.76074.11572,2.3509,2.3509,0,0,0,.70508-.12256,1.97742,1.97742,0,0,0,.59473-.32519q-.16407.249-.35254.50879l-2.123,2.89453.89453-.02246a.67357.67357,0,0,0,.30078-.07276.50493.50493,0,0,0,.19825-.16992l1.66308-2.51806q.1875-.2798.333-.5459a3.87285,3.87285,0,0,0,.24609-.53907,3.16321,3.16321,0,0,0,.15137-.55908,3.08013,3.08013,0,0,0,.043-.60107,2.62413,2.62413,0,0,0-.18945-.94092A2.15325,2.15325,0,0,0,280.65186,370.10021Zm-.35254,2.09961a1.28413,1.28413,0,0,1-.26661.4419,1.34827,1.34827,0,0,1-.44042.311,1.54725,1.54725,0,0,1-.60645.12793,1.34964,1.34964,0,0,1-1.00879-.335,1.387,1.387,0,0,1-.38574-1.01514,1.528,1.528,0,0,1,.08594-.563,1.25285,1.25285,0,0,1,.27343-.44629,1.29519,1.29519,0,0,1,.4375-.29883,1.55656,1.55656,0,0,1,.57227-.11719,1.54107,1.54107,0,0,1,.55957.0835,1.23957,1.23957,0,0,1,.74414.70654,1.62022,1.62022,0,0,1,.11719.585A1.45768,1.45768,0,0,1,280.29932,372.19982Z" transform="translate(-262.56978 -312.36633)"/><path d="M282.75146,376.5465a.61114.61114,0,0,0,.21094.13526.67075.67075,0,0,0,.26172.04345.65081.65081,0,0,0,.25293-.05664.63524.63524,0,0,0,.207-.14551.65475.65475,0,0,0,.13672-.21337.65922.65922,0,0,0-.01269-.51465.67168.67168,0,0,0-.36133-.34375.63.63,0,0,0-.25586-.04639.64082.64082,0,0,0-.25879.05957.62947.62947,0,0,0-.2041.14746.661.661,0,0,0-.13184.21387.62692.62692,0,0,0-.04394.25586.64882.64882,0,0,0,.05664.25879A.65931.65931,0,0,0,282.75146,376.5465Z" transform="translate(-262.56978 -312.36633)"/><path d="M289.438,372.16174a3.08023,3.08023,0,0,0,.043-.60108,2.6218,2.6218,0,0,0-.18946-.94092,2.141,2.141,0,0,0-.48339-.72509,2.06057,2.06057,0,0,0-.73926-.459,2.55316,2.55316,0,0,0-.957-.146,2.5951,2.5951,0,0,0-.96778.20166,2.3162,2.3162,0,0,0-.74707.5039,2.17114,2.17114,0,0,0-.47363.73487,2.395,2.395,0,0,0,.03418,1.76953,1.90458,1.90458,0,0,0,.459.63623,1.87009,1.87009,0,0,0,.64942.38135,2.16061,2.16061,0,0,0,.76074.11572,2.372,2.372,0,0,0,.70508-.12207,1.988,1.988,0,0,0,.59472-.3252c-.10937.16553-.22656.33594-.35253.5083l-2.12305,2.895.89453-.02246a.67357.67357,0,0,0,.30078-.07275.50885.50885,0,0,0,.19824-.16992l1.66211-2.51856q.1875-.279.334-.5459a3.86964,3.86964,0,0,0,.24609-.53857A3.17573,3.17573,0,0,0,289.438,372.16174Zm-.98145-.16748a1.28207,1.28207,0,0,1-.2666.4414,1.341,1.341,0,0,1-.44043.311,1.53964,1.53964,0,0,1-.60742.12842,1.35067,1.35067,0,0,1-1.00781-.335,1.38417,1.38417,0,0,1-.38574-1.01562,1.50382,1.50382,0,0,1,.08593-.5625,1.25929,1.25929,0,0,1,.27344-.44678,1.30243,1.30243,0,0,1,.4375-.29883,1.5568,1.5568,0,0,1,.57227-.1167,1.53388,1.53388,0,0,1,.55957.0835,1.23695,1.23695,0,0,1,.74414.70606,1.60225,1.60225,0,0,1,.11621.585A1.43639,1.43639,0,0,1,288.45654,371.99426Z" transform="translate(-262.56978 -312.36633)"/><path d="M294.606,369.74865a2.06151,2.06151,0,0,0-.73926-.45947,2.56078,2.56078,0,0,0-.95606-.146,2.59628,2.59628,0,0,0-.96875.20215,2.327,2.327,0,0,0-.74707.50391,2.1692,2.1692,0,0,0-.47363.73437,2.38354,2.38354,0,0,0,.03418,1.77,1.90932,1.90932,0,0,0,.459.63623,1.88533,1.88533,0,0,0,.64941.38135,2.18279,2.18279,0,0,0,.76074.11572,2.35634,2.35634,0,0,0,.70508-.12256,1.97742,1.97742,0,0,0,.59473-.32519q-.16407.249-.35254.50879l-2.123,2.89453.89453-.02246a.67357.67357,0,0,0,.30078-.07276.505.505,0,0,0,.19825-.16992l1.66308-2.51806c.125-.18653.23535-.36817.333-.5459a3.894,3.894,0,0,0,.24609-.53858,3.1798,3.1798,0,0,0,.15137-.55957,3.08013,3.08013,0,0,0,.043-.60107,2.61928,2.61928,0,0,0-.18945-.94043A2.13163,2.13163,0,0,0,294.606,369.74865Zm-.35157,2.09961a1.282,1.282,0,0,1-.2666.44141,1.34821,1.34821,0,0,1-.44043.311,1.53852,1.53852,0,0,1-.60644.12793,1.34767,1.34767,0,0,1-1.00879-.335,1.383,1.383,0,0,1-.38574-1.01514,1.50386,1.50386,0,0,1,.08593-.5625,1.2507,1.2507,0,0,1,.27344-.44677,1.29509,1.29509,0,0,1,.4375-.29883,1.65061,1.65061,0,0,1,1.13184-.03369,1.23957,1.23957,0,0,1,.74414.70654,1.62044,1.62044,0,0,1,.11719.585A1.46014,1.46014,0,0,1,294.25439,371.84826Z" transform="translate(-262.56978 -312.36633)"/><path d="M297.85791,371.55138a.47734.47734,0,0,0,.13672-.03955,1.12946,1.12946,0,0,0,.13135-.07128l.66211-.40528-.19532-.32275-.66162.40478a1.49367,1.49367,0,0,0-.123.09131.54561.54561,0,0,0-.09668.10645.6373.6373,0,0,0,.03418-.14307,1.134,1.134,0,0,0,.00683-.1543l-.01953-.772-.37988.00977.01953.78027a.8127.8127,0,0,0,.01758.15527.59459.59459,0,0,0,.0498.14258.58315.58315,0,0,0-.10449-.10889,1.08445,1.08445,0,0,0-.13281-.08935l-.68555-.37891-.17969.333.68653.37891a.66993.66993,0,0,0,.28515.09668.57929.57929,0,0,0-.14258.03808.95815.95815,0,0,0-.13769.06934l-.66309.40869.19629.32275.66211-.40869a1.05677,1.05677,0,0,0,.12207-.08691.632.632,0,0,0,.09863-.10254.49112.49112,0,0,0-.04.13867,1.23945,1.23945,0,0,0-.00586.15088l.01953.772.37988-.00976-.01953-.77637a.74714.74714,0,0,0-.06738-.29834.49359.49359,0,0,0,.10644.10742,1.53366,1.53366,0,0,0,.13477.08692l.68506.3789.17968-.333-.68652-.37841A.662.662,0,0,0,297.85791,371.55138Z" transform="translate(-262.56978 -312.36633)"/><path d="M314.07617,374.62365a.9824.9824,0,0,0,.207.10547,1.553,1.553,0,0,0,.22754.06592,1.826,1.826,0,0,0,.22949.03467c.07618.00634.14551.01025.209.01025a1.67264,1.67264,0,0,0,.5166-.07373,1.13169,1.13169,0,0,0,.38477-.20654.90492.90492,0,0,0,.24023-.3169.98468.98468,0,0,0,.083-.4043.78036.78036,0,0,0-.07813-.36132.90427.90427,0,0,0-.20507-.27149,1.48877,1.48877,0,0,0-.292-.208c-.1084-.06005-.21972-.11718-.334-.17041-.11328-.05322-.22461-.10546-.333-.15771a1.84376,1.84376,0,0,1-.292-.17285.82574.82574,0,0,1-.20606-.21338.492.492,0,0,1-.07714-.28027.61807.61807,0,0,1,.04589-.23829.60283.60283,0,0,1,.13379-.20068.67838.67838,0,0,1,.21582-.1377.77057.77057,0,0,1,.28907-.05078.83663.83663,0,0,1,.37793.08008.76248.76248,0,0,1,.25976.21094.89.89,0,0,1,.15332.30176,1.27922,1.27922,0,0,1,.05078.35107h.18164l.05469-1.0957-.25391-.00049.00782.2124a1.19818,1.19818,0,0,0-.209-.12353,1.35165,1.35165,0,0,0-.21972-.08008,1.5634,1.5634,0,0,0-.21973-.0415,1.69055,1.69055,0,0,0-.20313-.0127,1.39068,1.39068,0,0,0-.37793.0459.98433.98433,0,0,0-.28027.124.83552.83552,0,0,0-.19726.17676.92653.92653,0,0,0-.125.20361.867.867,0,0,0-.06446.20752,1.023,1.023,0,0,0-.01855.18555.72459.72459,0,0,0,.07617.34766.917.917,0,0,0,.2041.2622,1.45652,1.45652,0,0,0,.28613.2002c.10743.0581.21778.11328.33008.167.11231.05273.22266.106.33008.16016a1.55649,1.55649,0,0,1,.28613.18115.83851.83851,0,0,1,.2041.228.57732.57732,0,0,1,.07715.3042.60725.60725,0,0,1-.23144.48974.7628.7628,0,0,1-.2461.12647.98281.98281,0,0,1-.29.042,1.22592,1.22592,0,0,1-.37012-.0542.8096.8096,0,0,1-.29395-.16406.75218.75218,0,0,1-.19531-.27881,1.09184,1.09184,0,0,1-.07227-.40039l-.19531-.00049-.02929,1.06445.26171.00049Z" transform="translate(-262.56978 -312.36633)"/><path d="M317.01953,371.35705c-.00293.01465-.00586.03076-.00976.04687-.00391.01758-.00879.03809-.0127.0625s-.00879.05762-.0166.1001c-.0166.10254-.03223.22119-.0459.355-.01562.13477-.03027.27783-.0459.42969-.01367.15234-.02832.31006-.043.47266q-.02051.24389-.03808.48339c-.0127.15967-.02246.313-.03223.46-.00976.14746-.01953.28271-.02637.40527-.00586.123-.01172.22949-.01562.31885s-.00684.15527-.00684.19775c0,.01318.002.0376.00489.07324l.41015.00049c-.00293-.04248-.00586-.08447-.00586-.127q-.00293-.06372-.00293-.13916a2.82616,2.82616,0,0,1,.041-.47364,3.87459,3.87459,0,0,1,.10937-.47021,3.47005,3.47005,0,0,1,.16114-.43018,2.224,2.224,0,0,1,.20019-.35351,1.11355,1.11355,0,0,1,.21973-.23926.37316.37316,0,0,1,.22558-.0874.21119.21119,0,0,1,.12012.03174.23391.23391,0,0,1,.07324.07861.32577.32577,0,0,1,.03711.09863.60016.60016,0,0,1,.00977.09668q-.00147.19776-.02344.41748c-.01465.14649-.03223.29151-.05078.43457-.01856.14258-.03516.27832-.05078.40625a2.96628,2.96628,0,0,0-.02246.33057.99583.99583,0,0,0,.01953.20654.38991.38991,0,0,0,.06543.15186.28383.28383,0,0,0,.124.09375.53327.53327,0,0,0,.19531.03222.45071.45071,0,0,0,.26075-.07666.72889.72889,0,0,0,.19043-.18652,1.00911,1.00911,0,0,0,.12207-.231,1.33321,1.33321,0,0,0,.0625-.208l-.124-.03223a1.29988,1.29988,0,0,1-.084.227.68567.68567,0,0,1-.0957.1499.33066.33066,0,0,1-.09961.08252.18552.18552,0,0,1-.08789.02588.11441.11441,0,0,1-.07032-.01953.13276.13276,0,0,1-.041-.05127.20983.20983,0,0,1-.01856-.07422.88548.88548,0,0,1-.0039-.08935,2.00466,2.00466,0,0,1,.02246-.27344c.01465-.11084.03125-.23242.04785-.36475.01758-.13281.0332-.27148.04883-.4165a4.22946,4.22946,0,0,0,.02246-.42481.97736.97736,0,0,0-.02832-.24755.58113.58113,0,0,0-.09571-.208.47343.47343,0,0,0-.17089-.14209.57385.57385,0,0,0-.25391-.05274.68149.68149,0,0,0-.24316.04639.693.693,0,0,0-.24219.16943,1.60409,1.60409,0,0,0-.24707.33985,3.64233,3.64233,0,0,0-.252.55859h-.01757c.00488-.05859.01074-.12793.01855-.20752.00684-.07959.01465-.165.02246-.25635.00977-.0913.01856-.18505.02832-.28222.00977-.09668.01953-.19043.0293-.28028.00977-.09082.02051-.17529.0293-.2539s.01757-.14649.02539-.20362c.00683-.05517.01562-.11914.02636-.1914.01172-.07276.02442-.147.03711-.22363.01172-.07666.02442-.15235.03809-.22852.01269-.0752.02344-.144.0332-.20606H317.333a.43405.43405,0,0,1-.07129.05176.42281.42281,0,0,1-.11133.04346,1.18787,1.18787,0,0,1-.17969.0293,2.649,2.649,0,0,1-.27246.01074l-.02246.19775.35156-.01855Z" transform="translate(-262.56978 -312.36633)"/><path d="M322.166,374.33019a1.235,1.235,0,0,0,.06543-.209l-.13965-.0293a1.21281,1.21281,0,0,1-.083.22461.74194.74194,0,0,1-.09668.14893.34037.34037,0,0,1-.09863.08252.20011.20011,0,0,1-.08789.02441.10577.10577,0,0,1-.10645-.06543.38951.38951,0,0,1-.02832-.15478c0-.02442.001-.04688.00195-.06641s.002-.042.00391-.06689a.82425.82425,0,0,1,.00977-.09424q.00585-.0564.01757-.148c.00684-.061.01465-.13623.02539-.22559s.02344-.19971.03809-.32959c.02246-.17627.03906-.32226.05176-.439q.02051-.175.03222-.29346c.00684-.07861.01172-.14453.01465-.19678.002-.05175.00293-.10156.00293-.14892,0-.01319-.001-.0376-.0039-.07325l-.41993-.00048c.00293.04248.00489.08447.00684.12695s.00293.08887.00293.13916a2.76824,2.76824,0,0,1-.03906.44385,3.58243,3.58243,0,0,1-.10645.4624,3.67689,3.67689,0,0,1-.15722.436,2.34443,2.34443,0,0,1-.19629.36425,1.139,1.139,0,0,1-.21973.25147.3632.3632,0,0,1-.22949.09375.199.199,0,0,1-.11914-.03369.21839.21839,0,0,1-.07227-.08155.32547.32547,0,0,1-.03418-.10254.60768.60768,0,0,1-.00879-.09765q0-.10474.01172-.23584c.00977-.08692.01953-.17822.03223-.27442.01172-.09619.02539-.19336.03906-.292.01465-.09814.02734-.19433.04-.28808.01172-.09327.02246-.18164.03027-.26465s.01368-.15625.01368-.21973a.55618.55618,0,0,0-.10352-.36133.36934.36934,0,0,0-.30273-.125.45139.45139,0,0,0-.26172.07617.75157.75157,0,0,0-.18848.18848,1.0704,1.0704,0,0,0-.12207.231,1.40709,1.40709,0,0,0-.06348.209l.13965.0293a1.391,1.391,0,0,1,.082-.22314.73458.73458,0,0,1,.08985-.14942.3283.3283,0,0,1,.09277-.08252.17764.17764,0,0,1,.08789-.0249.1195.1195,0,0,1,.07129.01953.13287.13287,0,0,1,.041.05127.23314.23314,0,0,1,.01855.07422q.00293.04248.00293.08935a2.04957,2.04957,0,0,1-.02441.273c-.01661.11035-.03516.23194-.05567.36328-.02148.13184-.03906.26954-.05566.41358a3.6691,3.6691,0,0,0-.02539.42236,1.02733,1.02733,0,0,0,.02929.24805.602.602,0,0,0,.09375.2085.44482.44482,0,0,0,.168.14306.5592.5592,0,0,0,.25489.05274.60926.60926,0,0,0,.23632-.04688.69266.69266,0,0,0,.23145-.17187,1.704,1.704,0,0,0,.23144-.3418,4.50644,4.50644,0,0,0,.24512-.55859h.01465q-.03661.19043-.06445.35888a2.01773,2.01773,0,0,0-.02637.31006.72573.72573,0,0,0,.02148.18555.37907.37907,0,0,0,.06836.1416.34143.34143,0,0,0,.12012.09228.42137.42137,0,0,0,.17383.03272.46244.46244,0,0,0,.26562-.07617.7691.7691,0,0,0,.19336-.188A1.06483,1.06483,0,0,0,322.166,374.33019Z" transform="translate(-262.56978 -312.36633)"/><path d="M323.13281,373.34728c.01367-.146.0293-.29394.04688-.44287s.0332-.29394.04883-.43408l.80078-.01123.01367-.18555-.79492-.001.09082-.70557-.19043-.00049a1.19789,1.19789,0,0,1-.2793.522.65978.65978,0,0,1-.49023.18262l-.01563.20752.44531-.00439c-.02148.18066-.041.35644-.05761.52685-.0166.16992-.0293.33106-.041.48242-.01074.15137-.01855.29151-.02441.41944-.00586.12744-.00977.23877-.00977.33349a.93986.93986,0,0,0,.02637.22461.548.548,0,0,0,.08691.18946.412.412,0,0,0,.15918.12988.58.58,0,0,0,.24707.04834.70859.70859,0,0,0,.21875-.03272.63911.63911,0,0,0,.1875-.09863.88911.88911,0,0,0,.16407-.1626,1.60853,1.60853,0,0,0,.15039-.22509l-.12989-.08594a.9529.9529,0,0,1-.13867.19043.61377.61377,0,0,1-.13086.106.39749.39749,0,0,1-.11328.04493.49618.49618,0,0,1-.08789.00976.18343.18343,0,0,1-.12891-.041.24616.24616,0,0,1-.07031-.104.52073.52073,0,0,1-.0293-.14062c-.0039-.05127-.00586-.10156-.00586-.15039.001-.11084.00586-.23389.01563-.36963C323.10645,373.6339,323.11816,373.49328,323.13281,373.34728Z" transform="translate(-262.56978 -312.36633)"/><path d="M325.9668,373.34484c-.02149.13184-.03907.26953-.05567.41358a3.68379,3.68379,0,0,0-.02539.42285,1.0234,1.0234,0,0,0,.0293.24756.60853.60853,0,0,0,.09375.209.44469.44469,0,0,0,.168.14307.56559.56559,0,0,0,.25488.05273.62753.62753,0,0,0,.23633-.04687.69454.69454,0,0,0,.23144-.17237,1.68473,1.68473,0,0,0,.23145-.34131,4.53976,4.53976,0,0,0,.24512-.55859h.01465q-.03663.19043-.06446.35889a2.01763,2.01763,0,0,0-.02637.31006.72514.72514,0,0,0,.02149.18554.379.379,0,0,0,.06836.1416.34.34,0,0,0,.12012.0918.41344.41344,0,0,0,.17382.0332.46616.46616,0,0,0,.26563-.07617.7779.7779,0,0,0,.19336-.188,1.06514,1.06514,0,0,0,.12695-.23144,1.2342,1.2342,0,0,0,.06543-.209l-.13965-.02929a1.19338,1.19338,0,0,1-.083.22412.74671.74671,0,0,1-.09667.14941.34023.34023,0,0,1-.09864.08252.19233.19233,0,0,1-.08789.02393.10539.10539,0,0,1-.10644-.06494.38936.38936,0,0,1-.02832-.15479c0-.02441.001-.04687.00195-.0664s.002-.042.00391-.0669a.8221.8221,0,0,1,.00976-.09424q.00586-.05639.01758-.14795c.00684-.061.01465-.13623.02539-.22607.01074-.08936.02344-.19971.03809-.32959.02246-.17627.03906-.32227.05175-.43848q.02052-.175.03223-.29345c.00684-.07862.01172-.14454.01465-.19678.00195-.05176.00293-.10156.00293-.14893,0-.01318-.001-.03759-.00391-.07324l-.41992-.001c.00293.04248.00488.08448.00684.127s.00293.08886.00293.13916a2.779,2.779,0,0,1-.03907.44433,3.58254,3.58254,0,0,1-.10644.46241,3.63549,3.63549,0,0,1-.15723.43554,2.328,2.328,0,0,1-.19629.36475,1.14979,1.14979,0,0,1-.21972.25146.35985.35985,0,0,1-.2295.09327.19565.19565,0,0,1-.11914-.03321.21833.21833,0,0,1-.07226-.08154.32563.32563,0,0,1-.03418-.10254.60769.60769,0,0,1-.00879-.09766q0-.10473.01172-.23584c.00976-.08691.01953-.17822.03222-.27441.01172-.09619.02539-.19336.03907-.292.01464-.09815.02734-.19434.04-.28809.01171-.09326.02246-.18164.03027-.26465s.01367-.15625.01367-.21972a.55621.55621,0,0,0-.10351-.36133.36932.36932,0,0,0-.30274-.125.44783.44783,0,0,0-.26172.07617.74943.74943,0,0,0-.18847.188,1.085,1.085,0,0,0-.12207.23144,1.406,1.406,0,0,0-.06348.209l.13965.0293a1.39623,1.39623,0,0,1,.082-.22364.74326.74326,0,0,1,.08984-.14892.32817.32817,0,0,1,.09278-.08252.18393.18393,0,0,1,.08789-.02539.11625.11625,0,0,1,.07129.02.13285.13285,0,0,1,.041.05127.23274.23274,0,0,1,.01856.07421q.00293.04248.00293.08936a2.04815,2.04815,0,0,1-.02442.273C326.00586,373.0924,325.9873,373.214,325.9668,373.34484Z" transform="translate(-262.56978 -312.36633)"/><path d="M329.23145,375.4508l.04-.62744a1.81885,1.81885,0,0,0,.23438.01513,1.60074,1.60074,0,0,0,.63867-.11865,1.23962,1.23962,0,0,0,.46387-.33642,1.49323,1.49323,0,0,0,.28125-.51807,2.237,2.237,0,0,0,.0957-.66748,1.64034,1.64034,0,0,0-.041-.37354.96585.96585,0,0,0-.124-.3081.63894.63894,0,0,0-.21093-.21045.55886.55886,0,0,0-.29883-.07813.63145.63145,0,0,0-.22461.042.64235.64235,0,0,0-.22852.16064,1.4206,1.4206,0,0,0-.22265.33154,3.1527,3.1527,0,0,0-.21387.55811h-.01758c.01563-.07666.03027-.165.04688-.26611a1.99563,1.99563,0,0,0,.02539-.30518,1.18214,1.18214,0,0,0-.01661-.19775.50552.50552,0,0,0-.06054-.167.31375.31375,0,0,0-.11719-.11572.37122.37122,0,0,0-.18652-.04248.4574.4574,0,0,0-.2627.07617.76114.76114,0,0,0-.19336.188,1.0337,1.0337,0,0,0-.1289.23145,1.34209,1.34209,0,0,0-.06543.20849l.14648.02979a1.30361,1.30361,0,0,1,.083-.22363.7151.7151,0,0,1,.09277-.14893.333.333,0,0,1,.09473-.08252.19089.19089,0,0,1,.08984-.02539.11251.11251,0,0,1,.0752.02295.14462.14462,0,0,1,.04.06006.27673.27673,0,0,1,.01562.08447q.00293.04761.00293.09668c0,.042-.00391.106-.01074.19141q-.01026.12744-.02637.30566c-.01172.11865-.02539.252-.03906.3999s-.0293.30615-.04688.47461c-.01562.16846-.03222.34424-.04882.52832q-.02492.2754-.04688.56348-.01319.14647-.02344.27441a1.10488,1.10488,0,0,1-.03613.22217.31933.31933,0,0,1-.084.14844.22892.22892,0,0,1-.16407.05469v.14892l.94532.00147.001-.20508-.31445.01416a1.09631,1.09631,0,0,0,.02734-.19922C329.22168,375.59142,329.22656,375.51916,329.23145,375.4508Zm.08007-1.08984c.00782-.07764.01856-.15381.03125-.22852.02246-.13525.04981-.26953.085-.40479a4.012,4.012,0,0,1,.11622-.38818,3.50706,3.50706,0,0,1,.1416-.34668,1.82547,1.82547,0,0,1,.16406-.2793.8248.8248,0,0,1,.17578-.185.301.301,0,0,1,.17969-.0669.24093.24093,0,0,1,.17187.06543.44526.44526,0,0,1,.10743.17676,1.22617,1.22617,0,0,1,.05371.26269,3.01129,3.01129,0,0,1,.01562.3208,2.52017,2.52017,0,0,1-.02246.314,1.97117,1.97117,0,0,1-.07031.31445,1.4946,1.4946,0,0,1-.124.28955,1.06456,1.06456,0,0,1-.18164.24024.78519.78519,0,0,1-.56347.22217.69941.69941,0,0,1-.1543-.01612,1.26546,1.26546,0,0,1-.15039-.043C329.29492,374.52062,329.30371,374.4381,329.31152,374.361Z" transform="translate(-262.56978 -312.36633)"/><path d="M334.334,373.7257c-.02539.12647-.04687.2461-.06543.3584a2.1388,2.1388,0,0,0-.02539.31006.829.829,0,0,0,.01954.18555.3773.3773,0,0,0,.0625.14209.30332.30332,0,0,0,.11425.09179.415.415,0,0,0,.17188.03272.46486.46486,0,0,0,.26367-.07618.78906.78906,0,0,0,.19629-.188,1.11314,1.11314,0,0,0,.12793-.23145,1.32627,1.32627,0,0,0,.06445-.20849l-.1416-.02979a1.22724,1.22724,0,0,1-.083.22363.77769.77769,0,0,1-.09472.14942.373.373,0,0,1-.09668.082.19048.19048,0,0,1-.08887.02539.118.118,0,0,1-.08008-.02442.15587.15587,0,0,1-.043-.06347.30589.30589,0,0,1-.0166-.08838c-.002-.03223-.00293-.06494-.00293-.09717q0-.11279.02051-.32422c.01367-.14111.03027-.30176.05176-.48144.02246-.17969.0459-.37256.07226-.57813s.05371-.41113.08106-.61572a2.75268,2.75268,0,0,0-.34082-.064,2.69493,2.69493,0,0,0-.33106-.02246,1.38057,1.38057,0,0,0-.63867.13916,1.31864,1.31864,0,0,0-.45605.37891,1.67829,1.67829,0,0,0-.27442.5542,2.35289,2.35289,0,0,0-.0918.666,1.38864,1.38864,0,0,0,.04786.40283.75355.75355,0,0,0,.13379.2705.51146.51146,0,0,0,.20019.15186.66362.66362,0,0,0,.251.04736.76889.76889,0,0,0,.14453-.01416.58072.58072,0,0,0,.15918-.05713.86692.86692,0,0,0,.16894-.11962,1.11507,1.11507,0,0,0,.17285-.20118,2.15475,2.15475,0,0,0,.16895-.30224,3.2655,3.2655,0,0,0,.16406-.42481Zm-.2373.16065a2.5947,2.5947,0,0,1-.19629.38037,1.14427,1.14427,0,0,1-.21875.26074.3563.3563,0,0,1-.22949.09766.22419.22419,0,0,1-.1543-.05567.40913.40913,0,0,1-.09961-.15234.90757.90757,0,0,1-.05469-.2334,2.50276,2.50276,0,0,1-.01464-.29395,2.69243,2.69243,0,0,1,.05371-.541,1.82137,1.82137,0,0,1,.16308-.47363,1.00016,1.00016,0,0,1,.27637-.335.63758.63758,0,0,1,.39453-.12646,1.52275,1.52275,0,0,1,.21485.01514.71723.71723,0,0,1,.17285.04687,2.981,2.981,0,0,1-.042.46875,4.29564,4.29564,0,0,1-.10644.48535A4.17956,4.17956,0,0,1,334.09668,373.88635Z" transform="translate(-262.56978 -312.36633)"/><path d="M338.05957,374.34435a.73285.73285,0,0,1-.0957.14942.31676.31676,0,0,1-.09766.083.18558.18558,0,0,1-.08789.02587.1144.1144,0,0,1-.07031-.02.13291.13291,0,0,1-.041-.05126.20983.20983,0,0,1-.01855-.07422.88563.88563,0,0,1-.00391-.08936,2.02923,2.02923,0,0,1,.02344-.27344c.0166-.11084.0332-.23242.05176-.36474s.03613-.271.05273-.416a3.96386,3.96386,0,0,0,.02344-.4248.97693.97693,0,0,0-.02832-.24756.59787.59787,0,0,0-.09375-.2085.44692.44692,0,0,0-.168-.1416.56712.56712,0,0,0-.25391-.05273.62813.62813,0,0,0-.24316.0498.7549.7549,0,0,0-.24414.17725,1.71376,1.71376,0,0,0-.24707.34961,3.7584,3.7584,0,0,0-.25293.562H336.25c.00684-.03906.01465-.083.02441-.13184s.01856-.1001.02539-.15381c.00782-.05371.01368-.10888.01954-.166a1.63256,1.63256,0,0,0,.00976-.166,1.17333,1.17333,0,0,0-.0166-.19873.52552.52552,0,0,0-.05859-.166.32314.32314,0,0,0-.11524-.11573.35971.35971,0,0,0-.18359-.04248.45427.45427,0,0,0-.26172.07618.77307.77307,0,0,0-.19434.188,1.02967,1.02967,0,0,0-.12793.23145,1.15219,1.15219,0,0,0-.06543.209l.13868.0293a1.2242,1.2242,0,0,1,.084-.22363.7281.7281,0,0,1,.09668-.14893.35412.35412,0,0,1,.09766-.08252.1874.1874,0,0,1,.08886-.02539.11575.11575,0,0,1,.06934.01856.12873.12873,0,0,1,.041.04882.24787.24787,0,0,1,.01953.07227.809.809,0,0,1,.0039.08545c0,.02441,0,.04639-.001.06689s-.00293.04395-.00391.0708c-.00195.02686-.00586.05957-.00977.09864-.00586.03906-.01074.08935-.01757.15136-.00684.06153-.01465.13819-.02539.229-.01075.09131-.02442.20117-.03907.33105-.01953.17578-.03613.32032-.0498.43457-.0127.11377-.02344.209-.03028.28614-.00781.07763-.01269.14111-.01562.1914-.00391.05078-.00586.09864-.00684.144q0,.01977.00586.07324l.41993.00049c-.00391-.04248-.00586-.08448-.00684-.127-.00195-.04248-.00195-.08886-.00195-.13916a2.59583,2.59583,0,0,1,.041-.44531,3.99072,3.99072,0,0,1,.11328-.46387,3.55978,3.55978,0,0,1,.167-.43554,2.32118,2.32118,0,0,1,.20605-.36475,1.17617,1.17617,0,0,1,.22852-.25049.37141.37141,0,0,1,.23339-.09375.20248.20248,0,0,1,.11817.03174.22371.22371,0,0,1,.07031.07812.32381.32381,0,0,1,.03613.09864.59994.59994,0,0,1,.00977.09668,4.02365,4.02365,0,0,1-.02637.4209c-.01562.14746-.03418.29248-.05273.43457l-.05274.40429a2.43131,2.43131,0,0,0-.02539.32959,1.00056,1.00056,0,0,0,.01856.20655.36884.36884,0,0,0,.06347.15136.29432.29432,0,0,0,.124.09424.53671.53671,0,0,0,.19824.03174.45736.45736,0,0,0,.26269-.07617.78445.78445,0,0,0,.19434-.18653,1,1,0,0,0,.12891-.231,1.2812,1.2812,0,0,0,.06445-.2085l-.1416-.03174A1.229,1.229,0,0,1,338.05957,374.34435Z" transform="translate(-262.56978 -312.36633)"/><path d="M340.88867,374.34533a.75847.75847,0,0,1-.09277.14893.33577.33577,0,0,1-.0957.08252.18744.18744,0,0,1-.08887.02539.11256.11256,0,0,1-.0752-.02295.13948.13948,0,0,1-.041-.06055.30269.30269,0,0,1-.01563-.084c-.002-.03174-.002-.064-.002-.09668,0-.08936.00391-.19727.01269-.32325.00782-.126.01856-.2622.03125-.4082.01368-.146.03028-.2998.04786-.46094s.03711-.32129.05468-.48047l.0918-.78076c.00586-.05517.01367-.11963.02246-.19287s.02051-.14892.03125-.22705c.01172-.07764.02344-.15527.03516-.23144.01074-.07666.02148-.145.03125-.207l-.14453-.00048a.43852.43852,0,0,1-.07032.05224.4155.4155,0,0,1-.1123.043,1.22269,1.22269,0,0,1-.17969.02979c-.07226.00732-.16308.01074-.27246.01074l-.01953.19775.36426-.019c-.0127.04736-.02344.09473-.03223.14307-.00781.04785-.01562.10205-.02441.1621-.0166.11719-.03028.22657-.042.32813-.01171.10205-.02246.19922-.0332.292a1.706,1.706,0,0,0-.28027-.02246,1.51044,1.51044,0,0,0-.63379.12256,1.2528,1.2528,0,0,0-.45508.3418,1.44631,1.44631,0,0,0-.27539.52441,2.31267,2.31267,0,0,0-.09277.67139,1.65485,1.65485,0,0,0,.03906.37011.95345.95345,0,0,0,.125.30176.61494.61494,0,0,0,.21.20362.57794.57794,0,0,0,.30078.07519.68706.68706,0,0,0,.23047-.042.69527.69527,0,0,0,.24316-.16211,1.43973,1.43973,0,0,0,.24122-.333,2.82046,2.82046,0,0,0,.22167-.55762h.01465c-.02636.127-.04492.2417-.05859.34424a2.64932,2.64932,0,0,0-.01856.3003.72341.72341,0,0,0,.02247.18554.37885.37885,0,0,0,.06836.1416.33574.33574,0,0,0,.12011.09229.42638.42638,0,0,0,.17481.03271.45429.45429,0,0,0,.26172-.07617.77728.77728,0,0,0,.19531-.188,1.02961,1.02961,0,0,0,.12793-.23144,1.13866,1.13866,0,0,0,.06445-.209l-.14648-.03173A1.22362,1.22362,0,0,1,340.88867,374.34533Zm-.7041-1.37988c-.01855.1416-.041.271-.06641.38818a3.386,3.386,0,0,1-.14355.47461,2.42926,2.42926,0,0,1-.19629.40381,1.21679,1.21679,0,0,1-.22754.28174.36858.36858,0,0,1-.23828.106.23966.23966,0,0,1-.165-.06152.42555.42555,0,0,1-.1084-.16992,1.08818,1.08818,0,0,1-.05957-.25488,2.68193,2.68193,0,0,1-.01758-.31787,2.522,2.522,0,0,1,.02051-.31446,2.1629,2.1629,0,0,1,.06738-.31885,1.57138,1.57138,0,0,1,.11817-.293,1.00237,1.00237,0,0,1,.17969-.24073.78237.78237,0,0,1,.24218-.16455.76553.76553,0,0,1,.31446-.06054,1.27907,1.27907,0,0,1,.17187.01123.85411.85411,0,0,1,.16992.03808C340.22461,372.65978,340.2041,372.82433,340.18457,372.96545Z" transform="translate(-262.56978 -312.36633)"/><path d="M343.51855,371.59875h-.19042a1.20364,1.20364,0,0,1-.2793.522.66142.66142,0,0,1-.49024.18213l-.01562.20752.44531-.00391q-.03222.27027-.05762.52637c-.0166.16992-.02929.33105-.041.48242-.01074.15137-.01856.29151-.02442.41944-.00585.12744-.00976.23877-.00976.33349a.93992.93992,0,0,0,.02637.22461.54784.54784,0,0,0,.08691.18945.40331.40331,0,0,0,.15918.12989.58.58,0,0,0,.24707.04834.70864.70864,0,0,0,.21875-.03272.62819.62819,0,0,0,.1875-.09863.90206.90206,0,0,0,.16406-.16211,1.6425,1.6425,0,0,0,.15039-.22559l-.12988-.08545a.94782.94782,0,0,1-.13867.19.61377.61377,0,0,1-.13086.106.37071.37071,0,0,1-.11328.04493.49618.49618,0,0,1-.08789.00976.18556.18556,0,0,1-.12891-.04053.246.246,0,0,1-.07031-.104.528.528,0,0,1-.0293-.14111c-.0039-.05127-.00586-.10157-.00586-.15039.001-.11084.00586-.23389.01563-.36963.00976-.13526.02148-.27539.03613-.42139.01367-.146.0293-.29395.04688-.44287.01757-.14942.0332-.29443.04882-.43457l.80078-.01123.01368-.18555-.79493-.001Z" transform="translate(-262.56978 -312.36633)"/><path d="M346.7666,374.35461a.75732.75732,0,0,1-.09472.14892.36624.36624,0,0,1-.09668.08252.19048.19048,0,0,1-.08887.02539.11806.11806,0,0,1-.08008-.02441.15767.15767,0,0,1-.043-.064.2992.2992,0,0,1-.0166-.08789c-.00195-.03222-.00293-.06494-.00293-.09716,0-.0752.00684-.18311.02051-.32471.01367-.14111.03027-.30127.05176-.481.02246-.17969.04589-.37256.07226-.57812s.05371-.41114.08106-.61573a2.75268,2.75268,0,0,0-.34082-.064,2.693,2.693,0,0,0-.33106-.02246,1.37434,1.37434,0,0,0-.63867.13916,1.31874,1.31874,0,0,0-.45606.3789,1.68046,1.68046,0,0,0-.27441.55372,2.35873,2.35873,0,0,0-.0918.6665,1.38864,1.38864,0,0,0,.04786.40283.75793.75793,0,0,0,.13378.27051.50579.50579,0,0,0,.2002.15137.65452.65452,0,0,0,.251.04785.76972.76972,0,0,0,.14453-.01416.58105.58105,0,0,0,.15918-.05713.8673.8673,0,0,0,.16894-.11963,1.11463,1.11463,0,0,0,.17285-.20117,2.15592,2.15592,0,0,0,.16895-.30225,3.26531,3.26531,0,0,0,.16406-.4248h.01367c-.02539.127-.04687.24658-.06543.35888a2.13891,2.13891,0,0,0-.02539.31006.8296.8296,0,0,0,.01953.18555.37175.37175,0,0,0,.0625.1416.3.3,0,0,0,.11426.09229.41516.41516,0,0,0,.17188.03271.46493.46493,0,0,0,.26367-.07617.79813.79813,0,0,0,.19629-.188,1.11332,1.11332,0,0,0,.12793-.23144,1.31455,1.31455,0,0,0,.06445-.209l-.1416-.0293A1.22736,1.22736,0,0,1,346.7666,374.35461Zm-.67676-1.3916a4.31925,4.31925,0,0,1-.10644.48535,4.17938,4.17938,0,0,1-.15918.45654,2.61984,2.61984,0,0,1-.19629.38037,1.14405,1.14405,0,0,1-.21875.26074.35624.35624,0,0,1-.22949.09766.22417.22417,0,0,1-.1543-.05566.40925.40925,0,0,1-.09961-.15235.90715.90715,0,0,1-.05469-.2334,2.50258,2.50258,0,0,1-.01464-.29394,2.69252,2.69252,0,0,1,.05371-.541,1.8215,1.8215,0,0,1,.16308-.47363.9952.9952,0,0,1,.27637-.335.63753.63753,0,0,1,.39453-.12647,1.5241,1.5241,0,0,1,.21484.01514.7173.7173,0,0,1,.17286.04688A2.981,2.981,0,0,1,346.08984,372.963Z" transform="translate(-262.56978 -312.36633)"/><path d="M347.91016,371.88635l.02343-.19141c.00879-.07227.01954-.14648.03028-.22314s.02148-.15235.03418-.22852c.01172-.0752.02441-.144.03711-.20606l-.14356-.00048a.46465.46465,0,0,1-.06836.05224.39838.39838,0,0,1-.1084.04346,1.19826,1.19826,0,0,1-.17773.0293,2.5958,2.5958,0,0,1-.27051.01074l-.02246.19775.35156-.019-.00781.05371c-.00293.01465-.00586.03076-.00976.04736-.00391.01758-.00879.03809-.0127.0625s-.00879.05762-.0166.1001c-.0166.104-.03223.22315-.0459.35791-.01563.13379-.03027.27735-.0459.42969-.01367.15185-.02832.30957-.043.47217-.01367.16259-.02636.32373-.03808.48193-.0127.15918-.02246.312-.03223.459-.00977.14746-.01953.28222-.02637.40429-.00586.12158-.01172.22754-.01562.3169s-.00684.15625-.00684.20019c0,.01319.002.0376.00488.07324l.41016.001c-.00293-.04248-.00586-.08447-.00586-.127q-.00292-.06372-.00293-.13916a2.66525,2.66525,0,0,1,.03028-.39063,3.92679,3.92679,0,0,1,.08789-.415l.13183-.002a.27145.27145,0,0,1,.12207.03027.29649.29649,0,0,1,.09375.08594.87.87,0,0,1,.085.147c.02735.05909.05664.1294.08887.21094.04395.11572.08691.21484.12793.29785a1.10841,1.10841,0,0,0,.12891.20459.45543.45543,0,0,0,.14453.11719.40845.40845,0,0,0,.17383.03809.42405.42405,0,0,0,.207-.04883.51681.51681,0,0,0,.15722-.12793.7075.7075,0,0,0,.11036-.18067.99984.99984,0,0,0,.06542-.206l-.14062-.0293a.66325.66325,0,0,1-.09766.24317.166.166,0,0,1-.12988.06884.157.157,0,0,1-.1084-.04638.53837.53837,0,0,1-.09375-.12061,1.60809,1.60809,0,0,1-.08594-.16943c-.02734-.0625-.05566-.12549-.082-.189a1.10914,1.10914,0,0,0-.084-.16113.48782.48782,0,0,0-.09277-.10791.32689.32689,0,0,0-.11524-.061.56177.56177,0,0,0-.15039-.022v-.00488a1.432,1.432,0,0,0,.42871-.14111,1.2043,1.2043,0,0,0,.30274-.22266.87188.87188,0,0,0,.17773-.26807.75284.75284,0,0,0,.05957-.27734.71608.71608,0,0,0-.02734-.19775.51027.51027,0,0,0-.08692-.17383.43546.43546,0,0,0-.15136-.12207.48628.48628,0,0,0-.21973-.04688.70927.70927,0,0,0-.25977.04981.71651.71651,0,0,0-.251.17676,1.58964,1.58964,0,0,0-.23828.3413,3.40473,3.40473,0,0,0-.23145.54639h-.0166q.02637-.38087.06445-.75684Q347.8628,372.23816,347.91016,371.88635Zm.10449,1.29687a2.44156,2.44156,0,0,1,.18359-.34912,1.17347,1.17347,0,0,1,.2002-.24365.36054.36054,0,0,1,.22363-.09961.18654.18654,0,0,1,.11328.03174.221.221,0,0,1,.06641.0791.33606.33606,0,0,1,.03027.10254.78873.78873,0,0,1,.00781.10156.72282.72282,0,0,1-.248.58984,1.13244,1.13244,0,0,1-.72657.19971h-.0039A3.85331,3.85331,0,0,1,348.01465,373.18322Z" transform="translate(-262.56978 -312.36633)"/><path d="M349.99121,374.57287a.77494.77494,0,0,0,.28711.22021.99439.99439,0,0,0,.41309.07862,1.01126,1.01126,0,0,0,.59961-.18311,1.62165,1.62165,0,0,0,.46972-.57666l-.16211-.09326a1.47014,1.47014,0,0,1-.18164.271,1.05219,1.05219,0,0,1-.2041.18554.79748.79748,0,0,1-.21582.10791.71731.71731,0,0,1-.21973.03516.46626.46626,0,0,1-.43261-.23486,1.45091,1.45091,0,0,1-.1377-.70362c.10449-.01123.21289-.02685.32617-.04687a3.05959,3.05959,0,0,0,.333-.0791,2.65857,2.65857,0,0,0,.3125-.11426,1.24044,1.24044,0,0,0,.25977-.15332.70061.70061,0,0,0,.17773-.19873.48024.48024,0,0,0,.06738-.25.5622.5622,0,0,0-.05957-.27149.50579.50579,0,0,0-.15722-.17675.66225.66225,0,0,0-.22364-.09815,1.10878,1.10878,0,0,0-.25781-.03125,1.13126,1.13126,0,0,0-.375.05957,1.064,1.064,0,0,0-.30469.16406,1.093,1.093,0,0,0-.23535.25,1.55443,1.55443,0,0,0-.16894.31446,1.7801,1.7801,0,0,0-.09961.35937,2.07429,2.07429,0,0,0-.03418.38135,1.6961,1.6961,0,0,0,.05371.44385A.93709.93709,0,0,0,349.99121,374.57287Zm.2832-1.4668a1.29057,1.29057,0,0,1,.13086-.34277.75184.75184,0,0,1,.21-.2417.49735.49735,0,0,1,.29883-.09082.39422.39422,0,0,1,.15821.02978.3032.3032,0,0,1,.11132.08057.337.337,0,0,1,.06543.12109.49211.49211,0,0,1,.02246.14991.41978.41978,0,0,1-.09277.26025.8429.8429,0,0,1-.24023.20166,1.52686,1.52686,0,0,1-.33887.14258,2.581,2.581,0,0,1-.3877.08252A2.51693,2.51693,0,0,1,350.27441,373.10607Z" transform="translate(-262.56978 -312.36633)"/><path d="M317.76367,380.08508a1.222,1.222,0,0,1-.085.22705.76085.76085,0,0,1-.09766.14941.33547.33547,0,0,1-.10058.083.192.192,0,0,1-.08887.02588.11438.11438,0,0,1-.07031-.01953.13159.13159,0,0,1-.042-.05176.23287.23287,0,0,1-.01856-.07422c-.002-.02881-.0039-.05859-.0039-.08936a1.82988,1.82988,0,0,1,.02734-.27343c.0166-.11084.03613-.23194.05762-.36426.02148-.13281.041-.27149.05761-.4165a3.74271,3.74271,0,0,0,.02637-.42481,1.132,1.132,0,0,0-.02539-.24756.58474.58474,0,0,0-.08594-.208.43245.43245,0,0,0-.16211-.14209.54136.54136,0,0,0-.25-.05273.59974.59974,0,0,0-.21484.04346.69894.69894,0,0,0-.23145.16455,1.65918,1.65918,0,0,0-.24218.33545,3.54539,3.54539,0,0,0-.248.55615h-.01758c.01465-.06348.02735-.11768.03809-.16211q.01611-.06738.02637-.126a.9703.9703,0,0,0,.0166-.11474,1.2357,1.2357,0,0,0,.00586-.127.77013.77013,0,0,0-.02735-.19189.55229.55229,0,0,0-.08886-.18555.48469.48469,0,0,0-.16407-.13916.52234.52234,0,0,0-.252-.05517.55639.55639,0,0,0-.21484.0459.70181.70181,0,0,0-.2295.16943,1.6672,1.6672,0,0,0-.2373.33984,3.56,3.56,0,0,0-.23828.55908h-.01367q.00879-.05859.02343-.13183c.00977-.04883.01856-.09912.02637-.15137.00684-.05224.01465-.106.02051-.16113a1.55042,1.55042,0,0,0,.00879-.16358,1.02185,1.02185,0,0,0-.01758-.19384.49242.49242,0,0,0-.05859-.16114.296.296,0,0,0-.11426-.11181.36356.36356,0,0,0-.18262-.04151.45737.45737,0,0,0-.26269.07618.77307.77307,0,0,0-.19434.188,1.03414,1.03414,0,0,0-.12891.23145,1.31447,1.31447,0,0,0-.06445.209l.13867.0293a1.30062,1.30062,0,0,1,.084-.22363.68893.68893,0,0,1,.0957-.14893.36876.36876,0,0,1,.09766-.08252.19089.19089,0,0,1,.08984-.02539.12151.12151,0,0,1,.06934.01807.13732.13732,0,0,1,.04.04931.22044.22044,0,0,1,.01954.07227.80441.80441,0,0,1,.00488.08545c0,.02441,0,.04639-.001.06689s-.00293.04395-.00488.0708c-.00293.02686-.00684.05958-.01074.09864-.00586.03906-.0127.08935-.01953.15136-.00782.06153-.01661.1377-.02735.22852-.01074.09131-.02246.20166-.03906.33154-.01953.17432-.03516.31836-.04688.43311-.01269.11474-.02343.21045-.03027.2876-.00781.07763-.01269.14111-.01465.1914-.00293.05078-.0039.09864-.0039.144,0,.01318.00195.03759.00488.07324l.41992.00049c-.00293-.04248-.00586-.08448-.00781-.127-.001-.04248-.002-.08886-.002-.13916a3.0345,3.0345,0,0,1,.03613-.4458,3.59658,3.59658,0,0,1,.10058-.46338,3.51664,3.51664,0,0,1,.15039-.43554,2.46085,2.46085,0,0,1,.19043-.36475,1.08114,1.08114,0,0,1,.21387-.25049.35259.35259,0,0,1,.22754-.09424.22778.22778,0,0,1,.12793.03321.21522.21522,0,0,1,.07129.083.33473.33473,0,0,1,.03223.10547.74.74,0,0,1,.00683.09864c0,.07177-.0039.15625-.01367.2539-.00879.09766-.02051.20215-.0332.31348q-.019.16773-.04395.3457c-.01562.11865-.0293.23535-.042.35059-.01367.11426-.02539.22461-.03418.3291-.00879.10547-.01367.19824-.01367.27978v.05616c0,.01318.002.03759.00488.07324l.41992.00049c-.00293-.04248-.00586-.08448-.00683-.127q-.00294-.06372-.00293-.13916a3.0345,3.0345,0,0,1,.03613-.4458,3.9372,3.9372,0,0,1,.09863-.46386,3.85362,3.85362,0,0,1,.14746-.43506,2.29418,2.29418,0,0,1,.18946-.36524,1.131,1.131,0,0,1,.21582-.25048.35889.35889,0,0,1,.23047-.09375.21126.21126,0,0,1,.12011.03173.23272.23272,0,0,1,.07325.07813.33378.33378,0,0,1,.0371.09912.60005.60005,0,0,1,.00977.09668,3.39573,3.39573,0,0,1-.0293.41992c-.01855.14746-.04.293-.06347.43506-.02246.14258-.044.27783-.0625.40527a2.36666,2.36666,0,0,0-.0293.32862,1.0742,1.0742,0,0,0,.01855.20654.39738.39738,0,0,0,.06348.15137.28176.28176,0,0,0,.123.09423.52739.52739,0,0,0,.19531.03174.4656.4656,0,0,0,.2666-.07617.7889.7889,0,0,0,.19531-.18652.99535.99535,0,0,0,.12793-.231,1.12414,1.12414,0,0,0,.06543-.2085Z" transform="translate(-262.56978 -312.36633)"/><path d="M320.21191,378.41418a.4134.4134,0,0,0-.12207-.147.31613.31613,0,0,0-.1914-.05616.26645.26645,0,0,0-.08692.01465.21843.21843,0,0,0-.07519.042.22923.22923,0,0,0-.05078.06836.20757.20757,0,0,0-.02051.09424.20034.20034,0,0,0,.05469.13818.18986.18986,0,0,0,.1455.06006.21358.21358,0,0,0,.12207-.03173.42479.42479,0,0,1,.05274.13525.91316.91316,0,0,1,.02344.21875,2.06966,2.06966,0,0,1-.05176.43066,3.52083,3.52083,0,0,1-.13184.45069,4.36563,4.36563,0,0,1-.18359.44043q-.10254.21533-.208.39892h-.00976c-.00977-.10449-.01954-.1958-.03125-.27392s-.02637-.15723-.043-.23682c-.02735-.11572-.05469-.23389-.082-.35547-.02637-.12109-.05372-.24121-.084-.35986s-.0625-.23535-.0957-.34961c-.0332-.11377-.06738-.22119-.10449-.32227-.02344-.06006-.04981-.12353-.08008-.19043a.84122.84122,0,0,0-.11133-.18359.52654.52654,0,0,0-.15625-.13672.42866.42866,0,0,0-.21777-.0542.36871.36871,0,0,0-.22364.06494.45852.45852,0,0,0-.14257.16748.78172.78172,0,0,0-.07422.23243,1.55517,1.55517,0,0,0-.0166.39892l.1621-.01709a1.04565,1.04565,0,0,1-.00683-.13428.63575.63575,0,0,1,.05273-.28173.15681.15681,0,0,1,.1377-.106.13144.13144,0,0,1,.07812.02441.30662.30662,0,0,1,.06348.0625.39682.39682,0,0,1,.05078.0835.73386.73386,0,0,1,.03906.08887c.07032.16943.13477.35058.19629.54443.06055.19385.11621.39258.167.59473.05176.20312.09668.40673.1377.61181.04.20508.07422.4043.10352.59619-.01758.0293-.042.06739-.07227.11524s-.06445.09863-.10352.15185c-.04.05371-.083.10791-.1289.16309a1.4875,1.4875,0,0,1-.14453.148.78167.78167,0,0,1-.15137.10693.307.307,0,0,1-.14746.041.28314.28314,0,0,1-.127-.03125v-.01953a.25373.25373,0,0,0-.05664-.17823.19815.19815,0,0,0-.15625-.062.18923.18923,0,0,0-.07032.01465.211.211,0,0,0-.06738.04395.22445.22445,0,0,0-.0498.07177.23845.23845,0,0,0-.01954.09864.2759.2759,0,0,0,.10254.21923.4564.4564,0,0,0,.27735.09668.79228.79228,0,0,0,.31836-.06933,1.18359,1.18359,0,0,0,.32324-.22119,2.73513,2.73513,0,0,0,.34082-.39307,5.69511,5.69511,0,0,0,.36523-.584c.085-.15479.167-.314.24707-.4795a5.194,5.194,0,0,0,.21387-.50293,3.93746,3.93746,0,0,0,.14941-.5122,2.45849,2.45849,0,0,0,.05762-.50635,1.41551,1.41551,0,0,0-.01953-.23193A.71243.71243,0,0,0,320.21191,378.41418Z" transform="translate(-262.56978 -312.36633)"/><path d="M323.22656,378.796a1.09449,1.09449,0,0,1,.21387-.251.35443.35443,0,0,1,.22754-.09375.22789.22789,0,0,1,.12793.03271.22021.22021,0,0,1,.07129.0835.33437.33437,0,0,1,.03222.10547.73819.73819,0,0,1,.00684.09863c0,.07178-.00391.15625-.01367.25391-.00879.09765-.02051.20214-.0332.31347q-.019.16773-.04395.34571c-.01563.11816-.0293.23486-.042.35009-.01367.11426-.02539.22461-.03418.3291-.00879.10547-.01367.19825-.01367.27979v.05615c0,.01319.00195.0376.00488.07324l.41992.001c-.00293-.04248-.00586-.08447-.00684-.127q-.00293-.06372-.00292-.13916a3.03428,3.03428,0,0,1,.03613-.4458,3.93693,3.93693,0,0,1,.09863-.46387,3.82137,3.82137,0,0,1,.14746-.43506,2.2953,2.2953,0,0,1,.18945-.36523,1.11982,1.11982,0,0,1,.21583-.25049.3563.3563,0,0,1,.23046-.09375.21119.21119,0,0,1,.12012.03174.23247.23247,0,0,1,.07324.07812.32586.32586,0,0,1,.03711.09863.60016.60016,0,0,1,.00977.09668,3.39589,3.39589,0,0,1-.0293.41993c-.01855.14795-.04.29345-.06348.43554-.02246.14258-.04394.27784-.0625.40528a2.36788,2.36788,0,0,0-.02929.32861,1.0734,1.0734,0,0,0,.01855.20654.39732.39732,0,0,0,.06348.15137.28083.28083,0,0,0,.12305.09375.517.517,0,0,0,.19531.03223.46927.46927,0,0,0,.2666-.07618.7975.7975,0,0,0,.19531-.18652.99572.99572,0,0,0,.12793-.231,1.12407,1.12407,0,0,0,.06543-.20849l-.13867-.03174a1.20277,1.20277,0,0,1-.085.22656.766.766,0,0,1-.09766.1499.33547.33547,0,0,1-.10058.083.192.192,0,0,1-.08887.02588.11769.11769,0,0,1-.07031-.02.12665.12665,0,0,1-.042-.05127.23281.23281,0,0,1-.01856-.07422c-.002-.0288-.00391-.05859-.00391-.08935a1.83008,1.83008,0,0,1,.02735-.27344c.0166-.11084.03613-.23242.05762-.36475.02148-.13281.041-.27148.05761-.416a3.74257,3.74257,0,0,0,.02637-.42481,1.132,1.132,0,0,0-.02539-.24755.5835.5835,0,0,0-.08594-.2085.43551.43551,0,0,0-.16211-.1416.54123.54123,0,0,0-.25-.05274.58933.58933,0,0,0-.21484.04346.70411.70411,0,0,0-.23145.16406,1.6786,1.6786,0,0,0-.24218.33594,3.52468,3.52468,0,0,0-.248.55615h-.01758c.01465-.06347.02734-.11767.03809-.16211q.01611-.06738.02636-.126a.96875.96875,0,0,0,.01661-.11475,1.23584,1.23584,0,0,0,.00585-.127.77011.77011,0,0,0-.02734-.1919.55207.55207,0,0,0-.08887-.18554.47906.47906,0,0,0-.16406-.13916.528.528,0,0,0-.252-.05567.56687.56687,0,0,0-.21485.04639.69477.69477,0,0,0-.22949.16943,1.6536,1.6536,0,0,0-.2373.33985,3.5721,3.5721,0,0,0-.23828.55859h-.01368q.00879-.05859.02344-.13184c.00977-.04882.01856-.09863.02637-.15087.00683-.05225.01465-.106.02051-.16114a1.55023,1.55023,0,0,0,.00879-.16357,1.022,1.022,0,0,0-.01758-.19385.49508.49508,0,0,0-.0586-.16162.29477.29477,0,0,0-.11425-.11133.36872.36872,0,0,0-.18262-.042.46147.46147,0,0,0-.2627.07666.76489.76489,0,0,0-.19433.188,1.03408,1.03408,0,0,0-.12891.23144,1.296,1.296,0,0,0-.06445.2085l.13867.02978a1.30066,1.30066,0,0,1,.084-.22363.69328.69328,0,0,1,.09571-.14941.36567.36567,0,0,1,.09765-.082.191.191,0,0,1,.08985-.02539.12148.12148,0,0,1,.06933.01806.13558.13558,0,0,1,.04.04883.22037.22037,0,0,1,.01953.07227.80432.80432,0,0,1,.00489.08544c0,.02442,0,.04639-.001.0669s-.00293.04394-.00488.0708c-.00293.02686-.00684.05957-.01074.09863-.00586.03907-.0127.08936-.01954.15137-.00781.06152-.0166.13818-.02734.229-.01074.09131-.02246.20166-.03906.33155-.01953.17431-.03516.31836-.04688.4331-.01269.11475-.02343.21045-.03027.2876-.00781.07764-.0127.14111-.01465.19141-.00293.05078-.00391.09863-.00391.144,0,.01318.002.0376.00489.07324l.41992.00049c-.00293-.04248-.00586-.08447-.00781-.12695-.001-.04248-.002-.08887-.002-.13916a3.03435,3.03435,0,0,1,.03614-.4458,3.55916,3.55916,0,0,1,.10058-.46338,3.51458,3.51458,0,0,1,.15039-.43555A2.43714,2.43714,0,0,1,323.22656,378.796Z" transform="translate(-262.56978 -312.36633)"/><path d="M328.33887,378.50988a.861.861,0,0,0-.29981-.21289.96106.96106,0,0,0-.377-.07373,1.10712,1.10712,0,0,0-.51758.11865,1.1702,1.1702,0,0,0-.38867.32178,1.50429,1.50429,0,0,0-.24512.47412,1.95412,1.95412,0,0,0-.08594.5752,1.6211,1.6211,0,0,0,.05665.437.99937.99937,0,0,0,.1748.35693.84821.84821,0,0,0,.29883.23975.97225.97225,0,0,0,.42773.08838,1.07067,1.07067,0,0,0,.51856-.12256,1.16564,1.16564,0,0,0,.38574-.33155,1.4922,1.4922,0,0,0,.24023-.48291,2.00387,2.00387,0,0,0,.083-.57714,1.40766,1.40766,0,0,0-.07129-.46778A.97417.97417,0,0,0,328.33887,378.50988Zm-.18946,1.21826a1.90558,1.90558,0,0,1-.05664.26465,1.44575,1.44575,0,0,1-.09668.249.90506.90506,0,0,1-.13964.207.65063.65063,0,0,1-.18457.14257.4939.4939,0,0,1-.23243.05323.42213.42213,0,0,1-.19922-.04541.4891.4891,0,0,1-.15136-.12354.71047.71047,0,0,1-.10742-.18066,1.4487,1.4487,0,0,1-.06836-.21875,1.58458,1.58458,0,0,1-.03809-.23828,2.47626,2.47626,0,0,1,.03711-.7002,1.39687,1.39687,0,0,1,.13965-.37988.74139.74139,0,0,1,.22265-.25537.50518.50518,0,0,1,.30176-.09375.48842.48842,0,0,1,.21.04248.49567.49567,0,0,1,.15625.11767.68188.68188,0,0,1,.10938.17237,1.154,1.154,0,0,1,.07129.21,1.97355,1.97355,0,0,1,.03711.23242c.00683.07959.01074.15771.01074.23437A2.74922,2.74922,0,0,1,328.14941,379.72814Z" transform="translate(-262.56978 -312.36633)"/><path d="M331.63086,380.3341a.7241.7241,0,0,1-.0957.1499.3211.3211,0,0,1-.09766.08252.18549.18549,0,0,1-.08789.02588.11438.11438,0,0,1-.07031-.01953.13287.13287,0,0,1-.041-.05127.21261.21261,0,0,1-.01855-.07471.88543.88543,0,0,1-.00391-.08935,2.04957,2.04957,0,0,1,.02441-.27295c.01563-.11084.03223-.23242.05079-.36475q.02929-.19921.05273-.4165a4.239,4.239,0,0,0,.02441-.42481,1.0234,1.0234,0,0,0-.02929-.24756.59537.59537,0,0,0-.09375-.208.43327.43327,0,0,0-.167-.14209.57385.57385,0,0,0-.25391-.05274.6371.6371,0,0,0-.24317.04981.76314.76314,0,0,0-.24511.17773,1.69564,1.69564,0,0,0-.24707.34912,3.885,3.885,0,0,0-.25293.562h-.01465c.00684-.03906.01465-.083.02441-.13183s.01856-.1001.02539-.15381c.00782-.05371.01465-.10889.02051-.166a1.6249,1.6249,0,0,0,.00879-.166,1.17324,1.17324,0,0,0-.0166-.19873.52559.52559,0,0,0-.05859-.166.30807.30807,0,0,0-.11426-.11523.35484.35484,0,0,0-.1836-.043.45791.45791,0,0,0-.26171.07617.77907.77907,0,0,0-.19532.18848,1.01607,1.01607,0,0,0-.12793.231,1.13859,1.13859,0,0,0-.06445.209l.13867.0293a1.22214,1.22214,0,0,1,.083-.22315.73278.73278,0,0,1,.09668-.14941.354.354,0,0,1,.09766-.08252.181.181,0,0,1,.08886-.0249.11934.11934,0,0,1,.06934.01806.12872.12872,0,0,1,.041.04883.24746.24746,0,0,1,.01954.07227.809.809,0,0,1,.0039.08545c0,.02441,0,.04638-.001.06689l-.00293.0708c-.002.02686-.00586.05957-.00977.09863-.00586.03907-.01172.08936-.01855.15137-.00684.06152-.01465.13818-.0254.229-.01074.09131-.02343.20166-.03906.33155-.01953.17578-.03613.32031-.04883.43457-.01269.11328-.02441.20849-.03125.28564-.00781.07764-.01269.14112-.01562.19141-.00391.05078-.00586.09863-.00586.144q0,.01978.00586.07324l.41992.001c-.00391-.04248-.00586-.08447-.00781-.12695s-.002-.08887-.002-.13916a2.60987,2.60987,0,0,1,.042-.4458,3.62857,3.62857,0,0,1,.11328-.46387,3.54886,3.54886,0,0,1,.166-.43506,2.38528,2.38528,0,0,1,.20606-.36523,1.18817,1.18817,0,0,1,.22851-.25049.37421.37421,0,0,1,.2334-.09375.20248.20248,0,0,1,.11817.03174.22362.22362,0,0,1,.07031.07812.33127.33127,0,0,1,.03613.09912.60005.60005,0,0,1,.00977.09668,3.77337,3.77337,0,0,1-.02637.4209q-.02343.22119-.05273.43408l-.05274.4043a2.60147,2.60147,0,0,0-.02539.32959,1.00052,1.00052,0,0,0,.01856.20654.36981.36981,0,0,0,.06445.15137.28677.28677,0,0,0,.124.09424.537.537,0,0,0,.19824.03174.4574.4574,0,0,0,.2627-.07618.7718.7718,0,0,0,.19336-.18652.99986.99986,0,0,0,.12891-.231,1.29234,1.29234,0,0,0,.06543-.208l-.14161-.03223A1.22526,1.22526,0,0,1,331.63086,380.3341Z" transform="translate(-262.56978 -312.36633)"/><path d="M333.75684,380.26183a1.06792,1.06792,0,0,1-.20411.18555.79734.79734,0,0,1-.21582.10791.7173.7173,0,0,1-.21972.03516.46628.46628,0,0,1-.43262-.23487,1.46236,1.46236,0,0,1-.13769-.70361c.10449-.01123.21289-.02734.32714-.04687a3.0573,3.0573,0,0,0,.333-.07911,2.57849,2.57849,0,0,0,.31152-.11425,1.23992,1.23992,0,0,0,.25977-.15332.70031.70031,0,0,0,.17773-.19873.46379.46379,0,0,0,.06739-.25.56085.56085,0,0,0-.05957-.27149.51319.51319,0,0,0-.15625-.17676.66243.66243,0,0,0-.22364-.09814,1.15344,1.15344,0,0,0-.63281.02832,1.06934,1.06934,0,0,0-.30566.16406,1.09273,1.09273,0,0,0-.23535.25,1.60432,1.60432,0,0,0-.16895.31445,1.78534,1.78534,0,0,0-.09961.35889,2.17308,2.17308,0,0,0-.03418.38184,1.69478,1.69478,0,0,0,.05469.44385.92044.92044,0,0,0,.16894.34033.77843.77843,0,0,0,.28809.22021.99442.99442,0,0,0,.41309.07862,1.00624,1.00624,0,0,0,.59863-.18311,1.63332,1.63332,0,0,0,.4707-.57666l-.16308-.09326A1.3787,1.3787,0,0,1,333.75684,380.26183Zm-1.14258-1.18359a1.36042,1.36042,0,0,1,.13086-.34277.75172.75172,0,0,1,.21-.2417.49731.49731,0,0,1,.29883-.09082.386.386,0,0,1,.1582.02978.30321.30321,0,0,1,.11133.08057.33726.33726,0,0,1,.06543.12109.49206.49206,0,0,1,.02246.14991.40845.40845,0,0,1-.09278.26025.85086.85086,0,0,1-.24023.20166,1.55081,1.55081,0,0,1-.33887.14258,2.56938,2.56938,0,0,1-.38672.08252A2.405,2.405,0,0,1,332.61426,379.07824Z" transform="translate(-262.56978 -312.36633)"/><path d="M336.543,378.44006a.40942.40942,0,0,0-.12207-.147.31625.31625,0,0,0-.19141-.05615.26586.26586,0,0,0-.08691.01416.20683.20683,0,0,0-.126.11084.20757.20757,0,0,0-.02051.09424.2004.2004,0,0,0,.05469.13818.19163.19163,0,0,0,.14551.06006.21352.21352,0,0,0,.12207-.03174.425.425,0,0,1,.05273.13526.91265.91265,0,0,1,.02344.21875,2.069,2.069,0,0,1-.05176.43066,3.52077,3.52077,0,0,1-.13183.45069,4.4168,4.4168,0,0,1-.1836.44043c-.06836.14355-.13769.27685-.208.39843h-.00977c-.00977-.104-.01953-.19531-.03125-.27343s-.02637-.15723-.043-.23682c-.02734-.11572-.05469-.23389-.082-.35547-.02637-.12109-.05371-.24121-.084-.35986-.03028-.11914-.0625-.23584-.09571-.34961s-.06738-.22119-.10449-.32227c-.02344-.06006-.0498-.12353-.08008-.19043a.829.829,0,0,0-.11133-.18359.52627.52627,0,0,0-.15625-.13672.42373.42373,0,0,0-.21777-.0542.37173.37173,0,0,0-.22363.06445.46419.46419,0,0,0-.14258.168.78174.78174,0,0,0-.07422.23242,1.55525,1.55525,0,0,0-.0166.39893l.16211-.01709a1.04387,1.04387,0,0,1-.00684-.13428.63567.63567,0,0,1,.05274-.28174.156.156,0,0,1,.13769-.106.13147.13147,0,0,1,.07813.02441.30634.30634,0,0,1,.06347.0625.40606.40606,0,0,1,.05079.083.73543.73543,0,0,1,.03906.08887c.07031.16992.13476.35107.19629.54492q.09081.29077.167.59472c.05176.20313.09668.40674.13769.61182q.06006.30762.10352.5957c-.01758.0293-.042.06788-.07227.11573s-.06445.09863-.10351.15185q-.06006.08057-.12891.1626a1.44052,1.44052,0,0,1-.14453.14844.75754.75754,0,0,1-.15137.10644.30781.30781,0,0,1-.14746.04151.28314.28314,0,0,1-.12695-.03125v-.01953a.25583.25583,0,0,0-.05664-.17872.1995.1995,0,0,0-.15625-.06152.189.189,0,0,0-.07031.01465.21791.21791,0,0,0-.06739.04346.22166.22166,0,0,0-.0498.07226.23845.23845,0,0,0-.01953.09864.27659.27659,0,0,0,.10254.21923.4531.4531,0,0,0,.27734.09619.7835.7835,0,0,0,.31836-.06884,1.18329,1.18329,0,0,0,.32324-.22119,2.73451,2.73451,0,0,0,.34082-.39307,5.75108,5.75108,0,0,0,.36524-.584q.12744-.23219.24707-.4795a5.19649,5.19649,0,0,0,.21387-.50293,3.939,3.939,0,0,0,.14941-.5122,2.45925,2.45925,0,0,0,.05762-.50635,1.41683,1.41683,0,0,0-.01953-.23194A.71267.71267,0,0,0,336.543,378.44006Z" transform="translate(-262.56978 -312.36633)"/><path d="M337.51172,380.22863a.2721.2721,0,0,0-.11817.02783.33553.33553,0,0,0-.09863.0752.39439.39439,0,0,0-.06836.11133.37191.37191,0,0,0-.02539.13672.28833.28833,0,0,0,.02246.11718.26816.26816,0,0,0,.0586.09278.27778.27778,0,0,0,.085.0625.23686.23686,0,0,0,.10351.02343.29268.29268,0,0,0,.11524-.02441.32857.32857,0,0,0,.09863-.06836.36263.36263,0,0,0,.10254-.22656.33389.33389,0,0,0-.07715-.23975A.284.284,0,0,0,337.51172,380.22863Z" transform="translate(-262.56978 -312.36633)"/><path d="M337.876,377.30431a.21267.21267,0,0,0-.08008-.06591.27707.27707,0,0,0-.11817-.02491.266.266,0,0,0-.12988.03077.29064.29064,0,0,0-.09375.08007.35486.35486,0,0,0-.05762.11329.44075.44075,0,0,0-.01953.127l.07227,2.08056h.18262q.30175-2.08885.30175-2.09912a.18452.18452,0,0,0,.002-.03662.41343.41343,0,0,0-.01367-.10986A.28762.28762,0,0,0,337.876,377.30431Z" transform="translate(-262.56978 -312.36633)"/><path d="M273.86572,384.21838a.31394.31394,0,0,0,.085-.02735.78825.78825,0,0,0,.08106-.04736l.40527-.2666-.12988-.19776-.40527.26661c-.02637.01953-.05176.03906-.07422.05908a.33578.33578,0,0,0-.0586.06885.3583.3583,0,0,0,.01856-.09034.78442.78442,0,0,0,.001-.09619l-.02832-.48193-.2373.01367.02832.48682a.51854.51854,0,0,0,.01465.09668.38583.38583,0,0,0,.03418.08838.35214.35214,0,0,0-.06836-.06641.61882.61882,0,0,0-.084-.05225l-.43554-.22314-.10645.21191.43653.22266a.42441.42441,0,0,0,.18164.05469.34258.34258,0,0,0-.08887.02685.66141.66141,0,0,0-.085.04541l-.40528.26953.12989.19776.40429-.269a.64517.64517,0,0,0,.07422-.05712.38343.38343,0,0,0,.05957-.06592.26051.26051,0,0,0-.02148.08789.59035.59035,0,0,0-.001.09326l.02735.48193.23828-.01367-.02832-.48437a.4749.4749,0,0,0-.04883-.18457.292.292,0,0,0,.06933.06494.84992.84992,0,0,0,.085.05127l.43652.22265.10547-.21142-.43653-.22315A.41373.41373,0,0,0,273.86572,384.21838Z" transform="translate(-262.56978 -312.36633)"/><path d="M276.47217,384.52258l-.71094.041-.01269-.21435a.87758.87758,0,0,1,.01953-.26514.42815.42815,0,0,1,.08984-.17725.36832.36832,0,0,1,.15234-.10107.71442.71442,0,0,1,.20313-.03955c.03125-.002.06152-.00391.08887-.00635a.30573.30573,0,0,0,.06836-.01269.11193.11193,0,0,0,.04492-.02637.06779.06779,0,0,0,.01758-.05029l-.00489-.24512a.96852.96852,0,0,0-.31933-.03125,1.0554,1.0554,0,0,0-.36524.08252.75535.75535,0,0,0-.26855.1958.82749.82749,0,0,0-.16211.29834,1.15843,1.15843,0,0,0-.04.39111l.01367.22949-.39355.02295.01172.20215a.10012.10012,0,0,0,.041.08154.2121.2121,0,0,0,.0957.03565l.26563.01709.125,2.13623.48926-.02832-.124-2.14111.69532-.04053Z" transform="translate(-262.56978 -312.36633)"/><path d="M278.78857,384.66174a1.06,1.06,0,0,0-.40039-.23975,1.45658,1.45658,0,0,0-1.01269.05908,1.07236,1.07236,0,0,0-.3711.28467,1.20289,1.20289,0,0,0-.22168.42578,1.73986,1.73986,0,0,0,.06348,1.082,1.1722,1.1722,0,0,0,.26953.39746,1.08593,1.08593,0,0,0,.40039.23877,1.457,1.457,0,0,0,1.01368-.05908,1.0562,1.0562,0,0,0,.36914-.28369,1.1387,1.1387,0,0,0,.21972-.42578,1.63593,1.63593,0,0,0,.05371-.54639,1.61263,1.61263,0,0,0-.11718-.53564A1.1616,1.1616,0,0,0,278.78857,384.66174Zm-.25878,1.65673a.62.62,0,0,1-.52247.27344.63282.63282,0,0,1-.55664-.21094,1.39565,1.39565,0,0,1-.0791-1.36376.63036.63036,0,0,1,.52832-.27442.6195.6195,0,0,1,.55078.21192,1.396,1.396,0,0,1,.07911,1.36376Z" transform="translate(-262.56978 -312.36633)"/><path d="M280.80518,384.18273a.62663.62663,0,0,0-.40625.16651,1.14778,1.14778,0,0,0-.27149.4082l-.05078-.35449a.18561.18561,0,0,0-.04687-.09912.15936.15936,0,0,0-.11036-.02246l-.28027.0166.14746,2.53564.48731-.02832-.09278-1.58691a1.69766,1.69766,0,0,1,.08985-.22412.67012.67012,0,0,1,.11718-.16993.45113.45113,0,0,1,.15528-.10937.58164.58164,0,0,1,.20508-.04541.72708.72708,0,0,1,.15039.00488.588.588,0,0,0,.10546.00733.0788.0788,0,0,0,.07813-.07227l.01074-.36865a.40642.40642,0,0,0-.13086-.04883A.63989.63989,0,0,0,280.80518,384.18273Z" transform="translate(-262.56978 -312.36633)"/><path d="M284.24658,384.0299l.10742,1.85693a1.179,1.179,0,0,1-.29.26123.71522.71522,0,0,1-.34375.10889.46788.46788,0,0,1-.39062-.1289.6498.6498,0,0,1-.14941-.41553l-.09375-1.61524-.48926.02832.09375,1.61524a1.29582,1.29582,0,0,0,.07812.38867.83474.83474,0,0,0,.17969.29346.72933.72933,0,0,0,.27734.18066.9083.9083,0,0,0,.37207.04834,1.03523,1.03523,0,0,0,.24512-.04346,1.05648,1.05648,0,0,0,.21192-.09179,1.072,1.072,0,0,0,.18554-.13477,1.80051,1.80051,0,0,0,.16309-.16992l.0498.25244a.12455.12455,0,0,0,.13477.08936l.292-.01661-.14746-2.53564Z" transform="translate(-262.56978 -312.36633)"/><path d="M288.48682,384.31115a.85406.85406,0,0,0-.19239-.29394.79148.79148,0,0,0-.293-.18213.97829.97829,0,0,0-.38867-.04883,1.39479,1.39479,0,0,0-.98242.46045l.09668.15185a.22723.22723,0,0,0,.0625.06153.13392.13392,0,0,0,.08691.02246.20886.20886,0,0,0,.11915-.04688c.03808-.02881.08105-.061.13183-.09668a1.054,1.054,0,0,1,.18262-.09912.78477.78477,0,0,1,.26562-.05566.4466.4466,0,0,1,.36719.12109.64641.64641,0,0,1,.14746.42236l.01074.18457a3.58849,3.58849,0,0,0-.72265.12208,1.71572,1.71572,0,0,0-.46875.208.74057.74057,0,0,0-.25.26367.56194.56194,0,0,0-.06446.293.726.726,0,0,0,.07422.29395.589.589,0,0,0,.165.20312.63789.63789,0,0,0,.23633.11231.92641.92641,0,0,0,.2832.0249,1.25182,1.25182,0,0,0,.25782-.04,1.02574,1.02574,0,0,0,.21582-.08594,1.2176,1.2176,0,0,0,.19238-.12939,2.13083,2.13083,0,0,0,.18262-.16943l.06543.21923a.16491.16491,0,0,0,.06445.08448.20542.20542,0,0,0,.11133.01758l.21777-.0127-.09473-1.61719A1.26312,1.26312,0,0,0,288.48682,384.31115Zm-.47754,1.55273a.85833.85833,0,0,1-.15137.11084.78828.78828,0,0,1-.17187.07325.89875.89875,0,0,1-.20508.03466.59367.59367,0,0,1-.15821-.01074.32574.32574,0,0,1-.12988-.05615.2877.2877,0,0,1-.09082-.10742.38249.38249,0,0,1-.041-.16162.30769.30769,0,0,1,.04687-.18457.452.452,0,0,1,.17871-.15137,1.36067,1.36067,0,0,1,.332-.11572,3.59125,3.59125,0,0,1,.501-.07569l.0293.49952A1.59193,1.59193,0,0,1,288.00928,385.86388Z" transform="translate(-262.56978 -312.36633)"/><path d="M291.28076,384.15148a.87054.87054,0,0,0-.18066-.29443.733.733,0,0,0-.27735-.17969.892.892,0,0,0-.37207-.04883,1.02844,1.02844,0,0,0-.24609.043,1.04387,1.04387,0,0,0-.21289.09278,1.13267,1.13267,0,0,0-.18359.13427,1.80558,1.80558,0,0,0-.16309.17041l-.05176-.25244a.12019.12019,0,0,0-.13379-.09033l-.292.01709.14746,2.53564.48731-.02832-.1084-1.85888a1.14472,1.14472,0,0,1,.28906-.2583.72126.72126,0,0,1,.3457-.10938.46775.46775,0,0,1,.39063.12842.65119.65119,0,0,1,.14941.416l.09375,1.61475.48926-.02881-.09375-1.61474A1.3202,1.3202,0,0,0,291.28076,384.15148Z" transform="translate(-262.56978 -312.36633)"/><path d="M293.52881,382.33752l.08105,1.38769a.94589.94589,0,0,0-.30078-.19531.92321.92321,0,0,0-.39551-.05225.99329.99329,0,0,0-.77832.42627,1.22907,1.22907,0,0,0-.19336.43213,1.787,1.787,0,0,0-.04394.52783,2.05292,2.05292,0,0,0,.09961.55274,1.164,1.164,0,0,0,.21582.394.82742.82742,0,0,0,.31445.23194.9061.9061,0,0,0,.39844.06152.96568.96568,0,0,0,.46875-.14356,1.367,1.367,0,0,0,.35059-.33007l.05859.28955a.11921.11921,0,0,0,.13281.08984l.29492-.01709-.21386-3.68359Zm-.10156,3.249a.68915.68915,0,0,1-.36133.1167.63592.63592,0,0,1-.2627-.03662.47827.47827,0,0,1-.20312-.14893.79573.79573,0,0,1-.13574-.272,1.80231,1.80231,0,0,1-.06543-.41064,1.14813,1.14813,0,0,1,.14257-.71338.61609.61609,0,0,1,.50391-.271.74805.74805,0,0,1,.31445.04443.69084.69084,0,0,1,.27149.20459l.07031,1.20264A1.12423,1.12423,0,0,1,293.42725,385.58654Z" transform="translate(-262.56978 -312.36633)"/><rect x="296.16849" y="382.272" width="0.53509" height="3.58953" transform="translate(-284.32774 -294.5429) rotate(-3.32207)"/></svg>