<?xml version="1.0" encoding="UTF-8"?>
<!DOCTYPE svg PUBLIC "-//W3C//DTD SVG Tiny 1.1//EN" "http://www.w3.org/Graphics/SVG/1.1/DTD/svg11-tiny.dtd">
<svg version="1.1"
  baseProfile="tiny"
  xmlns="http://www.w3.org/2000/svg"
  xmlns:xlink="http://www.w3.org/1999/xlink"
  viewBox="0 0 300 200"
  width="300"
  height="200"
  preserveAspectRatio="xMidYMid">

  <text x="125" y="20" font-family="Times New Roman" font-style="italic" font-size="20px">bridi</text>
  <text x="170" y="20" font-family="Times New Roman" font-style="italic" font-size="14">(predicate)</text>

  <polyline fill="none" stroke="black" stroke-width="1" points="
    144,25 144,50 15,50 15,62 15,50 273,50 273,62 273,50 144,50 144,25
    " />

  <text x="20" y="75" font-family="Arial">John</text>
  <text x="100" y="75" font-family="Arial">is the father of</text>
  <text x="235" y="75" font-family="Arial">Sam</text>

  <polyline fill="none" stroke="black" stroke-width="1" points="
    35,103 35,83 15,83 15,72 15,83 58,83 58,72 58,83 35,83 35,103
    " />

  <polyline fill="none" stroke="black" stroke-width="1" points="
    145,103 145,83 95,83 95,72 95,83 201,83 201,72 201,83 145,83 145,103
    " />

  <polyline fill="none" stroke="black" stroke-width="1" points="
    255,103 255,83 232,83 232,72 232,83 273,83 273,72 273,83 255,83 255,103
    " />

  <text x="15" y="120" font-family="Times New Roman" font-style="italic" font-size="20px">sumti</text>
  <text x="121" y="120" font-family="Times New Roman" font-style="italic" font-size="20px">selbri</text>
  <text x="231" y="120" font-family="Times New Roman" font-style="italic" font-size="20px">sumti</text>

  <text x="5" y="135" font-family="Times New Roman" font-style="italic" font-size="14px">(argument)</text>
  <text x="220" y="135" font-family="Times New Roman" font-style="italic" font-size="14px">(argument)</text>

</svg>

