<svg id="Layer_2" data-name="Layer 2" xmlns="http://www.w3.org/2000/svg" viewBox="0 0 256.77 262.63"><title>chapter-tour</title><path d="M137.59,324.1a6.3,6.3,0,0,1,1.76,1.14,4.43,4.43,0,0,1,1,1.34c.1.22.16.48.31.92a2.45,2.45,0,0,0,.87,1.22,4.07,4.07,0,0,0,2.38.53,1.11,1.11,0,0,0,.83-.67,1.66,1.66,0,0,1,.49-.73,5.86,5.86,0,0,1,.71-.31,2.88,2.88,0,0,0,1.1-.8,2.28,2.28,0,0,0,.35-.62l.18-.43c.13-.28.27-.56.42-.85a3.76,3.76,0,0,1,1.22-1.5,1.59,1.59,0,0,0-1.13.14,4.41,4.41,0,0,0-1,.61,5.5,5.5,0,0,0-.8.8c-.12.14-.23.33-.33.46a2.22,2.22,0,0,1-.23.22,5.14,5.14,0,0,1-.59.36,1.58,1.58,0,0,0-.28.15,2.82,2.82,0,0,0,.47-1.18,3.46,3.46,0,0,0,.1-.77,3.78,3.78,0,0,0-.06-.82,4,4,0,0,0-.61-1.38,5.35,5.35,0,0,0-2-1.75,7.33,7.33,0,0,1,1.11,2.28,3,3,0,0,1,0,1,1.4,1.4,0,0,1-.06.45,3.11,3.11,0,0,1-.16.46,4.41,4.41,0,0,1-.46.84,3.74,3.74,0,0,0-.74,1.61s-.27-.56-.48-1a3.68,3.68,0,0,0-2-1.81A3,3,0,0,0,137.59,324.1Z" transform="translate(-130.43 -122.9)"/><path d="M172,323.84a3.25,3.25,0,0,0-2.7.39,7.34,7.34,0,0,1,2.08,1,5,5,0,0,1,1.3,1.35,8.44,8.44,0,0,1,.46,1,2.7,2.7,0,0,0,1.11,1.23,4.56,4.56,0,0,0,2.68.29,1.2,1.2,0,0,0,.83-.84,1.87,1.87,0,0,1,.45-.87A7.47,7.47,0,0,1,179,327a3.15,3.15,0,0,0,1.1-1,2.69,2.69,0,0,0,.32-.72l.14-.5c.1-.32.23-.65.35-1a4.27,4.27,0,0,1,1.15-1.81,1.78,1.78,0,0,0-1.22.3,5.06,5.06,0,0,0-1,.79,6.3,6.3,0,0,0-.78,1c-.11.16-.21.39-.31.54a2.3,2.3,0,0,1-.22.27,4,4,0,0,1-.61.47,2.23,2.23,0,0,0-.28.2,3.26,3.26,0,0,0,.37-1.36,4.13,4.13,0,0,0,0-.86,4,4,0,0,0-.17-.89A4,4,0,0,0,177,321a5.93,5.93,0,0,0-2.46-1.68,8.27,8.27,0,0,1,1.51,2.37,3.55,3.55,0,0,1,.17,1.12,1.42,1.42,0,0,1,0,.5,4.13,4.13,0,0,1-.11.53,4.82,4.82,0,0,1-.4,1,4,4,0,0,0-.61,1.86l-.65-1.05A4,4,0,0,0,172,323.84Z" transform="translate(-130.43 -122.9)"/><path d="M205.21,341.13c-.05.16-.11.31-.16.45a3.88,3.88,0,0,1-.47.82,3.61,3.61,0,0,0-.75,1.56s-.25-.55-.45-1a3.63,3.63,0,0,0-1.9-1.81,2.91,2.91,0,0,0-2.42,0,6.6,6.6,0,0,1,1.71,1.14,4.59,4.59,0,0,1,1,1.33c.1.22.15.48.29.91a2.47,2.47,0,0,0,.84,1.21,4,4,0,0,0,2.32.55,1.06,1.06,0,0,0,.82-.64,1.69,1.69,0,0,1,.49-.71,5,5,0,0,1,.71-.29,2.79,2.79,0,0,0,1.08-.77,2.51,2.51,0,0,0,.36-.6l.18-.42c.12-.27.27-.54.42-.82a3.8,3.8,0,0,1,1.22-1.46,1.54,1.54,0,0,0-1.11.13,4.09,4.09,0,0,0-1,.58,5.27,5.27,0,0,0-.8.77c-.12.14-.23.32-.33.45a2.19,2.19,0,0,1-.23.21,4.47,4.47,0,0,1-.58.34,1.41,1.41,0,0,0-.27.14,2.69,2.69,0,0,0,.47-1.15,2.84,2.84,0,0,0,.11-.75,3.39,3.39,0,0,0-.62-2.16,5.23,5.23,0,0,0-2-1.75,7.38,7.38,0,0,1,1.05,2.25,3.16,3.16,0,0,1,0,1A1.68,1.68,0,0,1,205.21,341.13Z" transform="translate(-130.43 -122.9)"/><path d="M233.28,341.47a5.51,5.51,0,0,0-1.17.77,6.2,6.2,0,0,0-1,1,6.42,6.42,0,0,0-.39.57,2.3,2.3,0,0,1-.28.27,4.38,4.38,0,0,1-.71.46,2.44,2.44,0,0,0-.33.19,3.49,3.49,0,0,0,.53-1.46,3.89,3.89,0,0,0,.1-1,4.3,4.3,0,0,0-.1-1,4.6,4.6,0,0,0-.78-1.67,6.74,6.74,0,0,0-2.55-2.09,9.41,9.41,0,0,1,1.43,2.77,3.86,3.86,0,0,1,.07,1.25,1.75,1.75,0,0,1-.06.55,4.24,4.24,0,0,1-.18.57,5,5,0,0,1-.54,1,4.34,4.34,0,0,0-.85,2s-.35-.68-.62-1.22a4.45,4.45,0,0,0-2.48-2.16,3.57,3.57,0,0,0-3,.17,7.94,7.94,0,0,1,2.2,1.34,5.48,5.48,0,0,1,1.3,1.61,10.88,10.88,0,0,1,.41,1.12,3.06,3.06,0,0,0,1.11,1.48,5,5,0,0,0,2.93.57,1.33,1.33,0,0,0,1-.84,2,2,0,0,1,.58-.92,7.42,7.42,0,0,1,.86-.4,3.49,3.49,0,0,0,1.32-1,3.07,3.07,0,0,0,.42-.77l.2-.54c.15-.35.32-.69.49-1.05a4.64,4.64,0,0,1,1.45-1.88A2,2,0,0,0,233.28,341.47Z" transform="translate(-130.43 -122.9)"/><path d="M249.69,354.56l.11-.53c.09-.35.2-.7.32-1.06a4.43,4.43,0,0,1,1.1-2,1.86,1.86,0,0,0-1.27.4,4.73,4.73,0,0,0-1,.89,6.06,6.06,0,0,0-.76,1.09c-.11.18-.2.42-.29.59a2.94,2.94,0,0,1-.22.3,4.85,4.85,0,0,1-.61.53,1.59,1.59,0,0,0-.29.23,3.28,3.28,0,0,0,.3-1.45,3.89,3.89,0,0,0,0-.91,4.45,4.45,0,0,0-.23-.94,4.6,4.6,0,0,0-1-1.46,6.43,6.43,0,0,0-2.7-1.61,9.08,9.08,0,0,1,1.73,2.41,3.73,3.73,0,0,1,.25,1.17,1.8,1.8,0,0,1,0,.52,4.85,4.85,0,0,1-.09.57,4.64,4.64,0,0,1-.37,1.06,4.24,4.24,0,0,0-.52,2s-.42-.6-.75-1.08a4.33,4.33,0,0,0-2.64-1.69,3.46,3.46,0,0,0-2.83.59,7.5,7.5,0,0,1,2.26,1,5.3,5.3,0,0,1,1.46,1.33,10.8,10.8,0,0,1,.54,1,3,3,0,0,0,1.26,1.24,4.77,4.77,0,0,0,2.84.13,1.26,1.26,0,0,0,.82-.94,2,2,0,0,1,.42-.94,7.17,7.17,0,0,1,.76-.5,3.35,3.35,0,0,0,1.1-1.14A3.16,3.16,0,0,0,249.69,354.56Z" transform="translate(-130.43 -122.9)"/><path d="M262,369.3a5.4,5.4,0,0,0-1.08.88,6.58,6.58,0,0,0-.85,1.1c-.12.19-.23.44-.33.61a2,2,0,0,1-.25.3,4.17,4.17,0,0,1-.66.52,1.62,1.62,0,0,0-.31.23,3.52,3.52,0,0,0,.39-1.51,4.31,4.31,0,0,0,0-.95,4.16,4.16,0,0,0-.2-1,4.38,4.38,0,0,0-.94-1.57,6.54,6.54,0,0,0-2.74-1.82,9.09,9.09,0,0,1,1.7,2.6,4.37,4.37,0,0,1,.2,1.23,2,2,0,0,1,0,.55,5.13,5.13,0,0,1-.12.59,5.18,5.18,0,0,1-.44,1.09,4.35,4.35,0,0,0-.64,2.06s-.42-.65-.74-1.15a4.45,4.45,0,0,0-2.67-1.9,3.6,3.6,0,0,0-3,.47,8,8,0,0,1,2.31,1.11,5.48,5.48,0,0,1,1.46,1.47,11,11,0,0,1,.52,1.07,3.1,3.1,0,0,0,1.24,1.35,5,5,0,0,0,3,.28,1.35,1.35,0,0,0,.9-.94,2,2,0,0,1,.49-1,7,7,0,0,1,.81-.49,3.42,3.42,0,0,0,1.2-1.13,2.69,2.69,0,0,0,.34-.81l.15-.54c.11-.36.25-.73.38-1.09a4.68,4.68,0,0,1,1.25-2A1.94,1.94,0,0,0,262,369.3Z" transform="translate(-130.43 -122.9)"/><path d="M231.7,365.08a4.7,4.7,0,0,0-1.07.67,5.76,5.76,0,0,0-.89.89c-.13.16-.26.36-.37.51a2.71,2.71,0,0,1-.25.24,3.67,3.67,0,0,1-.66.39,2.59,2.59,0,0,0-.3.17,3,3,0,0,0,.52-1.3,3.69,3.69,0,0,0,.11-.86,4,4,0,0,0-.07-.9,4.05,4.05,0,0,0-.67-1.52,6,6,0,0,0-2.25-1.95A8.56,8.56,0,0,1,227,364a3.38,3.38,0,0,1,0,1.13,1.61,1.61,0,0,1-.07.49,3.52,3.52,0,0,1-.18.52,4.57,4.57,0,0,1-.51.93,4,4,0,0,0-.81,1.78s-.3-.63-.53-1.12a4.05,4.05,0,0,0-2.19-2,3.29,3.29,0,0,0-2.73.08A7.22,7.22,0,0,1,222,367a5,5,0,0,1,1.15,1.48c.11.25.18.54.34,1a2.79,2.79,0,0,0,1,1.36,4.56,4.56,0,0,0,2.63.58,1.18,1.18,0,0,0,.91-.74,1.89,1.89,0,0,1,.55-.81,6.09,6.09,0,0,1,.79-.34,3.11,3.11,0,0,0,1.2-.89,2.64,2.64,0,0,0,.4-.68l.2-.48c.13-.31.3-.62.46-.93a4.19,4.19,0,0,1,1.35-1.67A1.76,1.76,0,0,0,231.7,365.08Z" transform="translate(-130.43 -122.9)"/><path d="M208.8,374.63a5.55,5.55,0,0,0-1.36.44,6.62,6.62,0,0,0-1.22.74c-.19.14-.39.33-.55.46a1.76,1.76,0,0,1-.34.2,4,4,0,0,1-.83.25,2,2,0,0,0-.37.11,3.59,3.59,0,0,0,.92-1.3,4.61,4.61,0,0,0,.35-.91,4.34,4.34,0,0,0-.15-2.87,6.93,6.93,0,0,0-2-2.75,9.54,9.54,0,0,1,.67,3.12,4.19,4.19,0,0,1-.26,1.25,1.78,1.78,0,0,1-.21.52,4.39,4.39,0,0,1-.33.53,5.46,5.46,0,0,1-.82.88c-.34.32-1.25,1.09-1.38,1.74,0-.06-.16-.77-.28-1.38a4.56,4.56,0,0,0-1.86-2.79,3.71,3.71,0,0,0-3-.65,8.22,8.22,0,0,1,1.81,1.92,5.82,5.82,0,0,1,.86,1.94c.06.3,0,.64.1,1.21a3.1,3.1,0,0,0,.7,1.75A5.08,5.08,0,0,0,202,380.4a1.38,1.38,0,0,0,1.21-.56,2.06,2.06,0,0,1,.82-.75,7.55,7.55,0,0,1,1-.17,3.58,3.58,0,0,0,1.57-.64,3.16,3.16,0,0,0,.62-.65l.35-.47c.23-.3.49-.6.76-.9a4.67,4.67,0,0,1,1.94-1.47A2,2,0,0,0,208.8,374.63Z" transform="translate(-130.43 -122.9)"/><path d="M173.34,371.16a5,5,0,0,0-1,.82,5.83,5.83,0,0,0-.75,1c-.1.17-.2.4-.29.55a1.7,1.7,0,0,1-.21.28,4,4,0,0,1-.59.49,2.93,2.93,0,0,0-.27.21,3,3,0,0,0,.31-1.36,3.6,3.6,0,0,0,0-.87,3.87,3.87,0,0,0-.2-.88,4.17,4.17,0,0,0-.9-1.4,5.91,5.91,0,0,0-2.52-1.58,8.39,8.39,0,0,1,1.6,2.31,3.61,3.61,0,0,1,.21,1.11,1.67,1.67,0,0,1,0,.5c0,.19-.06.37-.09.53a5.37,5.37,0,0,1-.37,1,4.06,4.06,0,0,0-.54,1.89l-.69-1a4.06,4.06,0,0,0-2.46-1.65,3.28,3.28,0,0,0-2.69.5,7.2,7.2,0,0,1,2.12.95,5.14,5.14,0,0,1,1.36,1.29c.15.23.26.5.49,1a2.74,2.74,0,0,0,1.16,1.2,4.62,4.62,0,0,0,2.69.18,1.24,1.24,0,0,0,.8-.87,1.86,1.86,0,0,1,.41-.89,5.67,5.67,0,0,1,.73-.46,3.14,3.14,0,0,0,1.06-1.06,2.74,2.74,0,0,0,.28-.73l.13-.5c.08-.33.2-.66.31-1a4.31,4.31,0,0,1,1.08-1.85A1.74,1.74,0,0,0,173.34,371.16Z" transform="translate(-130.43 -122.9)"/><path d="M146.29,371a5.64,5.64,0,0,0-.61,1.2c-.09.2-.15.45-.22.63a1.69,1.69,0,0,1-.18.33,3.76,3.76,0,0,1-.53.61,1.34,1.34,0,0,0-.25.27,3.51,3.51,0,0,0,.1-1.49,4.44,4.44,0,0,0-.17-.91,4.34,4.34,0,0,0-.36-.9,4.57,4.57,0,0,0-1.17-1.32,6.36,6.36,0,0,0-2.92-1.25,8.63,8.63,0,0,1,2.06,2.17,3.75,3.75,0,0,1,.41,1.14,1.72,1.72,0,0,1,.09.52,5.51,5.51,0,0,1,0,.58,4.94,4.94,0,0,1-.22,1.11,4.24,4.24,0,0,0-.25,2.07s-.51-.54-.9-1a4.34,4.34,0,0,0-2.87-1.33,3.52,3.52,0,0,0-2.75,1,7.54,7.54,0,0,1,2.39.65,5.22,5.22,0,0,1,1.64,1.14,8.81,8.81,0,0,1,.68.92,2.94,2.94,0,0,0,1.43,1.06,4.83,4.83,0,0,0,2.86-.25,1.31,1.31,0,0,0,.69-1.05,1.93,1.93,0,0,1,.29-1,7.05,7.05,0,0,1,.69-.61,3.16,3.16,0,0,0,.94-1.29,2.75,2.75,0,0,0,.18-.82l0-.55c0-.36.1-.73.17-1.1a4.36,4.36,0,0,1,.83-2.13,1.88,1.88,0,0,0-1.22.57A5,5,0,0,0,146.29,371Z" transform="translate(-130.43 -122.9)"/><path d="M154.44,347.79a4.7,4.7,0,0,0-1.07.67,5.76,5.76,0,0,0-.89.89c-.13.16-.26.36-.37.51a2.71,2.71,0,0,1-.25.24,4.39,4.39,0,0,1-.66.39,2.59,2.59,0,0,0-.3.17,3.07,3.07,0,0,0,.52-1.3,3.69,3.69,0,0,0,.11-.86,4.55,4.55,0,0,0-.07-.9,4.05,4.05,0,0,0-.67-1.52,6,6,0,0,0-2.25-1.95,8.56,8.56,0,0,1,1.22,2.53,3.38,3.38,0,0,1,.05,1.13,1.66,1.66,0,0,1-.07.49,3.52,3.52,0,0,1-.18.52,4.57,4.57,0,0,1-.51.93,4,4,0,0,0-.81,1.78s-.3-.63-.53-1.12a4.11,4.11,0,0,0-2.19-2,3.32,3.32,0,0,0-2.73.09,7.22,7.22,0,0,1,2,1.26,5,5,0,0,1,1.15,1.48c.11.25.18.54.34,1a2.79,2.79,0,0,0,1,1.36,4.56,4.56,0,0,0,2.63.58,1.18,1.18,0,0,0,.91-.74,1.89,1.89,0,0,1,.55-.81,6.09,6.09,0,0,1,.79-.34,3.11,3.11,0,0,0,1.2-.89,2.64,2.64,0,0,0,.4-.68l.2-.48c.13-.31.3-.62.46-.93a4.19,4.19,0,0,1,1.35-1.67A1.76,1.76,0,0,0,154.44,347.79Z" transform="translate(-130.43 -122.9)"/><path d="M142.08,300.45a3.7,3.7,0,0,0-3,1,8,8,0,0,1,2.53.75,5.86,5.86,0,0,1,1.72,1.24c.2.24.37.53.69,1a3.14,3.14,0,0,0,1.49,1.17,5.13,5.13,0,0,0,3.05-.2,1.37,1.37,0,0,0,.76-1.1,2.14,2.14,0,0,1,.34-1.06,7.94,7.94,0,0,1,.75-.62,3.62,3.62,0,0,0,1-1.35,3.15,3.15,0,0,0,.21-.87l.06-.58c.05-.39.13-.77.21-1.17a4.67,4.67,0,0,1,.94-2.24,1.94,1.94,0,0,0-1.31.57,5.07,5.07,0,0,0-.95,1.07,6.62,6.62,0,0,0-.69,1.25c-.09.21-.16.48-.24.67a1.62,1.62,0,0,1-.2.35,4.7,4.7,0,0,1-.58.63,2,2,0,0,0-.28.29,3.64,3.64,0,0,0,.15-1.59,4.37,4.37,0,0,0-.16-1,4.29,4.29,0,0,0-.36-1,4.66,4.66,0,0,0-1.21-1.44,6.74,6.74,0,0,0-3.08-1.4,9.27,9.27,0,0,1,2.15,2.36,3.87,3.87,0,0,1,.4,1.22,1.67,1.67,0,0,1,.08.55,4.14,4.14,0,0,1,0,.62,5.27,5.27,0,0,1-.26,1.18A4.49,4.49,0,0,0,146,303c-.05,0-.53-.59-.94-1.05A4.58,4.58,0,0,0,142.08,300.45Z" transform="translate(-130.43 -122.9)"/><path d="M130.43,122.9V385.52H387.2V122.9ZM386.2,384.52H131.43V123.9H386.2Z" transform="translate(-130.43 -122.9)"/><path d="M136.2,225.84v2.69h.88v-3c1.57-.52,4.37-1.46,8-2.64v2.7h.87v-3c2.41-.79,5.11-1.66,8-2.58v2.69h.88v-3c2.57-.82,5.27-1.67,8-2.51V220h.88v-3c2.69-.83,5.4-1.64,8-2.42v2.72h.88v-3c2.83-.83,5.56-1.59,8.08-2.26v2.73h.88v-3c2.56-.67,4.88-1.23,6.83-1.63l1.36-.28v2.77h.88v-2.94c3.41-.67,6.09-1.1,8.3-1.4v2.81h.88v-2.92c2.45-.31,4.31-.44,6-.55a3.92,3.92,0,0,0,7.77-.77c0-.09,0-.18,0-.26,1.13-.32,2.34-.7,3.65-1.14v2.69h.88v-3l.67-.23c2.11-.72,4.5-1.53,7.29-2.35v2.72h.88v-3c2.4-.69,5.1-1.39,8.16-2v2.77h.88v-3c2.51-.52,5.26-1,8.29-1.46v2.81h.87v-2.94c2.58-.36,5.35-.69,8.35-1v2.82h.88v-2.9c2.63-.24,5.43-.44,8.42-.6v2.85h.88v-2.89l2.95-.13c1.82-.07,3.65-.08,5.47,0v2.88h.88V196.7c2.82.07,5.63.24,8.38.5v2.93h.88v-2.84c2.86.28,5.66.65,8.35,1.07v3h.88v-2.81c2.89.47,5.66,1,8.27,1.56v3h.88v-2.78c3,.66,5.74,1.35,8.17,2v3h.88V202.5c3.48.95,6.23,1.81,8,2.4v3h.88V205.2c.9.3,1.41.49,1.45.5,1.61.6,3.86,1.29,6.55,2v3h.88v-2.75c2.45.63,5.22,1.25,8.22,1.83v3h.88v-2.79c2.64.5,5.43,1,8.3,1.35v2.93h.88v-2.82c2.76.36,5.57.65,8.38.84v2.91h.88v-2.85l.5,0,7.89.44v2.89h.88v-2.85c3.05.17,5.9.31,8.44.44v2.89h.88v-2.84l8.39.41v2.89h.88v-2.85l.74,0,0-1-.78,0v-3.25h-.88v3.21l-8.39-.41V209h-.88v3.2l-8.44-.44v-3.25h-.88v3.21l-7.84-.43-.55,0V208h-.88v3.19c-2.81-.19-5.62-.48-8.38-.84V207.1h-.88v3.15c-2.87-.39-5.66-.85-8.3-1.36V205.6h-.88v3.12c-3-.58-5.78-1.21-8.22-1.84v-3.31h-.88v3.09c-2.54-.67-4.67-1.33-6.21-1.9l-1.79-.62v-3.35h-.88v3.06c-1.85-.61-4.6-1.46-8-2.39v-3.33h-.88v3.09c-2.44-.65-5.19-1.33-8.17-2v-3.3h-.88v3.11c-2.61-.56-5.38-1.08-8.27-1.55v-3.28h-.88v3.13c-2.7-.42-5.49-.78-8.35-1.07V193h-.88v3.16c-2.75-.25-5.56-.42-8.38-.49v-3.23h-.88v3.21c-1.84,0-3.67,0-5.51,0l-2.91.13v-3.21h-.88v3.25c-3,.16-5.78.36-8.42.59v-3.18h-.88v3.26c-3,.28-5.77.61-8.35,1v-3.15h-.87v3.28c-3,.44-5.78.93-8.29,1.45V196h-.88v3.31c-3.06.65-5.76,1.34-8.16,2v-3.08H226v3.34c-2.93.85-5.41,1.7-7.61,2.44l-.35.12v-3h-.88v3.35c-1.39.46-2.66.87-3.85,1.2a3.9,3.9,0,0,0-3-2.6A92,92,0,0,0,203,192.17a48.59,48.59,0,0,0-9.55-8.82,35.52,35.52,0,0,1-6.58-5.85,48.43,48.43,0,0,1-7.46-15.93,50.92,50.92,0,0,1-1-9c-.09-1.75-.18-3.41-.4-5-.86-6.07-3.71-11.42-5.8-15.33-1-2-2.34-4.39-2.34-5.25h-5c0,2.1,1.23,4.41,2.93,7.61,2,3.77,4.52,8.48,5.26,13.67.19,1.39.27,2.94.36,4.57a55.6,55.6,0,0,0,1.14,9.86,52.84,52.84,0,0,0,8.44,18,40.13,40.13,0,0,0,7.46,6.7,43.25,43.25,0,0,1,8.64,7.93,87.1,87.1,0,0,1,6.9,10.2,3.78,3.78,0,0,0-.25,1.21c-1.7.11-3.55.24-6,.54v-3.17h-.88v3.28c-2.21.3-4.89.73-8.3,1.39v-3.13h-.88v3.3l-1.56.32c-1.9.39-4.15.93-6.63,1.57v-3.1h-.88V211c-2.52.67-5.25,1.43-8.08,2.26v-3.09h-.88v3.34c-2.63.77-5.34,1.59-8,2.41v-3.07h-.88v3.34c-2.72.84-5.41,1.69-8,2.51v-3.07h-.88V219c-2.87.91-5.57,1.79-8,2.57V218.5H145v3.35c-3.49,1.14-6.29,2.08-8,2.64v-3.06h-.88v3.35l-.83.28.33.95Z" transform="translate(-130.43 -122.9)"/><path d="M296.25,353.41c-1.27-.23-2.46-.45-3.33-.68-2.77-.76-12.26-3.76-16.63-6.23-4-2.27-7.86-6.2-11.58-10-3.37-3.43-6.55-6.67-9.88-8.84-5.43-3.53-12.48-4.8-18.69-5.91-1.49-.27-2.94-.53-4.32-.81-2.52-.52-5.73-1.1-9.13-1.73-6.06-1.11-12.93-2.36-18.11-3.61a120.16,120.16,0,0,1-24.17-8.89c-5.64-2.89-12.09-7.77-15.33-11.6l-.41-.48c-3-3.5-6.67-7.86-11.94-19.22-4.54-9.79-17-10.61-17.17-10.62l-.05,1c.12,0,12,.79,16.32,10,5.32,11.48,9.07,15.9,12.08,19.45l.41.47c3.32,3.93,9.89,8.91,15.64,11.85a120.08,120.08,0,0,0,24.39,9c5.2,1.25,12.08,2.52,18.16,3.63,3.39.62,6.59,1.21,9.11,1.72,1.39.28,2.85.54,4.34.81,6.12,1.1,13.06,2.34,18.33,5.77,3.23,2.11,6.38,5.31,9.71,8.7,3.77,3.84,7.67,7.82,11.8,10.16,4.45,2.51,14.05,5.56,16.86,6.32.91.25,2.12.47,3.41.7,2,.37,6.13,1.12,6.13,1.89,0,1.4-4.33,4.14-8.14,6.55-5.24,3.32-12.51,14.61-12.51,17.56h1c0-2.64,7.25-13.68,12-16.71,5.34-3.38,8.61-5.54,8.61-7.4C303.2,354.78,300.57,354.2,296.25,353.41Z" transform="translate(-130.43 -122.9)"/><path d="M355.52,321.14a40.71,40.71,0,0,1-7.61,7.1c-3.14,2.11-7.42,3.87-11.56,5.58a73.13,73.13,0,0,0-10.09,4.73,78.32,78.32,0,0,0-10.36,8.05,24.25,24.25,0,0,1-3.87,3.07c-1.63.54-8.17.69-15.9-1.41-11.5-3.13-19.48-7.68-26.67-15.22l-.65-.68c-6.45-6.78-10-10.51-18.43-13.12-6.87-2.12-17.77-3.91-27.39-5.49-2.58-.43-5-.83-7.28-1.22-8.58-1.49-21.18-4.14-31.37-10-8.49-4.87-16.5-9.46-25.61-28.22-4.61-9.49-13.06-15.09-23.18-15.38l0,1c9.74.27,17.87,5.68,22.31,14.82,9.24,19,17.39,23.7,26,28.65,10.33,5.92,23,8.6,31.7,10.11l7.28,1.21c9.59,1.58,20.46,3.37,27.26,5.47,8.19,2.53,11.67,6.19,18,12.85l.65.68c7.32,7.68,15.43,12.32,27.13,15.5A49.2,49.2,0,0,0,308.34,351a14.59,14.59,0,0,0,4-.4c.8-.26,2.16-1.45,4.22-3.26a77.16,77.16,0,0,1,10.22-8,72.38,72.38,0,0,1,10-4.65c4.19-1.73,8.52-3.52,11.74-5.68a42.34,42.34,0,0,0,7.8-7.26,39.53,39.53,0,0,1,9.47-8.36c5.54-3.26,14.48-4.67,17.82-4.67v-1c-3.43,0-12.62,1.45-18.33,4.81C361,315.11,358.2,318.18,355.52,321.14Z" transform="translate(-130.43 -122.9)"/><path d="M276.67,164.87c2.66-3.71,6.3-8.8,6.95-9.14.38-.11,1.72,1.37,2.89,3.42l.51.9.39-1c1.78-4.34,4-9,4.82-10,1.54,2.39,8.07,21,8.07,23.13h1c0-1.24-2-7.54-3.89-12.86-.22-.63-.43-1.21-.63-1.77A32,32,0,0,0,299.7,153a16,16,0,0,1,3.05-1.82,14.7,14.7,0,0,1,.77,1.51c.78,1.67,1.18,2.47,1.8,2.47s.88-.57,1.63-1.84a9.73,9.73,0,0,1,1.24-1.8c.48.25,2.17,1.25,3.29,1.93,3,7.16,6,15.22,6,17h1c0-1.73-3-9.68-5.52-16v0c.58-.9,1.27-2.17,1.94-3.42a27.54,27.54,0,0,1,2.2-3.73,17.28,17.28,0,0,1,1.84,2.73,22,22,0,0,0,2,3l-.2.3a21.75,21.75,0,0,0-2.35,4.14l.93.37a21.34,21.34,0,0,1,2.25-3.95l.8-1.22.84-1.31a43.31,43.31,0,0,1,3.47-5,57.12,57.12,0,0,1,2.11,6.39c1.25,4.26,1.65,5.46,2.06,5.75a.69.69,0,0,0,.56.12c.59-.12,1.11-.9,2.15-2.67.38-.63.92-1.55,1.16-1.86,1.4,1.64,8.75,14.59,8.75,17.31h1c0-1.84-2.78-7.54-5.33-12.09.66-1.14,1.7-3.35,2.8-5.7a76,76,0,0,1,3.64-7.22c.47.56,1.9,2.66,6,10.53l.09.17a.8.8,0,0,0,.48.4c.68.2,1.72-.36,3.36-1.28a12.5,12.5,0,0,1,2.13-1.06c.14.24.39.86.63,1.45A53.88,53.88,0,0,0,361.9,164c4.85,8.16,5.13,9.41,5.14,9.58h1c0-.33,0-1.22-5.28-10.09a51.89,51.89,0,0,1-3.52-7.27c-.6-1.48-.78-1.92-1.19-2-.58-.17-1.47.3-3,1.16a11.08,11.08,0,0,1-2.52,1.19l0-.07c-5.83-11.13-6.48-11.18-6.87-11.22-.67-.06-1.17.68-4.59,7.95-.94,2-1.83,3.91-2.47,5.1a32.72,32.72,0,0,0-3.29-5.07.77.77,0,0,0-.55-.22c-.55.05-1,.71-2,2.44a16,16,0,0,1-1.35,2.06c-.35-.78-1-3.11-1.6-5-1.69-5.75-2.16-6.95-2.76-7.19-.79-.3-1.63.86-4.62,5.52l-.84,1.31,0,0a25.27,25.27,0,0,1-1.73-2.66c-1.44-2.42-2.18-3.56-3-3.21-.6.25-1.27,1.42-2.79,4.25-.51,1-1,1.95-1.52,2.75-5.16-12.62-5.94-12.62-6.28-12.62-.71,0-1.49,1.2-5.25,8-1.52,2.77-3.51,6.38-4.57,7.83-3.11-8.55-3.72-8.55-4.09-8.55s-1.33,0-5.43,9.86c-.9-1.43-2.35-3.34-3.49-3-.7.18-2.1,2-7.51,9.53-3.75,5.23-6,9.53-6,11.5h1C270.88,174.42,272.4,170.84,276.67,164.87Zm25.16-15.73a74.32,74.32,0,0,1,4.33-7.37,98.87,98.87,0,0,1,4.67,10.08c-.94-.56-2.07-1.22-2.33-1.34-.85-.38-1.54.79-2.41,2.26-.23.39-.55.93-.76,1.21a15.7,15.7,0,0,1-.9-1.75c-.62-1.32-.89-1.84-1.23-2-.18-.09-.58-.3-2.42.82Z" transform="translate(-130.43 -122.9)"/><path d="M283.68,313.48H297.4V304h-6.59v-2.24l6.36-1.92-7.36-3.88v8h-6.13Zm1.3-8.23H296.1v6.93H285Z" transform="translate(-130.43 -122.9)"/><path d="M297.93,137.6a4.47,4.47,0,0,0,.78.27,4,4,0,0,0,.85.09,3.83,3.83,0,0,0,1.51-.28,3.48,3.48,0,0,0,1.13-.77,3.56,3.56,0,0,0,.72-1.14,4,4,0,0,0,.25-1.38,2.22,2.22,0,0,0-.17-.9,2.13,2.13,0,0,0-.43-.63,3,3,0,0,0-.62-.44,5.69,5.69,0,0,0-.71-.32l-.7-.27a4,4,0,0,1-.62-.3,1.55,1.55,0,0,1-.44-.4.94.94,0,0,1-.16-.57,1.9,1.9,0,0,1,.11-.63,1.41,1.41,0,0,1,.33-.5,1.77,1.77,0,0,1,.55-.34A2.07,2.07,0,0,1,301,129a1.81,1.81,0,0,1,.7.11,2.24,2.24,0,0,1,.49.26l.35.25a.41.41,0,0,0,.27.12.34.34,0,0,0,.2-.06.74.74,0,0,0,.17-.18l.47-.67a3.48,3.48,0,0,0-.47-.47,4.08,4.08,0,0,0-.58-.36,4,4,0,0,0-.69-.23,3.77,3.77,0,0,0-.76-.08,3.55,3.55,0,0,0-1.41.27,3.31,3.31,0,0,0-1.06.72,3.21,3.21,0,0,0-.67,1,3.39,3.39,0,0,0-.23,1.22,2.41,2.41,0,0,0,.17.95,1.76,1.76,0,0,0,.43.65,2.43,2.43,0,0,0,.61.44c.23.11.46.21.7.3s.47.18.7.25a3.14,3.14,0,0,1,.61.29,1.45,1.45,0,0,1,.44.41,1,1,0,0,1,.16.6,2.15,2.15,0,0,1-.13.77,1.52,1.52,0,0,1-.37.58,1.71,1.71,0,0,1-.59.38,2.13,2.13,0,0,1-.78.13,2.1,2.1,0,0,1-.84-.15,2.61,2.61,0,0,1-.57-.34l-.39-.33a.49.49,0,0,0-.32-.15.42.42,0,0,0-.21.06.61.61,0,0,0-.17.14l-.56.76a3.45,3.45,0,0,0,.54.54A3,3,0,0,0,297.93,137.6Z" transform="translate(-130.43 -122.9)"/><path d="M304.63,137.25a1.38,1.38,0,0,0,.58.52,1.7,1.7,0,0,0,.79.18,2.67,2.67,0,0,0,1.39-.41,4.05,4.05,0,0,0,1.22-1.25l-.07,1a.48.48,0,0,0,.55.53h.75l.86-7.14h-1.5l-.44,3.69a5.17,5.17,0,0,1-.43.95,3.84,3.84,0,0,1-.54.73,2.51,2.51,0,0,1-.61.46,1.31,1.31,0,0,1-.61.17.71.71,0,0,1-.67-.35,2.07,2.07,0,0,1-.09-1.12l.54-4.53h-1.49l-.54,4.53a4.49,4.49,0,0,0,0,1.16A2.25,2.25,0,0,0,304.63,137.25Z" transform="translate(-130.43 -122.9)"/><path d="M313.47,134.13a5.53,5.53,0,0,1,.39-.95,3.09,3.09,0,0,1,.47-.72,1.82,1.82,0,0,1,.53-.45,1.11,1.11,0,0,1,.59-.16.81.81,0,0,1,.37.08.58.58,0,0,1,.21.27,1.37,1.37,0,0,1,.07.45,3.21,3.21,0,0,1,0,.66l-.54,4.54H317l.45-3.82a6.07,6.07,0,0,1,.38-.92,3.78,3.78,0,0,1,.47-.69,2,2,0,0,1,.53-.42,1.18,1.18,0,0,1,.56-.15.78.78,0,0,1,.37.08.54.54,0,0,1,.22.27,1.13,1.13,0,0,1,.08.45,3.21,3.21,0,0,1,0,.66l-.53,4.54H321l.54-4.54a3.23,3.23,0,0,0-.26-2,1.42,1.42,0,0,0-1.32-.7,2.39,2.39,0,0,0-1.37.43,4,4,0,0,0-1.15,1.37,2.22,2.22,0,0,0-.4-1.34,1.24,1.24,0,0,0-1.05-.46,2.2,2.2,0,0,0-1.25.4,4.08,4.08,0,0,0-1.09,1.21l.06-1a.49.49,0,0,0-.13-.38.48.48,0,0,0-.37-.13h-.76l-.86,7.16H313Z" transform="translate(-130.43 -122.9)"/><path d="M324.54,134.13a6.48,6.48,0,0,1,.38-.95,3.9,3.9,0,0,1,.47-.72,1.85,1.85,0,0,1,.54-.45,1.1,1.1,0,0,1,.58-.16.75.75,0,0,1,.37.08.48.48,0,0,1,.21.27,1.13,1.13,0,0,1,.08.45,4.12,4.12,0,0,1,0,.66l-.54,4.54h1.48l.45-3.82a6.07,6.07,0,0,1,.38-.92,3.78,3.78,0,0,1,.47-.69,1.85,1.85,0,0,1,.53-.42,1.15,1.15,0,0,1,.56-.15.81.81,0,0,1,.37.08.6.6,0,0,1,.22.27,1.34,1.34,0,0,1,.08.45,3.21,3.21,0,0,1,0,.66l-.53,4.54H332l.54-4.54a3.3,3.3,0,0,0-.26-2,1.43,1.43,0,0,0-1.33-.7,2.36,2.36,0,0,0-1.36.43,4,4,0,0,0-1.16,1.37,2.16,2.16,0,0,0-.39-1.34,1.24,1.24,0,0,0-1.05-.46,2.18,2.18,0,0,0-1.25.4,4,4,0,0,0-1.09,1.21l.06-1a.49.49,0,0,0-.13-.38.49.49,0,0,0-.37-.13h-.76l-.86,7.16h1.47Z" transform="translate(-130.43 -122.9)"/><path d="M334.9,129.26a1,1,0,0,0,.31.21.73.73,0,0,0,.36.08.78.78,0,0,0,.36-.08,1,1,0,0,0,.31-.21,1.18,1.18,0,0,0,.23-.32,1,1,0,0,0,.08-.39.85.85,0,0,0-.08-.39.87.87,0,0,0-.22-.32,1.16,1.16,0,0,0-.31-.22,1,1,0,0,0-.37-.08.85.85,0,0,0-.35.08,1.16,1.16,0,0,0-.31.22,1.21,1.21,0,0,0-.22.32,1.09,1.09,0,0,0-.08.39,1,1,0,0,0,.08.39A1.77,1.77,0,0,0,334.9,129.26Z" transform="translate(-130.43 -122.9)"/><polygon points="205.67 7.81 204.19 7.81 203.34 14.95 204.81 14.95 205.67 7.81"/><path d="M337.41,131.89h.72l-.41,3.37q0,.33-.06.54a2.48,2.48,0,0,0,0,.33c0,.09,0,.15,0,.2v.11a1.5,1.5,0,0,0,.44,1.12,1.57,1.57,0,0,0,1.14.4,2.65,2.65,0,0,0,1.74-.64l-.32-.73a.72.72,0,0,0-.07-.11.21.21,0,0,0-.12,0,.24.24,0,0,0-.12,0l-.15.1a1,1,0,0,1-.21.1.79.79,0,0,1-.29.05.51.51,0,0,1-.4-.17.65.65,0,0,1-.15-.47v0s0-.08,0-.14,0-.16,0-.28,0-.26.06-.46l.39-3.28h1.81l.13-1.08h-1.8l.29-2.35h-.8a.38.38,0,0,0-.21.07.46.46,0,0,0-.13.2l-.56,2.06-1.08.17-.07.61a.29.29,0,0,0,0,.24A.26.26,0,0,0,337.41,131.89Z" transform="translate(-130.43 -122.9)"/><polygon points="216.62 14.95 218.18 14.95 219.26 6.19 222.12 6.19 222.29 4.87 214.97 4.87 214.82 6.19 217.69 6.19 216.62 14.95"/><path d="M352.1,131.93a4.13,4.13,0,0,0-.56.9,4.91,4.91,0,0,0-.36,1,5.19,5.19,0,0,0-.12,1.12,3.81,3.81,0,0,0,.17,1.21,2.74,2.74,0,0,0,.51.94,2,2,0,0,0,.81.6,2.73,2.73,0,0,0,1.1.21,4.79,4.79,0,0,0,.79-.06,2.8,2.8,0,0,0,.69-.23,3.34,3.34,0,0,0,.66-.42,6.08,6.08,0,0,0,.69-.67l-.38-.46a.36.36,0,0,0-.27-.14.45.45,0,0,0-.31.13l-.34.27a2.51,2.51,0,0,1-.49.27,1.69,1.69,0,0,1-.72.13,1.24,1.24,0,0,1-1-.47,2,2,0,0,1-.37-1.29,4.3,4.3,0,0,1,.18-1.28,3.31,3.31,0,0,1,.47-1,2.39,2.39,0,0,1,.69-.66,1.6,1.6,0,0,1,.84-.24,1.62,1.62,0,0,1,.54.08,2.81,2.81,0,0,1,.35.18l.24.17a.32.32,0,0,0,.2.08.27.27,0,0,0,.15,0l.13-.1.47-.57a2.51,2.51,0,0,0-.85-.75,2.73,2.73,0,0,0-1.2-.25,3.22,3.22,0,0,0-1,.17,3.27,3.27,0,0,0-.89.46A3.55,3.55,0,0,0,352.1,131.93Z" transform="translate(-130.43 -122.9)"/><polygon points="229.38 7.81 227.9 7.81 227.04 14.95 228.52 14.95 229.38 7.81"/><path d="M358.61,129.26a1,1,0,0,0,.3.21.78.78,0,0,0,.36.08.8.8,0,0,0,.37-.08,1.06,1.06,0,0,0,.31-.21,1.18,1.18,0,0,0,.23-.32,1,1,0,0,0-.22-1.1,1.16,1.16,0,0,0-.31-.22.87.87,0,0,0-.73,0,1.11,1.11,0,0,0-.3.22,1.21,1.21,0,0,0-.22.32,1.09,1.09,0,0,0-.08.39,1,1,0,0,0,.08.39A1.77,1.77,0,0,0,358.61,129.26Z" transform="translate(-130.43 -122.9)"/><path d="M361.12,131.89h.72l-.41,3.37q0,.33-.06.54c0,.14,0,.25,0,.33s0,.15,0,.2v.11a1.5,1.5,0,0,0,.44,1.12,1.57,1.57,0,0,0,1.14.4,2.61,2.61,0,0,0,.91-.16,2.77,2.77,0,0,0,.83-.48l-.33-.73a.23.23,0,0,0-.07-.11.16.16,0,0,0-.11,0,.19.19,0,0,0-.12,0l-.15.1a1,1,0,0,1-.21.1.84.84,0,0,1-.29.05.5.5,0,0,1-.4-.17.65.65,0,0,1-.15-.47v0a1.15,1.15,0,0,1,0-.14,1.78,1.78,0,0,1,0-.28c0-.11,0-.26.05-.46l.4-3.28h1.81l.12-1.08h-1.79l.29-2.35h-.8a.38.38,0,0,0-.21.07.46.46,0,0,0-.13.2l-.56,2.06L361,131l-.07.61a.33.33,0,0,0,.05.24A.26.26,0,0,0,361.12,131.89Z" transform="translate(-130.43 -122.9)"/><path d="M366.13,137.31a1.57,1.57,0,0,0,.61.48,1.73,1.73,0,0,0,.76.16,2.12,2.12,0,0,0,.71-.12,2.76,2.76,0,0,0,.65-.36,3.43,3.43,0,0,0,.59-.56,5.24,5.24,0,0,0,.52-.73l-.09,1.16a.61.61,0,0,0,.1.36.45.45,0,0,0,.4.15h.79l.85-6.92a4,4,0,0,0-.9-.25,5.84,5.84,0,0,0-.93-.08,4.29,4.29,0,0,0-1.25.18,4.76,4.76,0,0,0-1.1.5,4.53,4.53,0,0,0-.92.77,5,5,0,0,0-.71,1,4.37,4.37,0,0,0-.45,1.14,4.64,4.64,0,0,0-.17,1.24,3.59,3.59,0,0,0,.15,1.09A2.49,2.49,0,0,0,366.13,137.31Zm1.19-3.48a3.72,3.72,0,0,1,.61-1.11,2.9,2.9,0,0,1,.92-.75,2.34,2.34,0,0,1,1.13-.28h.23l.24,0-.29,2.3a7.31,7.31,0,0,1-.4,1.06,4.54,4.54,0,0,1-.5.85,2.56,2.56,0,0,1-.57.57,1.08,1.08,0,0,1-.62.21.82.82,0,0,1-.72-.38,2.17,2.17,0,0,1-.26-1.18A3.81,3.81,0,0,1,367.32,133.83Z" transform="translate(-130.43 -122.9)"/><path d="M279.25,186.55c0-.07,0-.16,0-.28s0-.26.05-.46l.4-3.28h1.81l.13-1.08h-1.8l.29-2.35h-.8a.38.38,0,0,0-.21.07.46.46,0,0,0-.13.2l-.56,2.06-1.08.17-.07.61a.29.29,0,0,0,0,.24.26.26,0,0,0,.19.08h.72l-.41,3.37q0,.33-.06.54a2.48,2.48,0,0,0,0,.33c0,.09,0,.15,0,.2v.11a1.5,1.5,0,0,0,.44,1.12,1.57,1.57,0,0,0,1.14.4,3,3,0,0,0,.92-.16,2.72,2.72,0,0,0,.82-.48l-.32-.73a.72.72,0,0,0-.07-.11.21.21,0,0,0-.12,0,.24.24,0,0,0-.12,0l-.15.1a1,1,0,0,1-.21.1.79.79,0,0,1-.29,0,.51.51,0,0,1-.4-.17.65.65,0,0,1-.15-.47v-.05S279.24,186.61,279.25,186.55Z" transform="translate(-130.43 -122.9)"/><path d="M286.55,188.49h1.5l.53-4.55a3.68,3.68,0,0,0,0-1.15,2.09,2.09,0,0,0-.31-.85,1.45,1.45,0,0,0-.57-.53,1.92,1.92,0,0,0-.81-.17,2.53,2.53,0,0,0-1.31.37,3.88,3.88,0,0,0-1.18,1.12l.56-4.6h-1.5l-1.25,10.36h1.49l.45-3.73a5.07,5.07,0,0,1,.43-.94,4.22,4.22,0,0,1,.54-.72,2.47,2.47,0,0,1,.6-.46,1.31,1.31,0,0,1,.61-.17.68.68,0,0,1,.67.36,2,2,0,0,1,.08,1.11Z" transform="translate(-130.43 -122.9)"/><path d="M291.17,185.44a14.81,14.81,0,0,0,2.22-.38,4.92,4.92,0,0,0,1.36-.54,1.86,1.86,0,0,0,.69-.71,1.9,1.9,0,0,0,.19-.86,1.43,1.43,0,0,0-.13-.59,1.72,1.72,0,0,0-.4-.55,2.15,2.15,0,0,0-.68-.4,2.54,2.54,0,0,0-1-.16,3.38,3.38,0,0,0-1.07.17,3.46,3.46,0,0,0-1.66,1.19,4.63,4.63,0,0,0-.9,1.94,5.08,5.08,0,0,0-.12,1.1,3.59,3.59,0,0,0,.19,1.22,2.55,2.55,0,0,0,.54.92,2.41,2.41,0,0,0,.85.59,2.87,2.87,0,0,0,1.12.21,4.77,4.77,0,0,0,.87-.08,3.41,3.41,0,0,0,.76-.26,5,5,0,0,0,.72-.44,6.88,6.88,0,0,0,.71-.65l-.38-.46a.36.36,0,0,0-.27-.14.56.56,0,0,0-.36.14l-.4.29a3.49,3.49,0,0,1-.55.29,2.06,2.06,0,0,1-.8.13,1.44,1.44,0,0,1-1.16-.45,2,2,0,0,1-.38-1.34v-.18Zm.43-1.85a2.74,2.74,0,0,1,.46-.67,2,2,0,0,1,.59-.45,1.77,1.77,0,0,1,.73-.16,1.32,1.32,0,0,1,.42.07.94.94,0,0,1,.28.16.6.6,0,0,1,.16.23.69.69,0,0,1,.05.24.92.92,0,0,1-.11.43,1,1,0,0,1-.42.39,3.7,3.7,0,0,1-.9.34,15,15,0,0,1-1.55.28A4,4,0,0,1,291.6,183.59Z" transform="translate(-130.43 -122.9)"/><path d="M303.29,178.41l-4.91,10.08h1.23a.58.58,0,0,0,.35-.11.87.87,0,0,0,.22-.26l1-2.26h3.92l.48,2.26a.55.55,0,0,0,.17.27.49.49,0,0,0,.32.1h1.22l-2.44-10.08Zm-1.55,6.31,1.72-3.76.22-.5c.08-.19.16-.4.24-.62,0,.22.07.43.1.61s.06.35.09.5l.8,3.77Z" transform="translate(-130.43 -122.9)"/><polygon points="179.28 65.59 180.54 55.23 179.06 55.23 177.81 65.59 179.28 65.59"/><path d="M317.9,188.49l.73-6,.13-1h-4.59l.3-2.36h-.8a.38.38,0,0,0-.22.07.46.46,0,0,0-.13.2l-.55,2.08-1.08.16-.07.58a.29.29,0,0,0,.06.24.26.26,0,0,0,.19.08h.71l-.42,3.39c0,.22-.05.4-.07.54s0,.25,0,.33a1.64,1.64,0,0,0,0,.2v.11a1.53,1.53,0,0,0,.43,1.12,1.58,1.58,0,0,0,1.15.4,2.86,2.86,0,0,0,.91-.16,2.72,2.72,0,0,0,.82-.48l-.32-.73a.35.35,0,0,0-.08-.11.13.13,0,0,0-.1,0,.19.19,0,0,0-.12,0l-.16.1a.69.69,0,0,1-.21.1.78.78,0,0,1-.28,0,.52.52,0,0,1-.41-.17.65.65,0,0,1-.15-.47v-.05s0-.08,0-.14,0-.16,0-.28,0-.26.05-.46l.42-3.3h3.13l-.73,6Z" transform="translate(-130.43 -122.9)"/><path d="M319.28,179.58a1,1,0,0,0-.22-1.1,1.16,1.16,0,0,0-.31-.22.87.87,0,0,0-.73,0,1.11,1.11,0,0,0-.3.22,1.21,1.21,0,0,0-.22.32,1.09,1.09,0,0,0-.08.39,1,1,0,0,0,.08.39,1.77,1.77,0,0,0,.21.32,1,1,0,0,0,.3.21.78.78,0,0,0,.36.08.8.8,0,0,0,.37-.08,1.06,1.06,0,0,0,.31-.21A1.18,1.18,0,0,0,319.28,179.58Z" transform="translate(-130.43 -122.9)"/><path d="M321.79,186.55a1.78,1.78,0,0,1,0-.28c0-.11,0-.26.05-.46l.4-3.28h1.81l.13-1.08h-1.8l.29-2.35h-.8a.38.38,0,0,0-.21.07.46.46,0,0,0-.13.2l-.56,2.06-1.09.17-.07.61a.33.33,0,0,0,.05.24.26.26,0,0,0,.19.08h.72l-.41,3.37q0,.33-.06.54a2.48,2.48,0,0,0,0,.33c0,.09,0,.15,0,.2v.11a1.5,1.5,0,0,0,.44,1.12,1.57,1.57,0,0,0,1.14.4,2.86,2.86,0,0,0,.91-.16,2.65,2.65,0,0,0,.83-.48l-.33-.73a.23.23,0,0,0-.07-.11.16.16,0,0,0-.11,0,.21.21,0,0,0-.12,0l-.15.1a1,1,0,0,1-.21.1.84.84,0,0,1-.29,0,.5.5,0,0,1-.4-.17.65.65,0,0,1-.15-.47v-.05S321.78,186.61,321.79,186.55Z" transform="translate(-130.43 -122.9)"/><path d="M329.77,188.49h.75l.86-7.14h-1.5l-.44,3.69a5.17,5.17,0,0,1-.43,1,3.84,3.84,0,0,1-.54.73,2.51,2.51,0,0,1-.61.46,1.31,1.31,0,0,1-.61.17.71.71,0,0,1-.67-.35,2.07,2.07,0,0,1-.09-1.12l.54-4.53h-1.49l-.54,4.53a4.49,4.49,0,0,0,0,1.16,2.25,2.25,0,0,0,.31.85,1.38,1.38,0,0,0,.58.52,1.67,1.67,0,0,0,.79.18,2.67,2.67,0,0,0,1.39-.41,4.05,4.05,0,0,0,1.22-1.25l-.07,1A.48.48,0,0,0,329.77,188.49Z" transform="translate(-130.43 -122.9)"/><path d="M336.82,188.34a.41.41,0,0,0,.38.15h.8l1.28-10.36h-1.47l-.48,3.83a2.1,2.1,0,0,0-.71-.54,2.24,2.24,0,0,0-.91-.18,2.44,2.44,0,0,0-.93.18,3.26,3.26,0,0,0-.83.51,4.31,4.31,0,0,0-.7.77,4.86,4.86,0,0,0-.55,1,5.73,5.73,0,0,0-.34,1.11,5.82,5.82,0,0,0-.13,1.17,3.14,3.14,0,0,0,.53,2,1.7,1.7,0,0,0,1.42.66,2.1,2.1,0,0,0,.74-.13,2.67,2.67,0,0,0,.68-.37,3.46,3.46,0,0,0,.64-.58,5.67,5.67,0,0,0,.57-.75l-.1,1.22A.61.61,0,0,0,336.82,188.34Zm-.27-2.56a4.62,4.62,0,0,1-.55.85,2.91,2.91,0,0,1-.62.56,1.2,1.2,0,0,1-.63.2.87.87,0,0,1-.76-.4,2.14,2.14,0,0,1-.27-1.19,4.63,4.63,0,0,1,.16-1.21,4.08,4.08,0,0,1,.44-1.09,2.84,2.84,0,0,1,.7-.79,1.54,1.54,0,0,1,.92-.31,2,2,0,0,1,.67.13,1.24,1.24,0,0,1,.59.43l-.21,1.75A6.47,6.47,0,0,1,336.55,185.78Z" transform="translate(-130.43 -122.9)"/><polygon points="209.36 65.59 210.84 65.59 211.7 58.45 210.22 58.45 209.36 65.59"/><path d="M342.5,179.58a1,1,0,0,0-.22-1.1,1.16,1.16,0,0,0-.31-.22.87.87,0,0,0-.73,0,1.34,1.34,0,0,0-.31.22,1.48,1.48,0,0,0-.21.32,1.09,1.09,0,0,0-.08.39,1,1,0,0,0,.08.39,1.36,1.36,0,0,0,.21.32,1,1,0,0,0,.3.21.78.78,0,0,0,.36.08.8.8,0,0,0,.37-.08,1.06,1.06,0,0,0,.31-.21A1.18,1.18,0,0,0,342.5,179.58Z" transform="translate(-130.43 -122.9)"/><path d="M347.41,188.49h1.5l.54-4.55a4,4,0,0,0,0-1.15,2.25,2.25,0,0,0-.31-.85,1.52,1.52,0,0,0-.57-.53,1.88,1.88,0,0,0-.8-.17,2.56,2.56,0,0,0-1.41.43,4,4,0,0,0-1.24,1.29l.07-1.12a.53.53,0,0,0-.13-.38.5.5,0,0,0-.38-.13h-.75l-.86,7.16h1.5l.39-3.56a4.78,4.78,0,0,1,.43-1,3.92,3.92,0,0,1,.56-.77,2.2,2.2,0,0,1,.62-.5,1.42,1.42,0,0,1,.63-.17.68.68,0,0,1,.67.35,1.91,1.91,0,0,1,.09,1.1Z" transform="translate(-130.43 -122.9)"/><path d="M354.9,188.34a.45.45,0,0,0,.39.15h.79l.86-6.92a4.24,4.24,0,0,0-.91-.25,5.64,5.64,0,0,0-.93-.08,4.23,4.23,0,0,0-1.24.18,4.76,4.76,0,0,0-1.1.5,4.6,4.6,0,0,0-1.63,1.76,4.78,4.78,0,0,0-.46,1.14,4.63,4.63,0,0,0-.16,1.24,4,4,0,0,0,.14,1.09,2.5,2.5,0,0,0,.4.8,1.72,1.72,0,0,0,.6.48,1.77,1.77,0,0,0,.77.16,2.16,2.16,0,0,0,.71-.12,3,3,0,0,0,.65-.36,3.05,3.05,0,0,0,.58-.56,5.28,5.28,0,0,0,.53-.73l-.1,1.16A.61.61,0,0,0,354.9,188.34Zm-.22-2.62a6,6,0,0,1-.5.85,2.4,2.4,0,0,1-.58.57,1,1,0,0,1-.61.21.84.84,0,0,1-.73-.38,2.18,2.18,0,0,1-.25-1.18,3.81,3.81,0,0,1,.22-1.32,3.75,3.75,0,0,1,.62-1.11,2.86,2.86,0,0,1,.91-.75,2.34,2.34,0,0,1,1.13-.28h.24l.23,0-.28,2.3A8.69,8.69,0,0,1,354.68,185.72Z" transform="translate(-130.43 -122.9)"/><polygon points="228.87 65.59 230.13 55.23 228.64 55.23 227.39 65.59 228.87 65.59"/><path d="M363.06,182.59a1.88,1.88,0,0,1,.4-.21,1.79,1.79,0,0,1,.53-.07,1.73,1.73,0,0,1,.54.07,2.42,2.42,0,0,1,.39.16l.28.17a.43.43,0,0,0,.23.07.31.31,0,0,0,.17,0,.45.45,0,0,0,.13-.14l.38-.55a2.68,2.68,0,0,0-.86-.59,3.28,3.28,0,0,0-2.31,0,2.43,2.43,0,0,0-.84.54,2.23,2.23,0,0,0-.52.77,2.33,2.33,0,0,0-.18.9,1.62,1.62,0,0,0,.12.66,1.4,1.4,0,0,0,.32.46,2.1,2.1,0,0,0,.46.32l.53.22.52.19a2.78,2.78,0,0,1,.46.21,1.17,1.17,0,0,1,.33.29.7.7,0,0,1,.12.42,1.07,1.07,0,0,1-.09.43,1.14,1.14,0,0,1-.26.36,1.27,1.27,0,0,1-.41.24,1.64,1.64,0,0,1-.56.09,1.74,1.74,0,0,1-.62-.1,1.66,1.66,0,0,1-.4-.21l-.29-.21a.4.4,0,0,0-.24-.09.41.41,0,0,0-.23.06.61.61,0,0,0-.16.16l-.37.57a2.34,2.34,0,0,0,.88.63,2.91,2.91,0,0,0,1.23.25,3.18,3.18,0,0,0,1.18-.21,2.72,2.72,0,0,0,.9-.55,2.34,2.34,0,0,0,.77-1.77,1.66,1.66,0,0,0-.12-.66,1.52,1.52,0,0,0-.32-.46,2.15,2.15,0,0,0-.46-.33c-.18-.09-.35-.17-.53-.24l-.53-.2a3.3,3.3,0,0,1-.46-.22,1,1,0,0,1-.33-.28.61.61,0,0,1-.12-.39.93.93,0,0,1,.34-.7Z" transform="translate(-130.43 -122.9)"/><path d="M208.4,213.89a3.34,3.34,0,0,1,1.15-.9,3.49,3.49,0,0,1,1.49-.31,3.18,3.18,0,0,1,.8.08,2.92,2.92,0,0,1,.59.19,3.14,3.14,0,0,1,.45.26l.37.25a.53.53,0,0,0,.36.08.56.56,0,0,0,.3-.22l.5-.66a4.83,4.83,0,0,0-.57-.53,3.8,3.8,0,0,0-.71-.42,3.87,3.87,0,0,0-.89-.29,5.15,5.15,0,0,0-1.09-.11,5.42,5.42,0,0,0-2.14.43A5.07,5.07,0,0,0,207.3,213a5.83,5.83,0,0,0-1.12,1.85,6.48,6.48,0,0,0-.41,2.37,5.15,5.15,0,0,0,.29,1.78,4.09,4.09,0,0,0,.82,1.41,3.59,3.59,0,0,0,1.28.92,4,4,0,0,0,1.67.34,7.35,7.35,0,0,0,1.08-.07,5.71,5.71,0,0,0,1-.2,5.79,5.79,0,0,0,.85-.34,6.4,6.4,0,0,0,.79-.48l.49-4h-3l-.11.9a.22.22,0,0,0,.07.21.28.28,0,0,0,.22.09h1.26l-.25,2.08a5.07,5.07,0,0,1-.94.36,4.23,4.23,0,0,1-1.13.13,2.73,2.73,0,0,1-1.12-.22,2.33,2.33,0,0,1-.85-.64,2.94,2.94,0,0,1-.55-1,4.35,4.35,0,0,1-.2-1.35,5.8,5.8,0,0,1,.27-1.82A4.26,4.26,0,0,1,208.4,213.89Z" transform="translate(-130.43 -122.9)"/><polygon points="87.23 88.25 85.75 88.25 84.49 98.61 85.97 98.61 87.23 88.25"/><path d="M223.81,215a2.42,2.42,0,0,0-.85-.58,2.94,2.94,0,0,0-1.09-.2,3.24,3.24,0,0,0-1.44.34,3.8,3.8,0,0,0-1.18.93,4.64,4.64,0,0,0-.8,1.39,5.13,5.13,0,0,0-.29,1.72,3.54,3.54,0,0,0,.21,1.26,2.59,2.59,0,0,0,.56.94,2.42,2.42,0,0,0,.86.58,2.92,2.92,0,0,0,1.08.2,3,3,0,0,0,1-.16,3.36,3.36,0,0,0,.89-.44,3.65,3.65,0,0,0,.74-.68,4.13,4.13,0,0,0,.58-.89,4.92,4.92,0,0,0,.37-1,5,5,0,0,0,.14-1.16,3.56,3.56,0,0,0-.21-1.27A2.67,2.67,0,0,0,223.81,215Zm-.88,3.42a3.9,3.9,0,0,1-.42,1,2.19,2.19,0,0,1-.65.7,1.45,1.45,0,0,1-.85.26c-.9,0-1.34-.6-1.34-1.82a4.78,4.78,0,0,1,.15-1.21,3.35,3.35,0,0,1,.41-1,2.16,2.16,0,0,1,.65-.69,1.5,1.5,0,0,1,.85-.26,1.21,1.21,0,0,1,1,.44,2.32,2.32,0,0,1,.34,1.37A4.83,4.83,0,0,1,222.93,218.45Z" transform="translate(-130.43 -122.9)"/><path d="M227.52,212.12a.31.31,0,0,0-.22.07.41.41,0,0,0-.13.19l-.56,2.08-1.08.17-.07.58a.43.43,0,0,0,.06.24.28.28,0,0,0,.2.08h.7l-.42,3.39c0,.21-.05.39-.06.53s0,.26,0,.34,0,.15,0,.19v.12a1.55,1.55,0,0,0,.44,1.12,1.57,1.57,0,0,0,1.14.4,2.67,2.67,0,0,0,.92-.17,2.53,2.53,0,0,0,.81-.47l-.32-.73a.26.26,0,0,0-.07-.11.15.15,0,0,0-.1,0,.24.24,0,0,0-.13,0l-.15.1-.21.1a.82.82,0,0,1-.28,0,.54.54,0,0,1-.42-.16.66.66,0,0,1-.14-.47v-.06s0-.07,0-.14,0-.16,0-.27,0-.27.06-.46l.41-3.3h2.78l-.42,3.39c0,.21-.05.39-.07.53s0,.26,0,.34a1.49,1.49,0,0,0,0,.19.57.57,0,0,0,0,.12,1.55,1.55,0,0,0,.44,1.12,1.58,1.58,0,0,0,1.15.4,2.66,2.66,0,0,0,.91-.17,2.53,2.53,0,0,0,.81-.47l-.32-.73a.19.19,0,0,0-.07-.11.15.15,0,0,0-.1,0,.19.19,0,0,0-.12,0l-.16.1-.21.1a.75.75,0,0,1-.28,0,.54.54,0,0,1-.42-.16.71.71,0,0,1-.14-.47v-.06l0-.14a1.68,1.68,0,0,1,0-.27c0-.11,0-.27.05-.46l.41-3.3h1.78l.14-1.05h-1.79l.3-2.36h-.8a.32.32,0,0,0-.22.07.5.5,0,0,0-.13.19l-.56,2.1H228l.29-2.36Z" transform="translate(-130.43 -122.9)"/><path d="M238.78,221.36a.45.45,0,0,0,.39.15H240l.86-6.92a4.27,4.27,0,0,0-.91-.26,5.82,5.82,0,0,0-.93-.07,4.23,4.23,0,0,0-1.24.18,4.38,4.38,0,0,0-1.1.5,4.54,4.54,0,0,0-.93.77,5.15,5.15,0,0,0-1.16,2.12,4.76,4.76,0,0,0-.16,1.25,4,4,0,0,0,.14,1.09,2.5,2.5,0,0,0,.4.8,1.72,1.72,0,0,0,.6.48,1.76,1.76,0,0,0,.76.16,2,2,0,0,0,.72-.13,2.57,2.57,0,0,0,.65-.35,3.81,3.81,0,0,0,.58-.56,6,6,0,0,0,.53-.73l-.1,1.15A.62.62,0,0,0,238.78,221.36Zm-.22-2.62a5.16,5.16,0,0,1-.51.85,2.37,2.37,0,0,1-.57.57,1,1,0,0,1-.61.2.82.82,0,0,1-.73-.38,2.14,2.14,0,0,1-.25-1.18,3.89,3.89,0,0,1,.22-1.32,4,4,0,0,1,.61-1.1,2.87,2.87,0,0,1,.92-.75,2.34,2.34,0,0,1,1.13-.28H239l.23,0-.29,2.31A7.77,7.77,0,0,1,238.56,218.74Z" transform="translate(-130.43 -122.9)"/><polygon points="112.52 88.25 111.27 98.61 112.75 98.61 114 88.25 112.52 88.25"/><path d="M213.63,224.31a3.21,3.21,0,0,0-.67,1,3.39,3.39,0,0,0-.23,1.22,2.44,2.44,0,0,0,.17.95,1.89,1.89,0,0,0,.43.65,2.17,2.17,0,0,0,.61.43,6.21,6.21,0,0,0,.7.31l.7.25a3.23,3.23,0,0,1,.62.29,1.65,1.65,0,0,1,.43.4,1,1,0,0,1,.16.61,2.06,2.06,0,0,1-.13.76,1.56,1.56,0,0,1-.37.59,1.62,1.62,0,0,1-.59.38,2.36,2.36,0,0,1-.78.13,2.1,2.1,0,0,1-.84-.15,2.61,2.61,0,0,1-.57-.34l-.39-.33a.47.47,0,0,0-.32-.15.42.42,0,0,0-.21.06.46.46,0,0,0-.17.14l-.55.75a2.56,2.56,0,0,0,.54.55,3.46,3.46,0,0,0,.67.42,3.76,3.76,0,0,0,.78.26,3.47,3.47,0,0,0,.85.1,3.84,3.84,0,0,0,1.51-.29,3.2,3.2,0,0,0,1.13-.77,3.41,3.41,0,0,0,.72-1.13,3.79,3.79,0,0,0,.25-1.38,2.41,2.41,0,0,0-.16-.9,1.93,1.93,0,0,0-.44-.63,2.49,2.49,0,0,0-.62-.44,5.69,5.69,0,0,0-.71-.32l-.7-.27a3.26,3.26,0,0,1-.62-.31,1.52,1.52,0,0,1-.44-.39.94.94,0,0,1-.16-.57,1.85,1.85,0,0,1,.11-.63,1.56,1.56,0,0,1,.33-.5,1.6,1.6,0,0,1,.55-.34,1.86,1.86,0,0,1,.73-.13,1.79,1.79,0,0,1,.7.12,2.24,2.24,0,0,1,.49.25l.35.26a.39.39,0,0,0,.27.11.34.34,0,0,0,.2-.06.56.56,0,0,0,.18-.17l.46-.68a3.42,3.42,0,0,0-.47-.46,2.83,2.83,0,0,0-.58-.36,3.29,3.29,0,0,0-.69-.23,3.77,3.77,0,0,0-.76-.08,3.55,3.55,0,0,0-1.41.27A3.31,3.31,0,0,0,213.63,224.31Z" transform="translate(-130.43 -122.9)"/><path d="M220.9,231.56c0-.06,0-.16,0-.27s0-.27.05-.46l.4-3.28h1.81l.12-1.09h-1.8l.3-2.34H221a.3.3,0,0,0-.21.07.41.41,0,0,0-.13.19l-.56,2.07-1.09.17-.07.61a.31.31,0,0,0,0,.24.26.26,0,0,0,.19.08h.72l-.41,3.37c0,.21,0,.39-.07.53s0,.26,0,.34,0,.15,0,.19v.12a1.51,1.51,0,0,0,.44,1.12,1.57,1.57,0,0,0,1.14.4,2.62,2.62,0,0,0,.91-.17,2.58,2.58,0,0,0,.82-.47l-.32-.73a.19.19,0,0,0-.07-.11.16.16,0,0,0-.11,0,.19.19,0,0,0-.12,0l-.15.1-.21.1a.85.85,0,0,1-.29,0,.53.53,0,0,1-.41-.16.71.71,0,0,1-.14-.47v-.06S220.9,231.63,220.9,231.56Z" transform="translate(-130.43 -122.9)"/><path d="M224,228.91a5.13,5.13,0,0,0-.29,1.72,3.78,3.78,0,0,0,.2,1.26,2.75,2.75,0,0,0,.57.94,2.34,2.34,0,0,0,.86.58,2.92,2.92,0,0,0,1.08.2,3,3,0,0,0,1-.16,3.3,3.3,0,0,0,.88-.44,3.45,3.45,0,0,0,.75-.68,4.13,4.13,0,0,0,.58-.89,4.94,4.94,0,0,0,.5-2.2,3.57,3.57,0,0,0-.2-1.27,2.67,2.67,0,0,0-.56-.94,2.52,2.52,0,0,0-.85-.58,3,3,0,0,0-1.09-.2,3.24,3.24,0,0,0-1.44.34,3.8,3.8,0,0,0-1.18.93A4.64,4.64,0,0,0,224,228.91Zm1.36.49a3.63,3.63,0,0,1,.42-1,2.13,2.13,0,0,1,.64-.69,1.53,1.53,0,0,1,.86-.26,1.22,1.22,0,0,1,1,.44,2.32,2.32,0,0,1,.34,1.37,4.83,4.83,0,0,1-.15,1.21,3.9,3.9,0,0,1-.42,1,2.31,2.31,0,0,1-.65.7,1.45,1.45,0,0,1-.86.26c-.89,0-1.33-.6-1.33-1.82A5.28,5.28,0,0,1,225.37,229.4Z" transform="translate(-130.43 -122.9)"/><path d="M233.62,227.33a5.58,5.58,0,0,0-.57.76l.08-1.23a.51.51,0,0,0-.13-.39.53.53,0,0,0-.37-.12h-.76l-1.16,9.53h1.46l.36-3a2.14,2.14,0,0,0,.71.52,2.09,2.09,0,0,0,.91.19,2.31,2.31,0,0,0,.93-.19,3,3,0,0,0,.84-.51,4,4,0,0,0,.7-.77,5.37,5.37,0,0,0,.54-1,5.65,5.65,0,0,0,.35-1.1,5.83,5.83,0,0,0,.12-1.18,4.36,4.36,0,0,0-.14-1.15,2.49,2.49,0,0,0-.38-.82,1.56,1.56,0,0,0-.62-.5,1.92,1.92,0,0,0-.81-.17,2.29,2.29,0,0,0-.73.13,3,3,0,0,0-.7.37A4.86,4.86,0,0,0,233.62,227.33Zm1.48.13a.87.87,0,0,1,.77.39,2.14,2.14,0,0,1,.27,1.19,4.51,4.51,0,0,1-.07.81,5.38,5.38,0,0,1-.2.79,4.58,4.58,0,0,1-.33.71,2.87,2.87,0,0,1-.44.57,2.17,2.17,0,0,1-.54.39,1.52,1.52,0,0,1-.63.14,1.82,1.82,0,0,1-.68-.13,1.37,1.37,0,0,1-.59-.44l.22-1.78a7,7,0,0,1,.44-1,5.55,5.55,0,0,1,.55-.84,2.78,2.78,0,0,1,.61-.55A1.11,1.11,0,0,1,235.1,227.46Z" transform="translate(-130.43 -122.9)"/><polygon points="202.13 131.44 195.58 133.82 202.13 136.21 202.39 135.51 199.14 134.32 217.75 134.32 217.75 152.93 216.57 149.68 215.86 149.94 218.25 156.49 220.63 149.94 219.93 149.68 218.75 152.93 218.75 134.32 237.35 134.32 234.11 135.51 234.36 136.21 240.91 133.82 234.36 131.44 234.11 132.15 237.35 133.32 218.75 133.32 218.75 114.72 219.93 117.97 220.63 117.71 218.25 111.16 215.86 117.71 216.57 117.97 217.75 114.72 217.75 133.32 199.15 133.32 202.39 132.15 202.13 131.44"/><path d="M351.39,227.56a1.62,1.62,0,0,0,.29-.53,2,2,0,0,0,.09-.59,2.59,2.59,0,0,0-.17-.95,1.86,1.86,0,0,0-.56-.72,2.52,2.52,0,0,0-1-.45,5.39,5.39,0,0,0-1.42-.16h-2.87v8.64H349a4.17,4.17,0,0,0,1.32-.19,2.74,2.74,0,0,0,1-.52,2.22,2.22,0,0,0,.6-.79,2.53,2.53,0,0,0,.2-1q0-1.56-1.83-1.95a3,3,0,0,0,.69-.33A1.93,1.93,0,0,0,351.39,227.56Zm-1.15,1.74a1.17,1.17,0,0,1,.42,1,1.47,1.47,0,0,1-.1.56,1,1,0,0,1-.3.45,1.43,1.43,0,0,1-.53.31,2.62,2.62,0,0,1-.8.11h-1.74V229h1.73A2,2,0,0,1,350.24,229.3Zm-.3-1.69a2.2,2.2,0,0,1-1.35.35h-1.4v-2.7h1.47a2.15,2.15,0,0,1,1.3.31,1.23,1.23,0,0,1,.42,1A1.21,1.21,0,0,1,349.94,227.61Z" transform="translate(-130.43 -122.9)"/><path d="M320.4,260a2.22,2.22,0,0,1-.81-.13,3.79,3.79,0,0,1-.57-.28c-.16-.1-.29-.2-.4-.28a.53.53,0,0,0-.31-.13.32.32,0,0,0-.19,0,.33.33,0,0,0-.13.13l-.41.67a3.24,3.24,0,0,0,.56.47,3.21,3.21,0,0,0,.66.35,3.83,3.83,0,0,0,.75.23,3.71,3.71,0,0,0,.81.08,3.45,3.45,0,0,0,1.25-.21,2.74,2.74,0,0,0,.93-.59,2.57,2.57,0,0,0,.57-.88,3,3,0,0,0,.2-1.08,2.08,2.08,0,0,0-.18-.91,1.71,1.71,0,0,0-.46-.63,2.27,2.27,0,0,0-.65-.42,5.21,5.21,0,0,0-.74-.3l-.75-.25a3.53,3.53,0,0,1-.65-.28,1.42,1.42,0,0,1-.46-.37.84.84,0,0,1-.17-.55,1.28,1.28,0,0,1,.09-.48,1,1,0,0,1,.28-.38,1.19,1.19,0,0,1,.46-.25,2,2,0,0,1,.63-.09,1.93,1.93,0,0,1,.67.1,3.24,3.24,0,0,1,.49.22,2.15,2.15,0,0,1,.35.21.48.48,0,0,0,.25.09.24.24,0,0,0,.18-.05.38.38,0,0,0,.14-.16l.34-.67a2.93,2.93,0,0,0-1.07-.66,3.74,3.74,0,0,0-1.36-.24,3.14,3.14,0,0,0-1.18.21,2.43,2.43,0,0,0-.86.54,2.19,2.19,0,0,0-.54.78,2.33,2.33,0,0,0-.18.9,2.53,2.53,0,0,0,.17,1,1.9,1.9,0,0,0,.46.66,2.4,2.4,0,0,0,.65.44c.25.1.49.2.75.28s.5.16.74.23a3.53,3.53,0,0,1,.65.27,1.35,1.35,0,0,1,.46.39.92.92,0,0,1,.17.59,1.3,1.3,0,0,1-.41,1A1.7,1.7,0,0,1,320.4,260Z" transform="translate(-130.43 -122.9)"/><path d="M376.4,260a2.13,2.13,0,0,1-.8-.13,3.37,3.37,0,0,1-.57-.28l-.41-.28a.49.49,0,0,0-.31-.13.29.29,0,0,0-.18,0,.35.35,0,0,0-.14.13l-.41.67a3.67,3.67,0,0,0,.56.47,3.28,3.28,0,0,0,.67.35,3.83,3.83,0,0,0,.75.23,3.59,3.59,0,0,0,.81.08,3.52,3.52,0,0,0,1.25-.21,2.8,2.8,0,0,0,.92-.59,2.75,2.75,0,0,0,.58-.88,3,3,0,0,0,.19-1.08,2.24,2.24,0,0,0-.17-.91,2,2,0,0,0-.46-.63,2.59,2.59,0,0,0-.65-.42,4.89,4.89,0,0,0-.75-.3l-.74-.25a3.36,3.36,0,0,1-.66-.28,1.42,1.42,0,0,1-.46-.37.9.9,0,0,1-.17-.55,1.08,1.08,0,0,1,.37-.86,1.36,1.36,0,0,1,.46-.25,2.31,2.31,0,0,1,1.31,0,3.24,3.24,0,0,1,.49.22,2.53,2.53,0,0,1,.34.21.51.51,0,0,0,.26.09.27.27,0,0,0,.18-.05.46.46,0,0,0,.14-.16l.34-.67a3,3,0,0,0-1.07-.66,3.79,3.79,0,0,0-1.37-.24,3.05,3.05,0,0,0-1.17.21,2.38,2.38,0,0,0-.87.54,2.3,2.3,0,0,0-.53.78,2.17,2.17,0,0,0-.19.9,2.35,2.35,0,0,0,.18,1,1.78,1.78,0,0,0,.46.66,2.26,2.26,0,0,0,.65.44c.24.1.49.2.74.28s.5.16.74.23a3.36,3.36,0,0,1,.66.27,1.35,1.35,0,0,1,.46.39,1,1,0,0,1,.17.59,1.31,1.31,0,0,1-.42,1A1.7,1.7,0,0,1,376.4,260Z" transform="translate(-130.43 -122.9)"/><path d="M348.55,288.23a2.13,2.13,0,0,1-.8-.13,3.37,3.37,0,0,1-.57-.28l-.41-.28a.48.48,0,0,0-.3-.13.32.32,0,0,0-.19,0,.35.35,0,0,0-.14.13l-.41.67a3.67,3.67,0,0,0,.56.47,3.28,3.28,0,0,0,.67.35,3.83,3.83,0,0,0,.75.23,3.59,3.59,0,0,0,.81.08,3.49,3.49,0,0,0,1.25-.21,2.7,2.7,0,0,0,.92-.59,2.75,2.75,0,0,0,.58-.88,3,3,0,0,0,.19-1.08,2.08,2.08,0,0,0-.17-.91,2,2,0,0,0-.46-.63,2.59,2.59,0,0,0-.65-.42,4.89,4.89,0,0,0-.75-.3l-.74-.25a3.26,3.26,0,0,1-.65-.28,1.32,1.32,0,0,1-.46-.37.85.85,0,0,1-.18-.55,1.12,1.12,0,0,1,.1-.48,1.1,1.1,0,0,1,.27-.38,1.36,1.36,0,0,1,.46-.25,2.11,2.11,0,0,1,.64-.09,1.93,1.93,0,0,1,.67.1,2.48,2.48,0,0,1,.49.22,2.69,2.69,0,0,1,.35.21.45.45,0,0,0,.25.09.27.27,0,0,0,.18,0,.46.46,0,0,0,.14-.16l.34-.67a3,3,0,0,0-1.07-.66,3.75,3.75,0,0,0-1.37-.24,3.05,3.05,0,0,0-1.17.21,2.38,2.38,0,0,0-.87.54,2.3,2.3,0,0,0-.53.78,2.47,2.47,0,0,0,0,1.88,1.78,1.78,0,0,0,.46.66,2.26,2.26,0,0,0,.65.44c.24.1.49.2.74.28s.5.16.75.23a3.53,3.53,0,0,1,.65.27,1.35,1.35,0,0,1,.46.39,1,1,0,0,1,.17.59,1.31,1.31,0,0,1-.42,1A1.69,1.69,0,0,1,348.55,288.23Z" transform="translate(-130.43 -122.9)"/><path d="M263.63,235.47a4.08,4.08,0,0,0-1.48-.83,7,7,0,0,0-2.11-.29h-4.26l-1.84,15.08h2.14l.68-5.58h2.11a7.26,7.26,0,0,0,2.53-.41,5.24,5.24,0,0,0,1.86-1.13,4.68,4.68,0,0,0,1.13-1.73,6,6,0,0,0,.38-2.2,4.52,4.52,0,0,0-.28-1.64A3.29,3.29,0,0,0,263.63,235.47ZM262.39,240a3,3,0,0,1-.68,1.12,3,3,0,0,1-1.1.74,4,4,0,0,1-1.53.27H257l.75-6.1h2.11a2.83,2.83,0,0,1,2.09.69,2.47,2.47,0,0,1,.69,1.85A4.38,4.38,0,0,1,262.39,240Z" transform="translate(-130.43 -122.9)"/><polygon points="138.82 111.03 136.8 111.03 134.92 126.53 136.94 126.53 138.82 111.03"/><path d="M276.82,238.6a6.14,6.14,0,0,0-1.83.27,6.78,6.78,0,0,0-1.64.75,7.15,7.15,0,0,0-1.37,1.15,7.57,7.57,0,0,0-1.05,1.47,7.45,7.45,0,0,0-.92,3.56,5.68,5.68,0,0,0,.21,1.62,3.34,3.34,0,0,0,.58,1.18,2.41,2.41,0,0,0,.89.73,2.69,2.69,0,0,0,1.15.24,2.89,2.89,0,0,0,1.09-.2,3.87,3.87,0,0,0,1-.56,5.85,5.85,0,0,0,.91-.89,9.41,9.41,0,0,0,.79-1.16l-.17,2a.89.89,0,0,0,.14.5.59.59,0,0,0,.53.21h1.07l1.29-10.34a6,6,0,0,0-1.32-.38A8.81,8.81,0,0,0,276.82,238.6Zm.09,5.07a12.09,12.09,0,0,1-.63,1.67,7.92,7.92,0,0,1-.79,1.33,3.92,3.92,0,0,1-.9.88,1.78,1.78,0,0,1-1,.32,1.31,1.31,0,0,1-1.16-.6,3.33,3.33,0,0,1-.4-1.83,6.07,6.07,0,0,1,.35-2,6,6,0,0,1,1-1.7,4.68,4.68,0,0,1,1.42-1.17,3.69,3.69,0,0,1,1.75-.44,5.52,5.52,0,0,1,.81.06Z" transform="translate(-130.43 -122.9)"/><polygon points="152.57 126.53 153.86 115.86 151.84 115.86 150.56 126.53 152.57 126.53"/><path d="M282.66,236.45a1.35,1.35,0,0,0,.43.31,1.22,1.22,0,0,0,.5.11,1.3,1.3,0,0,0,.51-.11,1.57,1.57,0,0,0,.45-.31,1.6,1.6,0,0,0,.32-.45,1.3,1.3,0,0,0,0-1.09,1.77,1.77,0,0,0-.3-.45,1.67,1.67,0,0,0-.44-.31,1.35,1.35,0,0,0-.52-.11,1.19,1.19,0,0,0-.51.12,1.48,1.48,0,0,0-.43.31,1.37,1.37,0,0,0-.3.45,1.38,1.38,0,0,0,0,1.08A1.51,1.51,0,0,0,282.66,236.45Z" transform="translate(-130.43 -122.9)"/><path d="M288.62,238.9a.74.74,0,0,0-.52-.16h-1l-1.28,10.69h2.05l.6-5.38a7.47,7.47,0,0,1,.68-1.54,6.31,6.31,0,0,1,.87-1.19,3.9,3.9,0,0,1,1-.75,2.11,2.11,0,0,1,1-.27,1.08,1.08,0,0,1,1.06.56,3.22,3.22,0,0,1,.15,1.77l-.81,6.8h2l.8-6.8a5.77,5.77,0,0,0,0-1.71,3.23,3.23,0,0,0-.45-1.27,2.24,2.24,0,0,0-.84-.78,2.59,2.59,0,0,0-1.2-.27,4,4,0,0,0-2.16.68,6.56,6.56,0,0,0-1.9,2l.14-1.88A.71.71,0,0,0,288.62,238.9Z" transform="translate(-130.43 -122.9)"/><path d="M257,272.18a2.61,2.61,0,0,1-.94.6,3.26,3.26,0,0,1-1.24.22,3.63,3.63,0,0,1-.92-.11,3.78,3.78,0,0,1-.7-.28,3.62,3.62,0,0,1-.54-.36,5,5,0,0,1-.41-.36,2.5,2.5,0,0,0-.34-.27.44.44,0,0,0-.29-.11.51.51,0,0,0-.29.08,1.16,1.16,0,0,0-.24.2l-.76,1a4.71,4.71,0,0,0,.8.81,4.66,4.66,0,0,0,1,.62,5.2,5.2,0,0,0,1.15.4,5.4,5.4,0,0,0,1.28.14,5.63,5.63,0,0,0,2.22-.42,5,5,0,0,0,1.68-1.14,5.12,5.12,0,0,0,1.07-1.69,5.77,5.77,0,0,0,.37-2,3.37,3.37,0,0,0-.25-1.34,2.92,2.92,0,0,0-.67-.94,3.61,3.61,0,0,0-.93-.65c-.34-.18-.7-.34-1.06-.49l-1.07-.41a5.75,5.75,0,0,1-.93-.46,2.31,2.31,0,0,1-.66-.62,1.57,1.57,0,0,1-.25-.88,2.68,2.68,0,0,1,.18-1,2.3,2.3,0,0,1,.52-.81,2.94,2.94,0,0,1,.85-.54,3.24,3.24,0,0,1,1.16-.2,2.83,2.83,0,0,1,1.08.18,3.91,3.91,0,0,1,.74.39,5.39,5.39,0,0,1,.52.39.58.58,0,0,0,.38.18.55.55,0,0,0,.29-.08A.81.81,0,0,0,260,262l.63-.91a4.16,4.16,0,0,0-1.54-1.22,4.82,4.82,0,0,0-2.13-.46,5.23,5.23,0,0,0-2.07.39,4.73,4.73,0,0,0-1.56,1.06,4.41,4.41,0,0,0-1,1.53,4.77,4.77,0,0,0-.35,1.8,3.63,3.63,0,0,0,.25,1.41,2.74,2.74,0,0,0,.66,1,3.38,3.38,0,0,0,.93.65,9.91,9.91,0,0,0,1.06.45L256,268a5.73,5.73,0,0,1,.93.45,2.15,2.15,0,0,1,.65.62,1.63,1.63,0,0,1,.25.94,3.29,3.29,0,0,1-.21,1.2A2.47,2.47,0,0,1,257,272.18Z" transform="translate(-130.43 -122.9)"/><path d="M263,265.87a6.47,6.47,0,0,0-.82,1.36,6.63,6.63,0,0,0-.51,1.54,7.56,7.56,0,0,0-.18,1.64,5.57,5.57,0,0,0,.28,1.8,3.92,3.92,0,0,0,.79,1.37,3.5,3.5,0,0,0,1.26.88,4.15,4.15,0,0,0,1.65.31,6.33,6.33,0,0,0,1.28-.12,4.85,4.85,0,0,0,1.13-.38,7.11,7.11,0,0,0,1.06-.66,11.22,11.22,0,0,0,1.06-1l-.52-.63a.75.75,0,0,0-.17-.14.36.36,0,0,0-.2-.06.64.64,0,0,0-.35.1l-.36.25-.43.32a3.71,3.71,0,0,1-.53.32,3.1,3.1,0,0,1-.69.24,3.33,3.33,0,0,1-.88.1,2.21,2.21,0,0,1-1.79-.7,3.18,3.18,0,0,1-.59-2.08v-.19a1.28,1.28,0,0,1,0-.19,22.73,22.73,0,0,0,3.37-.55,7.27,7.27,0,0,0,2.06-.82,2.67,2.67,0,0,0,1-1.05,2.82,2.82,0,0,0,.28-1.27,2.09,2.09,0,0,0-.19-.86,2.34,2.34,0,0,0-.58-.81,3,3,0,0,0-1-.59,4,4,0,0,0-1.42-.23,5,5,0,0,0-1.61.26,5.18,5.18,0,0,0-1.36.71A5.41,5.41,0,0,0,263,265.87Zm1.85.37a3.24,3.24,0,0,1,1-.71,2.59,2.59,0,0,1,1.15-.26,1.91,1.91,0,0,1,.68.1,1.23,1.23,0,0,1,.45.27,1.1,1.1,0,0,1,.26.36,1,1,0,0,1,.07.37,1.46,1.46,0,0,1-.16.69,1.57,1.57,0,0,1-.67.62,5.94,5.94,0,0,1-1.43.53,20.41,20.41,0,0,1-2.47.44,6.22,6.22,0,0,1,.46-1.34A4.33,4.33,0,0,1,264.84,266.24Z" transform="translate(-130.43 -122.9)"/><polygon points="141.2 151.73 143.21 151.73 145.09 136.23 143.08 136.23 141.2 151.73"/><path d="M278.25,259.13l-1.88,15.5h1.11a.66.66,0,0,0,.48-.15,1,1,0,0,0,.23-.44l.14-.6a3,3,0,0,0,1.11,1,3.33,3.33,0,0,0,1.52.35,3.5,3.5,0,0,0,1.4-.28,4.54,4.54,0,0,0,1.25-.77,6.92,6.92,0,0,0,1.05-1.16,8.23,8.23,0,0,0,.8-1.46,9.14,9.14,0,0,0,.51-1.66,7.77,7.77,0,0,0,.19-1.73,4.69,4.69,0,0,0-.77-2.92,2.57,2.57,0,0,0-2.13-1,3.17,3.17,0,0,0-1.09.19,4.08,4.08,0,0,0-1,.54,6.18,6.18,0,0,0-.95.85,7.61,7.61,0,0,0-.84,1.12l.91-7.37Zm1.42,8.78a7.73,7.73,0,0,1,.87-1.3,4,4,0,0,1,1-.86,1.82,1.82,0,0,1,1-.31,1.4,1.4,0,0,1,1.22.62,3.32,3.32,0,0,1,.42,1.84,7.54,7.54,0,0,1-.11,1.25,7.05,7.05,0,0,1-.32,1.22,6.4,6.4,0,0,1-.51,1.09,4,4,0,0,1-.69.9,3,3,0,0,1-.85.61,2.31,2.31,0,0,1-1,.22,2.88,2.88,0,0,1-1.08-.21,2.29,2.29,0,0,1-.93-.73l.34-2.71A10.91,10.91,0,0,1,279.67,267.91Z" transform="translate(-130.43 -122.9)"/><path d="M290.36,264.1a.74.74,0,0,0-.52-.16h-1l-1.29,10.69h2l.59-4.85a6.92,6.92,0,0,1,1.64-3.38,2.11,2.11,0,0,1,2.38-.36l.37-2a2.05,2.05,0,0,0-1.13-.17,2.49,2.49,0,0,0-1.09.44,4.33,4.33,0,0,0-1,1,8.75,8.75,0,0,0-.9,1.5l.16-2.2A.71.71,0,0,0,290.36,264.1Z" transform="translate(-130.43 -122.9)"/><polygon points="166.46 151.73 167.75 141.06 165.72 141.06 164.44 151.73 166.46 151.73"/><path d="M298.45,259.66a1.4,1.4,0,0,0-.44-.31,1.34,1.34,0,0,0-.51-.11,1.13,1.13,0,0,0-.51.12,1.35,1.35,0,0,0-.44.31,1.77,1.77,0,0,0-.3.45,1.38,1.38,0,0,0,0,1.08,1.77,1.77,0,0,0,.3.45,1.43,1.43,0,0,0,.42.31,1.26,1.26,0,0,0,.51.11A1.34,1.34,0,0,0,298,262a1.51,1.51,0,0,0,.76-.76,1.25,1.25,0,0,0,.12-.54,1.42,1.42,0,0,0-.11-.55A1.57,1.57,0,0,0,298.45,259.66Z" transform="translate(-130.43 -122.9)"/><path d="M185.09,143.19l-.43,0-.26,0-.15,0-.09,0a1.18,1.18,0,0,0-.8.51,1.22,1.22,0,0,0-.13.94,2,2,0,0,0,.26.68,2.38,2.38,0,0,0,.49.56l.52-.36.07-.07s0-.05,0-.09a.2.2,0,0,0-.05-.09l-.1-.1a1,1,0,0,1-.11-.15.58.58,0,0,1-.08-.21.47.47,0,0,1,.06-.34.53.53,0,0,1,.34-.18h.16l.21,0,.37,0,2.59-.2.27,1.4.86-.07-.28-1.39,1.86-.13-.12-.61a.35.35,0,0,0-.09-.16.36.36,0,0,0-.17-.07l-1.68-.12-.29-.81-.48,0c-.09,0-.15,0-.18.08a.16.16,0,0,0,0,.15l.11.56Z" transform="translate(-130.43 -122.9)"/><path d="M185.59,151.15a4,4,0,0,0,1.76.29,2.88,2.88,0,0,0,1-.23,2,2,0,0,0,.71-.49,1.86,1.86,0,0,0,.41-.69,2.27,2.27,0,0,0,.1-.87,2.53,2.53,0,0,0-.34-1.11,2.88,2.88,0,0,0-.79-.88,3.5,3.5,0,0,0-1.13-.55,4.06,4.06,0,0,0-1.36-.14,2.88,2.88,0,0,0-1,.22,2.3,2.3,0,0,0-.71.49,2.1,2.1,0,0,0-.41.71,2.19,2.19,0,0,0-.1.86,2.48,2.48,0,0,0,.18.76,2.14,2.14,0,0,0,.39.67,3,3,0,0,0,.57.56A3.16,3.16,0,0,0,185.59,151.15Zm.43-3.49a4.35,4.35,0,0,1,1,.05,3.16,3.16,0,0,1,.82.27,1.8,1.8,0,0,1,.57.48,1.12,1.12,0,0,1,.25.65.94.94,0,0,1-.3.82,1.76,1.76,0,0,1-1,.33,3.82,3.82,0,0,1-1,0,2.94,2.94,0,0,1-.82-.28,1.69,1.69,0,0,1-.58-.47,1.22,1.22,0,0,1-.25-.66C184.61,148.1,185.07,147.72,186,147.66Z" transform="translate(-130.43 -122.9)"/><path d="M184.6,158.15a3.72,3.72,0,0,0,.38,1.18,2.76,2.76,0,0,0,.67.82,2.32,2.32,0,0,0,.89.44,2.53,2.53,0,0,0,1,0,1.47,1.47,0,0,0,.92-.5,1.85,1.85,0,0,0,.38-1.1,2.6,2.6,0,0,0,.45.64,2.32,2.32,0,0,0,.55.41,2,2,0,0,0,.62.19,2.51,2.51,0,0,0,.67,0,1.89,1.89,0,0,0,.7-.26,1.36,1.36,0,0,0,.49-.52,2.09,2.09,0,0,0,.23-.8,4.22,4.22,0,0,0-.05-1.1l-.41-2.42-8,.34Zm6.75-1.74.2,1.21a1.55,1.55,0,0,1-.09,1,.92.92,0,0,1-.72.43,1.4,1.4,0,0,1-1.16-.23,1.74,1.74,0,0,1-.59-1.15l-.19-1.14Zm-3.42.15.23,1.42a1.45,1.45,0,0,1-.11,1,1,1,0,0,1-.7.43,2,2,0,0,1-.64,0,1.5,1.5,0,0,1-.52-.21,1.44,1.44,0,0,1-.39-.45,2,2,0,0,1-.22-.68l-.24-1.42Z" transform="translate(-130.43 -122.9)"/><path d="M189.57,166.43a4,4,0,0,0,.89-.22,2.8,2.8,0,0,0,.87-.5,2,2,0,0,0,.54-.67,1.77,1.77,0,0,0,.19-.79,2.15,2.15,0,0,0-.15-.85,2.46,2.46,0,0,0-.64-1,3.07,3.07,0,0,0-1-.61,3.42,3.42,0,0,0-1.25-.2,4,4,0,0,0-1.34.25,2.92,2.92,0,0,0-.87.5,2.1,2.1,0,0,0-.54.67,2,2,0,0,0-.19.79,2.2,2.2,0,0,0,.15.86,2.68,2.68,0,0,0,.39.68,2.4,2.4,0,0,0,.57.53,2.79,2.79,0,0,0,.71.36,3,3,0,0,0,.81.19A4.25,4.25,0,0,0,189.57,166.43Zm-1.32-1.12a1.92,1.92,0,0,1-.7-.29,1.2,1.2,0,0,1-.43-.56c-.24-.65.08-1.15,1-1.48a3.52,3.52,0,0,1,.93-.23,2.69,2.69,0,0,1,.86,0,1.65,1.65,0,0,1,.69.28,1.2,1.2,0,0,1,.43.56,1,1,0,0,1,0,.86,1.77,1.77,0,0,1-.92.63,3.92,3.92,0,0,1-.93.22A2.73,2.73,0,0,1,188.25,165.31Z" transform="translate(-130.43 -122.9)"/><path d="M191.33,167a1.28,1.28,0,0,0-.42.31,1.06,1.06,0,0,0-.21.39,1.55,1.55,0,0,0-.07.43,3.4,3.4,0,0,0,0,.45c0,.15,0,.29.05.44a2.54,2.54,0,0,1,0,.39.8.8,0,0,1-.09.33.51.51,0,0,1-.25.23.82.82,0,0,1-.34.09,1,1,0,0,1-.34-.06,1,1,0,0,1-.31-.21,1.66,1.66,0,0,1-.26-.36A1.51,1.51,0,0,1,189,169a1.39,1.39,0,0,1,0-.36,1.86,1.86,0,0,1,0-.27.36.36,0,0,0,0-.21.26.26,0,0,0-.12-.13.49.49,0,0,0-.17-.06l-.54-.07a2.06,2.06,0,0,0-.13.84,2.24,2.24,0,0,0,.25.95,2.61,2.61,0,0,0,.55.77,2.28,2.28,0,0,0,.7.44,1.87,1.87,0,0,0,.77.13,2,2,0,0,0,.75-.2,1.15,1.15,0,0,0,.42-.31,1.06,1.06,0,0,0,.21-.39,1.56,1.56,0,0,0,.08-.44,3.39,3.39,0,0,0,0-.45c0-.15,0-.3,0-.45a2.67,2.67,0,0,1,0-.4.79.79,0,0,1,.08-.32.45.45,0,0,1,.23-.22.66.66,0,0,1,.3-.07.57.57,0,0,1,.31.07,1,1,0,0,1,.29.21,1.47,1.47,0,0,1,.24.34,1.55,1.55,0,0,1,.15.74,1.84,1.84,0,0,1,0,.26.58.58,0,0,0,0,.19.22.22,0,0,0,.09.1.39.39,0,0,0,.14,0l.52.08a2.15,2.15,0,0,0,.12-.81A2.19,2.19,0,0,0,194,168a2.26,2.26,0,0,0-.53-.73,2,2,0,0,0-.67-.4,1.83,1.83,0,0,0-.73-.11A1.87,1.87,0,0,0,191.33,167Z" transform="translate(-130.43 -122.9)"/><path d="M194.13,170.59l.29.49L192,172.16l-.39.18-.24.11-.13.07-.08,0a1.17,1.17,0,0,0-.58.75,1.26,1.26,0,0,0,.19.93,2.31,2.31,0,0,0,.49.55,2.41,2.41,0,0,0,.65.36l.36-.52a.2.2,0,0,0,.05-.09.23.23,0,0,0,0-.09.18.18,0,0,0-.08-.06l-.13-.06-.15-.1a.54.54,0,0,1-.14-.18.42.42,0,0,1-.06-.34.54.54,0,0,1,.26-.29l0,0,.1,0,.19-.09.34-.15,2.37-1.06.73,1.21.78-.35-.73-1.21,1.7-.75-.32-.54a.27.27,0,0,0-.14-.12.37.37,0,0,0-.18,0l-1.62.46-.55-.66-.44.2a.23.23,0,0,0-.14.13A.18.18,0,0,0,194.13,170.59Z" transform="translate(-130.43 -122.9)"/><path d="M195.23,174.6a4,4,0,0,0-1.13.77,2.74,2.74,0,0,0-.6.81,2,2,0,0,0-.23.83,1.86,1.86,0,0,0,.14.8,2.07,2.07,0,0,0,.48.72,2.36,2.36,0,0,0,.62.47,2.86,2.86,0,0,0,.74.27,3.19,3.19,0,0,0,1.61-.11,3.28,3.28,0,0,0,.79-.36,4.23,4.23,0,0,0,.73-.55,3,3,0,0,0,.61-.81,2.14,2.14,0,0,0,.22-.83,1.85,1.85,0,0,0-.13-.8,2.39,2.39,0,0,0-.48-.72,2.5,2.5,0,0,0-1-.63,2.87,2.87,0,0,0-1.17-.16A3.41,3.41,0,0,0,195.23,174.6Zm2,.71a1.19,1.19,0,0,1,.62.34.91.91,0,0,1,.29.81,1.75,1.75,0,0,1-.59.94,3.68,3.68,0,0,1-.76.57,2.73,2.73,0,0,1-.81.32,1.73,1.73,0,0,1-.75,0,1.2,1.2,0,0,1-.61-.34c-.49-.51-.39-1.09.3-1.75a3.79,3.79,0,0,1,.77-.58,2.79,2.79,0,0,1,.8-.32A1.68,1.68,0,0,1,197.24,175.31Z" transform="translate(-130.43 -122.9)"/><path d="M198,182.14l1.94-2a3.54,3.54,0,0,1,.75-.42,3.18,3.18,0,0,1,.71-.22,1.91,1.91,0,0,1,.63,0,1,1,0,0,1,.47.19.55.55,0,0,1,.26.54,1.46,1.46,0,0,1-.48.73l-2.5,2.58.94.72,2.5-2.58a3.41,3.41,0,0,0,.55-.73,1.9,1.9,0,0,0,.21-.68,1.13,1.13,0,0,0-.11-.6,1.45,1.45,0,0,0-.41-.49,2.13,2.13,0,0,0-1.09-.41A3.27,3.27,0,0,0,201,179l.58-.68a.4.4,0,0,0,.1-.3.46.46,0,0,0-.18-.25l-.47-.36-3.94,4.06Z" transform="translate(-130.43 -122.9)"/><path d="M179.42,133.91l-.07-2.91a19.17,19.17,0,0,0,2.8,4.11,11,11,0,0,1,3,5.81l1-.16a12,12,0,0,0-3.2-6.28,17.08,17.08,0,0,1-3.09-4.89l2.72,3.1.56-.5-4.6-5.24.16,7Z" transform="translate(-130.43 -122.9)"/><path d="M333.69,354.39a3.72,3.72,0,0,0-1.34-.65,7.51,7.51,0,0,0-2-.22H326l-1.76,14.36h4.8a6.88,6.88,0,0,0,2.21-.34,4.93,4.93,0,0,0,1.65-1,4,4,0,0,0,1-1.44,4.55,4.55,0,0,0,.36-1.82,2.68,2.68,0,0,0-.63-1.83,3.42,3.42,0,0,0-1.91-1,4.83,4.83,0,0,0,1.29-.62A4,4,0,0,0,334,359a3.72,3.72,0,0,0,.54-1.07,4.07,4.07,0,0,0,.18-1.21,3.37,3.37,0,0,0-.25-1.34A2.39,2.39,0,0,0,333.69,354.39Zm-1.54,8.15a2.16,2.16,0,0,1,.15.83,3.46,3.46,0,0,1-.19,1.19,2.23,2.23,0,0,1-.57.9,2.58,2.58,0,0,1-1,.58,3.85,3.85,0,0,1-1.34.21h-2.72l.6-4.87h2.71a3.63,3.63,0,0,1,1.1.14,1.9,1.9,0,0,1,.76.4A1.63,1.63,0,0,1,332.15,362.54Zm.29-4.27a2.28,2.28,0,0,1-.59.89,2.8,2.8,0,0,1-1,.57,4.28,4.28,0,0,1-1.36.2h-2.21l.59-4.8h2.3a2.93,2.93,0,0,1,1.85.48,1.82,1.82,0,0,1,.59,1.49A3.13,3.13,0,0,1,332.44,358.27Z" transform="translate(-130.43 -122.9)"/><path d="M337.76,363.47a22.23,22.23,0,0,0,3.21-.53,7.19,7.19,0,0,0,2-.78,2.58,2.58,0,0,0,1-1,2.72,2.72,0,0,0,.27-1.21,2.06,2.06,0,0,0-.18-.82,2.24,2.24,0,0,0-.55-.77,2.85,2.85,0,0,0-.95-.56,3.67,3.67,0,0,0-1.35-.22,4.81,4.81,0,0,0-1.53.24,4.89,4.89,0,0,0-1.3.68,5.44,5.44,0,0,0-1.05,1,7.63,7.63,0,0,0-.78,1.29,7,7,0,0,0-.48,1.47,7.55,7.55,0,0,0-.17,1.57,5.11,5.11,0,0,0,.27,1.71,3.75,3.75,0,0,0,.75,1.31,3.4,3.4,0,0,0,1.2.83,4,4,0,0,0,1.57.3,5.8,5.8,0,0,0,1.22-.12,5.08,5.08,0,0,0,1.08-.36,6,6,0,0,0,1-.63,10.24,10.24,0,0,0,1-.91l-.49-.6a1,1,0,0,0-.16-.14.33.33,0,0,0-.2-.05.68.68,0,0,0-.33.09,2.72,2.72,0,0,0-.34.24l-.41.3a3.31,3.31,0,0,1-.5.31,3.39,3.39,0,0,1-.66.23,3.45,3.45,0,0,1-.84.1,2.11,2.11,0,0,1-1.7-.67,3,3,0,0,1-.57-2v-.18C337.75,363.59,337.76,363.53,337.76,363.47Zm.61-2.56a4.42,4.42,0,0,1,.68-1,3.06,3.06,0,0,1,.9-.68,2.53,2.53,0,0,1,1.1-.24,1.78,1.78,0,0,1,.65.1,1.28,1.28,0,0,1,.43.25,1,1,0,0,1,.24.34.92.92,0,0,1,.07.36,1.52,1.52,0,0,1-.15.66,1.6,1.6,0,0,1-.64.58,6.12,6.12,0,0,1-1.36.51,21.47,21.47,0,0,1-2.36.42A6.88,6.88,0,0,1,338.37,360.91Z" transform="translate(-130.43 -122.9)"/><path d="M359.86,354.39a3.72,3.72,0,0,0-1.34-.65,7.51,7.51,0,0,0-2-.22h-4.35l-1.76,14.36h4.8a6.88,6.88,0,0,0,2.21-.34,4.93,4.93,0,0,0,1.65-1,4,4,0,0,0,1-1.44,4.55,4.55,0,0,0,.36-1.82,2.68,2.68,0,0,0-.63-1.83,3.42,3.42,0,0,0-1.91-1,4.83,4.83,0,0,0,1.29-.62,4,4,0,0,0,.92-.86,3.72,3.72,0,0,0,.54-1.07,4.07,4.07,0,0,0,.18-1.21,3.37,3.37,0,0,0-.25-1.34A2.39,2.39,0,0,0,359.86,354.39Zm-1.54,8.15a2.16,2.16,0,0,1,.15.83,3.46,3.46,0,0,1-.19,1.19,2.23,2.23,0,0,1-.57.9,2.58,2.58,0,0,1-.95.58,3.85,3.85,0,0,1-1.34.21H352.7l.6-4.87H356a3.63,3.63,0,0,1,1.1.14,1.9,1.9,0,0,1,.76.4A1.63,1.63,0,0,1,358.32,362.54Zm.29-4.27a2.28,2.28,0,0,1-.59.89,2.8,2.8,0,0,1-1,.57,4.28,4.28,0,0,1-1.36.2h-2.21l.59-4.8h2.3a2.93,2.93,0,0,1,1.85.48,1.82,1.82,0,0,1,.59,1.49A3.13,3.13,0,0,1,358.61,358.27Z" transform="translate(-130.43 -122.9)"/><path d="M368.43,357.57a5.91,5.91,0,0,0-1.74.25,6.36,6.36,0,0,0-2.86,1.82,7,7,0,0,0-1,1.4,6.76,6.76,0,0,0-.64,1.62,7,7,0,0,0-.23,1.77,5.53,5.53,0,0,0,.2,1.54,3.26,3.26,0,0,0,.55,1.12,2.36,2.36,0,0,0,.85.69,2.45,2.45,0,0,0,1.09.24,3.14,3.14,0,0,0,1.05-.19,4.19,4.19,0,0,0,1-.54,5.74,5.74,0,0,0,.86-.85,8.16,8.16,0,0,0,.75-1.1l-.16,1.87a.89.89,0,0,0,.13.47.58.58,0,0,0,.51.2h1L371,358a5.25,5.25,0,0,0-1.25-.37A8,8,0,0,0,368.43,357.57Zm.09,4.83a11.42,11.42,0,0,1-.6,1.59,7.49,7.49,0,0,1-.75,1.26,3.57,3.57,0,0,1-.86.84,1.69,1.69,0,0,1-.93.31,1.26,1.26,0,0,1-1.1-.58,3.21,3.21,0,0,1-.38-1.74,5.5,5.5,0,0,1,.34-1.94,5.12,5.12,0,0,1,.91-1.62,4.4,4.4,0,0,1,1.35-1.12,3.47,3.47,0,0,1,1.67-.41,5,5,0,0,1,.77.06Z" transform="translate(-130.43 -122.9)"/><path d="M379.91,357.82a.6.6,0,0,0-.24.28l-3,6.1c-.07.14-.14.29-.2.44a4.68,4.68,0,0,0-.19.45c0-.16,0-.31-.05-.45l-.09-.43-1.54-6.1a.52.52,0,0,0-.16-.28.44.44,0,0,0-.34-.11h-1.62l2.62,9.51-2.22,4.06h1.44a.73.73,0,0,0,.67-.44l6.82-13.13h-1.56A.54.54,0,0,0,379.91,357.82Z" transform="translate(-130.43 -122.9)"/><path d="M151.68,247.09l-.89,7.2H152l1.24-10.06H152l-.12,0-.11.07-.12.12-3.83,6.17a2.28,2.28,0,0,0-.17.3l-.15.31c0-.1,0-.21-.08-.31s-.06-.2-.09-.3L145,244.47a.43.43,0,0,0-.19-.19.63.63,0,0,0-.28-.05h-1.06l-1.23,10.06h1.26l.88-7.22a3.25,3.25,0,0,0,0-.33c0-.12,0-.24,0-.36l2.33,6.17a.47.47,0,0,0,.48.33h.2a.6.6,0,0,0,.55-.33l3.81-6.17c0,.13-.05.25-.08.37S151.69,247,151.68,247.09Z" transform="translate(-130.43 -122.9)"/><path d="M155.25,251.2a15.06,15.06,0,0,0,2.24-.37,5.5,5.5,0,0,0,1.38-.54,1.86,1.86,0,0,0,.69-.71,1.83,1.83,0,0,0,.19-.85,1.38,1.38,0,0,0-.13-.57,1.4,1.4,0,0,0-.39-.53,1.79,1.79,0,0,0-.66-.4,2.65,2.65,0,0,0-.94-.15,3.08,3.08,0,0,0-1.07.17,3.14,3.14,0,0,0-.91.47,3.93,3.93,0,0,0-.74.73,4.83,4.83,0,0,0-.88,1.93,5.08,5.08,0,0,0-.12,1.1,3.51,3.51,0,0,0,.19,1.2,2.61,2.61,0,0,0,.52.91,2.41,2.41,0,0,0,.84.59,3,3,0,0,0,1.1.2,3.87,3.87,0,0,0,.86-.08,3.31,3.31,0,0,0,.75-.25,4.79,4.79,0,0,0,.7-.44,6.72,6.72,0,0,0,.71-.64l-.34-.42a.47.47,0,0,0-.12-.09.2.2,0,0,0-.13,0,.53.53,0,0,0-.24.06l-.24.17-.28.21a1.71,1.71,0,0,1-.35.21,2.75,2.75,0,0,1-.46.17,2.65,2.65,0,0,1-.59.07,1.47,1.47,0,0,1-1.19-.47,2.1,2.1,0,0,1-.4-1.39v-.13A.49.49,0,0,1,155.25,251.2Zm.42-1.79a2.77,2.77,0,0,1,.48-.71,2,2,0,0,1,.63-.48,1.77,1.77,0,0,1,.77-.17,1.18,1.18,0,0,1,.45.07.73.73,0,0,1,.3.18.56.56,0,0,1,.17.24.52.52,0,0,1,.05.24,1,1,0,0,1-.11.47,1.1,1.1,0,0,1-.44.41,4.4,4.4,0,0,1-1,.35,13.68,13.68,0,0,1-1.64.29A4,4,0,0,1,155.67,249.41Z" transform="translate(-130.43 -122.9)"/><path d="M162.73,244.9a.27.27,0,0,0-.2.07.33.33,0,0,0-.11.18l-.55,2.12-1.09.16-.06.56a.26.26,0,0,0,.05.22.21.21,0,0,0,.17.07h.76l-.43,3.46c0,.22-.05.4-.06.54s0,.25,0,.33,0,.15,0,.2v.1a1.52,1.52,0,0,0,.42,1.11,1.57,1.57,0,0,0,1.11.38,2.55,2.55,0,0,0,.89-.17,2.62,2.62,0,0,0,.8-.48l-.29-.65L164,253a.15.15,0,0,0-.1,0,.21.21,0,0,0-.12,0l-.17.11-.22.11a1,1,0,0,1-.31.05.58.58,0,0,1-.43-.17.73.73,0,0,1-.16-.5.18.18,0,0,1,0-.06.82.82,0,0,1,0-.14c0-.07,0-.16,0-.28s0-.27.06-.46l.42-3.39h1.83l.11-1h-1.82l.3-2.39Z" transform="translate(-130.43 -122.9)"/><path d="M169.94,247.07a4.14,4.14,0,0,0-1.22.18,4.31,4.31,0,0,0-1.09.5,4.18,4.18,0,0,0-.91.77,4.9,4.9,0,0,0-.71,1,5.21,5.21,0,0,0-.45,1.14,5.06,5.06,0,0,0-.16,1.23,3.88,3.88,0,0,0,.14,1.08,2.34,2.34,0,0,0,.39.79,1.61,1.61,0,0,0,.59.48,1.77,1.77,0,0,0,.77.16,2,2,0,0,0,.73-.13,2.5,2.5,0,0,0,.67-.38,3.7,3.7,0,0,0,.6-.59,5.5,5.5,0,0,0,.53-.77l-.11,1.31a.58.58,0,0,0,.09.33.41.41,0,0,0,.36.14h.71l.86-6.89a4.19,4.19,0,0,0-.88-.26A5.49,5.49,0,0,0,169.94,247.07Zm.06,3.38a8,8,0,0,1-.42,1.11,5.65,5.65,0,0,1-.52.89,2.6,2.6,0,0,1-.61.59,1.16,1.16,0,0,1-.64.21.85.85,0,0,1-.77-.4,2.23,2.23,0,0,1-.27-1.22,4.09,4.09,0,0,1,.23-1.36,4,4,0,0,1,.64-1.14,3.39,3.39,0,0,1,1-.78,2.47,2.47,0,0,1,1.17-.29,4.9,4.9,0,0,1,.54,0Z" transform="translate(-130.43 -122.9)"/><polygon points="31.12 148.19 31.64 143.91 35.31 143.91 35.47 142.74 31.79 142.74 32.21 139.31 36.52 139.31 36.67 138.14 30.91 138.14 29.68 148.19 31.12 148.19"/><path d="M168.87,264.21a3.48,3.48,0,0,0-1.16.93,4.48,4.48,0,0,0-.78,1.39,4.92,4.92,0,0,0-.29,1.69,3.78,3.78,0,0,0,.2,1.26,2.69,2.69,0,0,0,.56.93,2.24,2.24,0,0,0,.84.57,2.68,2.68,0,0,0,1.07.2,3.12,3.12,0,0,0,1.44-.34,3.62,3.62,0,0,0,1.16-.94,4.48,4.48,0,0,0,.78-1.39,5,5,0,0,0,.28-1.69,3.53,3.53,0,0,0-.2-1.25,2.57,2.57,0,0,0-.55-.92,2.31,2.31,0,0,0-.84-.58,2.91,2.91,0,0,0-1.07-.2A3.06,3.06,0,0,0,168.87,264.21Zm2.37,1.19a2.26,2.26,0,0,1,.37,1.43,4.71,4.71,0,0,1-.16,1.25,3.8,3.8,0,0,1-.43,1.05,2.38,2.38,0,0,1-.69.72,1.58,1.58,0,0,1-.89.27,1.27,1.27,0,0,1-1.07-.48,2.34,2.34,0,0,1-.36-1.42,5.1,5.1,0,0,1,.15-1.25,3.86,3.86,0,0,1,.44-1.05,2.48,2.48,0,0,1,.68-.72,1.59,1.59,0,0,1,.9-.27A1.26,1.26,0,0,1,171.24,265.4Z" transform="translate(-130.43 -122.9)"/><path d="M175.8,264.07a.5.5,0,0,0-.34-.11h-.69l-.86,7.13h1.34l.39-3.23a4.6,4.6,0,0,1,1.1-2.26,1.42,1.42,0,0,1,1.58-.24l.25-1.32a1.36,1.36,0,0,0-.76-.11,1.59,1.59,0,0,0-.72.29,2.83,2.83,0,0,0-.67.67,5.52,5.52,0,0,0-.61,1l.11-1.47A.46.46,0,0,0,175.8,264.07Z" transform="translate(-130.43 -122.9)"/><path d="M183.07,271a.4.4,0,0,0,.35.14h.72l1.27-10.34h-1.34l-.47,3.87a2.19,2.19,0,0,0-.72-.56,2.23,2.23,0,0,0-.94-.19,2.5,2.5,0,0,0-.94.18,3.48,3.48,0,0,0-.83.52,4.37,4.37,0,0,0-.69.78,4.53,4.53,0,0,0-.53,1,5.55,5.55,0,0,0-.35,1.09,5.79,5.79,0,0,0-.12,1.16,3.1,3.1,0,0,0,.52,2,1.7,1.7,0,0,0,1.41.65,2.19,2.19,0,0,0,.75-.13,2.93,2.93,0,0,0,.71-.39,4.58,4.58,0,0,0,.65-.61,5.44,5.44,0,0,0,.57-.8l-.12,1.37A.52.52,0,0,0,183.07,271Zm-.28-2.5a4,4,0,0,1-.57.86,2.46,2.46,0,0,1-.64.58,1.26,1.26,0,0,1-.65.2.92.92,0,0,1-.81-.42,2.19,2.19,0,0,1-.29-1.23,4.76,4.76,0,0,1,.08-.83,4.38,4.38,0,0,1,.21-.81,4.43,4.43,0,0,1,.34-.73,3.17,3.17,0,0,1,.46-.6,2,2,0,0,1,.57-.4,1.48,1.48,0,0,1,.66-.14,1.8,1.8,0,0,1,.71.14,1.36,1.36,0,0,1,.62.48l-.23,1.82A6.62,6.62,0,0,1,182.79,268.45Z" transform="translate(-130.43 -122.9)"/><path d="M282.1,325.45h1l.26-2.05h.72a2.88,2.88,0,0,0,1-.16,2.15,2.15,0,0,0,.73-.45,2,2,0,0,0,.44-.68,2.63,2.63,0,0,0,.14-.86,1.69,1.69,0,0,0-.11-.64,1.21,1.21,0,0,0-.34-.5,1.55,1.55,0,0,0-.58-.33,2.62,2.62,0,0,0-.84-.12h-1.76Zm1.65-5h.72a1.25,1.25,0,0,1,.41.07.71.71,0,0,1,.29.18.69.69,0,0,1,.17.27,1,1,0,0,1,.06.36,1.61,1.61,0,0,1-.07.51,1.07,1.07,0,0,1-.22.39,1,1,0,0,1-.37.26,1.4,1.4,0,0,1-.53.09h-.72Z" transform="translate(-130.43 -122.9)"/><path d="M289.35,321.39a.81.81,0,0,0-.4-.07.89.89,0,0,0-.4.15,1.45,1.45,0,0,0-.37.34,2.58,2.58,0,0,0-.33.52l0-.67a.33.33,0,0,0-.08-.24.36.36,0,0,0-.24-.08H287l-.49,4.11h1l.22-1.82a2.29,2.29,0,0,1,.59-1.2.79.79,0,0,1,.85-.1Z" transform="translate(-130.43 -122.9)"/><path d="M292.67,324.69l-.25-.31-.09-.06a.15.15,0,0,0-.09,0l-.15,0-.13.08-.16.11a.78.78,0,0,1-.18.11,1.35,1.35,0,0,1-.24.08,1.42,1.42,0,0,1-.31,0c-.55,0-.82-.32-.82-1v-.06a9.2,9.2,0,0,0,1.24-.2,3,3,0,0,0,.77-.31,1,1,0,0,0,.39-.41,1.18,1.18,0,0,0,.11-.5.94.94,0,0,0-.08-.36.9.9,0,0,0-.24-.32,1.22,1.22,0,0,0-.4-.24,1.66,1.66,0,0,0-.57-.09,2.06,2.06,0,0,0-.62.09,2.4,2.4,0,0,0-.53.27,2.43,2.43,0,0,0-.44.41,3,3,0,0,0-.32.52,2.91,2.91,0,0,0-.27,1.22,2.25,2.25,0,0,0,.11.71,1.59,1.59,0,0,0,.33.53,1.41,1.41,0,0,0,.5.35,1.67,1.67,0,0,0,.65.12,2.76,2.76,0,0,0,.51-.05,1.7,1.7,0,0,0,.45-.15,2,2,0,0,0,.41-.25A4.64,4.64,0,0,0,292.67,324.69Zm-2.17-2.05a1.09,1.09,0,0,1,.24-.35.93.93,0,0,1,.3-.23.81.81,0,0,1,.38-.08.56.56,0,0,1,.2,0,.37.37,0,0,1,.14.08.28.28,0,0,1,.08.12.27.27,0,0,1,0,.12.59.59,0,0,1-.05.23.56.56,0,0,1-.22.21,2.06,2.06,0,0,1-.47.17,5,5,0,0,1-.8.15A2.2,2.2,0,0,1,290.5,322.64Z" transform="translate(-130.43 -122.9)"/><path d="M296.92,324.28s0-.08,0-.15,0-.15,0-.26l.22-1.8h1l.09-.68h-1l.16-1.3h-.53a.21.21,0,0,0-.14,0,.24.24,0,0,0-.08.13l-.34,1.13h-1.52l.16-1.3h-.53a.21.21,0,0,0-.14,0,.2.2,0,0,0-.08.13l-.34,1.12-.61.11,0,.38a.18.18,0,0,0,0,.15.17.17,0,0,0,.13.05h.36l-.22,1.85c0,.13,0,.24,0,.32a1.76,1.76,0,0,0,0,.19.57.57,0,0,0,0,.12v.06a.92.92,0,0,0,.27.67,1,1,0,0,0,.69.23,1.7,1.7,0,0,0,.54-.09,1.57,1.57,0,0,0,.49-.27l-.22-.48a.16.16,0,0,0,0-.07l-.07,0-.07,0-.08,0-.1,0a.32.32,0,0,1-.14,0,.26.26,0,0,1-.21-.09.36.36,0,0,1-.08-.24v0a.17.17,0,0,0,0-.08,1.39,1.39,0,0,0,0-.15c0-.06,0-.15,0-.26l.23-1.8h1.48l-.24,1.85c0,.13,0,.24,0,.32a1.76,1.76,0,0,0,0,.19c0,.05,0,.09,0,.12v.06a.92.92,0,0,0,.27.67,1,1,0,0,0,.69.23,1.7,1.7,0,0,0,.54-.09,1.57,1.57,0,0,0,.49-.27l-.21-.48,0-.07-.07,0-.07,0-.08,0-.1,0a.32.32,0,0,1-.14,0,.28.28,0,0,1-.22-.09.43.43,0,0,1-.07-.24v0S296.92,324.32,296.92,324.28Z" transform="translate(-130.43 -122.9)"/><path d="M301.52,321.39a.49.49,0,0,0-.12.13l-1,2.13-.09.21-.09.2-.06-.4-.51-2.13a.27.27,0,0,0-.07-.13.21.21,0,0,0-.16-.06h-.83l1,3.79-.92,1.66h.73a.32.32,0,0,0,.32-.21l2.72-5.24h-.8A.3.3,0,0,0,301.52,321.39Z" transform="translate(-130.43 -122.9)"/><polygon points="174.44 196.77 173.72 202.55 176.87 202.55 176.97 201.69 174.87 201.69 175.47 196.77 174.44 196.77"/><path d="M308.55,320.58a.67.67,0,0,0,.19.14.59.59,0,0,0,.22,0,.61.61,0,0,0,.43-.19.7.7,0,0,0,.15-.19.69.69,0,0,0,0-.24.7.7,0,0,0,0-.25.72.72,0,0,0-.14-.2.53.53,0,0,0-.2-.13.46.46,0,0,0-.23-.05.42.42,0,0,0-.22.05.53.53,0,0,0-.2.13.86.86,0,0,0-.13.2.54.54,0,0,0-.06.25.69.69,0,0,0,.05.24A.67.67,0,0,0,308.55,320.58Z" transform="translate(-130.43 -122.9)"/><polygon points="178.42 202.55 178.91 198.45 177.94 198.45 177.44 202.55 178.42 202.55"/><path d="M311.12,320.09a.24.24,0,0,0-.15,0,.32.32,0,0,0-.08.13l-.33,1.12-.61.11-.05.38a.18.18,0,0,0,0,.15.17.17,0,0,0,.12.05h.37l-.23,1.85c0,.13,0,.24,0,.32s0,.14,0,.19v.18a.92.92,0,0,0,.27.67,1,1,0,0,0,.69.23,1.64,1.64,0,0,0,1-.36l-.22-.48a.43.43,0,0,0,0-.07l-.07,0-.07,0-.08,0-.1,0a.33.33,0,0,1-.15,0,.26.26,0,0,1-.21-.09.36.36,0,0,1-.07-.24v0s0,0,0-.08,0-.08,0-.15,0-.15,0-.26l.22-1.8h1.48l-.23,1.85a2.23,2.23,0,0,0,0,.32,1.76,1.76,0,0,0,0,.19.57.57,0,0,0,0,.12v.06a.92.92,0,0,0,.27.67,1,1,0,0,0,.69.23,1.6,1.6,0,0,0,.53-.09,1.62,1.62,0,0,0,.5-.27l-.22-.48a.43.43,0,0,0,0-.07l-.07,0-.07,0-.08,0-.1,0a.33.33,0,0,1-.15,0,.26.26,0,0,1-.21-.09.36.36,0,0,1-.07-.24v0a.28.28,0,0,1,0-.08s0-.08,0-.15,0-.15,0-.26l.22-1.8h1l.09-.68h-1l.16-1.3h-.52a.2.2,0,0,0-.14,0,.25.25,0,0,0-.09.13l-.33,1.13h-1.52l.16-1.3Z" transform="translate(-130.43 -122.9)"/><polygon points="184.74 202.55 185.71 202.55 186.43 196.61 185.46 196.61 184.74 202.55"/><path d="M317.15,323.17a2.7,2.7,0,0,0-.07.63,2,2,0,0,0,.11.71,1.57,1.57,0,0,0,.32.53,1.61,1.61,0,0,0,.5.35,1.71,1.71,0,0,0,.65.12,2.78,2.78,0,0,0,.52-.05,1.76,1.76,0,0,0,.44-.15,2.32,2.32,0,0,0,.42-.25c.14-.11.27-.23.42-.37l-.26-.31-.08-.06a.15.15,0,0,0-.09,0,.33.33,0,0,0-.15,0l-.14.08-.15.11-.18.11-.24.08a1.48,1.48,0,0,1-.31,0c-.55,0-.82-.32-.82-1v-.06a9.2,9.2,0,0,0,1.24-.2,2.77,2.77,0,0,0,.76-.31,1.11,1.11,0,0,0,.4-.41,1.18,1.18,0,0,0,.11-.5.94.94,0,0,0-.08-.36,1.22,1.22,0,0,0-.24-.32,1.27,1.27,0,0,0-.41-.24,1.6,1.6,0,0,0-.56-.09,2.06,2.06,0,0,0-.62.09,2.2,2.2,0,0,0-.53.27,2.14,2.14,0,0,0-.44.41,2.51,2.51,0,0,0-.32.52A2.28,2.28,0,0,0,317.15,323.17Zm1.13-.53a1.54,1.54,0,0,1,.24-.35,1,1,0,0,1,.31-.23.8.8,0,0,1,.37-.08.66.66,0,0,1,.21,0,.47.47,0,0,1,.14.08l.08.12a.27.27,0,0,1,0,.12.46.46,0,0,1-.06.23.5.5,0,0,1-.22.21,2,2,0,0,1-.46.17,5,5,0,0,1-.8.15A2.18,2.18,0,0,1,318.28,322.64Z" transform="translate(-130.43 -122.9)"/><path d="M283.73,331.15a1.76,1.76,0,0,1,1.41-.66,2.37,2.37,0,0,1,.41,0,2,2,0,0,1,.32.1l.25.13.23.15a.28.28,0,0,0,.24.06.39.39,0,0,0,.2-.14l.33-.43a2,2,0,0,0-.33-.31,2.36,2.36,0,0,0-.41-.25,2.64,2.64,0,0,0-.52-.17,3.1,3.1,0,0,0-.64-.06,3.34,3.34,0,0,0-.84.11,3.14,3.14,0,0,0-.75.32,3,3,0,0,0-.62.51,2.92,2.92,0,0,0-.48.67,3.56,3.56,0,0,0-.3.81,3.49,3.49,0,0,0-.11.93,2.8,2.8,0,0,0,.17,1,2.45,2.45,0,0,0,.47.82,2.37,2.37,0,0,0,.75.53,2.32,2.32,0,0,0,1,.19,4.08,4.08,0,0,0,1.16-.15,3.12,3.12,0,0,0,.95-.47l.29-2.33h-1.8l-.07.6a.2.2,0,0,0,0,.13.2.2,0,0,0,.15,0h.64l-.13,1.1a2.07,2.07,0,0,1-.47.18,2.52,2.52,0,0,1-.58.06,1.46,1.46,0,0,1-.6-.12,1.23,1.23,0,0,1-.46-.35,1.53,1.53,0,0,1-.3-.55,2.47,2.47,0,0,1-.11-.75,3.12,3.12,0,0,1,.15-1A2.34,2.34,0,0,1,283.73,331.15Z" transform="translate(-130.43 -122.9)"/><path d="M289.06,330.39a.52.52,0,0,0,.05-.24.53.53,0,0,0-.05-.25.56.56,0,0,0-.14-.2.5.5,0,0,0-.19-.13.52.52,0,0,0-.24-.05.44.44,0,0,0-.22.05.63.63,0,0,0-.2.13.86.86,0,0,0-.13.2.53.53,0,0,0-.05.25.52.52,0,0,0,.05.24.5.5,0,0,0,.13.19.85.85,0,0,0,.19.14.59.59,0,0,0,.23,0,.64.64,0,0,0,.23,0,.9.9,0,0,0,.2-.14A.67.67,0,0,0,289.06,330.39Z" transform="translate(-130.43 -122.9)"/><polygon points="156.97 212.55 157.94 212.55 158.43 208.45 157.46 208.45 156.97 212.55"/><path d="M290.56,331.42a.36.36,0,0,0-.24-.08h-.51l-.49,4.11h1l.22-1.82a2.22,2.22,0,0,1,.58-1.2.8.8,0,0,1,.86-.1l.18-.94a.87.87,0,0,0-.41-.07.89.89,0,0,0-.4.15,1.45,1.45,0,0,0-.37.34,2.58,2.58,0,0,0-.33.52l0-.67A.3.3,0,0,0,290.56,331.42Z" transform="translate(-130.43 -122.9)"/><polygon points="163.42 206.61 162.45 206.61 161.73 212.55 162.7 212.55 163.42 206.61"/><path d="M295.79,332a1.19,1.19,0,0,1,.29,0l.21.09.17.09a.25.25,0,0,0,.14,0l.11,0,.08-.09.25-.36a1.49,1.49,0,0,0-.51-.35,1.84,1.84,0,0,0-.69-.13,1.79,1.79,0,0,0-.68.12,1.54,1.54,0,0,0-.49.32,1.37,1.37,0,0,0-.3.45,1.44,1.44,0,0,0-.11.53,1,1,0,0,0,.07.39.91.91,0,0,0,.18.27,1.2,1.2,0,0,0,.26.18l.29.13.29.1.26.12a.47.47,0,0,1,.18.16.32.32,0,0,1,.07.22.5.5,0,0,1-.17.39.66.66,0,0,1-.22.12.85.85,0,0,1-.29,0,.82.82,0,0,1-.33-.05.9.9,0,0,1-.22-.11l-.16-.12a.27.27,0,0,0-.15-.05.24.24,0,0,0-.15,0,.32.32,0,0,0-.1.1l-.25.38a1.14,1.14,0,0,0,.23.2,1.57,1.57,0,0,0,.29.16,1.69,1.69,0,0,0,.34.1,1.55,1.55,0,0,0,.37,0,1.9,1.9,0,0,0,.7-.12,1.35,1.35,0,0,0,.53-.32,1.4,1.4,0,0,0,.46-1,.9.9,0,0,0-.12-.48,1.07,1.07,0,0,0-.3-.3,2,2,0,0,0-.38-.2l-.39-.15a1.09,1.09,0,0,1-.3-.18.31.31,0,0,1-.12-.26.48.48,0,0,1,.17-.36A.77.77,0,0,1,295.79,332Z" transform="translate(-130.43 -122.9)"/><path d="M300.72,330.69a.75.75,0,0,1,.28-.18,1.14,1.14,0,0,1,.39-.06,1.08,1.08,0,0,1,.38.06,1.46,1.46,0,0,1,.28.14l.2.15a.27.27,0,0,0,.16.06.18.18,0,0,0,.13,0,.26.26,0,0,0,.11-.12l.32-.43a1.44,1.44,0,0,0-.28-.27,1.94,1.94,0,0,0-.34-.21,1.8,1.8,0,0,0-.41-.14,2.3,2.3,0,0,0-.45,0,2.15,2.15,0,0,0-.83.16,2.12,2.12,0,0,0-.62.42,1.75,1.75,0,0,0-.4.61,2,2,0,0,0-.14.71,1.53,1.53,0,0,0,.09.56,1.27,1.27,0,0,0,.25.37,1.4,1.4,0,0,0,.34.26l.4.17.39.14a1.6,1.6,0,0,1,.35.15.73.73,0,0,1,.24.22.54.54,0,0,1,.09.33.94.94,0,0,1-.25.7.93.93,0,0,1-.71.26,1.15,1.15,0,0,1-.33,0l-.25-.1a.91.91,0,0,1-.19-.13l-.16-.12-.14-.1a.2.2,0,0,0-.13,0,.31.31,0,0,0-.13,0,.36.36,0,0,0-.11.1l-.37.49a1.57,1.57,0,0,0,.32.31,1.63,1.63,0,0,0,.4.24,2.27,2.27,0,0,0,.46.16,2.72,2.72,0,0,0,.49.05,2.23,2.23,0,0,0,.88-.16,1.93,1.93,0,0,0,.66-.45,1.77,1.77,0,0,0,.42-.66,2.15,2.15,0,0,0,.15-.8,1.35,1.35,0,0,0-.09-.52,1.16,1.16,0,0,0-.25-.36,1.33,1.33,0,0,0-.35-.26l-.39-.18-.4-.16a1.61,1.61,0,0,1-.35-.16,1,1,0,0,1-.25-.21.54.54,0,0,1-.09-.31.88.88,0,0,1,.06-.33A.65.65,0,0,1,300.72,330.69Z" transform="translate(-130.43 -122.9)"/><path d="M303.45,332.55a2.49,2.49,0,0,0-.2.6,2.82,2.82,0,0,0-.08.65,2.23,2.23,0,0,0,.11.7,1.57,1.57,0,0,0,.3.54,1.42,1.42,0,0,0,.48.35,1.57,1.57,0,0,0,.63.12,2.29,2.29,0,0,0,.47,0,1.44,1.44,0,0,0,.4-.13,2,2,0,0,0,.38-.24,4.51,4.51,0,0,0,.39-.38l-.25-.3-.08-.07-.1,0a.19.19,0,0,0-.12,0l-.11.07-.13.1-.16.1a.66.66,0,0,1-.21.08,1,1,0,0,1-.26,0,.69.69,0,0,1-.55-.24,1.12,1.12,0,0,1-.2-.7,2.3,2.3,0,0,1,.1-.71,1.85,1.85,0,0,1,.25-.55,1.36,1.36,0,0,1,.37-.35.85.85,0,0,1,.43-.12.78.78,0,0,1,.29,0l.18.09.13.09a.19.19,0,0,0,.12,0,.2.2,0,0,0,.11,0l.08-.06.31-.38a1.36,1.36,0,0,0-.5-.43,1.48,1.48,0,0,0-.7-.15,1.87,1.87,0,0,0-.59.1,2,2,0,0,0-.53.26,2.32,2.32,0,0,0-.43.4A2.78,2.78,0,0,0,303.45,332.55Z" transform="translate(-130.43 -122.9)"/><path d="M306.79,335.45h1l.26-2.15a2.29,2.29,0,0,1,.22-.5,2,2,0,0,1,.29-.39,1.36,1.36,0,0,1,.31-.24.68.68,0,0,1,.32-.09.35.35,0,0,1,.34.18,1,1,0,0,1,0,.58l-.31,2.61h1l.31-2.61a2.12,2.12,0,0,0,0-.67,1.15,1.15,0,0,0-.18-.48.84.84,0,0,0-.34-.31,1,1,0,0,0-.47-.1,1.43,1.43,0,0,0-.71.19,2,2,0,0,0-.65.57l.31-2.54h-1Z" transform="translate(-130.43 -122.9)"/><path d="M314.42,331.73a1.35,1.35,0,0,0-.5-.34,1.81,1.81,0,0,0-.63-.11,1.84,1.84,0,0,0-.83.19,2.36,2.36,0,0,0-.69.53,2.5,2.5,0,0,0-.46.8,2.64,2.64,0,0,0-.18,1,2.07,2.07,0,0,0,.12.73,1.5,1.5,0,0,0,.34.54,1.22,1.22,0,0,0,.5.33,1.59,1.59,0,0,0,.62.12,1.86,1.86,0,0,0,.84-.2,2.2,2.2,0,0,0,.69-.53,2.57,2.57,0,0,0,.46-.79,2.71,2.71,0,0,0,.17-1,2.07,2.07,0,0,0-.12-.73A1.54,1.54,0,0,0,314.42,331.73Zm-.61,1.94a1.87,1.87,0,0,1-.22.56,1.24,1.24,0,0,1-.34.38.77.77,0,0,1-.44.14.58.58,0,0,1-.52-.24,1.27,1.27,0,0,1-.17-.73,2.93,2.93,0,0,1,.08-.67,2.1,2.1,0,0,1,.21-.55,1.17,1.17,0,0,1,.35-.38.77.77,0,0,1,.45-.14.59.59,0,0,1,.51.23,1.3,1.3,0,0,1,.17.74A2.84,2.84,0,0,1,313.81,333.67Z" transform="translate(-130.43 -122.9)"/><path d="M316,332a2.52,2.52,0,0,0-.47.8,2.86,2.86,0,0,0-.17,1,2.07,2.07,0,0,0,.12.73,1.63,1.63,0,0,0,.33.54,1.36,1.36,0,0,0,.5.33,1.64,1.64,0,0,0,.63.12,1.86,1.86,0,0,0,.84-.2,2.06,2.06,0,0,0,.68-.53,2.59,2.59,0,0,0,.47-.79,2.94,2.94,0,0,0,.17-1,2.07,2.07,0,0,0-.12-.73,1.54,1.54,0,0,0-.33-.54,1.43,1.43,0,0,0-.5-.34,1.81,1.81,0,0,0-.63-.11,1.84,1.84,0,0,0-.83.19A2.23,2.23,0,0,0,316,332Zm1.43,0a.63.63,0,0,1,.52.23,1.31,1.31,0,0,1,.16.74,2.84,2.84,0,0,1-.07.66,1.87,1.87,0,0,1-.22.56,1.24,1.24,0,0,1-.34.38.77.77,0,0,1-.45.14.58.58,0,0,1-.51-.24,1.27,1.27,0,0,1-.17-.73,2.46,2.46,0,0,1,.08-.67,2.1,2.1,0,0,1,.21-.55,1.15,1.15,0,0,1,.34-.38A.82.82,0,0,1,317.39,332Z" transform="translate(-130.43 -122.9)"/><polygon points="189.07 212.55 190.05 212.55 190.77 206.61 189.79 206.61 189.07 212.55"/><path d="M169.84,310.73a1.42,1.42,0,0,1-.54.23,1.52,1.52,0,0,1-.6,0,1.84,1.84,0,0,1-.62-.29,1.64,1.64,0,0,1-.51-.51,2.18,2.18,0,0,1-.24-.52c-.05-.16-.09-.3-.12-.43a.39.39,0,0,0-.14-.26.64.64,0,0,0-.18-.06.58.58,0,0,0-.19,0l-.76.26a2.46,2.46,0,0,0,.11.65,2.59,2.59,0,0,0,.27.62,2.79,2.79,0,0,0,.42.57,3.33,3.33,0,0,0,.56.49,3.21,3.21,0,0,0,1.19.53,2.93,2.93,0,0,0,1.18,0,2.74,2.74,0,0,0,1.06-.45,3.12,3.12,0,0,0,.85-.85,1.78,1.78,0,0,0,.32-.71,1.47,1.47,0,0,0,0-.66,2.32,2.32,0,0,0-.21-.61c-.11-.19-.22-.38-.35-.57l-.36-.54a3.3,3.3,0,0,1-.29-.51,1.28,1.28,0,0,1-.11-.49.77.77,0,0,1,.16-.48,1.45,1.45,0,0,1,.39-.39,1.13,1.13,0,0,1,.48-.19,1.42,1.42,0,0,1,.54,0,1.79,1.79,0,0,1,.58.27,1.64,1.64,0,0,1,.44.43,2.14,2.14,0,0,1,.22.42c.05.13.09.25.12.35a.36.36,0,0,0,.13.21.32.32,0,0,0,.17.06,1,1,0,0,0,.21,0l.66-.25a2.65,2.65,0,0,0-.1-.55,2.61,2.61,0,0,0-.24-.54,2.48,2.48,0,0,0-.37-.5,2.63,2.63,0,0,0-.5-.43,2.85,2.85,0,0,0-2.22-.51,2.66,2.66,0,0,0-1,.4,2.85,2.85,0,0,0-.76.75,2.14,2.14,0,0,0-.35.74,1.69,1.69,0,0,0,0,.67,1.86,1.86,0,0,0,.22.61,6.42,6.42,0,0,0,.34.56c.13.17.25.35.37.52a2.32,2.32,0,0,1,.29.5,1.25,1.25,0,0,1,.11.5.88.88,0,0,1-.18.5A1.79,1.79,0,0,1,169.84,310.73Z" transform="translate(-130.43 -122.9)"/><path d="M175.59,309.55a.46.46,0,0,0-.23-.25l-.57-.31L170,315.64l1.1.61,1.51-2.08a1.83,1.83,0,0,0,.31.68,1.86,1.86,0,0,0,.61.53,2.32,2.32,0,0,0,.77.25,2.64,2.64,0,0,0,.84,0,3.56,3.56,0,0,0,.85-.29,4.32,4.32,0,0,0,.81-.5,4.61,4.61,0,0,0,.72-.68,4.92,4.92,0,0,0,.58-.83,3.83,3.83,0,0,0,.38-.92,2.11,2.11,0,0,0,0-.78,1.44,1.44,0,0,0-.25-.63,1.76,1.76,0,0,0-.54-.46,2.1,2.1,0,0,0-.61-.21,2.49,2.49,0,0,0-.67,0,4.14,4.14,0,0,0-.72.17,3.92,3.92,0,0,0-.73.33l.57-.89A.44.44,0,0,0,175.59,309.55Zm-.07,1.67a2.34,2.34,0,0,1,.68-.17,1,1,0,0,1,.55.11.75.75,0,0,1,.41.62,1.76,1.76,0,0,1-.29,1,4.21,4.21,0,0,1-.39.58,4.56,4.56,0,0,1-.48.5,3.43,3.43,0,0,1-.54.4,2.83,2.83,0,0,1-.57.25,1.85,1.85,0,0,1-.57.06,1.16,1.16,0,0,1-.53-.16,1.93,1.93,0,0,1-.45-.37,1.24,1.24,0,0,1-.26-.58l.9-1.24a6,6,0,0,1,.77-.6A4.07,4.07,0,0,1,175.52,311.22Z" transform="translate(-130.43 -122.9)"/><path d="M183.54,313.45a2.3,2.3,0,0,0-.7-.46,2.7,2.7,0,0,0-.9-.25,2.88,2.88,0,0,0-.88.05,2.83,2.83,0,0,0-.83.29,3.82,3.82,0,0,0-.75.51,4.34,4.34,0,0,0-1.12,1.51,3.1,3.1,0,0,0-.29,1,2.26,2.26,0,0,0,.1.91,2,2,0,0,0,.45.77,2.66,2.66,0,0,0,.8.56,3.72,3.72,0,0,0,.71.24,3.23,3.23,0,0,0,.69.07,3.57,3.57,0,0,0,.71-.1,5.81,5.81,0,0,0,.79-.24l-.13-.5a.32.32,0,0,0-.17-.2.46.46,0,0,0-.33,0l-.41.09a2.23,2.23,0,0,1-.53,0,2,2,0,0,1-.68-.18,1.23,1.23,0,0,1-.74-.76,1.77,1.77,0,0,1,.17-1.19l0-.07,0-.06a12.8,12.8,0,0,0,1.87.49,4.64,4.64,0,0,0,1.25.06,1.58,1.58,0,0,0,.79-.31,1.79,1.79,0,0,0,.46-.61,1.27,1.27,0,0,0,.1-.5,1.46,1.46,0,0,0-.12-.57A1.79,1.79,0,0,0,183.54,313.45Zm-.67,1.2a1,1,0,0,1-.24.31.9.9,0,0,1-.47.15,3.2,3.2,0,0,1-.82-.06,10,10,0,0,1-1.31-.33,3.54,3.54,0,0,1,.53-.56,2.56,2.56,0,0,1,.6-.37,1.68,1.68,0,0,1,.62-.13,1.36,1.36,0,0,1,.62.13,1,1,0,0,1,.31.2.8.8,0,0,1,.16.23.45.45,0,0,1,0,.23A.59.59,0,0,1,182.87,314.65Z" transform="translate(-130.43 -122.9)"/><path d="M188.94,315.66a2.31,2.31,0,0,0-.71-.43,2.77,2.77,0,0,0-.91-.2,2.59,2.59,0,0,0-.88.09,2.79,2.79,0,0,0-.82.34,3.76,3.76,0,0,0-.72.54,4.23,4.23,0,0,0-.61.72,4.78,4.78,0,0,0-.44.84,3.1,3.1,0,0,0-.23,1,2.19,2.19,0,0,0,.14.9,2,2,0,0,0,.49.74,2.4,2.4,0,0,0,.83.52,3.61,3.61,0,0,0,.72.21,2.66,2.66,0,0,0,.69,0,3,3,0,0,0,.71-.13,6.09,6.09,0,0,0,.77-.28l-.16-.49a.29.29,0,0,0-.17-.2.47.47,0,0,0-.33,0l-.41.1a2.09,2.09,0,0,1-.53.06,1.87,1.87,0,0,1-.68-.15,1.22,1.22,0,0,1-.78-.72A1.76,1.76,0,0,1,185,318l0-.08a.21.21,0,0,1,0-.06,12.35,12.35,0,0,0,1.88.4,4.33,4.33,0,0,0,1.26,0,1.47,1.47,0,0,0,1.19-1,1.19,1.19,0,0,0,.08-.51,1.21,1.21,0,0,0-.15-.57A1.65,1.65,0,0,0,188.94,315.66Zm-.61,1.23a.77.77,0,0,1-.22.32.94.94,0,0,1-.45.17,3.32,3.32,0,0,1-.83,0,10.41,10.41,0,0,1-1.33-.27,3.67,3.67,0,0,1,.51-.59,2.52,2.52,0,0,1,.57-.39,1.74,1.74,0,0,1,.62-.17,1.54,1.54,0,0,1,.63.1,1,1,0,0,1,.31.19.73.73,0,0,1,.18.22.59.59,0,0,1,.05.23A.45.45,0,0,1,188.33,316.89Z" transform="translate(-130.43 -122.9)"/><path d="M193.69,317.21a2.65,2.65,0,0,0-.87-.15,3.08,3.08,0,0,0-.86.12,3.18,3.18,0,0,0-.8.36,4.23,4.23,0,0,0-.71.57,4.37,4.37,0,0,0-1,1.62,3.27,3.27,0,0,0-.19,1,2.43,2.43,0,0,0,.14.9,1.93,1.93,0,0,0,.49.71,2.16,2.16,0,0,0,.84.48,3.69,3.69,0,0,0,.65.17,2.22,2.22,0,0,0,.63,0,2.68,2.68,0,0,0,.65-.16,4.33,4.33,0,0,0,.74-.34l-.17-.48a.31.31,0,0,0-.18-.19.37.37,0,0,0-.29,0l-.36.12a2,2,0,0,1-.47.08,1.35,1.35,0,0,1-.62-.1,1.06,1.06,0,0,1-.71-.67,1.79,1.79,0,0,1,.07-1.15,4.18,4.18,0,0,1,.5-1,3.09,3.09,0,0,1,.67-.68,2,2,0,0,1,.74-.35,1.36,1.36,0,0,1,.75.05,1.3,1.3,0,0,1,.41.21l.24.24.14.21a.31.31,0,0,0,.14.12.22.22,0,0,0,.14,0l.13,0,.55-.33a2.16,2.16,0,0,0-.49-.85A2.29,2.29,0,0,0,193.69,317.21Z" transform="translate(-130.43 -122.9)"/><path d="M197.67,315.71l-3.53,8.22,1.23.37,1.27-3a3.83,3.83,0,0,1,.58-.67,3.54,3.54,0,0,1,.62-.46,2,2,0,0,1,.6-.24,1.22,1.22,0,0,1,.54,0,.59.59,0,0,1,.47.46,1.78,1.78,0,0,1-.2.93L197.71,325l1.24.36,1.53-3.6a3.69,3.69,0,0,0,.28-.95,2,2,0,0,0,0-.78,1.25,1.25,0,0,0-.35-.57,1.49,1.49,0,0,0-.62-.34,2.21,2.21,0,0,0-1.17,0,3.31,3.31,0,0,0-1.23.64l1.56-3.65Z" transform="translate(-130.43 -122.9)"/><path d="M209.54,325.75a1.3,1.3,0,0,1-.41.43,1.46,1.46,0,0,1-.56.22,2,2,0,0,1-.68,0,1.8,1.8,0,0,1-.67-.27,2,2,0,0,1-.43-.38l-.27-.35a.41.41,0,0,0-.24-.18.41.41,0,0,0-.19,0,.56.56,0,0,0-.17.09l-.59.54a2.17,2.17,0,0,0,.36.55,2.73,2.73,0,0,0,.49.47,3.06,3.06,0,0,0,.61.36,4.1,4.1,0,0,0,.7.23,3.41,3.41,0,0,0,1.31,0,3,3,0,0,0,1.09-.45,3.06,3.06,0,0,0,.8-.84,3.41,3.41,0,0,0,.45-1.11,1.87,1.87,0,0,0,0-.78,1.59,1.59,0,0,0-.26-.61,2,2,0,0,0-.44-.47,5.3,5.3,0,0,0-.54-.39l-.54-.35a4.8,4.8,0,0,1-.47-.36,1.59,1.59,0,0,1-.3-.41.87.87,0,0,1,0-.51,1.45,1.45,0,0,1,.21-.51,1.13,1.13,0,0,1,.36-.36,1.25,1.25,0,0,1,.52-.19,1.56,1.56,0,0,1,.64,0,1.52,1.52,0,0,1,.56.22,1.61,1.61,0,0,1,.37.3l.25.27a.32.32,0,0,0,.2.14.27.27,0,0,0,.18,0,.47.47,0,0,0,.18-.12l.51-.49a2.85,2.85,0,0,0-.31-.46,2.78,2.78,0,0,0-.43-.41,3.16,3.16,0,0,0-.54-.31,2.91,2.91,0,0,0-.63-.2,3,3,0,0,0-1.22,0,2.89,2.89,0,0,0-1,.42,2.78,2.78,0,0,0-.74.75,3,3,0,0,0-.4,1,2,2,0,0,0,0,.83,1.8,1.8,0,0,0,.25.62,2.43,2.43,0,0,0,.44.47,6.45,6.45,0,0,0,.54.37l.54.34a2.47,2.47,0,0,1,.47.34,1.27,1.27,0,0,1,.29.42.85.85,0,0,1,0,.53A1.72,1.72,0,0,1,209.54,325.75Z" transform="translate(-130.43 -122.9)"/><path d="M214.42,327.51a.13.13,0,0,0-.09-.05.2.2,0,0,0-.1,0l-.15.06-.19,0a.72.72,0,0,1-.25,0,.45.45,0,0,1-.32-.2.58.58,0,0,1,0-.42.11.11,0,0,1,0,0s0-.06,0-.11l.07-.23.12-.38.87-2.7,1.52.3.28-.9-1.51-.29.62-1.92-.67-.13a.24.24,0,0,0-.19,0,.34.34,0,0,0-.14.15l-.81,1.64-.94,0-.15.5a.25.25,0,0,0,0,.21.18.18,0,0,0,.14.1l.61.12-.89,2.77-.14.44c0,.12-.06.21-.08.28s0,.12,0,.16a.37.37,0,0,0,0,.09,1.27,1.27,0,0,0,.19,1,1.36,1.36,0,0,0,.89.52,2.38,2.38,0,0,0,.8,0,2.61,2.61,0,0,0,.77-.27l-.15-.67A.3.3,0,0,0,214.42,327.51Z" transform="translate(-130.43 -122.9)"/><path d="M220.65,323.7a1.26,1.26,0,0,0-.6-.22,1.53,1.53,0,0,0-.65.12,2.53,2.53,0,0,0-.66.44,4.68,4.68,0,0,0-.65.72l.28-1.12a.44.44,0,0,0-.05-.35.48.48,0,0,0-.3-.16l-.63-.11-1.85,5.89,1.24.23.82-2.63a3.7,3.7,0,0,1,1.25-1.69,1.21,1.21,0,0,1,1.35.05Z" transform="translate(-130.43 -122.9)"/><path d="M220.85,329.79a2.55,2.55,0,0,0,.91.36,4.91,4.91,0,0,0,.74.06,3.1,3.1,0,0,0,.69-.1,3.36,3.36,0,0,0,.67-.27,5.39,5.39,0,0,0,.7-.42l-.25-.45a.28.28,0,0,0-.21-.16.53.53,0,0,0-.32.05l-.38.19a4.42,4.42,0,0,1-.51.16,1.87,1.87,0,0,1-.7,0,1.21,1.21,0,0,1-.9-.56,1.74,1.74,0,0,1-.12-1.19.19.19,0,0,0,0-.08.19.19,0,0,0,0-.07,12.84,12.84,0,0,0,1.93,0,4.08,4.08,0,0,0,1.23-.25,1.53,1.53,0,0,0,.69-.49,1.65,1.65,0,0,0,.3-.69,1.32,1.32,0,0,0,0-.52,1.41,1.41,0,0,0-.26-.52,1.69,1.69,0,0,0-.5-.45,2.23,2.23,0,0,0-.79-.28,2.65,2.65,0,0,0-.93,0,3.09,3.09,0,0,0-.85.25,3.22,3.22,0,0,0-.73.49,4,4,0,0,0-.61.68,3.82,3.82,0,0,0-.45.82,4.56,4.56,0,0,0-.27.91,3.13,3.13,0,0,0,0,1.05,2.16,2.16,0,0,0,.31.86A1.9,1.9,0,0,0,220.85,329.79Zm1-4a2.33,2.33,0,0,1,.49-.5,1.71,1.71,0,0,1,.57-.29,1.53,1.53,0,0,1,.64,0,1.35,1.35,0,0,1,.34.12,1,1,0,0,1,.21.18.49.49,0,0,1,.1.22.5.5,0,0,1,0,.21.77.77,0,0,1-.57.61,3.06,3.06,0,0,1-.82.14,10,10,0,0,1-1.35,0A3.34,3.34,0,0,1,221.85,325.81Z" transform="translate(-130.43 -122.9)"/><path d="M228.73,331.24a.39.39,0,0,0,.31.18l.66.13,1.85-5.68a3.16,3.16,0,0,0-.71-.36,5.16,5.16,0,0,0-.77-.21,4,4,0,0,0-1.08-.06,4.25,4.25,0,0,0-1,.24,4,4,0,0,0-.9.5,4.64,4.64,0,0,0-.76.71,4.51,4.51,0,0,0-.57.89,4.37,4.37,0,0,0-.34,1,3.92,3.92,0,0,0-.06.94,2,2,0,0,0,.21.73,1.41,1.41,0,0,0,.42.51,1.49,1.49,0,0,0,.62.26,1.85,1.85,0,0,0,.62,0,2.27,2.27,0,0,0,.61-.19,3.33,3.33,0,0,0,.58-.37A5.52,5.52,0,0,0,229,330l-.27,1A.61.61,0,0,0,228.73,331.24Zm-.32-1.61a2.1,2.1,0,0,1-.57.38.91.91,0,0,1-.55.08.7.7,0,0,1-.55-.44,1.86,1.86,0,0,1,0-1,3.29,3.29,0,0,1,.4-1.07,3.35,3.35,0,0,1,.7-.83,2.66,2.66,0,0,1,.89-.48,2.12,2.12,0,0,1,1-.06l.2.05a1.39,1.39,0,0,1,.19.06l-.62,1.89a5.26,5.26,0,0,1-.51.83A3.91,3.91,0,0,1,228.41,329.63Z" transform="translate(-130.43 -122.9)"/><path d="M239,329.33l-1.16,3.75,1.25.23,1.16-3.74a2.71,2.71,0,0,0,.1-1.73,1.2,1.2,0,0,0-1-.8,2,2,0,0,0-1.22.15,3.33,3.33,0,0,0-1.19,1,2,2,0,0,0-.12-1.19,1.08,1.08,0,0,0-.81-.55,1.84,1.84,0,0,0-1.12.14,3.39,3.39,0,0,0-1.11.84l.21-.84a.42.42,0,0,0-.05-.34.48.48,0,0,0-.3-.16l-.63-.12-1.85,5.9,1.24.23.95-3.07a4.73,4.73,0,0,1,.48-.74,2.59,2.59,0,0,1,.51-.53,1.7,1.7,0,0,1,.51-.3,1,1,0,0,1,.52,0,.6.6,0,0,1,.3.13.44.44,0,0,1,.14.25,1.09,1.09,0,0,1,0,.4,3.76,3.76,0,0,1-.13.54l-1.17,3.75,1.24.23,1-3.15a4.37,4.37,0,0,1,.47-.71,2.7,2.7,0,0,1,.5-.51,1.85,1.85,0,0,1,.51-.28,1.07,1.07,0,0,1,.5,0,.52.52,0,0,1,.3.13.41.41,0,0,1,.14.25,1.33,1.33,0,0,1,0,.4A2.7,2.7,0,0,1,239,329.33Z" transform="translate(-130.43 -122.9)"/><path d="M165.73,341c-.06.12-.12.24-.17.36l-.09-.36a3.38,3.38,0,0,0-.11-.34l-2.68-7.05a.7.7,0,0,0-.22-.23.85.85,0,0,0-.32,0h-1.22l-1.4,11.48H161l1-8.24c0-.12,0-.24,0-.38s0-.27,0-.41l2.67,7.05a.53.53,0,0,0,.55.38h.22a.68.68,0,0,0,.63-.38l4.36-7.05c0,.15-.06.29-.09.43a2.71,2.71,0,0,0-.06.38l-1,8.22h1.43l1.42-11.48h-1.41l-.15,0a.94.94,0,0,0-.12.09.92.92,0,0,0-.14.14l-4.38,7.05A2.27,2.27,0,0,0,165.73,341Z" transform="translate(-130.43 -122.9)"/><path d="M178.87,343.5a5.12,5.12,0,0,0,.89-1.59,5.55,5.55,0,0,0,.32-1.93,4.25,4.25,0,0,0-.22-1.43,3.3,3.3,0,0,0-.64-1.06,2.84,2.84,0,0,0-1-.66,3.23,3.23,0,0,0-1.22-.22,3.7,3.7,0,0,0-1.65.38,4.27,4.27,0,0,0-1.33,1.07,5.16,5.16,0,0,0-.88,1.58,5.65,5.65,0,0,0-.33,1.94,4.26,4.26,0,0,0,.23,1.44,3,3,0,0,0,.63,1.06,2.62,2.62,0,0,0,1,.66,3.23,3.23,0,0,0,1.22.23,3.4,3.4,0,0,0,1.64-.4A4,4,0,0,0,178.87,343.5Zm-1.81-.06a1.73,1.73,0,0,1-1,.31,1.42,1.42,0,0,1-1.21-.55,2.65,2.65,0,0,1-.42-1.63,5.53,5.53,0,0,1,.18-1.42,4.33,4.33,0,0,1,.5-1.2,2.66,2.66,0,0,1,.78-.82,1.73,1.73,0,0,1,1-.31,1.44,1.44,0,0,1,1.22.54,2.63,2.63,0,0,1,.41,1.63,5.47,5.47,0,0,1-.17,1.42,4.38,4.38,0,0,1-.5,1.2A2.63,2.63,0,0,1,177.06,343.44Z" transform="translate(-130.43 -122.9)"/><path d="M187.54,337.49a2.84,2.84,0,0,0-1-.66,3.23,3.23,0,0,0-1.22-.22,3.7,3.7,0,0,0-1.65.38,4.13,4.13,0,0,0-1.32,1.07,5,5,0,0,0-.89,1.58,5.65,5.65,0,0,0-.33,1.94,4.26,4.26,0,0,0,.23,1.44,3,3,0,0,0,.63,1.06,2.62,2.62,0,0,0,1,.66,3.23,3.23,0,0,0,1.22.23,3.47,3.47,0,0,0,1.65-.4,4.1,4.1,0,0,0,1.32-1.07,4.93,4.93,0,0,0,.89-1.59,5.55,5.55,0,0,0,.33-1.93,4.25,4.25,0,0,0-.23-1.43A3.3,3.3,0,0,0,187.54,337.49Zm-.87,3.92a4.09,4.09,0,0,1-.5,1.2,2.71,2.71,0,0,1-.78.83,1.78,1.78,0,0,1-1,.31,1.42,1.42,0,0,1-1.22-.55,2.65,2.65,0,0,1-.42-1.63,5.53,5.53,0,0,1,.18-1.42,4.33,4.33,0,0,1,.5-1.2,2.92,2.92,0,0,1,.78-.82,1.73,1.73,0,0,1,1-.31,1.44,1.44,0,0,1,1.22.54,2.63,2.63,0,0,1,.42,1.63A5.47,5.47,0,0,1,186.67,341.41Z" transform="translate(-130.43 -122.9)"/><path d="M191.64,336.84a.54.54,0,0,0-.4-.13h-.78l-1,8.14H191l.45-3.68a5.14,5.14,0,0,1,1.26-2.58,1.62,1.62,0,0,1,1.81-.28l.28-1.5a1.55,1.55,0,0,0-.86-.14,2,2,0,0,0-.83.34,3.44,3.44,0,0,0-.77.76,7.59,7.59,0,0,0-.69,1.15l.12-1.68A.52.52,0,0,0,191.64,336.84Z" transform="translate(-130.43 -122.9)"/><path d="M165.21,359.5a4,4,0,0,0,1.41-.87,3.56,3.56,0,0,0,.86-1.32,4.47,4.47,0,0,0,.29-1.67,3.52,3.52,0,0,0-.21-1.25,2.62,2.62,0,0,0-.66-1,3.08,3.08,0,0,0-1.13-.63,5.11,5.11,0,0,0-1.6-.22h-3.25l-1.4,11.48h1.63l.52-4.24h1.61A5.74,5.74,0,0,0,165.21,359.5Zm-2.81-5.65H164a2.17,2.17,0,0,1,1.6.53,1.91,1.91,0,0,1,.53,1.41,3.16,3.16,0,0,1-.18,1.09,2.15,2.15,0,0,1-.51.85,2.5,2.5,0,0,1-.84.57,3.24,3.24,0,0,1-1.16.2h-1.61Z" transform="translate(-130.43 -122.9)"/><path d="M175,356.61a1.7,1.7,0,0,0-.65-.6,2,2,0,0,0-.91-.2,3,3,0,0,0-1.54.45,4.73,4.73,0,0,0-1.37,1.35l.64-5.36H169.6l-1.43,11.8h1.56l.52-4.27a7.09,7.09,0,0,1,.52-1.11,4.06,4.06,0,0,1,.65-.84,2.84,2.84,0,0,1,.71-.54,1.5,1.5,0,0,1,.71-.2.83.83,0,0,1,.82.44,2.37,2.37,0,0,1,.11,1.35l-.61,5.17h1.56l.61-5.17a4.77,4.77,0,0,0,0-1.31A2.59,2.59,0,0,0,175,356.61Z" transform="translate(-130.43 -122.9)"/><path d="M183.08,356.69a2.77,2.77,0,0,0-1-.65,3.1,3.1,0,0,0-1.23-.23,3.69,3.69,0,0,0-1.64.38,4.27,4.27,0,0,0-1.33,1.07,5.4,5.4,0,0,0-.89,1.58,5.89,5.89,0,0,0-.32,1.94,4.26,4.26,0,0,0,.23,1.44,3,3,0,0,0,.63,1.06,2.66,2.66,0,0,0,1,.66,3.28,3.28,0,0,0,1.23.23,3.46,3.46,0,0,0,1.64-.4,4.14,4.14,0,0,0,1.33-1.07,5.12,5.12,0,0,0,.89-1.59,5.79,5.79,0,0,0,.32-1.93,4,4,0,0,0-.23-1.43A3.11,3.11,0,0,0,183.08,356.69Zm-.87,3.92a4.38,4.38,0,0,1-.5,1.2,2.63,2.63,0,0,1-.79.83,1.78,1.78,0,0,1-1,.31,1.41,1.41,0,0,1-1.21-.55,2.63,2.63,0,0,1-.42-1.63,5.53,5.53,0,0,1,.18-1.42,4,4,0,0,1,.5-1.2,2.66,2.66,0,0,1,.78-.82,1.81,1.81,0,0,1,1-.31,1.46,1.46,0,0,1,1.22.54,2.7,2.7,0,0,1,.41,1.63A5.94,5.94,0,0,1,182.21,360.61Z" transform="translate(-130.43 -122.9)"/><polygon points="54.62 241.16 56.16 241.16 57.59 229.35 56.05 229.35 54.62 241.16"/><path d="M195.69,357.75a3.11,3.11,0,0,0-.63-1.06,2.72,2.72,0,0,0-1-.65,3,3,0,0,0-1.22-.23,3.7,3.7,0,0,0-1.65.38,4.24,4.24,0,0,0-1.32,1.07,5,5,0,0,0-.89,1.58,5.64,5.64,0,0,0-.32,1.94,4.27,4.27,0,0,0,.22,1.44,3.18,3.18,0,0,0,.63,1.06,2.7,2.7,0,0,0,1,.66,3.23,3.23,0,0,0,1.22.23,3.47,3.47,0,0,0,1.65-.4,4,4,0,0,0,1.32-1.07,4.93,4.93,0,0,0,.89-1.59,5.55,5.55,0,0,0,.33-1.93A4.25,4.25,0,0,0,195.69,357.75Zm-1.51,2.86a4.09,4.09,0,0,1-.5,1.2,2.71,2.71,0,0,1-.78.83,1.78,1.78,0,0,1-1,.31,1.42,1.42,0,0,1-1.22-.55,2.63,2.63,0,0,1-.42-1.63,5.53,5.53,0,0,1,.18-1.42,4.33,4.33,0,0,1,.5-1.2,2.92,2.92,0,0,1,.78-.82,1.83,1.83,0,0,1,1-.31,1.44,1.44,0,0,1,1.22.54,2.63,2.63,0,0,1,.42,1.63A5.47,5.47,0,0,1,194.18,360.61Z" transform="translate(-130.43 -122.9)"/><path d="M204.36,356.73l.07-.52H202.2a2.43,2.43,0,0,0-.72-.3,3.12,3.12,0,0,0-.82-.1,3.74,3.74,0,0,0-1.42.26,3.2,3.2,0,0,0-1,.71,3,3,0,0,0-.63,1,3.3,3.3,0,0,0-.22,1.15,2.82,2.82,0,0,0,.18,1.05,2.17,2.17,0,0,0,.49.74,2,2,0,0,0,.72.46,2.49,2.49,0,0,0,.87.15,3.23,3.23,0,0,0,.87-.11,2.5,2.5,0,0,0,.68-.32,3.32,3.32,0,0,0-.23.58,1.82,1.82,0,0,0-.07.5,1.72,1.72,0,0,0,0,.34,2.47,2.47,0,0,0,.1.29,9.6,9.6,0,0,0-1.1-.09,8.47,8.47,0,0,0-1.13.08,6,6,0,0,0-1.05.27,3.27,3.27,0,0,0-.87.46,2.05,2.05,0,0,0-.59.69,1.82,1.82,0,0,0-.22.92,1.55,1.55,0,0,0,.22.82,1.92,1.92,0,0,0,.63.64,3.21,3.21,0,0,0,1,.42,5.19,5.19,0,0,0,1.29.15,5.28,5.28,0,0,0,1.6-.23,4,4,0,0,0,1.2-.63,2.72,2.72,0,0,0,.75-.92,2.45,2.45,0,0,0,.28-1.09,2,2,0,0,0-.16-.8,5.22,5.22,0,0,0-.34-.62c-.13-.2-.24-.39-.35-.57a1.24,1.24,0,0,1-.15-.6,1.87,1.87,0,0,1,.08-.55,4.31,4.31,0,0,1,.22-.49c.09-.16.19-.32.29-.47s.19-.33.28-.5a3.32,3.32,0,0,0,.22-.58,3,3,0,0,0,.1-.71,3.44,3.44,0,0,0,0-.46,2.6,2.6,0,0,0-.1-.4l1-.19A.46.46,0,0,0,204.36,356.73Zm-3,8.12a1.65,1.65,0,0,1-.46.53,2.68,2.68,0,0,1-.72.35,3,3,0,0,1-.92.13,2.43,2.43,0,0,1-1.33-.29.94.94,0,0,1-.46-.84,1,1,0,0,1,.23-.61,1.6,1.6,0,0,1,.71-.47,4.45,4.45,0,0,1,1.23-.22,7.86,7.86,0,0,1,1.78.14,1.37,1.37,0,0,1,.07.29,1.9,1.9,0,0,1,0,.35A1.35,1.35,0,0,1,201.41,364.85Zm.23-5.83a2.18,2.18,0,0,1-.32.67,2.07,2.07,0,0,1-.54.48,1.46,1.46,0,0,1-.73.18,1.17,1.17,0,0,1-.93-.37,1.5,1.5,0,0,1-.33-1.05,2.87,2.87,0,0,1,.11-.77,2.1,2.1,0,0,1,.33-.65,1.68,1.68,0,0,1,.53-.46,1.53,1.53,0,0,1,.72-.17,1.25,1.25,0,0,1,.94.35,1.42,1.42,0,0,1,.34,1A2.46,2.46,0,0,1,201.64,359Z" transform="translate(-130.43 -122.9)"/><path d="M210.83,356a.67.67,0,0,0-.19.22l-2.42,4.88c-.06.12-.11.24-.16.35l-.15.36c0-.12,0-.24,0-.35s0-.23-.06-.35l-1.24-4.88a.46.46,0,0,0-.12-.23.43.43,0,0,0-.28-.08h-1.29l2.09,7.61-1.77,3.24h1.15a.58.58,0,0,0,.54-.35l5.45-10.5h-1.25A.52.52,0,0,0,210.83,356Z" transform="translate(-130.43 -122.9)"/></svg>