<svg xmlns="http://www.w3.org/2000/svg" viewBox="0 0 192.7 138.21"><defs><style>.cls-1,.cls-2,.cls-5{fill:none;stroke:#000;}.cls-1,.cls-2{stroke-miterlimit:10;}.cls-2{stroke-linecap:round;}.cls-3{font-size:13.91px;font-family:Lato-SemiboldItalic, Lato;font-weight:600;font-style:italic;}.cls-4{letter-spacing:-0.01em;}.cls-5{stroke-linejoin:bevel;}</style></defs><title>chapter-connectives</title><g id="Layer_3" data-name="Layer 3"><path class="cls-1" d="M219.61,356.47l3.8-13.26s.25-1,2.65-1c2.74,0,2.88,1.45,2.88,1.45l2.61,12.82s5.4.92,5.4,2.85V367s0,3.23-11.1,3.23-11.11-2.87-11.11-2.87v-8C214.74,357.06,219.61,356.47,219.61,356.47Z" transform="translate(-206.18 -318.31)"/><path class="cls-1" d="M216.5,368.94V372s.2,1.57,9.35,1.57c9.76,0,9.76-1.39,9.76-1.39v-3.66" transform="translate(-206.18 -318.31)"/><path class="cls-1" d="M216.5,372l-6.79,5.52a8.18,8.18,0,0,0-2.24,3.15,12.22,12.22,0,0,0-.79,4.19V432s0,4.2,18.32,4.2c19.51,0,19.47-4.87,19.47-4.87V383.55a9.25,9.25,0,0,0-.61-4.34,8.54,8.54,0,0,0-2.27-2.59l-6-4.41" transform="translate(-206.18 -318.31)"/><path class="cls-1" d="M244.47,383.55s0,3.43-18.41,3.43c-19.38,0-19.38-2.09-19.38-2.09" transform="translate(-206.18 -318.31)"/><path class="cls-1" d="M244.47,415.52s0,5.1-18.9,5.22-18.89-4.55-18.89-4.55" transform="translate(-206.18 -318.31)"/><line class="cls-1" x1="27.4" y1="68.43" x2="0.5" y2="91.57"/><line class="cls-1" x1="12.8" y1="102.24" x2="38.29" y2="79.01"/><path class="cls-1" d="M237,359.35s-.47,2.95-11.36,2.95c-11.31,0-10.85-2.95-10.85-2.95" transform="translate(-206.18 -318.31)"/><path class="cls-2" d="M230.85,357.74s.32,1.61-5.26,1.61-5.9-1.49-5.9-1.49" transform="translate(-206.18 -318.31)"/><line class="cls-2" x1="14.94" y1="37.9" x2="16.76" y2="31.42"/><line class="cls-2" x1="20.63" y1="37.9" x2="20.63" y2="33.9"/><line class="cls-2" x1="11.31" y1="44.52" x2="11.31" y2="50.99"/><line class="cls-2" x1="14.51" y1="46.13" x2="14.51" y2="50.87"/><path class="cls-2" d="M224.51,364.65v5.4" transform="translate(-206.18 -318.31)"/><line class="cls-2" x1="22.1" y1="46.5" x2="22.1" y2="51.36"/><line class="cls-2" x1="26.15" y1="46.5" x2="26.15" y2="50.56"/><line class="cls-2" x1="28.89" y1="43.99" x2="28.89" y2="48.93"/><text class="cls-3" transform="translate(11.95 98.49) rotate(-41.42)"><tspan class="cls-4">G</tspan><tspan x="9.35" y="0">lue</tspan></text><path class="cls-1" d="M206.68,431.09s0,4.44,18.47,4.45c19.32,0,19.36-5.19,19.36-5.19" transform="translate(-206.18 -318.31)"/><path class="cls-1" d="M216.5,371.33s.36,1.73,9.56,1.78,9.55-1.57,9.55-1.57" transform="translate(-206.18 -318.31)"/><path class="cls-1" d="M277.42,374l23-16a4.73,4.73,0,0,0,.7-6.55c-3.27-4.73-6.92-2.09-6.92-2.09L269.05,366.7a4.06,4.06,0,0,0-.88,5.86,3.5,3.5,0,0,0,5.47.85l23.68-16.56a2.61,2.61,0,0,0,.43-3.65,2.39,2.39,0,0,0-3.41-.82l-17.62,12.41" transform="translate(-206.18 -318.31)"/><path class="cls-1" d="M315.13,392.85c.63,1.83,2,2.62,3,2.11.68-.34.8-2.06.17-3.83s-1.53-2.72-2.64-2.36C314.37,389.19,314.5,391,315.13,392.85Z" transform="translate(-206.18 -318.31)"/><polygon points="86.38 83.5 85.05 82.98 85.75 81.61 108.56 73.1 109.25 74.98 86.38 83.5"/><ellipse class="cls-1" cx="54.22" cy="123.83" rx="6.38" ry="6.42"/><path class="cls-1" d="M265.69,445.73s-.9.8-5.3-3.59-3.31-5.48-3.31-5.48" transform="translate(-206.18 -318.31)"/><path class="cls-1" d="M263.45,447.77s-1.28-.19-5.05-3.85-3.45-5.14-3.45-5.14" transform="translate(-206.18 -318.31)"/><path class="cls-5" d="M266.21,439.31,278.1,427a2,2,0,0,0-.34-2.5,1.87,1.87,0,0,0-2.72-.23L262.81,436.2s4.49-2.09,6.25.16" transform="translate(-206.18 -318.31)"/><path class="cls-5" d="M265.43,433.64s3.21-2.39,6.41-.16" transform="translate(-206.18 -318.31)"/><path class="cls-5" d="M268.5,430.65a4.6,4.6,0,0,1,6,.09" transform="translate(-206.18 -318.31)"/><path class="cls-5" d="M271.11,428.11s3-2.05,5.56.37" transform="translate(-206.18 -318.31)"/><path class="cls-5" d="M273.55,425.73s3.43-1.84,4.55,1.27" transform="translate(-206.18 -318.31)"/><path class="cls-5" d="M254.22,443.76s1.92,4.8,6.8,3.9c5.34-1,5.76-5.17,5.76-5.17" transform="translate(-206.18 -318.31)"/><path class="cls-5" d="M265.69,438.55c-.05-.07,12.41-12.45,12.41-12.45" transform="translate(-206.18 -318.31)"/><path d="M333.1,456.31a10.41,10.41,0,0,1-7.83-1.33,9.6,9.6,0,0,1-3.89-6.77,14.41,14.41,0,0,1,1.16-8.8,23.52,23.52,0,0,1,6.2-7.7,17.65,17.65,0,0,1-3.07-7.41,14.15,14.15,0,0,1,.36-6.72,11.13,11.13,0,0,1,3.29-5.11,11.42,11.42,0,0,1,5.82-2.64,9.47,9.47,0,0,1,6.61,1,7.31,7.31,0,0,1,3.38,5.37,12.67,12.67,0,0,1-1.22,8,25,25,0,0,1-5.61,7.2l4.92,6.9a23.42,23.42,0,0,0,1.29-3.79c.33-1.36.62-2.83.86-4.42l7.95-1.33a57.37,57.37,0,0,1-2.09,8.17,44.63,44.63,0,0,1-3.21,7.49l5.89,7.81-9.41,1.58L342.58,451a27.31,27.31,0,0,1-4.17,3.44A13.82,13.82,0,0,1,333.1,456.31Zm.5-7.19a5.84,5.84,0,0,0,2.84-1.26,15.13,15.13,0,0,0,2.17-2.21l-6.31-9.19a11.74,11.74,0,0,0-2.53,4.22,10.13,10.13,0,0,0-.33,5,4.45,4.45,0,0,0,1.41,2.78A3.18,3.18,0,0,0,333.6,449.12Zm1.11-22.31a13.36,13.36,0,0,0,2.61-3.89,7.74,7.74,0,0,0,.57-4.5,3.59,3.59,0,0,0-.86-1.93,1.8,1.8,0,0,0-1.75-.52,2.34,2.34,0,0,0-1.72,1.16,5.8,5.8,0,0,0-.69,2.29A10.19,10.19,0,0,0,333,422,12.55,12.55,0,0,0,334.71,426.81Z" transform="translate(-206.18 -318.31)"/><path class="cls-1" d="M393,377.4s1-2.57-10-4.28-12.07.84-12.07.84l-1.82,5.36a2,2,0,0,0,.4,1.9,3.12,3.12,0,0,0,2.22,1,62.21,62.21,0,0,1,9.38.46c6.34.9,13.28,5,12,12.42-1.21,6.77-4.12,9.4-11.14,10-9.61.84-14.77-4-14.77-4s-3-2.31-4.89.5c-1.7,2.49,1.13,4.11,1.13,4.11s9.3,5.05,19,3.66,15.34-6.17,15.95-15.1a15.24,15.24,0,0,0-4.35-12,3.87,3.87,0,0,1-1.18-1.86A8.7,8.7,0,0,1,393,377.4Z" transform="translate(-206.18 -318.31)"/><path class="cls-1" d="M366.05,400.54a9.75,9.75,0,0,1-3.26-8.61c.7-4.28,4.83-6.81,9.85-7.85a28.81,28.81,0,0,1,17.42,2.45" transform="translate(-206.18 -318.31)"/><path class="cls-1" d="M361.74,403.41s-5.61-4-3.72-12.87c1.79-8.4,11-10.49,11-10.49" transform="translate(-206.18 -318.31)"/><path class="cls-1" d="M380.61,372.79l.48-3.41s.11-1,1.5-.79,1.25.92,1.25.92l-.34,3.69" transform="translate(-206.18 -318.31)"/><path class="cls-1" d="M380.9,370.72s-1.75-1.24-1.3-4.55,2.45-3.68,2.45-3.68" transform="translate(-206.18 -318.31)"/><path class="cls-1" d="M381.56,366.93a2.73,2.73,0,0,0,2.7-1.31c1-1.92.44-3.81-2.2-5.62s-4.26.23-4.26.23c-.64.74-.53,1.11-.53,1.11" transform="translate(-206.18 -318.31)"/><path class="cls-1" d="M382.76,364.26s-1.39-.06-1.54,2.16.25,2.38.25,2.38" transform="translate(-206.18 -318.31)"/><path class="cls-1" d="M381.59,365a.63.63,0,0,0,1-.11c.52-.59.07-1.71-.52-2.43-2-2.45-3.14-.77-3.14-.77" transform="translate(-206.18 -318.31)"/><path class="cls-1" d="M384.55,365a6.41,6.41,0,0,1-.74,4.15" transform="translate(-206.18 -318.31)"/><path class="cls-1" d="M384.69,363.29s1.38.62,1.24,3.55c-.17,3.63-2.21,4-2.21,4" transform="translate(-206.18 -318.31)"/><path class="cls-1" d="M380.39,361.25s-1.14,1.09-3.31,0c-1.95-1-1.59-2-1.59-2" transform="translate(-206.18 -318.31)"/><path class="cls-1" d="M381.57,362.12s-1.78,2.24-5.21.55-2.58-4-2.58-4" transform="translate(-206.18 -318.31)"/><path class="cls-1" d="M377.08,361.21s1.45-3.1-2.17-4.09c-4.26-1.17-4.53,2.2-4.53,2.2" transform="translate(-206.18 -318.31)"/><path class="cls-1" d="M376.44,357.8a4.49,4.49,0,0,1,3.34,1.42" transform="translate(-206.18 -318.31)"/><path class="cls-1" d="M375.93,360.21s.1-1.31-1.65-1.55-2,.79-2,.79" transform="translate(-206.18 -318.31)"/><path class="cls-1" d="M372.74,359.4s.6-.16.7.79a1.25,1.25,0,0,1-.71,1.2,23,23,0,0,1-5.89-.16,1.23,1.23,0,0,1-.66-1.26.66.66,0,0,1,.78-.62A23.69,23.69,0,0,0,372.74,359.4Z" transform="translate(-206.18 -318.31)"/><path class="cls-1" d="M370.39,361.51s.74.86,3.08,1.14c2.07.24,2.43-.23,2.43-.23" transform="translate(-206.18 -318.31)"/><path class="cls-1" d="M373.1,361.12a3.82,3.82,0,0,0,1.44.24" transform="translate(-206.18 -318.31)"/><path class="cls-1" d="M368.93,359.53s.56-1.1-1.33-1.91-3.18.81-3.75,2.45c-.81,2.35-.38,3.63.58,4.29a2,2,0,0,0,1.53.36" transform="translate(-206.18 -318.31)"/><path class="cls-1" d="M377.16,363a5,5,0,0,0,1.06,2c1,1,1.45,1.25,1.38,1.12" transform="translate(-206.18 -318.31)"/><path class="cls-1" d="M379,363.3a2.8,2.8,0,0,0,1,1.39" transform="translate(-206.18 -318.31)"/><path class="cls-1" d="M365.18,361.22a1.91,1.91,0,0,1,1.12.19,3.46,3.46,0,0,1,1,4.36c-1,2.33-3,2.9-4.46,2.41a2.61,2.61,0,0,1-1.74-3.34" transform="translate(-206.18 -318.31)"/><path class="cls-1" d="M365.23,362.71s1.46.56.56,2.6c-.49,1.12-1.3,1.7-2.38,1.31a1,1,0,0,1-.74-1.22" transform="translate(-206.18 -318.31)"/><path class="cls-1" d="M365.91,363.47s-1.2-.41-.67-2.5c.41-1.63,1.45-1.61,1.45-1.61" transform="translate(-206.18 -318.31)"/><path class="cls-1" d="M368.82,361.46a4.47,4.47,0,0,1-1.24,3" transform="translate(-206.18 -318.31)"/><path class="cls-1" d="M365.23,366.16s.08-2.06-3.13-2.94c-3.59-1-4.43,1.4-4.43,1.4" transform="translate(-206.18 -318.31)"/><path class="cls-1" d="M363.41,366.62s.37-.87-1.54-1.59c-2.07-.78-2.38.24-2.38.24" transform="translate(-206.18 -318.31)"/><path class="cls-1" d="M360.49,365.32c-.56-.39-1.55-.12-3.06-1.17-1-.7-1.34-1.46-1.73-1.69a.91.91,0,0,0-1.27.1,1,1,0,0,0-.22,1.38,6.15,6.15,0,0,0,2.24,2.17,7.53,7.53,0,0,0,3.5,1.34,1.19,1.19,0,0,0,.54-2.13Z" transform="translate(-206.18 -318.31)"/><path class="cls-1" d="M368.72,358.39a4.65,4.65,0,0,1,1.83,0" transform="translate(-206.18 -318.31)"/><path class="cls-1" d="M357.51,366.7s.21,1.95,3.32,2.5,3.82-1,3.82-1" transform="translate(-206.18 -318.31)"/><path class="cls-1" d="M360.15,367.39a2.42,2.42,0,0,0,2,.47" transform="translate(-206.18 -318.31)"/><path class="cls-1" d="M356.06,362.8s.73-1.17-.59-2.91c-1.14-1.51-2-1.17-2-1.17" transform="translate(-206.18 -318.31)"/><path class="cls-1" d="M354.42,364.28a3.6,3.6,0,0,1-2.2-1.73c-1.31-2-.55-2.86-.55-2.86" transform="translate(-206.18 -318.31)"/><path class="cls-1" d="M352.91,357.07s2.1-.86,4,1.81c2.07,3,.34,5.13.34,5.13" transform="translate(-206.18 -318.31)"/><path class="cls-1" d="M355.79,365.66s-2.93,1.69-5.25-2.12c-2.21-3.62.14-5.57.14-5.57" transform="translate(-206.18 -318.31)"/><line class="cls-1" x1="148.8" y1="43.95" x2="150.14" y2="43.81"/><path class="cls-1" d="M357.77,362.83c.49-.06,1,.56,1,.56" transform="translate(-206.18 -318.31)"/><path class="cls-1" d="M339.05,356.84s.36,2.73,10.84-1.08,10.17-6.55,10.17-6.55l-1-5.58a2,2,0,0,0-1.26-1.47,3.1,3.1,0,0,0-2.43.17,63.53,63.53,0,0,1-8.45,4.13c-6,2.26-13.91,2-16.46-5.13-1.78-4.95-.92-10.22,4.94-14.14,8-5.36,14.81-2.08,14.81-2.08a3.59,3.59,0,0,0,4-2.8c.5-2-3-3.06-3-3.06s-5.5-1.93-15.12,2.35c-10.23,4.56-13.46,12.9-9.93,23a13.06,13.06,0,0,0,9.62,8.45,3.88,3.88,0,0,1,1.92,1.06A8.75,8.75,0,0,1,339.05,356.84Z" transform="translate(-206.18 -318.31)"/><path class="cls-1" d="M352.4,324.88s4.27.66,5.79,6.5c1,3.74-1.28,7.61-5.36,10.48a29.24,29.24,0,0,1-15.57,5.54" transform="translate(-206.18 -318.31)"/><path class="cls-1" d="M354.16,321.14s5.82,1.95,7.62,9.34c1.65,6.75-3,12.48-3,12.48" transform="translate(-206.18 -318.31)"/><path class="cls-1" d="M349.5,355.9l2.93,5.11a.91.91,0,0,0,1-.11,1,1,0,0,0,.49-1l-1.85-5" transform="translate(-206.18 -318.31)"/><circle class="cls-1" cx="167.77" cy="56.97" r="1.07"/><circle class="cls-1" cx="183.3" cy="59.29" r="1.31"/><circle class="cls-1" cx="135.34" cy="37.21" r="1.12"/><circle class="cls-1" cx="151.44" cy="31.06" r="0.98"/></g><g id="Layer_4" data-name="Layer 4"><path d="M245,383.6a9.65,9.65,0,0,0-.66-4.6,9,9,0,0,0-2.43-2.78L236.11,372v-3.12c1.26-.84,1.34-1.68,1.34-1.86v-7.62c0-2-4-3-5.48-3.28l-2.53-12.44c0-.08-.22-1.9-3.38-1.9-2.71,0-3.1,1.22-3.14,1.35L219.22,356c-1.21.19-4.88,1-5,3.25h0v.05s0,0,0,0v8c0,.29.15,1.16,1.76,1.94v2.51l-6.61,5.37a8.65,8.65,0,0,0-2.4,3.37,12.79,12.79,0,0,0-.82,4.37V432c0,.48.53,4.71,18.82,4.71,12.72,0,17.41-2.05,19.11-3.76a2.48,2.48,0,0,0,.86-1.62v-.61a1.78,1.78,0,0,0,0-.32h0V415.52h0V383.61ZM219.67,357l.33,0,3.88-13.56s.29-.64,2.18-.64c2.2,0,2.38,1,2.39,1l2.67,13.16.34.05c2,.34,4.9,1.31,5,2.32-.14.3-1.47,2.49-10.85,2.49-7.14,0-9.36-1.18-10.05-1.88a1.07,1.07,0,0,1-.3-.44v-.13C215.24,357.84,218.53,357.11,219.67,357Zm-4.43,10.36V361c1.64,1.19,5.19,1.82,10.35,1.82,6.66,0,9.58-1.11,10.86-2.06V367s-.22,1.31-3.67,2.11a.5.5,0,0,0,.05-.21v-4.06a.5.5,0,0,0-.5-.5.5.5,0,0,0-.5.5v4.06a.49.49,0,0,0,.16.37,28,28,0,0,1-3.22.37v-4.8a.5.5,0,0,0-.5-.5.5.5,0,0,0-.5.5v4.85c-.6,0-1.24,0-1.92,0H225v-5a.5.5,0,0,0-1,0v5c-1.11,0-2.08-.1-2.93-.19a.55.55,0,0,0,.11-.3v-4.74a.5.5,0,0,0-1,0v4.74a.41.41,0,0,0,0,.19,18.32,18.32,0,0,1-2.24-.43v-6.12a.5.5,0,1,0-1,0v5.79C215.39,368,215.25,367.33,215.24,367.33Zm10.61,3.37c4.8,0,7.61-.61,9.26-1.34v2c-.24.23-1.75,1.27-9.05,1.22s-8.85-1.19-9.06-1.42v-1.51A28.84,28.84,0,0,0,225.85,370.7ZM210,377.93l6.41-5.21c.82.64,3.12,1.38,9.41,1.38,3.91,0,8.45-.23,9.83-1.22l5.61,4.14a8.2,8.2,0,0,1,2.12,2.41,8.57,8.57,0,0,1,.56,4.07h0s-.86,3-17.91,3c-16,0-18.54-1.45-18.88-1.74a11.84,11.84,0,0,1,.75-3.86A7.84,7.84,0,0,1,210,377.93ZM225.2,435h0c-17.29,0-18-3.89-18-4V417.88c1.74,1.58,6.23,3.36,17.67,3.36h.73c12.17-.08,16.7-2.2,18.39-3.85v13.13C243.69,431.35,241.5,435,225.2,435Zm.37-14.8c-2,0-3.79,0-5.38-.12L244,398.45v17.06C244,415.61,243.35,420.12,225.57,420.24Zm6.56-32.91-24.95,21.46V385.86c2.34,1.05,8.83,1.62,18.88,1.62C228.35,387.48,230.36,387.43,232.13,387.33Zm-24.95,22.78,26.6-22.88c6.16-.46,8.94-1.45,10.19-2.3V397.1L218.8,420c-11.2-.81-11.62-3.82-11.62-3.84Z" transform="translate(-206.18 -318.31)"/><path d="M225.59,359.85c2.92,0,4.76-.44,5.46-1.29a1.13,1.13,0,0,0,.29-.92.52.52,0,0,0-.59-.42.48.48,0,0,0-.4.56s-.28,1.07-4.76,1.07c-4.77,0-5.4-1.1-5.41-1.1h0a.5.5,0,1,0-1,.21C219.3,358.41,220,359.85,225.59,359.85Z" transform="translate(-206.18 -318.31)"/><path d="M221,356.69a.34.34,0,0,0,.14,0,.5.5,0,0,0,.48-.36l1.82-6.48a.5.5,0,1,0-1-.27l-1.82,6.48A.5.5,0,0,0,221,356.69Z" transform="translate(-206.18 -318.31)"/><path d="M226.8,356.71a.5.5,0,0,0,.5-.5v-4a.5.5,0,0,0-1,0v4A.5.5,0,0,0,226.8,356.71Z" transform="translate(-206.18 -318.31)"/><path d="M235.06,367.74a.5.5,0,0,0,.5-.5V362.3a.5.5,0,0,0-.5-.5.5.5,0,0,0-.5.5v4.94A.51.51,0,0,0,235.06,367.74Z" transform="translate(-206.18 -318.31)"/><path d="M215.74,413.16a5.12,5.12,0,0,0,1.39,1.14,4.06,4.06,0,0,0,1.54.51,3.63,3.63,0,0,0,1.56-.16,4,4,0,0,0,1.46-.85,7.73,7.73,0,0,0,.76-.75,6.43,6.43,0,0,0,.57-.78,4.81,4.81,0,0,0,.42-.81,6,6,0,0,0,.27-.88l-2.24-3.27-2.24,2,.51.74a.26.26,0,0,0,.19.12.33.33,0,0,0,.22-.09l.94-.83,1.18,1.72a4.91,4.91,0,0,1-.46.88,4.35,4.35,0,0,1-.75.85,2.64,2.64,0,0,1-1,.56,2.38,2.38,0,0,1-1.06.09,3,3,0,0,1-1.08-.39,4.41,4.41,0,0,1-1-.89,5.44,5.44,0,0,1-1-1.53,4.17,4.17,0,0,1-.37-1.53,3.32,3.32,0,0,1,.28-1.43,3.42,3.42,0,0,1,.89-1.21,3.86,3.86,0,0,1,.65-.47,2.68,2.68,0,0,1,.57-.24,3.82,3.82,0,0,1,.5-.11,2.92,2.92,0,0,0,.44-.06.42.42,0,0,0,.32-.17.49.49,0,0,0,.08-.36l-.06-.82a4.89,4.89,0,0,0-.77,0,4.09,4.09,0,0,0-.81.15,4.39,4.39,0,0,0-.85.37,4.75,4.75,0,0,0-.88.64,5.19,5.19,0,0,0-1.31,1.73,5.07,5.07,0,0,0-.48,2,5.73,5.73,0,0,0,.38,2.12A6.53,6.53,0,0,0,215.74,413.16Z" transform="translate(-206.18 -318.31)"/><polygon points="20.34 91.09 14.46 82.54 13.36 83.52 19.24 92.06 20.34 91.09"/><path d="M227.06,407a2.13,2.13,0,0,0,.79.43,1.44,1.44,0,0,0,.77,0,1.75,1.75,0,0,0,.71-.4,2.52,2.52,0,0,0,.76-1.22,3.78,3.78,0,0,0,.09-1.73l.63.81a.47.47,0,0,0,.75,0l.56-.5-4.05-5.88-1.12,1,2.1,3a5.9,5.9,0,0,1,.31,1,4.08,4.08,0,0,1,.07.9,2.77,2.77,0,0,1-.15.75,1.23,1.23,0,0,1-.35.52.68.68,0,0,1-.72.18,1.88,1.88,0,0,1-.8-.77l-2.58-3.73-1.12,1,2.58,3.73A4.13,4.13,0,0,0,227.06,407Z" transform="translate(-206.18 -318.31)"/><path d="M230.91,400.3a4.83,4.83,0,0,0,.63.9,3.76,3.76,0,0,0,.94.79,2.84,2.84,0,0,0,1,.33,2.55,2.55,0,0,0,1-.12,2.81,2.81,0,0,0,1-.58,4.86,4.86,0,0,0,.59-.63,3.25,3.25,0,0,0,.4-.7,4.68,4.68,0,0,0,.24-.8,6.53,6.53,0,0,0,.11-.95l-.58-.09a.36.36,0,0,0-.3.07.66.66,0,0,0-.18.34c0,.14-.06.3-.11.48a2.34,2.34,0,0,1-.22.58,2.11,2.11,0,0,1-.51.62,1.44,1.44,0,0,1-1.16.43,2,2,0,0,1-1.16-.75l-.07-.07,0-.07a15,15,0,0,0,1.41-1.73,4.74,4.74,0,0,0,.65-1.3,1.71,1.71,0,0,0-.37-1.75,1.57,1.57,0,0,0-.48-.35,1.78,1.78,0,0,0-.67-.15,2.21,2.21,0,0,0-.77.14,2.46,2.46,0,0,0-.81.52,3.15,3.15,0,0,0-.69.83,3.44,3.44,0,0,0-.38,1,3.84,3.84,0,0,0-.08,1,4.85,4.85,0,0,0,.61,2Zm.74-3.4a1.63,1.63,0,0,1,.43-.59,1,1,0,0,1,.36-.23.78.78,0,0,1,.32-.06.58.58,0,0,1,.26.06.78.78,0,0,1,.2.14,1,1,0,0,1,.21.4,1.15,1.15,0,0,1-.06.56,4.21,4.21,0,0,1-.45.85,14.34,14.34,0,0,1-1,1.23,4.15,4.15,0,0,1-.34-.83,2.9,2.9,0,0,1-.1-.81A1.79,1.79,0,0,1,231.65,396.9Z" transform="translate(-206.18 -318.31)"/><path d="M270.74,374.87a2.69,2.69,0,0,0,.4,0,4.58,4.58,0,0,0,2.78-1.08l23.7-16.58a3.06,3.06,0,0,0,.54-4.32,2.86,2.86,0,0,0-4.11-.95l-17.62,12.41a.51.51,0,0,0-.12.7.5.5,0,0,0,.7.12l17.61-12.41a1.87,1.87,0,0,1,2.72.7,2.08,2.08,0,0,1-.31,2.95L273.3,373a3.52,3.52,0,0,1-2.46.84,3.29,3.29,0,0,1-2.25-1.61,3.55,3.55,0,0,1,.74-5.16l25.13-17.35a4.12,4.12,0,0,1,2.79-.58,5.47,5.47,0,0,1,3.42,2.56,4.22,4.22,0,0,1-.57,5.85l-23,16a.5.5,0,0,0,.58.82l23-16a5.26,5.26,0,0,0,.79-7.22,6.38,6.38,0,0,0-4.08-3,5,5,0,0,0-3.53.76l-25.11,17.34a5,5,0,0,0-1.52,1.77,4.4,4.4,0,0,0,.51,4.78A4.23,4.23,0,0,0,270.74,374.87Z" transform="translate(-206.18 -318.31)"/><path d="M315.5,388.29a1.87,1.87,0,0,0-1.07.92,3.84,3.84,0,0,0-.15,2.37l-22.36,8.33-.7,1.38,1.34.52,22.31-8.32a3.62,3.62,0,0,0,1.8,1.95,2.14,2.14,0,0,0,.81.17,1.93,1.93,0,0,0,.88-.21c1.09-.54,1-2.7.41-4.44C317.75,388.05,316.28,388,315.5,388.29Zm2.41,6.22a1.09,1.09,0,0,1-.87,0,3,3,0,0,1-1.43-1.83,4.45,4.45,0,0,1-.28-3,.8.8,0,0,1,.48-.42,1,1,0,0,1,.29,0c.81,0,1.38,1.1,1.73,2.09C318.46,393.09,318.17,394.38,317.91,394.51Z" transform="translate(-206.18 -318.31)"/><path d="M276.52,423.28a2.74,2.74,0,0,0-1.83.64l-12,11.7a6.86,6.86,0,0,0-9.17,6.52,7.11,7.11,0,0,0,.24,1.8h0v0a6.87,6.87,0,0,0,13.49-1.27.82.82,0,0,0,0-.16h0c0-.14,0-.27,0-.4a6.94,6.94,0,0,0-.53-2.66l11.76-12.19a2.54,2.54,0,0,0-.36-3.11A2.38,2.38,0,0,0,276.52,423.28Zm-2.68,2.86a3.72,3.72,0,0,1,2.62-.31,1.65,1.65,0,0,1,.7.5l-1.09,1.08a4.66,4.66,0,0,0-2.95-.56Zm-2.42,2.36a4.23,4.23,0,0,1,3.91-.35l-1.51,1.51a4.59,4.59,0,0,0-3-.54ZM268.84,431a4.15,4.15,0,0,1,4.24-.62l-1.56,1.54-.51.52a5.62,5.62,0,0,0-3.36-.28Zm7.6-6.74a1.32,1.32,0,0,1,.94.55,2.2,2.2,0,0,1,.43.73,2.8,2.8,0,0,0-1-.67,3.49,3.49,0,0,0-1.52-.17l.07-.07A1.76,1.76,0,0,1,276.44,424.28ZM265.75,434a5.53,5.53,0,0,1,4.47-.79l-1.93,1.93a4.45,4.45,0,0,0-1.78-.35,8.06,8.06,0,0,0-1.8.22Zm1.77,1.92c-.86.88-1.42,1.46-1.77,1.85a6.76,6.76,0,0,0-1.72-1.52A6.7,6.7,0,0,1,267.52,436Zm-1.24,6.19c0,.15,0,.31,0,.46a5.31,5.31,0,0,1-1.32,2.54,15.91,15.91,0,0,1-4.18-3.36c-3.27-3.26-3.34-4.55-3.32-4.75a5.84,5.84,0,0,1,3-.81A5.91,5.91,0,0,1,266.28,442.14Zm-11.45-1.92a15.42,15.42,0,0,0,3.23,4.06,33.83,33.83,0,0,0,3.21,2.81l-.34.08c-4.18.77-6-3-6.22-3.53a5.71,5.71,0,0,1-.2-1.5A6.14,6.14,0,0,1,254.83,440.22Zm1.72-2.55c.25.95,1.12,2.45,3.49,4.82a19.82,19.82,0,0,0,4.08,3.36,6.77,6.77,0,0,1-1.61.88,26.77,26.77,0,0,1-3.76-3.17c-3-2.89-3.27-4.32-3.3-4.62A5.78,5.78,0,0,1,256.55,437.67Z" transform="translate(-206.18 -318.31)"/><path d="M351.23,436.9a57.37,57.37,0,0,0,2.09-8.17l-7.95,1.33c-.24,1.59-.53,3.06-.86,4.42a23.42,23.42,0,0,1-1.29,3.79l-4.92-6.9a25,25,0,0,0,5.61-7.2,12.67,12.67,0,0,0,1.22-8,7.31,7.31,0,0,0-3.38-5.37,9.47,9.47,0,0,0-6.61-1,11.42,11.42,0,0,0-5.82,2.64,11.13,11.13,0,0,0-3.29,5.11,14.15,14.15,0,0,0-.36,6.72,17.65,17.65,0,0,0,3.07,7.41,23.52,23.52,0,0,0-6.2,7.7,14.41,14.41,0,0,0-1.16,8.8,9.6,9.6,0,0,0,3.89,6.77,10.41,10.41,0,0,0,7.83,1.33,13.82,13.82,0,0,0,5.31-1.92,27.31,27.31,0,0,0,4.17-3.44l1.92,2.83,9.41-1.58L348,444.39A44.63,44.63,0,0,0,351.23,436.9Zm-18.36-17.48a5.8,5.8,0,0,1,.69-2.29,2.34,2.34,0,0,1,1.72-1.16,1.8,1.8,0,0,1,1.75.52,3.59,3.59,0,0,1,.86,1.93,7.74,7.74,0,0,1-.57,4.5,13.36,13.36,0,0,1-2.61,3.89A12.55,12.55,0,0,1,333,422,10.19,10.19,0,0,1,332.87,419.42Zm3.57,28.44a5.84,5.84,0,0,1-2.84,1.26,3.18,3.18,0,0,1-2.75-.67,4.45,4.45,0,0,1-1.41-2.78,10.13,10.13,0,0,1,.33-5,11.74,11.74,0,0,1,2.53-4.22l6.31,9.19A15.13,15.13,0,0,1,336.44,447.86Z" transform="translate(-206.18 -318.31)"/><path d="M394.31,381.91a3.46,3.46,0,0,1-1-1.59,7.73,7.73,0,0,1,.22-2.79,1.4,1.4,0,0,0-.2-1.1c-.86-1.5-4.07-2.76-9.28-3.65l.15-1.62c.7-.29,2.09-1.25,2.24-4.3.12-2.57-.88-3.58-1.33-3.9a6.16,6.16,0,0,0-2.76-3.38,4.45,4.45,0,0,0-2.36-.86,5.08,5.08,0,0,0-3.45-1.41,5.13,5.13,0,0,0-1.49-.68,4.42,4.42,0,0,0-3.82.33,2.86,2.86,0,0,0-.84.91,5.23,5.23,0,0,0-1.48,0,3.59,3.59,0,0,0-1.11-.7,2.68,2.68,0,0,0-2.2,0,4.54,4.54,0,0,0-2.21,2.76A6.16,6.16,0,0,0,363,363a7,7,0,0,0-.77-.25,5,5,0,0,0-3.34.05,2.52,2.52,0,0,0-.54-.35,5.24,5.24,0,0,0-1.06-3.85c-1.53-2.19-3.24-2.25-4.07-2.11l-.48-1.29c7.79-3.25,7.89-5.58,7.82-6.07l-1-5.57a3,3,0,0,0-.19-.55c.9-1.21,4.4-6.45,2.89-12.64-1.75-7.15-7-9.37-7.85-9.66a6.16,6.16,0,0,0-3-1.92c-.24-.08-5.81-1.95-15.49,2.37-10.31,4.58-13.93,13-10.2,23.58a13.43,13.43,0,0,0,10,8.77,3.44,3.44,0,0,1,1.65.91,7.85,7.85,0,0,1,1.15,2.54,1.43,1.43,0,0,0,.7.88,4.22,4.22,0,0,0,2.15.45,26.25,26.25,0,0,0,7.86-1.77l.79,1.39c-.61.74-1.84,2.79.05,5.9,1.34,2.2,2.9,2.73,4.09,2.73a4.16,4.16,0,0,0,1.54-.3c.15.1.29.21.45.31s.58.34.89.5c.19.64.91,2.16,3.67,2.65a7.65,7.65,0,0,0,1.35.13,3.33,3.33,0,0,0,2.87-1.16,4.56,4.56,0,0,0,2.78-2.7,4.79,4.79,0,0,0,.35-1.32,4.9,4.9,0,0,0,1.18-2.66l.91,0a5.89,5.89,0,0,0,3.23,1.14,8.28,8.28,0,0,0,1.13.08,3.38,3.38,0,0,0,1.37-.22l.22.12c.21.1.41.18.61.26a5.31,5.31,0,0,0,1.1,2,7.43,7.43,0,0,0,1.23,1.1,5.27,5.27,0,0,0,1.29,4.41l-.19,1.34c-8.31-.88-9.54,1.09-9.71,1.54l-1.82,5.37a2.21,2.21,0,0,0-.1.51c-1.78.51-9.39,3.13-11,10.76-1.78,8.35,2.82,12.51,3.76,13.26,0,.05,0,.1,0,.15a4.12,4.12,0,0,0,1.87,2.36,36.44,36.44,0,0,0,15.7,4,25.8,25.8,0,0,0,3.59-.25c10.27-1.48,15.78-6.71,16.38-15.56A15.63,15.63,0,0,0,394.31,381.91Zm-12.58-13.77a6.94,6.94,0,0,1-.05-.7h.2a3.32,3.32,0,0,0,2.21-.8,4.89,4.89,0,0,1-.46,1.74,2.83,2.83,0,0,0-1-.29A2.51,2.51,0,0,0,381.73,368.14Zm3.7-1.32a4.16,4.16,0,0,1-1.13,3.1l0-.32a1,1,0,0,0,0-.37,6.9,6.9,0,0,0,.75-4.24c0-.11.06-.22.08-.33A5,5,0,0,1,385.43,366.82Zm-1.61-1.43a2.16,2.16,0,0,1-2.1,1.05,3.4,3.4,0,0,1,.13-.75l.18,0h0a1.18,1.18,0,0,0,.9-.46c.69-.79.26-2.14-.52-3.08a3.34,3.34,0,0,0-2.55-1.51,1.87,1.87,0,0,0-1.18.54,3,3,0,0,1-.84-.19,3,3,0,0,1,.35-.49c.05-.07,1.23-1.7,3.57-.11S384.75,363.62,383.82,365.39Zm-4-1.54-.1-.15.21-.05Zm-2-4.37a2.85,2.85,0,0,0-.25-1s0,0,0,0a3.87,3.87,0,0,1,1.13.46A3.26,3.26,0,0,0,377.84,359.48Zm-6-1.71a3.53,3.53,0,0,1,3-.17,2.75,2.75,0,0,1,1.9,1.34,2.39,2.39,0,0,1,.11,1.52,3,3,0,0,1-.36-.29c0-.63-.39-1.77-2.08-2a2.27,2.27,0,0,0-2.43.81l-1,0A2.18,2.18,0,0,1,371.8,357.77Zm-4.75,3a.76.76,0,0,1-.38-.73.23.23,0,0,1,.08-.17.13.13,0,0,1,.1,0h0a24,24,0,0,0,5.94.06h0s.09.11.12.36a.8.8,0,0,1-.4.68A25.37,25.37,0,0,1,367.05,360.77Zm2.92-1.95c0,.09,0,.17-.05.23h-.42a1,1,0,0,0-.05-.24Zm-5.64,1.41a3.67,3.67,0,0,1,1.66-2.18,1.74,1.74,0,0,1,1.41,0c.72.31,1,.63,1.06.84a.37.37,0,0,1,0,.09,12.37,12.37,0,0,1-1.43-.15,1,1,0,0,0-.35,0h-.12c-.35,0-1.4.29-1.83,2-.5,2,.39,2.76.8,3a1,1,0,0,1,0,.4,1.52,1.52,0,0,1-.86-.3C363.82,363.33,363.69,362.08,364.33,360.23ZM362,363.7c2.3.63,2.68,1.87,2.74,2.29a1,1,0,0,1-.79.24,1.2,1.2,0,0,0-.09-.29,2.87,2.87,0,0,0-1.79-1.38,3.09,3.09,0,0,0-2.38-.14l-.14.09a4.93,4.93,0,0,1-1-.31C359,363.71,360,363.17,362,363.7Zm-5.49-4.53a4,4,0,0,1,.62,4.07,6.92,6.92,0,0,1-.47-.53,3.33,3.33,0,0,0-.76-3.12,2.9,2.9,0,0,0-2-1.39l-.27-.76A3.29,3.29,0,0,1,356.48,359.17Zm-2.36,3a1.43,1.43,0,0,0-.56,1.13,4.61,4.61,0,0,1-.92-1,5.22,5.22,0,0,1-.44-.82,1.22,1.22,0,0,0,.64.17,1.58,1.58,0,0,0,.92-.31,1.53,1.53,0,0,0,.67-1.56l-.13-.34a3.51,3.51,0,0,1,.77.78,3.16,3.16,0,0,1,.67,1.49l-.64.07A1.55,1.55,0,0,0,354.12,362.17Zm-.65-2.13a.58.58,0,0,1-.28.45.6.6,0,0,1-.41.13l-2.55-4.45c.56-.2,1.09-.41,1.59-.61Zm7.83-29.44c1.3,5.34-1.53,10.08-2.55,11.56a2.4,2.4,0,0,0-.77-.47,3.66,3.66,0,0,0-2.86.21,62.18,62.18,0,0,1-8.36,4.09,18.93,18.93,0,0,1-3.32.92,31,31,0,0,0,9.68-4.64c4.45-3.14,6.53-7.26,5.55-11-1.14-4.43-3.79-6-5.23-6.59a4.22,4.22,0,0,0,1.31-2.24,4,4,0,0,0,.06-.45A12.83,12.83,0,0,1,361.3,330.6Zm-25.83,15.64a8.51,8.51,0,0,1-4.53-5.07c-1.37-3.82-1.66-9.27,4.75-13.56,7.66-5.13,14.25-2.08,14.31-2.05l.14,0a4.41,4.41,0,0,0,2.19-.25v0c.16,0,4,.71,5.39,6.14.86,3.34-1.07,7.05-5.17,9.94a28.71,28.71,0,0,1-15.1,5.43A9.67,9.67,0,0,1,335.47,346.24ZM339.88,357c-.26-.13-.33-.25-.34-.29v0a9.13,9.13,0,0,0-1.37-3,4.4,4.4,0,0,0-2.23-1.22,12.61,12.61,0,0,1-9.21-8.12c-3.54-10.06-.11-18,9.65-22.34,9.29-4.13,14.71-2.36,14.78-2.33s3,.94,2.63,2.46a3.06,3.06,0,0,1-3.42,2.43c-.83-.37-7.44-3.06-15.23,2.16-5.42,3.62-7.24,8.85-5.13,14.72a9.5,9.5,0,0,0,5.05,5.65,10.58,10.58,0,0,0,2.23.72v0h.09a17.52,17.52,0,0,0,9.74-1,65,65,0,0,0,8.52-4.15,2.55,2.55,0,0,1,2-.14,1.52,1.52,0,0,1,.95,1.09l1,5.53s-.09,2.5-9.85,6C342.79,357.81,340.53,357.34,339.88,357ZM351,363.28c-1.37-2.24-.83-3.74-.37-4.45l.5.87c-.21.49-.36,1.5.71,3.12a4.31,4.31,0,0,0,2.31,1.9,5.9,5.9,0,0,0,.68.76C353.9,365.65,352.34,365.54,351,363.28Zm3.68.43c-.25-.48,0-.67.09-.76a.8.8,0,0,1,.35-.2h0a.64.64,0,0,1,.32.14,2.3,2.3,0,0,1,.35.38,6.51,6.51,0,0,0,1.35,1.3,5.86,5.86,0,0,0,2.43,1,2,2,0,0,1,.64.18.62.62,0,0,1,.23.75c-.06.23-.17.38-.6.48a7.94,7.94,0,0,1-3.12-1.27A5.74,5.74,0,0,1,354.65,363.71Zm6.27,5a4.3,4.3,0,0,1-2.25-1,3.87,3.87,0,0,0,1.15.24l.22,0a2.93,2.93,0,0,0,1.65.45l.38,0a3.23,3.23,0,0,0,.6.28c.1,0,.2.05.3.08A5.44,5.44,0,0,1,360.92,368.7Zm5.91-3.13c-.88,2.07-2.61,2.55-3.84,2.14a2.15,2.15,0,0,1-1.52-2.28l.22.07a4.19,4.19,0,0,1,.46.2,1.53,1.53,0,0,0,1.09,1.39,2.56,2.56,0,0,0,.83.15,2.44,2.44,0,0,0,2.18-1.73,2.81,2.81,0,0,0,.18-2.24,1.9,1.9,0,0,0-.78-.89,2.24,2.24,0,0,1,0-.66,1.18,1.18,0,0,1,.43.13A2.94,2.94,0,0,1,366.83,365.57ZM368,363a3.49,3.49,0,0,0-.52-1.12l.81.08A4.15,4.15,0,0,1,368,363Zm5.54-.82a7.24,7.24,0,0,1-1.12-.21,1.89,1.89,0,0,0,.52-.09,1.38,1.38,0,0,0,.25-.17,4.56,4.56,0,0,0,1.14.17c.12.12.26.24.4.36A8,8,0,0,1,373.53,362.15Zm.65-3h0a2,2,0,0,1,.76.25c0,.51.27,1.41,1.87,2.24a4.48,4.48,0,0,0,2.09.57,2.81,2.81,0,0,0,1.55-.43,2.5,2.5,0,0,1,.44.27c-.56.47-2,1.32-4.34.16S374.13,359.78,374.18,359.16Zm4.4,5.55a3.88,3.88,0,0,1-.64-1,5.45,5.45,0,0,0,.67.07,3.44,3.44,0,0,0,.75,1.09l-.12.47A7.32,7.32,0,0,1,378.58,364.71Zm1.51,1.53c.29-2.16,1.27-2.91,1.77-3.15a2.94,2.94,0,0,1,.37.76c-.64.23-1.4.91-1.51,2.54a6.45,6.45,0,0,0,.13,2.33,1.26,1.26,0,0,0-.25.59l0,.21A5.12,5.12,0,0,1,380.09,366.24Zm1.5,3.2a.47.47,0,0,1,.15-.23,1.14,1.14,0,0,1,.79-.12c.59.07.81.27.81.38l-.29,3.15-1.87-.27Zm-23.08,21.2c1.47-6.89,8.26-9.39,10.15-10a2.49,2.49,0,0,0,.48.86,3.58,3.58,0,0,0,2.61,1.2,63.13,63.13,0,0,1,9.3.45,19,19,0,0,1,3.64.89,27.66,27.66,0,0,0-12.15-.49c-5.94,1.23-9.58,4.17-10.25,8.26a9.78,9.78,0,0,0,2.32,7.92,2.17,2.17,0,0,0-.44,0,3.37,3.37,0,0,0-2.3,1.57,3.75,3.75,0,0,0-.5,1C360,401,357.1,397.24,358.51,390.64Zm7.81,9.47a9.26,9.26,0,0,1-3-8.1c.8-4.93,6.27-6.78,9.46-7.44a28.06,28.06,0,0,1,17,2.36,9.68,9.68,0,0,1,1.45,1.57,8.27,8.27,0,0,1,1.41,6.53c-1.18,6.58-3.88,9-10.7,9.6-9.23.81-14.33-3.8-14.42-3.88A5.31,5.31,0,0,0,366.32,400.11Zm31.52-5.82c-.57,8.43-5.65,13.22-15.52,14.64-9.4,1.35-18.58-3.56-18.67-3.6a3.23,3.23,0,0,1-1.37-1.72,2.14,2.14,0,0,1,.41-1.68,2.49,2.49,0,0,1,1.64-1.15,2.17,2.17,0,0,1,.36,0,4.2,4.2,0,0,1,2.14.75h0c.22.21,5.44,5,15.15,4.12,7.21-.63,10.35-3.46,11.59-10.43a9.22,9.22,0,0,0-1.58-7.29c-2.11-2.92-6.15-5.05-10.8-5.71a64.52,64.52,0,0,0-9.46-.46,2.64,2.64,0,0,1-1.83-.85,1.49,1.49,0,0,1-.3-1.41l1.8-5.32s1.28-2.14,11.53-.55c7.29,1.13,9,2.63,9.46,3.22a.71.71,0,0,1,.17.42v0a8.93,8.93,0,0,0-.23,3.26,4.29,4.29,0,0,0,1.34,2.12A14.94,14.94,0,0,1,397.84,394.29Z" transform="translate(-206.18 -318.31)"/><polygon points="166.63 41.59 166.63 41.59 166.62 41.59 166.63 41.59"/><path d="M374.94,374.06a1.55,1.55,0,0,0-1.15-.35,1.57,1.57,0,0,0-1.06.58,1.58,1.58,0,0,0,.23,2.21,1.55,1.55,0,0,0,1,.35h.17a1.57,1.57,0,0,0,1.39-1.73A1.52,1.52,0,0,0,374.94,374.06Zm-.93,1.79a.59.59,0,0,1-.42-.13.56.56,0,0,1-.21-.38.63.63,0,0,1,.12-.42.61.61,0,0,1,.39-.21H374a.58.58,0,0,1,.36.12.61.61,0,0,1,.21.39A.58.58,0,0,1,374,375.85Z" transform="translate(-206.18 -318.31)"/><path d="M391.28,377.41a1.81,1.81,0,0,0-3.6.38,1.82,1.82,0,0,0,1.8,1.62h.19a1.81,1.81,0,0,0,1.61-2Zm-1.72,1a.81.81,0,1,1-.17-1.61h.09a.79.79,0,0,1,.8.72A.81.81,0,0,1,389.56,378.41Z" transform="translate(-206.18 -318.31)"/><path d="M342.54,354.26a1.62,1.62,0,0,0-2.64,1.43,1.65,1.65,0,0,0,.59,1.09,1.62,1.62,0,0,0,1,.37h.18a1.62,1.62,0,0,0,1.09-.6,1.59,1.59,0,0,0,.35-1.19A1.57,1.57,0,0,0,342.54,354.26Zm-.4,1.2a.57.57,0,0,1-.14.45.58.58,0,0,1-.42.23.64.64,0,0,1-.46-.13.66.66,0,0,1-.23-.42.63.63,0,0,1,.14-.46.61.61,0,0,1,.42-.23h.07a.57.57,0,0,1,.39.14.61.61,0,0,1,.23.42Z" transform="translate(-206.18 -318.31)"/><path d="M356.68,350.52a1.45,1.45,0,0,0,.93.33h.16a1.5,1.5,0,0,0,1.32-1.63h0a1.49,1.49,0,0,0-1.63-1.32,1.45,1.45,0,0,0-1,.54,1.47,1.47,0,0,0-.32,1.09A1.45,1.45,0,0,0,356.68,350.52Zm.56-1.45a.49.49,0,0,1,.32-.18h.05a.48.48,0,0,1,.05,1,.48.48,0,0,1-.35-.1.52.52,0,0,1-.18-.33A.49.49,0,0,1,357.24,349.07Z" transform="translate(-206.18 -318.31)"/></g></svg>